<svg width="16" height="16" viewBox="0 0 16 16" fill="none" xmlns="http://www.w3.org/2000/svg">
<path fill-rule="evenodd" clip-rule="evenodd" d="M16 8C16 12.4183 12.4183 16 8 16C3.58172 16 0 12.4183 0 8C0 3.58172 3.58172 0 8 0C12.4183 0 16 3.58172 16 8ZM7.78014 5.03431C7.46772 4.7219 6.96119 4.7219 6.64877 5.03431C6.33635 5.34673 6.33635 5.85327 6.64877 6.16569L8.48308 8L6.64877 9.83432C6.33635 10.1467 6.33635 10.6533 6.64877 10.9657C6.96119 11.2781 7.46772 11.2781 7.78014 10.9657L10.1801 8.56569C10.4926 8.25327 10.4926 7.74673 10.1801 7.43431L7.78014 5.03431Z" fill="#99A2AB"/>
</svg>
