<svg width="16" height="16" viewBox="0 0 16 16" fill="none" xmlns="http://www.w3.org/2000/svg">
<path fill-rule="evenodd" clip-rule="evenodd" d="M8 16C3.58172 16 0 12.4183 0 8C0 3.58172 3.58172 0 8 0C12.4183 0 16 3.58172 16 8C16 12.4183 12.4183 16 8 16ZM10.9657 7.78014C11.2781 7.46772 11.2781 6.96119 10.9657 6.64877C10.6533 6.33635 10.1467 6.33635 9.83431 6.64877L8 8.48308L6.16568 6.64877C5.85327 6.33635 5.34673 6.33635 5.03431 6.64877C4.7219 6.96119 4.7219 7.46772 5.03431 7.78014L7.43431 10.1801C7.74673 10.4926 8.25327 10.4926 8.56569 10.1801L10.9657 7.78014Z" fill="#99A2AB"/>
</svg>
