<svg width="19" height="18" viewBox="0 0 19 18" fill="none" xmlns="http://www.w3.org/2000/svg">
<g clip-path="url(#clip0_4394_18078)">
<path fill-rule="evenodd" clip-rule="evenodd" d="M18.5 9C18.5 13.9706 14.4706 18 9.5 18C4.52944 18 0.5 13.9706 0.5 9C0.5 4.02944 4.52944 0 9.5 0C14.4706 0 18.5 4.02944 18.5 9ZM9.25266 5.6636C8.90118 5.31213 8.33134 5.31213 7.97986 5.6636C7.62839 6.01508 7.62839 6.58492 7.97986 6.9364L10.0435 9L7.97986 11.0636C7.62839 11.4151 7.62839 11.9849 7.97986 12.3364C8.33134 12.6879 8.90118 12.6879 9.25266 12.3364L11.9527 9.6364C12.3041 9.28492 12.3041 8.71508 11.9527 8.3636L9.25266 5.6636Z" fill="#57616A"/>
</g>
<defs>
<clipPath id="clip0_4394_18078">
<rect width="18" height="18" fill="white" transform="translate(0.5)"/>
</clipPath>
</defs>
</svg>
