<svg width="18" height="18" viewBox="0 0 18 18" fill="none" xmlns="http://www.w3.org/2000/svg">
<path d="M9.64286 0H1.92857C1.41708 0 0.926543 0.203188 0.564866 0.564866C0.203188 0.926543 0 1.41708 0 1.92857V17.3571C0 17.5276 0.0677294 17.6912 0.188288 17.8117C0.308848 17.9323 0.472361 18 0.642857 18H3.85714V13.5C3.85714 13.3295 3.92487 13.166 4.04543 13.0454C4.16599 12.9249 4.3295 12.8571 4.5 12.8571H7.07143C7.24192 12.8571 7.40544 12.9249 7.526 13.0454C7.64656 13.166 7.71429 13.3295 7.71429 13.5V18H11.5714V1.92857C11.5714 1.41708 11.3682 0.926543 11.0066 0.564866C10.6449 0.203188 10.1543 0 9.64286 0ZM4.5 10.9286H3.21429C3.04379 10.9286 2.88028 10.8608 2.75972 10.7403C2.63916 10.6197 2.57143 10.4562 2.57143 10.2857C2.57143 10.1152 2.63916 9.9517 2.75972 9.83115C2.88028 9.71059 3.04379 9.64286 3.21429 9.64286H4.5C4.6705 9.64286 4.83401 9.71059 4.95457 9.83115C5.07513 9.9517 5.14286 10.1152 5.14286 10.2857C5.14286 10.4562 5.07513 10.6197 4.95457 10.7403C4.83401 10.8608 4.6705 10.9286 4.5 10.9286ZM4.5 7.71429H3.21429C3.04379 7.71429 2.88028 7.64656 2.75972 7.526C2.63916 7.40544 2.57143 7.24192 2.57143 7.07143C2.57143 6.90093 2.63916 6.73742 2.75972 6.61686C2.88028 6.4963 3.04379 6.42857 3.21429 6.42857H4.5C4.6705 6.42857 4.83401 6.4963 4.95457 6.61686C5.07513 6.73742 5.14286 6.90093 5.14286 7.07143C5.14286 7.24192 5.07513 7.40544 4.95457 7.526C4.83401 7.64656 4.6705 7.71429 4.5 7.71429ZM4.5 4.5H3.21429C3.04379 4.5 2.88028 4.43227 2.75972 4.31171C2.63916 4.19115 2.57143 4.02764 2.57143 3.85714C2.57143 3.68665 2.63916 3.52313 2.75972 3.40257C2.88028 3.28202 3.04379 3.21429 3.21429 3.21429H4.5C4.6705 3.21429 4.83401 3.28202 4.95457 3.40257C5.07513 3.52313 5.14286 3.68665 5.14286 3.85714C5.14286 4.02764 5.07513 4.19115 4.95457 4.31171C4.83401 4.43227 4.6705 4.5 4.5 4.5ZM8.35714 10.9286H7.07143C6.90093 10.9286 6.73742 10.8608 6.61686 10.7403C6.4963 10.6197 6.42857 10.4562 6.42857 10.2857C6.42857 10.1152 6.4963 9.9517 6.61686 9.83115C6.73742 9.71059 6.90093 9.64286 7.07143 9.64286H8.35714C8.52764 9.64286 8.69115 9.71059 8.81171 9.83115C8.93227 9.9517 9 10.1152 9 10.2857C9 10.4562 8.93227 10.6197 8.81171 10.7403C8.69115 10.8608 8.52764 10.9286 8.35714 10.9286ZM8.35714 7.71429H7.07143C6.90093 7.71429 6.73742 7.64656 6.61686 7.526C6.4963 7.40544 6.42857 7.24192 6.42857 7.07143C6.42857 6.90093 6.4963 6.73742 6.61686 6.61686C6.73742 6.4963 6.90093 6.42857 7.07143 6.42857H8.35714C8.52764 6.42857 8.69115 6.4963 8.81171 6.61686C8.93227 6.73742 9 6.90093 9 7.07143C9 7.24192 8.93227 7.40544 8.81171 7.526C8.69115 7.64656 8.52764 7.71429 8.35714 7.71429ZM8.35714 4.5H7.07143C6.90093 4.5 6.73742 4.43227 6.61686 4.31171C6.4963 4.19115 6.42857 4.02764 6.42857 3.85714C6.42857 3.68665 6.4963 3.52313 6.61686 3.40257C6.73742 3.28202 6.90093 3.21429 7.07143 3.21429H8.35714C8.52764 3.21429 8.69115 3.28202 8.81171 3.40257C8.93227 3.52313 9 3.68665 9 3.85714C9 4.02764 8.93227 4.19115 8.81171 4.31171C8.69115 4.43227 8.52764 4.5 8.35714 4.5Z" fill="#07A279"/>
<path d="M16.0715 3.21423H12.8572V6.42852H14.7857C14.9562 6.42852 15.1198 6.49625 15.2403 6.61681C15.3609 6.73737 15.4286 6.90088 15.4286 7.07138C15.4286 7.24187 15.3609 7.40539 15.2403 7.52594C15.1198 7.6465 14.9562 7.71423 14.7857 7.71423H12.8572V9.6428H14.7857C14.9562 9.6428 15.1198 9.71053 15.2403 9.83109C15.3609 9.95165 15.4286 10.1152 15.4286 10.2857C15.4286 10.4562 15.3609 10.6197 15.2403 10.7402C15.1198 10.8608 14.9562 10.9285 14.7857 10.9285H12.8572V12.8571H14.7857C14.9562 12.8571 15.1198 12.9248 15.2403 13.0454C15.3609 13.1659 15.4286 13.3295 15.4286 13.4999C15.4286 13.6704 15.3609 13.834 15.2403 13.9545C15.1198 14.0751 14.9562 14.1428 14.7857 14.1428H12.8572V17.9999H17.3572C17.5277 17.9999 17.6912 17.9322 17.8117 17.8117C17.9323 17.6911 18 17.5276 18 17.3571V5.1428C18 4.63132 17.7968 4.14078 17.4352 3.7791C17.0735 3.41742 16.583 3.21423 16.0715 3.21423Z" fill="#07A279"/>
</svg>
