<svg width="20" height="20" viewBox="0 0 20 20" fill="none" xmlns="http://www.w3.org/2000/svg">
<path fill-rule="evenodd" clip-rule="evenodd" d="M10 20C4.48645 20 0 15.5144 0 10C0 4.48647 4.48645 2.28882e-05 10 2.28882e-05C15.5143 2.28882e-05 20 4.48647 20 10C20 15.5144 15.5143 20 10 20Z" fill="#E4E6E8"/>
<path fill-rule="evenodd" clip-rule="evenodd" d="M14.3028 6.8088C14.7145 7.22049 14.7145 7.88799 14.3028 8.29968L9.41128 13.1912C9.21358 13.389 8.94543 13.5 8.66584 13.5C8.38624 13.5 8.1181 13.389 7.9204 13.1912L5.69696 10.9678C5.28526 10.5561 5.28526 9.88862 5.69696 9.47692C6.10865 9.06523 6.77615 9.06523 7.18784 9.47692L8.66584 10.9549L12.812 6.8088C13.2237 6.3971 13.8912 6.3971 14.3028 6.8088Z" fill="white"/>
</svg>
