<svg width="12" height="12" viewBox="0 0 12 12" fill="none" xmlns="http://www.w3.org/2000/svg">
<path fill-rule="evenodd" clip-rule="evenodd" d="M7.24956 1.2501C7.24956 0.559743 6.68992 9.91821e-05 5.99956 9.91821e-05C5.30921 9.91821e-05 4.74956 0.559741 4.74956 1.2501V4.75005H1.25073C0.560376 4.75005 0.000732422 5.3097 0.000732422 6.00005C0.000732422 6.69041 0.560375 7.25005 1.25073 7.25005H4.74956V10.7501C4.74956 11.4405 5.3092 12.0001 5.99956 12.0001C6.68992 12.0001 7.24956 11.4405 7.24956 10.7501V7.25005H10.7507C11.4411 7.25005 12.0007 6.69041 12.0007 6.00005C12.0007 5.3097 11.4411 4.75005 10.7507 4.75005H7.24956V1.2501Z" fill="white"/>
</svg>
