<svg width="18" height="18" viewBox="0 0 18 18" fill="none" xmlns="http://www.w3.org/2000/svg">
<path d="M14.7191 0.0117188H3.28078C3.085 0.0139729 2.89654 0.0864567 2.74971 0.215974C3.33236 0.420966 3.84499 0.786875 4.22819 1.27129C4.61138 1.75571 4.84946 2.33881 4.91482 2.953C4.92731 3.06158 4.92731 3.17123 4.91482 3.27981V17.1692C4.91443 17.3254 4.95887 17.4785 5.04286 17.6103C5.12685 17.7421 5.24687 17.847 5.38869 17.9127C5.53084 17.9781 5.6888 18.0013 5.84377 17.9796C5.99875 17.9579 6.14422 17.8921 6.2629 17.7901L8.59141 15.7966L10.9199 17.7901C11.0679 17.9167 11.2562 17.9863 11.451 17.9863C11.6457 17.9863 11.8341 17.9167 11.982 17.7901L14.3106 15.7966L16.6391 17.7901C16.7871 17.9167 16.9754 17.9862 17.1701 17.9862C17.2883 17.9854 17.4051 17.9603 17.5133 17.9127C17.6551 17.847 17.7751 17.7421 17.8591 17.6103C17.9431 17.4785 17.9875 17.3254 17.9871 17.1692V3.27981C17.9871 2.41306 17.6428 1.5818 17.0299 0.968919C16.4171 0.356034 15.5858 0.0117188 14.7191 0.0117188ZM13.902 11.45H8.99992C8.78323 11.45 8.57542 11.3639 8.4222 11.2107C8.26898 11.0575 8.1829 10.8497 8.1829 10.633C8.1829 10.4163 8.26898 10.2085 8.4222 10.0553C8.57542 9.90206 8.78323 9.81598 8.99992 9.81598H13.902C14.1187 9.81598 14.3265 9.90206 14.4798 10.0553C14.633 10.2085 14.7191 10.4163 14.7191 10.633C14.7191 10.8497 14.633 11.0575 14.4798 11.2107C14.3265 11.3639 14.1187 11.45 13.902 11.45ZM13.902 8.18194H8.99992C8.78323 8.18194 8.57542 8.09586 8.4222 7.94264C8.26898 7.78941 8.1829 7.5816 8.1829 7.36491C8.1829 7.14823 8.26898 6.94041 8.4222 6.78719C8.57542 6.63397 8.78323 6.54789 8.99992 6.54789H13.902C14.1187 6.54789 14.3265 6.63397 14.4798 6.78719C14.633 6.94041 14.7191 7.14823 14.7191 7.36491C14.7191 7.5816 14.633 7.78941 14.4798 7.94264C14.3265 8.09586 14.1187 8.18194 13.902 8.18194ZM13.902 4.91385H8.99992C8.78323 4.91385 8.57542 4.82777 8.4222 4.67455C8.26898 4.52133 8.1829 4.31352 8.1829 4.09683C8.1829 3.88014 8.26898 3.67233 8.4222 3.51911C8.57542 3.36588 8.78323 3.27981 8.99992 3.27981H13.902C14.1187 3.27981 14.3265 3.36588 14.4798 3.51911C14.633 3.67233 14.7191 3.88014 14.7191 4.09683C14.7191 4.31352 14.633 4.52133 14.4798 4.67455C14.3265 4.82777 14.1187 4.91385 13.902 4.91385ZM3.28078 3.27981V9.81598H0.829716C0.613029 9.81598 0.405216 9.7299 0.251995 9.57668C0.098774 9.42346 0.0126953 9.21565 0.0126953 8.99896V3.27981C0.0126953 3.16542 0.0126953 3.05921 0.0126953 2.953C0.0560328 2.51962 0.269753 2.12121 0.606839 1.84541C0.943925 1.56962 1.37677 1.43902 1.81014 1.48236C2.24352 1.5257 2.64192 1.73942 2.91772 2.0765C3.19352 2.41359 3.32412 2.84643 3.28078 3.27981Z" fill="#57616A"/>
</svg>
