<svg width="19" height="18" viewBox="0 0 19 18" fill="none" xmlns="http://www.w3.org/2000/svg">
<g clip-path="url(#clip0_4484_5015)">
<path d="M18.75 9.00178C18.75 8.54992 18.3837 8.18359 17.9318 8.18359H1.56818C1.11633 8.18359 0.75 8.54992 0.75 9.00178C0.75 12.2344 2.46344 15.074 5.02947 16.6612C4.91176 16.8029 4.84091 16.9849 4.84091 17.1836C4.84091 17.6354 5.20724 18.0018 5.65909 18.0018H13.8409C14.2928 18.0018 14.6591 17.6354 14.6591 17.1836C14.6591 16.9849 14.5882 16.803 14.4705 16.6612C17.0366 15.074 18.75 12.2344 18.75 9.00178Z" fill="#07A279"/>
<path d="M5.93226 5.72725C5.93226 6.17911 6.29859 6.54543 6.75044 6.54543C7.2023 6.54543 7.56863 6.17911 7.56863 5.72725C7.56863 4.57007 6.95717 3.95867 6.51066 3.51227C6.10954 3.11114 5.93221 2.91445 5.93226 2.45447C5.93221 1.99465 6.10959 1.79791 6.51083 1.39667C6.83035 1.0772 6.83035 0.559125 6.51088 0.239652C6.19141 -0.0799295 5.67328 -0.0798204 5.35375 0.239598C4.9073 0.686107 4.29573 1.29756 4.2959 2.45447C4.29573 3.61154 4.90719 4.22294 5.3537 4.66934C5.75488 5.07058 5.93226 5.26732 5.93226 5.72725Z" fill="#07A279"/>
<path d="M9.7497 5.72725C9.7497 6.17911 10.116 6.54543 10.5679 6.54543C11.0197 6.54543 11.3861 6.17911 11.3861 5.72725C11.3861 4.57007 10.7746 3.95867 10.3282 3.51227C9.92697 3.11114 9.74965 2.91445 9.7497 2.45447C9.74965 1.99465 9.92703 1.79791 10.3283 1.39667C10.6478 1.0772 10.6478 0.559125 10.3283 0.239652C10.0088 -0.0799295 9.49072 -0.0798204 9.17119 0.239598C8.72468 0.686052 8.11317 1.29751 8.11328 2.45447C8.11312 3.61154 8.72457 4.22294 9.17108 4.66934C9.57232 5.07058 9.7497 5.26732 9.7497 5.72725Z" fill="#07A279"/>
<path d="M13.5681 5.72725C13.5681 6.17911 13.9344 6.54543 14.3862 6.54543C14.8381 6.54543 15.2044 6.17911 15.2044 5.72725C15.2044 4.57007 14.593 3.95867 14.1465 3.51227C13.7453 3.11114 13.568 2.91445 13.5681 2.45447C13.568 1.99465 13.7454 1.79791 14.1466 1.39667C14.4662 1.0772 14.4662 0.559125 14.1467 0.239652C13.8272 -0.0799295 13.3091 -0.0798204 12.9896 0.239598C12.543 0.686052 11.9315 1.29751 11.9316 2.45447C11.9315 3.61154 12.5429 4.22294 12.9894 4.66934C13.3907 5.07058 13.5681 5.26732 13.5681 5.72725Z" fill="#07A279"/>
</g>
<defs>
<clipPath id="clip0_4484_5015">
<rect width="18" height="18" fill="white" transform="translate(0.75)"/>
</clipPath>
</defs>
</svg>
