<svg width="268" height="215" viewBox="0 0 268 215" fill="none" xmlns="http://www.w3.org/2000/svg">
<circle cx="137.628" cy="96.5294" r="80.8931" fill="url(#paint0_linear_4482_47918)"/>
<path d="M155.059 49.2695H120.197C115.383 49.2695 111.481 53.5424 111.481 58.8132V135.162C111.481 140.433 115.383 144.706 120.197 144.706H155.059C159.873 144.706 163.775 140.433 163.775 135.162V58.8132C163.775 53.5424 159.873 49.2695 155.059 49.2695Z" fill="#D7F1FF"/>
<path d="M155.059 49.2695H120.197C115.383 49.2695 111.481 53.5424 111.481 58.8132V135.162C111.481 140.433 115.383 144.706 120.197 144.706H155.059C159.873 144.706 163.775 140.433 163.775 135.162V58.8132C163.775 53.5424 159.873 49.2695 155.059 49.2695Z" fill="url(#paint1_linear_4482_47918)"/>
<path d="M155.059 146.694H120.197C117.115 146.694 114.159 145.47 111.98 143.291C109.8 141.111 108.576 138.156 108.576 135.074V57.9851C108.576 54.9031 109.8 51.9473 111.98 49.768C114.159 47.5886 117.115 46.3643 120.197 46.3643H155.059C158.141 46.3643 161.097 47.5886 163.276 49.768C165.456 51.9473 166.68 54.9031 166.68 57.9851V135.074C166.68 138.156 165.456 141.111 163.276 143.291C161.097 145.47 158.141 146.694 155.059 146.694ZM120.197 52.1747C118.656 52.1747 117.178 52.7869 116.088 53.8765C114.999 54.9662 114.386 56.4441 114.386 57.9851V135.074C114.386 136.615 114.999 138.092 116.088 139.182C117.178 140.272 118.656 140.884 120.197 140.884H155.059C156.6 140.884 158.078 140.272 159.168 139.182C160.257 138.092 160.87 136.615 160.87 135.074V57.9851C160.87 56.4441 160.257 54.9662 159.168 53.8765C158.078 52.7869 156.6 52.1747 155.059 52.1747H120.197Z" fill="#565656"/>
<path d="M144.891 57.9851H130.365C128.824 57.9851 127.346 57.373 126.257 56.2833C125.167 55.1937 124.555 53.7158 124.555 52.1747H150.701C150.701 53.7158 150.089 55.1937 149 56.2833C147.91 57.373 146.432 57.9851 144.891 57.9851V57.9851Z" fill="#737373"/>
<path d="M137.628 92.8475C145.651 92.8475 152.154 86.344 152.154 78.3215C152.154 70.299 145.651 63.7955 137.628 63.7955C129.606 63.7955 123.102 70.299 123.102 78.3215C123.102 86.344 129.606 92.8475 137.628 92.8475Z" fill="white"/>
<path d="M148.958 87.4005C147.597 89.097 145.872 90.4663 143.911 91.4071C141.95 92.348 139.803 92.8364 137.628 92.8364C135.453 92.8364 133.306 92.348 131.344 91.4071C129.383 90.4663 127.659 89.097 126.298 87.4005C126.709 85.5688 127.559 83.864 128.773 82.4322C129.987 81.0004 131.53 79.884 133.27 79.1788C132.53 78.3401 132.049 77.3059 131.882 76.2001C131.716 75.0944 131.872 73.9641 132.332 72.9449C132.792 71.9258 133.537 71.061 134.476 70.4544C135.415 69.8478 136.51 69.5251 137.628 69.5251C138.746 69.5251 139.841 69.8478 140.78 70.4544C141.719 71.061 142.464 71.9258 142.924 72.9449C143.384 73.9641 143.54 75.0944 143.374 76.2001C143.207 77.3059 142.725 78.3401 141.986 79.1788C143.726 79.884 145.269 81.0004 146.483 82.4322C147.697 83.864 148.547 85.5688 148.958 87.4005V87.4005Z" fill="#39B594"/>
<path d="M152.154 108.639H123.102C122.3 108.639 121.649 109.29 121.649 110.092V118.807C121.649 119.61 122.3 120.26 123.102 120.26H152.154C152.956 120.26 153.607 119.61 153.607 118.807V110.092C153.607 109.29 152.956 108.639 152.154 108.639Z" fill="white"/>
<path d="M137.628 115.902C138.43 115.902 139.081 115.252 139.081 114.449C139.081 113.647 138.43 112.997 137.628 112.997C136.826 112.997 136.175 113.647 136.175 114.449C136.175 115.252 136.826 115.902 137.628 115.902Z" fill="#737373"/>
<path d="M131.818 115.902C132.62 115.902 133.27 115.252 133.27 114.449C133.27 113.647 132.62 112.997 131.818 112.997C131.015 112.997 130.365 113.647 130.365 114.449C130.365 115.252 131.015 115.902 131.818 115.902Z" fill="#737373"/>
<path d="M126.007 115.902C126.81 115.902 127.46 115.252 127.46 114.449C127.46 113.647 126.81 112.997 126.007 112.997C125.205 112.997 124.555 113.647 124.555 114.449C124.555 115.252 125.205 115.902 126.007 115.902Z" fill="#737373"/>
<path d="M149.249 115.902C150.051 115.902 150.701 115.252 150.701 114.449C150.701 113.647 150.051 112.997 149.249 112.997C148.447 112.997 147.796 113.647 147.796 114.449C147.796 115.252 148.447 115.902 149.249 115.902Z" fill="#737373"/>
<path d="M143.438 115.902C144.241 115.902 144.891 115.252 144.891 114.449C144.891 113.647 144.241 112.997 143.438 112.997C142.636 112.997 141.986 113.647 141.986 114.449C141.986 115.252 142.636 115.902 143.438 115.902Z" fill="#737373"/>
<path d="M186.948 28.1747C188.415 28.1747 189.605 26.8159 189.605 25.1397C189.605 23.4635 188.415 22.1046 186.948 22.1046C185.481 22.1046 184.292 23.4635 184.292 25.1397C184.292 26.8159 185.481 28.1747 186.948 28.1747Z" stroke="#CDECE4" stroke-width="1.8936" stroke-miterlimit="10" stroke-linecap="round" stroke-linejoin="round"/>
<g clip-path="url(#clip0_4482_47918)">
<path d="M237.879 8.15389C237.201 8.15389 236.536 8.04794 235.906 7.84009C235.599 7.73415 235.25 7.81578 235.048 8.02189L233.799 8.965C232.366 8.20022 231.449 7.28373 230.694 5.86126L231.612 4.64199C231.843 4.41099 231.926 4.07288 231.827 3.7562C231.617 3.12226 231.511 2.45705 231.511 1.77968C231.511 1.30088 231.121 0.911255 230.642 0.911255H228.616C228.137 0.911255 227.748 1.30088 227.748 1.77968C227.748 7.36594 232.293 11.9113 237.879 11.9113C238.358 11.9113 238.748 11.5216 238.748 11.0428V9.02231C238.748 8.54352 238.358 8.15389 237.879 8.15389Z" fill="#B5E4D7"/>
</g>
<path d="M4.31876 97.3404C6.06294 97.3404 7.47687 95.7251 7.47687 93.7325C7.47687 91.7399 6.06294 90.1246 4.31876 90.1246C2.57458 90.1246 1.16064 91.7399 1.16064 93.7325C1.16064 95.7251 2.57458 97.3404 4.31876 97.3404Z" stroke="#CDECE4" stroke-width="1.8936" stroke-miterlimit="10" stroke-linecap="round" stroke-linejoin="round"/>
<g clip-path="url(#clip1_4482_47918)">
<path d="M19.3125 52.75H19V51.5C19 50.1212 17.8787 49 16.5 49C15.1212 49 14 50.1212 14 51.5V52.75H13.6875C13.1708 52.75 12.75 53.1704 12.75 53.6875V58.0625C12.75 58.5796 13.1708 59 13.6875 59H19.3125C19.8292 59 20.25 58.5796 20.25 58.0625V53.6875C20.25 53.1704 19.8292 52.75 19.3125 52.75ZM14.8333 51.5C14.8333 50.5808 15.5808 49.8333 16.5 49.8333C17.4192 49.8333 18.1667 50.5808 18.1667 51.5V52.75H14.8333V51.5ZM16.9167 55.9675V56.9167C16.9167 57.1467 16.7304 57.3333 16.5 57.3333C16.2696 57.3333 16.0833 57.1467 16.0833 56.9167V55.9675C15.8354 55.8229 15.6667 55.5571 15.6667 55.25C15.6667 54.7904 16.0404 54.4167 16.5 54.4167C16.9596 54.4167 17.3333 54.7904 17.3333 55.25C17.3333 55.5571 17.1646 55.8229 16.9167 55.9675Z" fill="#CDECE4"/>
</g>
<path d="M223.177 213.54C224.644 213.54 225.833 212.181 225.833 210.505C225.833 208.828 224.644 207.47 223.177 207.47C221.709 207.47 220.52 208.828 220.52 210.505C220.52 212.181 221.709 213.54 223.177 213.54Z" stroke="#CDECE4" stroke-width="1.8936" stroke-miterlimit="10" stroke-linecap="round" stroke-linejoin="round"/>
<path d="M40.7676 192.692C42.2349 192.692 43.4243 191.333 43.4243 189.657C43.4243 187.981 42.2349 186.622 40.7676 186.622C39.3004 186.622 38.111 187.981 38.111 189.657C38.111 191.333 39.3004 192.692 40.7676 192.692Z" stroke="#CDECE4" stroke-width="1.8936" stroke-miterlimit="10" stroke-linecap="round" stroke-linejoin="round"/>
<path d="M264.183 112.585C265.65 112.585 266.839 111.226 266.839 109.549C266.839 107.873 265.65 106.514 264.183 106.514C262.715 106.514 261.526 107.873 261.526 109.549C261.526 111.226 262.715 112.585 264.183 112.585Z" stroke="#CDECE4" stroke-width="1.8936" stroke-miterlimit="10" stroke-linecap="round" stroke-linejoin="round"/>
<path d="M254.171 151.877L254.983 152.141C255.701 152.379 256.47 151.982 256.705 151.263C256.938 150.546 256.545 149.774 255.826 149.541L255.016 149.277L255.517 148.588C255.961 147.976 255.825 147.122 255.215 146.679C254.599 146.232 253.746 146.374 253.306 146.98L252.804 147.671L252.302 146.98C251.862 146.374 251.01 146.232 250.393 146.679C249.783 147.122 249.647 147.976 250.092 148.588L250.593 149.277L249.782 149.541C249.064 149.774 248.67 150.546 248.904 151.263C249.137 151.981 249.906 152.376 250.626 152.141L251.437 151.877V152.73C251.437 153.486 252.049 154.097 252.804 154.097C253.56 154.097 254.171 153.486 254.171 152.73V151.877Z" fill="#CDECE4"/>
<path d="M35.2544 15.4793H70.984" stroke="#CDECE4" stroke-width="2.89" stroke-miterlimit="10" stroke-linecap="round" stroke-linejoin="round"/>
<path d="M7.47705 148.869H35.6914" stroke="#CDECE4" stroke-width="2.89" stroke-miterlimit="10" stroke-linecap="round" stroke-linejoin="round"/>
<path d="M227.748 64.6119H245.477" stroke="#CDECE4" stroke-width="2.89" stroke-miterlimit="10" stroke-linecap="round" stroke-linejoin="round"/>
<circle cx="88.2032" cy="56.0281" r="2.14993" fill="#20AC87"/>
<circle cx="102.928" cy="155.524" r="1.15" fill="#20AC87"/>
<circle cx="206.49" cy="96.0052" r="1.5" fill="#20AC87"/>
<defs>
<linearGradient id="paint0_linear_4482_47918" x1="137.628" y1="15.6362" x2="137.628" y2="203.853" gradientUnits="userSpaceOnUse">
<stop stop-color="#B5E4D7"/>
<stop offset="1" stop-color="white"/>
</linearGradient>
<linearGradient id="paint1_linear_4482_47918" x1="137.628" y1="49.2695" x2="137.628" y2="144.706" gradientUnits="userSpaceOnUse">
<stop stop-color="#B5E4D7"/>
<stop offset="1" stop-color="white"/>
</linearGradient>
<clipPath id="clip0_4482_47918">
<rect width="11" height="11" fill="white" transform="translate(227.748 0.911255)"/>
</clipPath>
<clipPath id="clip1_4482_47918">
<rect width="10" height="10" fill="white" transform="translate(11.5 49)"/>
</clipPath>
</defs>
</svg>
