<svg width="91" height="90" viewBox="0 0 91 90" fill="none" xmlns="http://www.w3.org/2000/svg">
<path d="M6.03349 59.3625C4.14708 54.1796 3.29998 48.6759 3.54056 43.1656C3.78114 37.6554 5.1047 32.2464 7.43565 27.2477C9.76661 22.2489 13.0593 17.7582 17.1258 14.032C21.1923 10.3058 25.9528 7.41699 31.1357 5.53057C36.3186 3.64415 41.8223 2.79705 47.3326 3.03764C52.8428 3.27822 58.2518 4.60177 63.2505 6.93273C68.2493 9.26369 72.74 12.5564 76.4662 16.6229C80.1924 20.6893 83.0812 25.4499 84.9676 30.6328C86.8541 35.8157 87.7012 41.3194 87.4606 46.8296C87.22 52.3399 85.8964 57.7488 83.5655 62.7476C81.2345 67.7463 77.9418 72.237 73.8753 75.9632C69.8089 79.6895 65.0483 82.5783 59.8654 84.4647C54.6825 86.3511 49.1788 87.1982 43.6685 86.9576C38.1583 86.717 32.7494 85.3935 27.7506 83.0625C22.7518 80.7316 18.2612 77.4389 14.5349 73.3724C10.8087 69.3059 7.91991 64.5453 6.03349 59.3625L6.03349 59.3625Z" stroke="#2CBD53" stroke-width="6" stroke-linecap="round"/>
</svg>
