<svg width="18" height="19" viewBox="0 0 18 19" fill="none" xmlns="http://www.w3.org/2000/svg">
<path d="M15.1382 11.701C14.4877 11.0587 13.6756 11.0587 13.0292 11.701C12.5361 12.1899 12.0431 12.6788 11.5583 13.176C11.4257 13.3128 11.3138 13.3418 11.1522 13.2506C10.8332 13.0766 10.4934 12.9357 10.1868 12.7451C8.75732 11.846 7.55986 10.69 6.49915 9.38893C5.97293 8.74255 5.50472 8.0506 5.17739 7.27164C5.1111 7.11419 5.12353 7.0106 5.25197 6.88215C5.74504 6.40566 6.22568 5.91673 6.71046 5.42781C7.38584 4.74829 7.38584 3.95275 6.70632 3.26908C6.32098 2.8796 5.93564 2.49841 5.5503 2.10892C5.15253 1.71115 4.7589 1.30924 4.35699 0.915616C3.70647 0.281671 2.89436 0.281671 2.24798 0.919759C1.75077 1.40868 1.27428 1.91004 0.768779 2.39068C0.300571 2.83402 0.0643953 3.37681 0.0146742 4.01076C-0.064051 5.04247 0.188698 6.01618 0.545033 6.96502C1.27428 8.92901 2.38472 10.6734 3.73133 12.2728C5.5503 14.4356 7.72146 16.1469 10.2614 17.3816C11.405 17.9368 12.59 18.3636 13.8786 18.434C14.7653 18.4838 15.536 18.26 16.1533 17.5681C16.576 17.0957 17.0525 16.6648 17.5 16.2132C18.1629 15.5419 18.167 14.7298 17.5082 14.0669C16.721 13.2755 15.9296 12.4882 15.1382 11.701Z" fill="#99A2AB"/>
</svg>
