<svg width="40" height="40" viewBox="0 0 40 40" fill="none" xmlns="http://www.w3.org/2000/svg">
<path d="M23.1257 2.27347C25.4535 2.68394 27.6778 3.5489 29.6714 4.81896C31.665 6.08903 33.3889 7.73933 34.7447 9.67563C36.1005 11.6119 37.0617 13.7963 37.5733 16.1041C38.0849 18.4119 38.137 20.7978 37.7265 23.1257C37.3161 25.4536 36.4511 27.6778 35.181 29.6714C33.911 31.665 32.2607 33.3889 30.3244 34.7447C28.3881 36.1006 26.2037 37.0617 23.8959 37.5733C21.5881 38.0849 19.2022 38.137 16.8743 37.7265C14.5464 37.3161 12.3222 36.4511 10.3286 35.181C8.335 33.911 6.61108 32.2607 5.25526 30.3244C3.89944 28.3881 2.93829 26.2037 2.42667 23.8959C1.91505 21.5882 1.86299 19.2022 2.27346 16.8743C2.68393 14.5465 3.54889 12.3222 4.81895 10.3286C6.08902 8.33501 7.73932 6.61109 9.67562 5.25527C11.6119 3.89946 13.7963 2.9383 16.1041 2.42668C18.4118 1.91506 20.7978 1.863 23.1257 2.27347L23.1257 2.27347Z" stroke="#2CBD53" stroke-width="4" stroke-linecap="round"/>
</svg>
