<svg width="44" height="44" viewBox="0 0 44 44" fill="none" xmlns="http://www.w3.org/2000/svg">
<ellipse cx="22.0178" cy="21.9733" rx="18.1282" ry="18.3" fill="#07A279"/>
<path d="M20.8035 11.9778C21.2593 11.0543 22.5761 11.0543 23.0319 11.9778L25.4684 16.9138C25.6493 17.2802 25.9986 17.5342 26.4029 17.5933L31.8535 18.39C32.8723 18.5389 33.2784 19.7912 32.5408 20.5096L28.5987 24.3492C28.3056 24.6347 28.1719 25.0461 28.241 25.4494L29.1711 30.8722C29.3452 31.8873 28.2796 32.6614 27.3681 32.182L22.4961 29.6198C22.134 29.4294 21.7014 29.4294 21.3394 29.6198L16.4674 32.182C15.5558 32.6614 14.4903 31.8873 14.6644 30.8722L15.5944 25.4494C15.6636 25.0461 15.5298 24.6347 15.2367 24.3492L11.2947 20.5096C10.5571 19.7912 10.9631 18.5389 11.9819 18.39L17.4325 17.5933C17.8368 17.5342 18.1862 17.2802 18.367 16.9138L20.8035 11.9778Z" fill="white"/>
<path d="M43.9816 19.8589C43.9816 17.3876 42.7886 15.0623 40.79 13.6373C39.7551 12.8987 39.0527 11.7271 38.9319 10.3857C38.559 6.24622 34.9512 3.14589 30.8012 3.49539C29.5039 3.60497 28.2304 3.13651 27.307 2.21126C24.3716 -0.735799 19.6308 -0.737884 16.6933 2.21022C15.7545 3.15121 14.482 3.60497 13.2012 3.49539C9.07287 3.14277 5.44339 6.2286 5.06846 10.3857C4.94865 11.7053 4.26386 12.8851 3.20931 13.6383C1.21176 15.0623 0.0187988 17.3876 0.0187988 19.8589C0.0187988 21.4133 0.48462 22.9123 1.36668 24.1944C2.13513 25.3149 2.33138 26.6678 2.01222 27.8936C1.84593 28.5299 1.76124 29.185 1.76124 29.8402C1.76124 32.6704 3.30124 35.2471 5.77701 36.5635C6.26555 36.8243 6.78405 37.0309 7.31804 37.1769C8.60189 37.5296 9.62546 38.4267 10.1677 39.5919C11.404 42.2448 14.0802 43.9598 16.9856 43.9598H17.0032C18.0898 43.9567 19.1454 43.7209 20.141 43.2578C21.3226 42.7059 22.6777 42.707 23.8604 43.2578C24.855 43.7209 25.9106 43.9567 27.0013 43.9598H27.0147C29.9202 43.9598 32.5963 42.2448 33.8337 39.5909C34.3687 38.4402 35.3913 37.5316 36.6813 37.178C39.9389 36.283 42.2391 33.3109 42.2391 29.8401C42.2391 29.185 42.1544 28.5298 41.9881 27.8924C41.668 26.6688 41.8652 25.3126 42.6337 24.1954C43.5157 22.9123 43.9816 21.4133 43.9816 19.8589V19.8589ZM22.0002 38.699C12.8728 38.699 5.44753 31.1985 5.44753 21.9797C5.44753 12.761 12.8728 5.26144 22.0002 5.26144C31.1276 5.26144 38.5528 12.7609 38.5528 21.9796C38.5528 31.1984 31.1276 38.699 22.0002 38.699Z" fill="#07A279"/>
</svg>
