<svg width="19" height="18" viewBox="0 0 19 18" fill="none" xmlns="http://www.w3.org/2000/svg">
<g clip-path="url(#clip0_4484_5678)">
<path d="M2.20882 3.70703H0.25V10.5894V12.707V16.4129H2.20882V12.707H4.64412V16.4129H6.60294V12.707V10.5894H2.20882V3.70703Z" fill="#07A279"/>
<path d="M16.2916 3.70703V10.5894H11.8975V12.707V16.4129H13.8563V12.707H16.2916V16.4129H18.2504V12.707V10.5894V3.70703H16.2916Z" fill="#07A279"/>
<path d="M14.5443 6.88305C14.5443 6.29829 14.0702 5.82422 13.4855 5.82422H5.01488C4.43013 5.82422 3.95605 6.29829 3.95605 6.88305V7.94187H14.5443V6.88305Z" fill="#07A279"/>
<path d="M10.2329 9H8.27402V14.7871L7.66211 14.7871V16.4118H10.8386V14.7871L10.2329 14.7871V9Z" fill="#07A279"/>
<path d="M9.77906 2.69318V1.58984H8.72024V2.69318C7.57435 2.88631 6.63482 3.69493 6.25488 4.76632H12.2445C11.8645 3.69493 10.925 2.88627 9.77906 2.69318Z" fill="#07A279"/>
</g>
<defs>
<clipPath id="clip0_4484_5678">
<rect width="18" height="18" fill="white" transform="translate(0.25)"/>
</clipPath>
</defs>
</svg>
