<svg width="18" height="19" viewBox="0 0 18 19" fill="none" xmlns="http://www.w3.org/2000/svg">
<path d="M9 0.250061C4.02963 0.250061 0 4.27969 0 9.25006C0 14.2204 4.02963 18.2501 9 18.2501C13.9704 18.2501 18 14.2204 18 9.25006C18 4.27969 13.9704 0.250061 9 0.250061ZM12.1407 13.8093C11.8704 13.9315 11.5889 14.0352 11.3 14.113C10.2037 14.4167 9.10741 14.4278 8.01481 14.0723C6.6963 13.6464 5.82222 12.7464 5.3 11.4871C5.2 11.2427 5.13333 10.9871 5.05556 10.7315H4.02222C3.84815 10.7315 3.71111 10.5908 3.71111 10.4204V9.72414C3.71111 9.55006 3.85185 9.41302 4.02222 9.41302H4.87778C4.87778 9.22043 4.87778 9.03895 4.87778 8.84636H4.02222C3.84815 8.84636 3.71111 8.70562 3.71111 8.53525V7.83895C3.71111 7.66488 3.85185 7.52784 4.02222 7.52784H5.11111L5.14815 7.42043C5.44074 6.4908 5.94444 5.69451 6.71852 5.09451C7.33333 4.61673 8.04445 4.35376 8.80741 4.23154C9.89259 4.05747 10.9444 4.20562 11.963 4.60562C12.0296 4.63154 12.0926 4.66117 12.1556 4.69821C12.4 4.84265 12.463 5.02414 12.3556 5.2871C12.2407 5.56117 12.1259 5.83895 12 6.10932C11.8926 6.34265 11.7444 6.41673 11.4926 6.36117C11.1481 6.28339 10.8111 6.17599 10.4667 6.10562C9.74074 5.95747 9.01852 5.95006 8.31111 6.22784C7.7037 6.46858 7.33333 6.93154 7.08148 7.50932C7.07778 7.51673 7.07778 7.52414 7.07778 7.53154H9.19259C9.36667 7.53154 9.5037 7.67228 9.5037 7.84265V8.53895C9.5037 8.71302 9.36296 8.85006 9.19259 8.85006H6.77778C6.77407 9.03525 6.77778 9.22043 6.77778 9.41673H9.1963C9.37037 9.41673 9.50741 9.55747 9.50741 9.72784V10.4241C9.50741 10.5982 9.36667 10.7352 9.1963 10.7352H6.98889C7.25556 11.4982 7.68889 12.0871 8.5037 12.3427C9.15556 12.5464 9.81111 12.5352 10.4704 12.3982C10.8111 12.3278 11.1444 12.2241 11.4852 12.1464C11.7519 12.0871 11.8963 12.1575 12.0074 12.4019C12.1333 12.676 12.2519 12.9538 12.363 13.2352C12.4667 13.4871 12.4 13.6908 12.1407 13.8093Z" fill="#07A279"/>
</svg>
