<svg width="24" height="24" viewBox="0 0 24 24" fill="none" xmlns="http://www.w3.org/2000/svg">
<path d="M0 12C0 5.37258 5.37258 0 12 0V0C18.6274 0 24 5.37258 24 12V12C24 18.6274 18.6274 24 12 24V24C5.37258 24 0 18.6274 0 12V12Z" fill="#99A2AB"/>
<path fill-rule="evenodd" clip-rule="evenodd" d="M13.0712 7.92861C13.0712 7.33687 12.5915 6.85718 11.9998 6.85718C11.408 6.85718 10.9283 7.33687 10.9283 7.9286V10.9286H7.92934C7.33761 10.9286 6.85791 11.4083 6.85791 12C6.85791 12.5917 7.3376 13.0714 7.92934 13.0714H10.9283V16.0715C10.9283 16.6632 11.408 17.1429 11.9998 17.1429C12.5915 17.1429 13.0712 16.6632 13.0712 16.0715V13.0714H16.0722C16.6639 13.0714 17.1436 12.5917 17.1436 12C17.1436 11.4083 16.6639 10.9286 16.0722 10.9286H13.0712V7.92861Z" fill="white"/>
</svg>
