<svg width="18" height="19" viewBox="0 0 18 19" fill="none" xmlns="http://www.w3.org/2000/svg">
<path d="M17.9999 14.0714V15.6785C17.9999 16.565 17.2787 17.2856 16.3928 17.2856H2.57142C1.15328 17.2856 0 16.1324 0 14.7142C0 14.7142 0 3.79533 0 3.78568C0 2.36755 1.15328 1.21426 2.57142 1.21426H14.4642C14.9972 1.21426 15.4285 1.64626 15.4285 2.17855C15.4285 2.71083 14.9972 3.14283 14.4642 3.14283H2.57142C2.21721 3.14283 1.92857 3.43083 1.92857 3.78568C1.92857 4.14054 2.21721 4.42854 2.57142 4.42854H16.3928C17.2787 4.42854 17.9999 5.14918 17.9999 6.03568V7.64281H14.7857C13.0133 7.64281 11.5714 9.08474 11.5714 10.8571C11.5714 12.6294 13.0133 14.0714 14.7857 14.0714H17.9999Z" fill="white"/>
<path d="M17.9998 8.92851V12.7856H14.7855C13.7203 12.7856 12.8569 11.9223 12.8569 10.8571C12.8569 9.79187 13.7203 8.92851 14.7855 8.92851H17.9998Z" fill="white"/>
</svg>
