<svg width="25" height="26" viewBox="0 0 25 26" fill="none" xmlns="http://www.w3.org/2000/svg">
<path d="M21.2882 0.13208H15.4283C13.4088 0.13208 11.7658 1.77508 11.7658 3.79458V6.77341C11.7658 8.54211 13.0261 10.022 14.6958 10.3623V11.9009C14.6958 12.1784 14.8525 12.432 15.1007 12.5561C15.3485 12.68 15.6455 12.6536 15.8678 12.4869L18.6024 10.4359H21.2882C23.3132 10.4359 24.9996 8.79794 24.9996 6.77341V3.79458C24.9996 1.76966 23.3128 0.13208 21.2882 0.13208ZM22.785 19.8029L17.6054 16.0884C17.3642 15.9153 17.0422 15.905 16.7904 16.0624L13.8722 17.886C13.7152 17.9161 13.033 17.7884 11.7138 16.8334C10.6047 16.0306 9.41619 14.9065 8.5345 13.8266C7.22806 12.2263 7.13069 11.4195 7.20238 11.2386L9.0346 8.30658C9.19199 8.05475 9.18174 7.73284 9.00867 7.49151L5.29402 2.312C5.16866 2.13723 4.97284 2.02637 4.75851 2.00884C4.54438 1.99131 4.33293 2.06886 4.18082 2.22093L1.50822 4.89333C-0.00571339 6.40716 -0.427145 8.71229 0.459522 10.6294C1.64515 13.1928 3.18437 15.5616 5.03447 17.6699C7.67923 20.6838 10.8762 23.0507 14.5366 24.7049C16.4106 25.5519 18.6779 25.1143 20.1777 23.6145L22.8761 20.9162C23.0281 20.7641 23.1057 20.5529 23.0882 20.3385C23.0706 20.1241 22.9598 19.9283 22.785 19.8029Z" fill="url(#paint0_linear_3605_18474)"/>
<path d="M15.4298 4.57596C15.0252 4.57596 14.6973 4.90392 14.6973 5.30846C14.6973 5.713 15.0252 6.04096 15.4298 6.04096C15.8343 6.04096 16.1623 5.713 16.1623 5.30846C16.1623 4.90392 15.8343 4.57596 15.4298 4.57596ZM18.3598 4.57596C17.9552 4.57596 17.6273 4.90392 17.6273 5.30846C17.6273 5.713 17.9552 6.04096 18.3598 6.04096C18.7643 6.04096 19.0923 5.713 19.0923 5.30846C19.0923 4.90392 18.7643 4.57596 18.3598 4.57596ZM21.2898 4.57596C20.8852 4.57596 20.5573 4.90392 20.5573 5.30846C20.5573 5.713 20.8852 6.04096 21.2898 6.04096C21.6943 6.04096 22.0223 5.713 22.0223 5.30846C22.0223 4.90392 21.6943 4.57596 21.2898 4.57596Z" fill="#B5E4D7"/>
<defs>
<linearGradient id="paint0_linear_3605_18474" x1="22.6357" y1="25.1321" x2="-1.75443" y2="5.62028" gradientUnits="userSpaceOnUse">
<stop stop-color="#07A279"/>
<stop offset="1" stop-color="#037D5D"/>
</linearGradient>
</defs>
</svg>
