<svg width="269" height="185" viewBox="0 0 269 185" fill="none" xmlns="http://www.w3.org/2000/svg">
<circle cx="138.208" cy="103.239" r="80.8931" fill="url(#paint0_linear_3733_106371)"/>
<g clip-path="url(#clip0_3733_106371)">
<path d="M138.656 60.1675C153.065 60.1675 165.26 69.7799 169.107 82.8974C168.913 82.9947 168.725 83.0921 168.545 83.1852C168.898 83.001 169.26 82.8312 169.627 82.6801C173.937 80.9265 178.689 79.9514 178.689 79.9514C173.571 62.7885 157.563 50.23 138.656 50.23C119.749 50.23 103.741 62.7885 98.6228 79.9514C98.6228 79.9514 103.373 80.9265 107.684 82.6801C108.054 82.8291 108.414 82.9989 108.767 83.1831C108.587 83.09 108.401 82.9947 108.205 82.8954C112.052 69.7779 124.246 60.1654 138.656 60.1654V60.1675Z" fill="#565656"/>
<path d="M107.684 82.6801C108.054 82.8312 108.416 83.001 108.769 83.1852H108.775C111.304 84.591 113.017 87.9262 113.013 90.7915C112.886 92.5699 112.447 102.292 112.56 105.433C112.447 108.573 112.884 118.296 113.013 120.074C113.013 122.939 111.302 126.275 108.775 127.678C107.231 128.486 105.103 129.473 102.046 130.262C98.9862 131.036 96.631 131.152 94.8692 131.082C91.9497 130.96 88.7021 127.954 87.6154 124.366C86.6687 122.252 84.861 109.602 85.1974 105.433C84.861 101.261 86.6687 88.6136 87.6133 86.4998C88.7 82.9119 91.9476 79.9079 94.8671 79.7837C95.9058 79.7423 97.1513 79.7671 98.6226 79.9514C98.6226 79.9514 103.373 80.9265 107.684 82.6801Z" fill="#06936E"/>
<path d="M169.627 82.6801C169.257 82.8312 168.896 83.001 168.543 83.1852H168.536C166.008 84.591 164.294 87.9262 164.298 90.7915C164.426 92.5699 164.864 102.292 164.752 105.433C164.864 108.573 164.428 118.296 164.298 120.074C164.298 122.939 166.01 126.275 168.536 127.678C170.081 128.486 172.208 129.473 175.266 130.262C178.325 131.036 180.68 131.152 182.442 131.082C185.362 130.96 188.609 127.954 189.696 124.366C190.643 122.252 192.45 109.602 192.112 105.433C192.448 101.261 190.641 88.6136 189.696 86.4998C188.609 82.9119 185.362 79.9079 182.442 79.7837C181.403 79.7423 180.158 79.7671 178.687 79.9514C178.687 79.9514 173.936 80.9265 169.625 82.6801H169.627Z" fill="#06936E"/>
<path d="M108.773 83.1873H108.767C108.414 82.9989 108.052 82.8291 107.682 82.6801C103.373 80.9265 98.6205 79.9514 98.6205 79.9514C97.1493 79.7671 95.9037 79.7423 94.8651 79.7837C91.9456 79.9058 88.698 82.9099 87.6112 86.4998C86.6666 88.6136 84.861 101.261 85.1975 105.433C85.0178 107.663 85.4503 112.317 86.0376 116.488C96.4722 113.302 105.649 107.269 112.637 99.3047C112.752 95.694 112.936 91.8474 113.011 90.7915C113.013 87.9262 111.302 84.591 108.773 83.1873Z" fill="#07A279"/>
<path d="M191.671 97.4931C191.132 92.7708 190.26 87.7606 189.696 86.4998C188.609 82.9119 185.362 79.9079 182.442 79.7837C181.404 79.7423 180.158 79.7671 178.687 79.9514C178.687 79.9514 173.937 80.9265 169.625 82.6801C169.255 82.8312 168.894 83.001 168.541 83.1852H168.534C166.006 84.591 164.292 87.9262 164.296 90.7915C164.424 92.5699 164.862 102.292 164.75 105.433C164.814 107.261 164.693 111.317 164.557 114.739C175.195 111.621 184.555 105.555 191.669 97.4931H191.671Z" fill="#07A279"/>
<path d="M175.268 130.26C172.511 129.55 170.511 128.676 169.011 127.918C164.998 136.175 157.343 142.365 148.135 144.413C146.76 142.187 144.282 140.701 141.454 140.701C137.13 140.701 133.625 144.172 133.625 148.456C133.625 152.739 137.13 156.211 141.454 156.211C144.865 156.211 147.763 154.05 148.837 151.038C160.593 148.68 170.361 140.806 175.287 130.262H175.293C175.293 130.262 175.276 130.26 175.27 130.258L175.268 130.26Z" fill="#565656"/>
</g>
<g filter="url(#filter0_d_3733_106371)">
<path d="M138.208 115.956C145.198 115.956 150.864 110.259 150.864 103.23C150.864 96.2014 145.198 90.5035 138.208 90.5035C131.218 90.5035 125.552 96.2014 125.552 103.23C125.552 110.259 131.218 115.956 138.208 115.956Z" fill="#52BEA2"/>
</g>
<path d="M144.344 88.5743C143.017 88.014 141.618 87.5072 140.187 87.329C139.609 87.257 139.199 86.7306 139.271 86.1518C139.342 85.575 139.868 85.1754 140.448 85.2362C142.07 85.4381 143.658 85.9954 145.164 86.6298C145.701 86.8564 145.952 87.4744 145.727 88.012C145.502 88.5456 144.887 88.7998 144.344 88.5743Z" fill="#83D1BC"/>
<path d="M150.814 93.5988C149.942 92.4504 148.919 91.4265 147.77 90.5552C147.306 90.203 147.215 89.5407 147.567 89.0772C147.92 88.6117 148.581 88.5241 149.045 88.8743C150.346 89.862 151.507 91.0228 152.495 92.3237C152.847 92.7872 152.756 93.4494 152.292 93.8017C151.828 94.1523 151.167 94.0642 150.814 93.5988Z" fill="#83D1BC"/>
<path d="M154.106 101.252C153.928 99.8199 153.353 98.3509 152.792 97.0233C152.567 96.4857 152.818 95.8676 153.355 95.6411C153.891 95.4186 154.51 95.6668 154.737 96.2034C155.371 97.7103 155.997 99.3678 156.199 100.99C156.271 101.569 155.861 102.095 155.283 102.167C154.681 102.237 154.175 101.811 154.106 101.252Z" fill="#83D1BC"/>
<path d="M130.688 88.012C130.463 87.4744 130.714 86.8563 131.251 86.6298C132.758 85.9954 134.345 85.4381 135.967 85.2362C136.544 85.1754 137.072 85.575 137.144 86.1518C137.216 86.7306 136.806 87.257 136.229 87.329C134.797 87.5072 133.398 88.014 132.071 88.5743C131.529 88.7993 130.914 88.5466 130.688 88.012Z" fill="#83D1BC"/>
<path d="M144.536 97.9567C143.953 97.9567 143.481 98.4284 143.481 99.0113V102.175H141.372V99.0113C141.372 98.4284 140.9 97.9567 140.317 97.9567C139.734 97.9567 139.263 98.4284 139.263 99.0113V103.23C139.263 103.813 139.734 104.285 140.317 104.285H143.481V107.449C143.481 108.032 143.953 108.503 144.536 108.503C145.119 108.503 145.591 108.032 145.591 107.449V99.0113C145.591 98.4284 145.119 97.9567 144.536 97.9567Z" fill="white"/>
<path d="M134.622 105.128C135.749 104.283 137.153 103.23 137.153 101.121C137.153 99.376 135.734 97.9567 133.989 97.9567C132.245 97.9567 130.825 99.376 130.825 101.121C130.825 101.704 131.297 102.175 131.88 102.175C132.463 102.175 132.935 101.704 132.935 101.121C132.935 100.539 133.407 100.066 133.989 100.066C134.571 100.066 135.044 100.539 135.044 101.121C135.044 102.126 134.434 102.633 133.357 103.441C132.229 104.287 130.825 105.339 130.825 107.449C130.825 108.032 131.297 108.503 131.88 108.503H136.099C136.682 108.503 137.153 108.032 137.153 107.449C137.153 106.866 136.682 106.394 136.099 106.394H133.269C133.552 105.972 133.997 105.597 134.622 105.128Z" fill="white"/>
<path d="M155.284 104.293C154.703 104.228 154.178 104.631 154.107 105.209C153.122 113.1 146.173 119.121 138.208 119.121C129.484 119.121 122.317 111.954 122.317 103.23C122.317 99.3853 123.794 95.6645 126.276 92.8067V93.1559C126.276 93.7388 126.748 94.2106 127.33 94.2106C127.913 94.2106 128.385 93.7388 128.385 93.1559V90.1731C128.385 89.5902 127.913 89.1184 127.33 89.1184H124.347C123.764 89.1184 123.292 89.5902 123.292 90.1731C123.292 90.7561 123.764 91.2278 124.347 91.2278H124.855C121.933 94.4943 120.208 98.7832 120.208 103.23C120.208 113.117 128.321 121.23 138.208 121.23C147.234 121.23 155.084 114.415 156.2 105.47C156.272 104.893 155.862 104.365 155.284 104.293Z" fill="#83D1BC"/>
<path d="M156.2 105.47C156.272 104.892 155.862 104.365 155.284 104.293C154.703 104.228 154.178 104.631 154.107 105.208C153.122 113.1 146.173 119.12 138.208 119.12V121.23C147.235 121.23 155.084 114.414 156.2 105.47Z" fill="#83D1BC"/>
<path d="M187.18 13.049C188.647 13.049 189.836 11.8664 189.836 10.4076C189.836 8.94873 188.647 7.76611 187.18 7.76611C185.712 7.76611 184.523 8.94873 184.523 10.4076C184.523 11.8664 185.712 13.049 187.18 13.049Z" stroke="#CDECE4" stroke-width="1.8936" stroke-miterlimit="10" stroke-linecap="round" stroke-linejoin="round"/>
<g clip-path="url(#clip1_3733_106371)">
<path d="M238.111 14.7916C237.432 14.7916 236.767 14.6856 236.138 14.4778C235.83 14.3718 235.481 14.4535 235.279 14.6596L234.03 15.6027C232.597 14.8379 231.68 13.9214 230.926 12.499L231.843 11.2797C232.074 11.0487 232.157 10.7106 232.058 10.3939C231.849 9.75995 231.742 9.09474 231.742 8.41737C231.742 7.93857 231.353 7.54895 230.874 7.54895H228.847C228.369 7.54895 227.979 7.93857 227.979 8.41737C227.979 14.0036 232.524 18.549 238.111 18.549C238.589 18.549 238.979 18.1593 238.979 17.6805V15.66C238.979 15.1812 238.589 14.7916 238.111 14.7916Z" fill="#B5E4D7"/>
</g>
<path d="M4.5502 73.2446C6.29438 73.2446 7.70832 71.8388 7.70832 70.1046C7.70832 68.3704 6.29438 66.9646 4.5502 66.9646C2.80603 66.9646 1.39209 68.3704 1.39209 70.1046C1.39209 71.8388 2.80603 73.2446 4.5502 73.2446Z" stroke="#CDECE4" stroke-width="1.8936" stroke-miterlimit="10" stroke-linecap="round" stroke-linejoin="round"/>
<path d="M223.408 174.374C224.875 174.374 226.065 173.191 226.065 171.733C226.065 170.274 224.875 169.091 223.408 169.091C221.941 169.091 220.751 170.274 220.751 171.733C220.751 173.191 221.941 174.374 223.408 174.374Z" stroke="#CDECE4" stroke-width="1.8936" stroke-miterlimit="10" stroke-linecap="round" stroke-linejoin="round"/>
<path d="M40.999 156.23C42.4662 156.23 43.6557 155.047 43.6557 153.589C43.6557 152.13 42.4662 150.947 40.999 150.947C39.5317 150.947 38.3423 152.13 38.3423 153.589C38.3423 155.047 39.5317 156.23 40.999 156.23Z" stroke="#CDECE4" stroke-width="1.8936" stroke-miterlimit="10" stroke-linecap="round" stroke-linejoin="round"/>
<path d="M264.414 86.5117C265.882 86.5117 267.071 85.3291 267.071 83.8703C267.071 82.4114 265.882 81.2288 264.414 81.2288C262.947 81.2288 261.758 82.4114 261.758 83.8703C261.758 85.3291 262.947 86.5117 264.414 86.5117Z" stroke="#CDECE4" stroke-width="1.8936" stroke-miterlimit="10" stroke-linecap="round" stroke-linejoin="round"/>
<path d="M35.4858 2H71.2154" stroke="#CDECE4" stroke-width="2.89" stroke-miterlimit="10" stroke-linecap="round" stroke-linejoin="round"/>
<path d="M7.7085 118.091H35.9228" stroke="#CDECE4" stroke-width="2.89" stroke-miterlimit="10" stroke-linecap="round" stroke-linejoin="round"/>
<path d="M227.979 44.7606H245.708" stroke="#CDECE4" stroke-width="2.89" stroke-miterlimit="10" stroke-linecap="round" stroke-linejoin="round"/>
<circle cx="88.4346" cy="62.6658" r="2.14993" fill="#20AC87"/>
<circle cx="103.159" cy="162.162" r="1.15" fill="#20AC87"/>
<circle cx="206.721" cy="102.643" r="1.5" fill="#20AC87"/>
<path d="M23.5065 31.0634H35.8642C37.5703 31.0634 38.9536 32.4466 38.9536 34.1528V43.421C38.9536 45.1272 37.5703 46.5104 35.8642 46.5104V49.4686C35.8642 49.8949 35.5182 50.2409 35.0918 50.2409C34.908 50.2409 34.7296 50.1753 34.5898 50.0555L30.4577 46.5104H23.5065C21.8004 46.5104 20.4171 45.1272 20.4171 43.421V34.1528C20.4171 32.4466 21.8004 31.0634 23.5065 31.0634ZM33.2305 39.8759C33.2984 39.9508 33.3764 40.0157 33.4622 40.069C33.5456 40.1254 33.6329 40.1748 33.7248 40.2158C33.8205 40.2513 33.9186 40.2799 34.0183 40.3007C34.1171 40.3223 34.2183 40.3324 34.3195 40.3316C35.1729 40.3316 35.8642 39.6403 35.8642 38.7869C35.8804 37.9342 35.2023 37.2291 34.3496 37.2128C34.2384 37.2105 34.1272 37.2206 34.0183 37.2422C33.9186 37.263 33.8205 37.2916 33.7248 37.3271C33.6313 37.3658 33.5433 37.4144 33.4622 37.4739C33.378 37.5272 33.3008 37.589 33.2305 37.6593C32.9308 37.9574 32.7663 38.3644 32.7748 38.7869C32.7763 39.1962 32.9401 39.5878 33.2305 39.8759ZM28.5963 39.8759C28.8844 40.1663 29.276 40.3301 29.6854 40.3316C29.7858 40.3432 29.8862 40.3432 29.9866 40.3316C30.0862 40.3108 30.1843 40.2822 30.2801 40.2466C30.372 40.2057 30.4593 40.1563 30.5427 40.0999C30.6292 40.0443 30.7095 39.9802 30.7821 39.9068C31.0771 39.6095 31.2386 39.2055 31.2301 38.7869C31.2417 38.6865 31.2417 38.5861 31.2301 38.4857C31.2092 38.386 31.1806 38.288 31.1451 38.1922C31.1065 38.0987 31.0578 38.0107 30.9984 37.9296C30.9435 37.8446 30.881 37.7643 30.813 37.6902C30.7389 37.6222 30.6585 37.5596 30.5736 37.5048C30.4925 37.4453 30.4044 37.3967 30.311 37.358C30.2059 37.3102 30.0978 37.2715 29.9866 37.2422C29.1501 37.0754 28.3368 37.6191 28.17 38.4556C28.1484 38.5645 28.1383 38.6757 28.1407 38.7869C28.1407 39.1947 28.3013 39.5863 28.5886 39.8759H28.5963ZM23.9622 39.8759C24.0302 39.9508 24.1082 40.0157 24.1939 40.069C24.2773 40.1254 24.3646 40.1748 24.4565 40.2158C24.5523 40.2513 24.6504 40.2799 24.75 40.3007C24.8489 40.3223 24.9501 40.3324 25.0512 40.3316C25.9047 40.3316 26.5959 39.6403 26.5959 38.7869C26.6122 37.9342 25.934 37.2291 25.0814 37.2128C24.9701 37.2105 24.8589 37.2206 24.75 37.2422C24.6504 37.263 24.5523 37.2916 24.4565 37.3271C24.3631 37.3658 24.275 37.4144 24.1939 37.4739C24.1097 37.5272 24.0325 37.589 23.9622 37.6593C23.6625 37.9574 23.498 38.3644 23.5065 38.7869C23.5081 39.1962 23.6718 39.5878 23.9622 39.8759Z" fill="#CDECE4"/>
<path d="M249.938 127.918H257.361C258.386 127.918 259.217 128.749 259.217 129.774V135.342C259.217 136.367 258.386 137.198 257.361 137.198V138.975C257.361 139.231 257.153 139.439 256.897 139.439C256.787 139.439 256.68 139.4 256.596 139.328L254.113 137.198H249.938C248.913 137.198 248.082 136.367 248.082 135.342V129.774C248.082 128.749 248.913 127.918 249.938 127.918ZM255.779 133.212C255.82 133.257 255.867 133.296 255.918 133.328C255.968 133.362 256.021 133.392 256.076 133.417C256.133 133.438 256.192 133.455 256.252 133.468C256.312 133.481 256.372 133.487 256.433 133.486C256.946 133.486 257.361 133.071 257.361 132.558C257.371 132.046 256.964 131.622 256.451 131.613C256.384 131.611 256.318 131.617 256.252 131.63C256.192 131.643 256.133 131.66 256.076 131.681C256.02 131.704 255.967 131.734 255.918 131.769C255.868 131.801 255.821 131.839 255.779 131.881C255.599 132.06 255.5 132.304 255.505 132.558C255.506 132.804 255.605 133.039 255.779 133.212ZM252.995 133.212C253.168 133.387 253.403 133.485 253.649 133.486C253.71 133.493 253.77 133.493 253.83 133.486C253.89 133.474 253.949 133.456 254.007 133.435C254.062 133.411 254.114 133.381 254.164 133.347C254.216 133.314 254.265 133.275 254.308 133.231C254.485 133.052 254.582 132.81 254.577 132.558C254.584 132.498 254.584 132.438 254.577 132.377C254.565 132.317 254.548 132.258 254.526 132.201C254.503 132.145 254.474 132.092 254.438 132.043C254.405 131.992 254.368 131.944 254.327 131.899C254.282 131.859 254.234 131.821 254.183 131.788C254.134 131.752 254.081 131.723 254.025 131.7C253.962 131.671 253.897 131.648 253.83 131.63C253.328 131.53 252.839 131.857 252.739 132.359C252.726 132.425 252.72 132.491 252.721 132.558C252.721 132.803 252.818 133.038 252.99 133.212H252.995ZM250.211 133.212C250.252 133.257 250.299 133.296 250.35 133.328C250.401 133.362 250.453 133.392 250.508 133.417C250.566 133.438 250.625 133.455 250.685 133.468C250.744 133.481 250.805 133.487 250.865 133.486C251.378 133.486 251.793 133.071 251.793 132.558C251.803 132.046 251.396 131.622 250.884 131.613C250.817 131.611 250.75 131.617 250.685 131.63C250.625 131.643 250.566 131.66 250.508 131.681C250.452 131.704 250.399 131.734 250.35 131.769C250.3 131.801 250.253 131.839 250.211 131.881C250.031 132.06 249.932 132.304 249.938 132.558C249.938 132.804 250.037 133.039 250.211 133.212Z" fill="#CDECE4"/>
<defs>
<filter id="filter0_d_3733_106371" x="120.552" y="85.5035" width="35.3123" height="35.453" filterUnits="userSpaceOnUse" color-interpolation-filters="sRGB">
<feFlood flood-opacity="0" result="BackgroundImageFix"/>
<feColorMatrix in="SourceAlpha" type="matrix" values="0 0 0 0 0 0 0 0 0 0 0 0 0 0 0 0 0 0 127 0" result="hardAlpha"/>
<feOffset/>
<feGaussianBlur stdDeviation="2.5"/>
<feComposite in2="hardAlpha" operator="out"/>
<feColorMatrix type="matrix" values="0 0 0 0 0.035 0 0 0 0 0.35 0 0 0 0 0.266677 0 0 0 0.11 0"/>
<feBlend mode="normal" in2="BackgroundImageFix" result="effect1_dropShadow_3733_106371"/>
<feBlend mode="normal" in="SourceGraphic" in2="effect1_dropShadow_3733_106371" result="shape"/>
</filter>
<linearGradient id="paint0_linear_3733_106371" x1="138.208" y1="22.3458" x2="138.208" y2="184.132" gradientUnits="userSpaceOnUse">
<stop stop-color="#B5E4D7"/>
<stop offset="1" stop-color="white"/>
</linearGradient>
<clipPath id="clip0_3733_106371">
<rect width="107" height="106" fill="white" transform="translate(85.1558 50.23)"/>
</clipPath>
<clipPath id="clip1_3733_106371">
<rect width="11" height="11" fill="white" transform="translate(227.979 7.54895)"/>
</clipPath>
</defs>
</svg>
