<svg width="20" height="20" viewBox="0 0 20 20" fill="none" xmlns="http://www.w3.org/2000/svg">
<g clip-path="url(#clip0_746_11761)">
<path fill-rule="evenodd" clip-rule="evenodd" d="M-0.000244141 10.0001C-0.000244141 4.47726 4.47696 6.10352e-05 9.99976 6.10352e-05C15.5226 6.10352e-05 19.9998 4.47726 19.9998 10.0001C19.9998 15.5229 15.5226 20.0001 9.99976 20.0001C4.47696 20.0001 -0.000244141 15.5229 -0.000244141 10.0001ZM10.2746 13.7072C10.6651 14.0977 11.2983 14.0977 11.6888 13.7072C12.0793 13.3166 12.0793 12.6835 11.6888 12.293L9.39586 10.0001L11.6888 7.70716C12.0793 7.31666 12.0793 6.68346 11.6888 6.29296C11.2983 5.90246 10.6651 5.90246 10.2746 6.29296L7.27456 9.29296C6.88406 9.68346 6.88406 10.3166 7.27456 10.7072L10.2746 13.7072Z" fill="#001921"/>
</g>
<defs>
<clipPath id="clip0_746_11761">
<rect width="20" height="20" fill="white" transform="translate(19.9998 20.0001) rotate(180)"/>
</clipPath>
</defs>
</svg>
