<svg width="20" height="20" viewBox="0 0 20 20" fill="none" xmlns="http://www.w3.org/2000/svg">
<path fill-rule="evenodd" clip-rule="evenodd" d="M0 10C0 4.4772 4.4772 0 10 0C15.5229 0 20 4.4772 20 10C20 15.5229 15.5229 20 10 20C4.4772 20 0 15.5229 0 10ZM10.2748 13.7071C10.6653 14.0976 11.2985 14.0976 11.689 13.7071C12.0796 13.3166 12.0796 12.6834 11.689 12.2929L9.3961 10L11.689 7.7071C12.0796 7.3166 12.0796 6.6834 11.689 6.2929C11.2985 5.9024 10.6653 5.9024 10.2748 6.2929L7.2748 9.2929C6.8843 9.6834 6.8843 10.3166 7.2748 10.7071L10.2748 13.7071Z" fill="white"/>
</svg>
