<svg width="18" height="19" viewBox="0 0 18 19" fill="none" xmlns="http://www.w3.org/2000/svg">
<path d="M0.136914 4.2479C0.515388 2.96862 1.69914 2.03184 3.09952 2.03184H14.9005C16.3012 2.03184 17.4855 2.96918 17.8634 4.24902L9.39281 9.50635C9.15061 9.65668 8.84941 9.65668 8.60748 9.50635L0.136914 4.2479ZM10.2818 10.9385C9.88649 11.1841 9.44339 11.3066 9.00001 11.3066C8.55663 11.3066 8.11353 11.1838 7.7182 10.9385L0.00878906 6.15263V14.1138C0.00878906 15.8179 1.3954 17.2045 3.09952 17.2045H14.9005C16.6046 17.2045 17.9912 15.8179 17.9912 14.1138V6.15375L10.2818 10.9385Z" fill="#99A2AB"/>
</svg>
