<svg width="14" height="14" viewBox="0 0 14 14" fill="none" xmlns="http://www.w3.org/2000/svg">
<path fill-rule="evenodd" clip-rule="evenodd" d="M14 7C14 10.866 10.866 14 7 14C3.13401 14 0 10.866 0 7C0 3.13401 3.13401 0 7 0C10.866 0 14 3.13401 14 7ZM9.24497 4.75502C9.51834 5.02839 9.51834 5.47161 9.24497 5.74497L7.98995 7L9.24497 8.25502C9.51834 8.52839 9.51834 8.97161 9.24497 9.24497C8.97161 9.51834 8.52839 9.51834 8.25502 9.24497L7 7.98995L5.74497 9.24497C5.47161 9.51834 5.02839 9.51834 4.75502 9.24497C4.48166 8.97161 4.48166 8.52839 4.75502 8.25502L6.01005 7L4.75502 5.74497C4.48166 5.47161 4.48166 5.02839 4.75502 4.75502C5.02839 4.48166 5.47161 4.48166 5.74497 4.75502L7 6.01005L8.25502 4.75502C8.52839 4.48166 8.97161 4.48166 9.24497 4.75502Z" fill="#99A2AB"/>
</svg>
