<svg width="23" height="22" viewBox="0 0 23 22" fill="none" xmlns="http://www.w3.org/2000/svg">
<g clip-path="url(#clip0_3733_79458)">
<path d="M20.8628 8.43333C20.4961 8.1125 20.0836 7.74583 19.9461 7.47083C19.8086 7.19583 19.8545 6.6 19.9003 6.09583C19.9461 5.0875 20.0378 3.9875 19.2586 3.20833C18.4795 2.42917 17.3795 2.52083 16.3711 2.56667C15.867 2.6125 15.2711 2.6125 14.9961 2.52083C14.7211 2.42917 14.3545 1.97083 14.0336 1.60417C13.392 0.916667 12.6128 0 11.467 0C10.3211 0 9.54198 0.916667 8.90031 1.60417C8.57948 1.97083 8.21281 2.38333 7.93781 2.52083C7.66281 2.65833 7.06698 2.6125 6.56281 2.56667C5.60031 2.52083 4.45448 2.475 3.67531 3.20833C2.89615 3.9875 2.98781 5.0875 3.03365 6.09583C3.07948 6.6 3.07948 7.19583 2.98781 7.47083C2.89615 7.74583 2.43781 8.1125 2.07115 8.43333C1.38365 9.075 0.46698 9.85417 0.46698 11C0.46698 12.1458 1.38365 12.925 2.07115 13.5667C2.43781 13.8875 2.85031 14.2542 2.98781 14.5292C3.12531 14.8042 3.07948 15.4 3.03365 15.9042C2.98781 16.8667 2.94198 18.0125 3.67531 18.7917C4.45448 19.5708 5.55448 19.4792 6.56281 19.4333C7.06698 19.3875 7.66281 19.3875 7.93781 19.4792C8.21281 19.5708 8.57948 20.0292 8.90031 20.3958C9.54198 21.0833 10.3211 22 11.467 22C12.6128 22 13.392 21.0833 14.0336 20.3958C14.3545 20.0292 14.7211 19.6167 14.9961 19.4792C15.2711 19.3417 15.867 19.3875 16.3711 19.4333C17.3795 19.4792 18.4795 19.5708 19.2586 18.7917C20.0378 18.0125 19.9461 16.9125 19.9003 15.9042C19.8545 15.4 19.8545 14.8042 19.9461 14.5292C20.0378 14.2542 20.4961 13.8875 20.8628 13.5667C21.5503 12.925 22.467 12.1458 22.467 11C22.467 9.85417 21.5503 9.075 20.8628 8.43333ZM7.80031 8.70833C7.80031 7.92917 8.39615 7.33333 9.17531 7.33333C9.95448 7.33333 10.5503 7.92917 10.5503 8.70833C10.5503 9.4875 9.95448 10.0833 9.17531 10.0833C8.39615 10.0833 7.80031 9.4875 7.80031 8.70833ZM9.63365 14.1167L8.35031 12.8333L13.3003 7.88333L14.5836 9.16667L9.63365 14.1167ZM13.7586 14.6667C12.9795 14.6667 12.3836 14.0708 12.3836 13.2917C12.3836 12.5125 12.9795 11.9167 13.7586 11.9167C14.5378 11.9167 15.1336 12.5125 15.1336 13.2917C15.1336 14.0708 14.5378 14.6667 13.7586 14.6667Z" fill="white"/>
</g>
<defs>
<clipPath id="clip0_3733_79458">
<rect width="22" height="22" fill="white" transform="translate(0.46698)"/>
</clipPath>
</defs>
</svg>
