<svg width="20" height="20" viewBox="0 0 20 20" fill="none" xmlns="http://www.w3.org/2000/svg">
<path fill-rule="evenodd" clip-rule="evenodd" d="M20 10C20 4.47715 15.5228 0 10 0C4.47715 0 0 4.47715 0 10C0 15.5228 4.47715 20 10 20C15.5228 20 20 15.5228 20 10ZM10 15C10.5523 15 11 14.5523 11 14V10C11 9.44772 10.5523 9 10 9C9.44771 9 9 9.44772 9 10V14C9 14.5523 9.44771 15 10 15ZM9 6C9 6.55229 9.44771 7 10 7H10.01C10.5623 7 11.01 6.55229 11.01 6C11.01 5.44771 10.5623 5 10.01 5H10C9.44771 5 9 5.44771 9 6Z" fill="#57616A"/>
</svg>
