<svg width="24" height="24" viewBox="0 0 24 24" fill="none" xmlns="http://www.w3.org/2000/svg">
<path fill-rule="evenodd" clip-rule="evenodd" d="M0 12C0 18.6274 5.37258 24 12 24C18.6274 24 24 18.6274 24 12C24 5.37258 18.6274 0 12 0C5.37258 0 0 5.37258 0 12ZM12.3298 7.55147C12.7984 7.08284 13.5582 7.08284 14.0268 7.55147C14.4955 8.0201 14.4955 8.7799 14.0268 9.24853L11.2754 12L14.0268 14.7515C14.4955 15.2201 14.4955 15.9799 14.0268 16.4485C13.5582 16.9172 12.7984 16.9172 12.3298 16.4485L8.72979 12.8485C8.26116 12.3799 8.26116 11.6201 8.72979 11.1515L12.3298 7.55147Z" fill="rgba(0, 25, 33, 0.2)" />
</svg>
