<svg width="16" height="16" viewBox="0 0 16 16" fill="none" xmlns="http://www.w3.org/2000/svg">
<path d="M2.42341 3.52151C2.22301 3.62849 2.08919 3.81567 2.0758 4.04292C1.95569 5.15257 1.76834 8.65524 3.38594 11.5697C3.51976 11.8103 3.66679 12.0509 3.82722 12.2782C4.80312 13.6954 6.26046 14.8851 8.43944 15.5002C15.378 13.5349 14.5625 5.74081 14.2952 4.01616C14.2684 3.80229 14.1346 3.62849 13.9476 3.52151L8.50635 0.580322C8.30595 0.473429 8.05185 0.473429 7.85128 0.580322L7.82452 0.593704C7.68942 0.666939 2.07098 3.71256 2.42341 3.52151Z" fill="#07A279"/>
<path fill-rule="evenodd" clip-rule="evenodd" d="M11.0329 6.06381C11.2512 6.28202 11.2512 6.63581 11.0329 6.85402L7.86475 10.0222C7.64654 10.2404 7.29275 10.2404 7.07454 10.0222L5.43636 8.38403C5.21815 8.16582 5.21815 7.81203 5.43636 7.59382C5.65457 7.37561 6.00836 7.37561 6.22657 7.59382L7.46965 8.83689L10.2427 6.06381C10.4609 5.8456 10.8147 5.8456 11.0329 6.06381Z" fill="white"/>
</svg>
