<svg width="20" height="20" viewBox="0 0 20 20" fill="none" xmlns="http://www.w3.org/2000/svg">
<path d="M10 20C15.5141 20 20 15.5141 20 10C20 4.48594 15.5141 -3.92173e-07 10 -8.74228e-07C4.48594 -1.35628e-06 1.35628e-06 4.48594 8.74228e-07 10C3.92173e-07 15.5141 4.48594 20 10 20ZM9.33719 5.27469C9.52 5.09156 9.76 5 10 5C10.24 5 10.48 5.09156 10.6628 5.27469L14.0625 8.67437C14.4286 9.04044 14.4286 9.63394 14.0625 10C13.6964 10.3661 13.1029 10.3661 12.7369 10L10.9375 8.20062L10.9375 13.75C10.9375 14.2678 10.5178 14.6875 10 14.6875C9.48223 14.6875 9.0625 14.2678 9.0625 13.75L9.0625 8.20062L7.26313 10C6.89707 10.3661 6.30356 10.3661 5.9375 10C5.57144 9.63394 5.57144 9.04043 5.9375 8.67437L9.33719 5.27469Z" fill="#001921"/>
</svg>
