<svg width="16" height="16" viewBox="0 0 16 16" fill="none" xmlns="http://www.w3.org/2000/svg">
<path d="M2.89817 13.4982C3.02206 13.5546 3.15675 13.584 3.29323 13.5843C3.33553 13.5843 3.37783 13.5816 3.41982 13.576L6.03918 13.2333C6.17686 13.2151 6.30915 13.1709 6.42884 13.1038C6.51493 13.0555 6.59473 12.9954 6.66582 12.9247L11.9027 7.68785L8.23227 4.01751L2.99536 9.25449C2.82678 9.42379 2.71819 9.64397 2.68699 9.88098L2.34412 12.5003C2.32642 12.6354 2.33782 12.7728 2.37742 12.9033C2.41672 13.0338 2.48361 13.1543 2.5736 13.2569C2.6237 13.3142 2.68039 13.3651 2.74219 13.4088C2.79108 13.4433 2.84328 13.4732 2.89817 13.4982Z" fill="#07A279"/>
<path d="M9.18798 3.0618L12.8584 6.73214L14.3157 5.27487C14.5122 5.07761 14.6229 4.81041 14.6229 4.53181C14.6229 4.25325 14.5122 3.98605 14.3157 3.78878L12.1313 1.60464C12.032 1.50554 11.915 1.42834 11.7875 1.37614C11.6621 1.3247 11.5266 1.29747 11.3883 1.29747C11.1099 1.29747 10.8426 1.40794 10.6452 1.60464L9.18798 3.0618Z" fill="#07A279"/>
</svg>
