<svg width="20" height="20" viewBox="0 0 20 20" fill="none" xmlns="http://www.w3.org/2000/svg">
<path d="M0 4.44444C0 1.98985 1.98985 0 4.44444 0H15.5556C18.0102 0 20 1.98985 20 4.44444V15.5556C20 18.0102 18.0102 20 15.5556 20H4.44444C1.98985 20 0 18.0102 0 15.5556V4.44444Z" fill="#001921"/>
<path d="M0 4.44444C0 1.98985 1.98985 0 4.44444 0H15.5556C18.0102 0 20 1.98985 20 4.44444V15.5556C20 18.0102 18.0102 20 15.5556 20H4.44444C1.98985 20 0 18.0102 0 15.5556V4.44444Z" fill="#001921"/>
<path fill-rule="evenodd" clip-rule="evenodd" d="M15.1025 6.21611C15.5906 6.70426 15.5906 7.49572 15.1025 7.98387L9.30247 13.7839C9.06805 14.0183 8.75011 14.15 8.41859 14.15C8.08707 14.15 7.76913 14.0183 7.53471 13.7839L4.89834 11.1475C4.41019 10.6594 4.41019 9.8679 4.89834 9.37974C5.3865 8.89159 6.17795 8.89159 6.66611 9.37974L8.41859 11.1322L13.3347 6.21611C13.8229 5.72795 14.6143 5.72795 15.1025 6.21611Z" fill="white"/>
</svg>
