<svg width="18" height="18" viewBox="0 0 18 18" fill="none" xmlns="http://www.w3.org/2000/svg">
<path d="M14.7191 0.0126953H3.28078C3.085 0.0149494 2.89654 0.0874332 2.74971 0.216951C3.33236 0.421942 3.84499 0.787852 4.22819 1.27227C4.61138 1.75669 4.84946 2.33978 4.91482 2.95397C4.92731 3.06255 4.92731 3.1722 4.91482 3.28078V17.1702C4.91443 17.3264 4.95887 17.4795 5.04286 17.6113C5.12685 17.7431 5.24687 17.848 5.38869 17.9136C5.53084 17.9791 5.6888 18.0023 5.84377 17.9806C5.99875 17.9589 6.14422 17.8931 6.2629 17.7911L8.59141 15.7976L10.9199 17.7911C11.0679 17.9177 11.2562 17.9872 11.451 17.9872C11.6457 17.9872 11.8341 17.9177 11.982 17.7911L14.3106 15.7976L16.6391 17.7911C16.7871 17.9177 16.9754 17.9872 17.1701 17.9872C17.2883 17.9863 17.4051 17.9613 17.5133 17.9136C17.6551 17.848 17.7751 17.7431 17.8591 17.6113C17.9431 17.4795 17.9875 17.3264 17.9871 17.1702V3.28078C17.9871 2.41403 17.6428 1.58278 17.0299 0.969896C16.4171 0.357011 15.5858 0.0126953 14.7191 0.0126953ZM13.902 11.451H8.99992C8.78323 11.451 8.57542 11.3649 8.4222 11.2117C8.26898 11.0585 8.1829 10.8507 8.1829 10.634C8.1829 10.4173 8.26898 10.2095 8.4222 10.0563C8.57542 9.90304 8.78323 9.81696 8.99992 9.81696H13.902C14.1187 9.81696 14.3265 9.90304 14.4798 10.0563C14.633 10.2095 14.7191 10.4173 14.7191 10.634C14.7191 10.8507 14.633 11.0585 14.4798 11.2117C14.3265 11.3649 14.1187 11.451 13.902 11.451ZM13.902 8.18291H8.99992C8.78323 8.18291 8.57542 8.09683 8.4222 7.94361C8.26898 7.79039 8.1829 7.58258 8.1829 7.36589C8.1829 7.1492 8.26898 6.94139 8.4222 6.78817C8.57542 6.63495 8.78323 6.54887 8.99992 6.54887H13.902C14.1187 6.54887 14.3265 6.63495 14.4798 6.78817C14.633 6.94139 14.7191 7.1492 14.7191 7.36589C14.7191 7.58258 14.633 7.79039 14.4798 7.94361C14.3265 8.09683 14.1187 8.18291 13.902 8.18291ZM13.902 4.91483H8.99992C8.78323 4.91483 8.57542 4.82875 8.4222 4.67553C8.26898 4.5223 8.1829 4.31449 8.1829 4.0978C8.1829 3.88112 8.26898 3.6733 8.4222 3.52008C8.57542 3.36686 8.78323 3.28078 8.99992 3.28078H13.902C14.1187 3.28078 14.3265 3.36686 14.4798 3.52008C14.633 3.6733 14.7191 3.88112 14.7191 4.0978C14.7191 4.31449 14.633 4.5223 14.4798 4.67553C14.3265 4.82875 14.1187 4.91483 13.902 4.91483ZM3.28078 3.28078V9.81696H0.829716C0.613029 9.81696 0.405216 9.73088 0.251995 9.57766C0.098774 9.42444 0.0126953 9.21662 0.0126953 8.99994V3.28078C0.0126953 3.1664 0.0126953 3.06019 0.0126953 2.95397C0.0560328 2.5206 0.269753 2.12219 0.606839 1.84639C0.943925 1.57059 1.37677 1.44 1.81014 1.48333C2.24352 1.52667 2.64192 1.74039 2.91772 2.07748C3.19352 2.41457 3.32412 2.84741 3.28078 3.28078Z" fill="#07A279"/>
</svg>
