<svg width="20" height="20" viewBox="0 0 20 20" fill="none" xmlns="http://www.w3.org/2000/svg">
<path fill-rule="evenodd" clip-rule="evenodd" d="M20 10C20 15.5228 15.5228 20 10 20C4.47715 20 0 15.5228 0 10C0 4.47715 4.47715 0 10 0C15.5228 0 20 4.47715 20 10ZM13.2071 6.79289C13.5976 7.18342 13.5976 7.81658 13.2071 8.20711L11.4142 10L13.2071 11.7929C13.5976 12.1834 13.5976 12.8166 13.2071 13.2071C12.8166 13.5976 12.1834 13.5976 11.7929 13.2071L10 11.4142L8.20711 13.2071C7.81658 13.5976 7.18342 13.5976 6.79289 13.2071C6.40237 12.8166 6.40237 12.1834 6.79289 11.7929L8.58579 10L6.79289 8.20711C6.40237 7.81658 6.40237 7.18342 6.79289 6.79289C7.18342 6.40237 7.81658 6.40237 8.20711 6.79289L10 8.58579L11.7929 6.79289C12.1834 6.40237 12.8166 6.40237 13.2071 6.79289Z" fill="#57616A"/>
</svg>
