<svg width="18" height="19" viewBox="0 0 18 19" fill="none" xmlns="http://www.w3.org/2000/svg">
<path fill-rule="evenodd" clip-rule="evenodd" d="M8.40967 3.94824C8.40967 4.43715 8.01333 4.83349 7.52442 4.83349L2.36046 4.83349C1.87155 4.83349 1.47521 4.43715 1.47521 3.94824C1.47521 3.45933 1.87155 3.06299 2.36046 3.06299L7.52442 3.06299C8.01333 3.06299 8.40967 3.45933 8.40967 3.94824Z" fill="#57616A"/>
<path fill-rule="evenodd" clip-rule="evenodd" d="M16.5245 3.94824C16.5245 4.43715 16.1282 4.83349 15.6393 4.83349L10.4753 4.83349C9.98642 4.83349 9.59008 4.43715 9.59008 3.94824C9.59008 3.45933 9.98642 3.06299 10.4753 3.06299L15.6393 3.06299C16.1282 3.06299 16.5245 3.45933 16.5245 3.94824Z" fill="#57616A"/>
<path fill-rule="evenodd" clip-rule="evenodd" d="M9.88513 9.85009C9.88513 10.339 9.48879 10.7353 8.99988 10.7353L2.36051 10.7353C1.8716 10.7353 1.47526 10.339 1.47526 9.85009C1.47526 9.36118 1.8716 8.96484 2.36051 8.96484L8.99988 8.96484C9.48879 8.96484 9.88513 9.36118 9.88513 9.85009Z" fill="#57616A"/>
<path fill-rule="evenodd" clip-rule="evenodd" d="M16.5245 9.85009C16.5245 10.339 16.1282 10.7353 15.6393 10.7353L11.9507 10.7353C11.4618 10.7353 11.0655 10.339 11.0655 9.85009C11.0655 9.36118 11.4618 8.96484 11.9507 8.96484L15.6393 8.96484C16.1282 8.96484 16.5245 9.36118 16.5245 9.85009Z" fill="#57616A"/>
<path fill-rule="evenodd" clip-rule="evenodd" d="M6.93445 15.7519C6.93445 16.2409 6.53811 16.6372 6.0492 16.6372L2.36066 16.6372C1.87175 16.6372 1.47541 16.2409 1.47541 15.7519C1.47541 15.263 1.87175 14.8667 2.36066 14.8667L6.0492 14.8667C6.53811 14.8667 6.93445 15.263 6.93445 15.7519Z" fill="#57616A"/>
<path fill-rule="evenodd" clip-rule="evenodd" d="M16.5245 15.7519C16.5245 16.2409 16.1282 16.6372 15.6393 16.6372L8.99992 16.6372C8.51101 16.6372 8.11467 16.2409 8.11467 15.7519C8.11467 15.263 8.51101 14.8667 8.99992 14.8667L15.6393 14.8667C16.1282 14.8667 16.5245 15.263 16.5245 15.7519Z" fill="#57616A"/>
<path fill-rule="evenodd" clip-rule="evenodd" d="M7.52442 0.850098C8.01333 0.850098 8.40967 1.24644 8.40967 1.73535L8.40967 6.16159C8.40967 6.6505 8.01333 7.04684 7.52442 7.04684C7.03551 7.04684 6.63917 6.6505 6.63917 6.16159L6.63917 1.73535C6.63917 1.24644 7.03551 0.850098 7.52442 0.850098Z" fill="#57616A"/>
<path fill-rule="evenodd" clip-rule="evenodd" d="M11.9507 6.75195C12.4396 6.75195 12.8359 7.14829 12.8359 7.6372L12.8359 12.0634C12.8359 12.5524 12.4396 12.9487 11.9507 12.9487C11.4618 12.9487 11.0654 12.5524 11.0654 12.0634L11.0654 7.6372C11.0654 7.14829 11.4618 6.75195 11.9507 6.75195Z" fill="#57616A"/>
<path fill-rule="evenodd" clip-rule="evenodd" d="M6.0492 12.6533C6.53811 12.6533 6.93445 13.0497 6.93445 13.5386L6.93445 17.9648C6.93445 18.4537 6.53811 18.8501 6.0492 18.8501C5.56029 18.8501 5.16395 18.4537 5.16395 17.9648L5.16395 13.5386C5.16395 13.0497 5.56029 12.6533 6.0492 12.6533Z" fill="#57616A"/>
</svg>
