<svg width="19" height="18" viewBox="0 0 19 18" fill="none" xmlns="http://www.w3.org/2000/svg">
<path d="M18.3907 9.34903C18.2666 9.62184 15.2862 16.0313 9.46631 16.0313C8.40881 16.0313 7.44608 15.8178 6.57618 15.4699L9.39346 12.6526C9.41793 12.6532 9.44184 12.6563 9.46631 12.6563C11.4823 12.6563 13.1226 11.016 13.1226 9C13.1226 8.97553 13.1195 8.95162 13.1189 8.92715L16.4244 5.62162C17.6769 7.11478 18.3339 8.52609 18.3909 8.65097C18.4916 8.87259 18.4916 9.1274 18.3907 9.34903ZM17.3754 2.28402L2.75033 16.909L1.55726 15.716L3.6762 13.597C1.66357 11.7523 0.614228 9.50822 0.541946 9.34903C0.441259 9.12712 0.441259 8.87259 0.541946 8.65097C0.665978 8.37815 3.64639 1.96874 9.46631 1.96874C11.2056 1.96874 12.6889 2.54305 13.9199 3.35334L16.1823 1.09096L17.3754 2.28402ZM6.35793 10.9153L7.61371 9.65953C7.53974 9.45309 7.49755 9.23147 7.49755 9C7.49755 7.91437 8.38096 7.03125 9.46631 7.03125C9.69778 7.03125 9.9194 7.07343 10.1258 7.1474L11.3816 5.89162C10.8239 5.54653 10.1692 5.34374 9.46631 5.34374C7.4503 5.34374 5.81005 6.98399 5.81005 9C5.81005 9.70284 6.01283 10.3576 6.35793 10.9153Z" fill="#99A2AB"/>
</svg>
