<svg width="20" height="20" viewBox="0 0 20 20" fill="none" xmlns="http://www.w3.org/2000/svg">
<g clip-path="url(#clip0_432_2822)">
<path d="M13.6576 12.5001C13.766 11.6667 13.766 10.8334 13.766 10.0001C13.766 9.16672 13.7243 8.33338 13.6576 7.50005H18.4076C18.8854 9.13248 18.8854 10.8676 18.4076 12.5001H13.6576ZM11.791 5.83338C11.266 2.57504 10.2243 0.833374 9.59929 0.833374C8.97429 0.833374 7.93262 2.57504 7.40762 5.83338H11.791ZM7.40762 14.1667C7.92429 17.4251 8.97429 19.1667 9.59929 19.1667C10.2243 19.1667 11.266 17.4251 11.791 14.1667H7.40762ZM11.991 7.50005H7.20762C7.14096 8.27505 7.09929 9.10005 7.09929 10.0001C7.09929 10.9001 7.14096 11.7251 7.20762 12.5001H11.991C12.0576 11.7251 12.0993 10.9001 12.0993 10.0001C12.0993 9.10005 12.0993 8.27505 11.991 7.50005ZM5.43262 10.0001C5.43262 9.16672 5.43262 8.33338 5.54096 7.50005H0.790955C0.313171 9.13248 0.313171 10.8676 0.790955 12.5001H5.54096C5.47429 11.6667 5.43262 10.8334 5.43262 10.0001ZM5.73262 14.1667H1.44095C2.01563 15.286 2.81458 16.275 3.78804 17.0721C4.76151 17.8692 5.88865 18.4574 7.09929 18.8001C6.40112 17.3378 5.93981 15.7738 5.73262 14.1667ZM13.466 14.1667C13.2588 15.7738 12.7975 17.3378 12.0993 18.8001C13.3099 18.4574 14.4371 17.8692 15.4105 17.0721C16.384 16.275 17.1829 15.286 17.7576 14.1667H13.466ZM13.466 5.83338H17.7576C17.1829 4.7141 16.384 3.72511 15.4105 2.92799C14.4371 2.13086 13.3099 1.54267 12.0993 1.20004C12.7975 2.66232 13.2588 4.22628 13.466 5.83338ZM5.73262 5.83338C5.93981 4.22628 6.40112 2.66232 7.09929 1.20004C5.88865 1.54267 4.76151 2.13086 3.78804 2.92799C2.81458 3.72511 2.01563 4.7141 1.44095 5.83338H5.73262Z" fill="#001921"/>
</g>
<defs>
<clipPath id="clip0_432_2822">
<rect width="20" height="20" fill="white"/>
</clipPath>
</defs>
</svg>
