<svg width="20" height="20" viewBox="0 0 20 20" fill="none" xmlns="http://www.w3.org/2000/svg">
<path d="M18.5417 7.66667C18.2083 7.375 17.8333 7.04167 17.7083 6.79167C17.5833 6.54167 17.625 6 17.6667 5.54167C17.7083 4.625 17.7917 3.625 17.0833 2.91667C16.375 2.20833 15.375 2.29167 14.4583 2.33333C14 2.375 13.4583 2.375 13.2083 2.29167C12.9583 2.20833 12.625 1.79167 12.3333 1.45833C11.75 0.833333 11.0417 0 10 0C8.95833 0 8.25 0.833333 7.66667 1.45833C7.375 1.79167 7.04167 2.16667 6.79167 2.29167C6.54167 2.41667 6 2.375 5.54167 2.33333C4.66667 2.29167 3.625 2.25 2.91667 2.91667C2.20833 3.625 2.29167 4.625 2.33333 5.54167C2.375 6 2.375 6.54167 2.29167 6.79167C2.20833 7.04167 1.79167 7.375 1.45833 7.66667C0.833333 8.25 0 8.95833 0 10C0 11.0417 0.833333 11.75 1.45833 12.3333C1.79167 12.625 2.16667 12.9583 2.29167 13.2083C2.41667 13.4583 2.375 14 2.33333 14.4583C2.29167 15.3333 2.25 16.375 2.91667 17.0833C3.625 17.7917 4.625 17.7083 5.54167 17.6667C6 17.625 6.54167 17.625 6.79167 17.7083C7.04167 17.7917 7.375 18.2083 7.66667 18.5417C8.25 19.1667 8.95833 20 10 20C11.0417 20 11.75 19.1667 12.3333 18.5417C12.625 18.2083 12.9583 17.8333 13.2083 17.7083C13.4583 17.5833 14 17.625 14.4583 17.6667C15.375 17.7083 16.375 17.7917 17.0833 17.0833C17.7917 16.375 17.7083 15.375 17.6667 14.4583C17.625 14 17.625 13.4583 17.7083 13.2083C17.7917 12.9583 18.2083 12.625 18.5417 12.3333C19.1667 11.75 20 11.0417 20 10C20 8.95833 19.1667 8.25 18.5417 7.66667ZM6.66667 7.91667C6.66667 7.20833 7.20833 6.66667 7.91667 6.66667C8.625 6.66667 9.16667 7.20833 9.16667 7.91667C9.16667 8.625 8.625 9.16667 7.91667 9.16667C7.20833 9.16667 6.66667 8.625 6.66667 7.91667ZM8.33333 12.8333L7.16667 11.6667L11.6667 7.16667L12.8333 8.33333L8.33333 12.8333ZM12.0833 13.3333C11.375 13.3333 10.8333 12.7917 10.8333 12.0833C10.8333 11.375 11.375 10.8333 12.0833 10.8333C12.7917 10.8333 13.3333 11.375 13.3333 12.0833C13.3333 12.7917 12.7917 13.3333 12.0833 13.3333Z" fill="#001921"/>
</svg>
