<svg width="20" height="20" viewBox="0 0 20 20" fill="none" xmlns="http://www.w3.org/2000/svg">
<path d="M10.0498 9C10.9398 9 11.8099 8.73606 12.5499 8.24156C13.29 7.74706 13.8667 7.04421 14.2073 6.22189C14.5479 5.39958 14.637 4.49474 14.4633 3.62181C14.2896 2.74887 13.8609 1.94705 13.2315 1.31774C12.6021 0.688438 11.8002 0.259917 10.9272 0.0863723C10.0543 -0.0871722 9.14943 0.00205486 8.32718 0.34277C7.50493 0.683485 6.80218 1.26038 6.30781 2.00051C5.81344 2.74063 5.54965 3.61074 5.5498 4.50079C5.55106 5.69381 6.02559 6.83759 6.86925 7.68111C7.71291 8.52463 8.85678 8.99896 10.0498 9Z" fill="#99A2AB"/>
<path d="M1.94727 17.9487C1.94727 14.111 5.05831 11 8.89599 11H11.1038C14.9415 11 18.0525 14.111 18.0525 17.9487C18.0525 19.0816 17.1341 20 16.0012 20H3.99855C2.86566 20 1.94727 19.0816 1.94727 17.9487Z" fill="#99A2AB"/>
</svg>
