<svg width="20" height="20" viewBox="0 0 20 20" fill="none" xmlns="http://www.w3.org/2000/svg">
<g clip-path="url(#clip0_62_7087)">
<path fill-rule="evenodd" clip-rule="evenodd" d="M10 0C15.5228 0 20 4.47715 20 10C20 15.5228 15.5228 20 10 20C4.47715 20 0 15.5228 0 10C0 4.47715 4.47715 0 10 0ZM6.29289 10.2748C5.90237 10.6654 5.90237 11.2985 6.29289 11.689C6.68342 12.0796 7.31658 12.0796 7.70711 11.689L10 9.39615L12.2929 11.689C12.6834 12.0796 13.3166 12.0796 13.7071 11.689C14.0976 11.2985 14.0976 10.6654 13.7071 10.2748L10.7071 7.27483C10.3166 6.8843 9.68342 6.8843 9.29289 7.27483L6.29289 10.2748Z" fill="#001921"/>
</g>
<defs>
<clipPath id="clip0_62_7087">
<rect width="20" height="20" fill="white"/>
</clipPath>
</defs>
</svg>
