<svg width="18" height="18" viewBox="0 0 18 18" fill="none" xmlns="http://www.w3.org/2000/svg">
<path d="M15 4.28573H13.2857C13.2857 1.92001 11.3657 0 9 0C6.63428 0 4.71427 1.92001 4.71427 4.28573H3.00001C2.05288 4.28573 1.29431 5.05286 1.29431 6.00003L1.28575 16.2857C1.28571 17.2329 2.05284 18 3.00001 18H15C15.9472 18 16.7143 17.2329 16.7143 16.2857V5.99999C16.7143 5.05286 15.9472 4.28573 15 4.28573ZM9 1.7143C10.4186 1.7143 11.5714 2.86714 11.5714 4.28573H6.42857C6.42857 2.86714 7.58141 1.7143 9 1.7143ZM9 10.2857C6.63428 10.2857 4.71427 8.3657 4.71427 5.99999H6.42857C6.42857 7.41857 7.58141 8.57141 9 8.57141C10.4186 8.57141 11.5714 7.41857 11.5714 5.99999H13.2857C13.2857 8.3657 11.3657 10.2857 9 10.2857Z" fill="#57616A"/>
</svg>
