<svg width="20" height="20" viewBox="0 0 20 20" fill="none" xmlns="http://www.w3.org/2000/svg">
<path d="M19.9999 15.3571V17.1428C19.9999 18.1278 19.1985 18.9285 18.2142 18.9285H2.85713C1.28142 18.9285 0 17.6471 0 16.0714C0 16.0714 0 3.93926 0 3.92854C0 2.35284 1.28142 1.07141 2.85713 1.07141H16.0714C16.6635 1.07141 17.1428 1.55141 17.1428 2.14284C17.1428 2.73426 16.6635 3.21426 16.0714 3.21426H2.85713C2.46356 3.21426 2.14285 3.53426 2.14285 3.92854C2.14285 4.32283 2.46356 4.64283 2.85713 4.64283H18.2142C19.1985 4.64283 19.9999 5.44354 19.9999 6.42854V8.21425H16.4285C14.4592 8.21425 12.8571 9.81638 12.8571 11.7857C12.8571 13.7549 14.4592 15.3571 16.4285 15.3571H19.9999Z" fill="#001921"/>
<path d="M20.0004 9.64282V13.9285H16.429C15.2454 13.9285 14.2861 12.9692 14.2861 11.7857C14.2861 10.6021 15.2454 9.64282 16.429 9.64282H20.0004Z" fill="#001921"/>
</svg>
