<svg width="20" height="20" viewBox="0 0 20 20" fill="none" xmlns="http://www.w3.org/2000/svg">
<path d="M8.99898 9.35736C9.92437 9.35736 10.829 9.08294 11.5984 8.5688C12.3678 8.05466 12.9675 7.32391 13.3216 6.46894C13.6757 5.61398 13.7683 4.67321 13.5877 3.76561C13.4071 2.85802 12.9614 2.02436 12.307 1.37007C11.6526 0.715773 10.8189 0.270237 9.91124 0.0898019C9.00361 -0.0906335 8.06286 0.00213645 7.20796 0.35638C6.35306 0.710624 5.62241 1.31043 5.10841 2.07994C4.59441 2.84945 4.32015 3.75411 4.32031 4.6795C4.32161 5.91989 4.81499 7.10909 5.69215 7.9861C6.56931 8.86311 7.75859 9.35627 8.99898 9.35736Z" fill="#001921"/>
<path fill-rule="evenodd" clip-rule="evenodd" d="M10.4569 10.6236C9.98347 10.5423 9.49678 10.5 9.0002 10.5C4.27816 10.5 0.450195 14.328 0.450195 19.05V19.241C0.450195 19.6602 0.79002 20 1.20922 20H10.3199C9.05311 18.861 8.25643 17.2093 8.25643 15.3716C8.25643 13.4685 9.11078 11.765 10.4569 10.6236Z" fill="#001921"/>
<path fill-rule="evenodd" clip-rule="evenodd" d="M15.5 11.5C15.5 11.2239 15.2761 11 15 11H14C13.7239 11 13.5 11.2239 13.5 11.5L13.5 14.5H10.5C10.2239 14.5 10 14.7239 10 15V16C10 16.2761 10.2239 16.5 10.5 16.5H13.5L13.5 19.5C13.5 19.7761 13.7239 20 14 20H15C15.2761 20 15.5 19.7761 15.5 19.5V16.5H18.5C18.7761 16.5 19 16.2761 19 16V15C19 14.7239 18.7761 14.5 18.5 14.5H15.5V11.5Z" fill="#001921"/>
</svg>
