<svg width="20" height="20" viewBox="0 0 20 20" fill="none" xmlns="http://www.w3.org/2000/svg">
<path fill-rule="evenodd" clip-rule="evenodd" d="M20 15.91V4.09002L19.9995 4.08951C19.9995 3.95377 19.9929 3.81905 19.9796 3.68535C19.8867 2.74947 19.4733 1.8687 18.8023 1.19766C18.1307 0.526625 17.2504 0.112775 16.3139 0.0199015C16.1802 0.00663384 16.0455 0 15.9098 0H4.08971C4.02235 0 3.95448 0.00153089 3.88712 0.00510295C2.87617 0.0551119 1.91728 0.479167 1.19721 1.19817C0.526141 1.86921 0.112781 2.74998 0.0199025 3.68586C0.00663417 3.81956 0 3.95428 0 4.09002V10.9924C0 11.4265 0.533903 11.6732 0.907146 11.4516C1.73958 10.9574 2.71161 10.6736 3.74993 10.6736C6.8297 10.6736 9.32634 13.1702 9.32634 16.25C9.32634 17.2883 9.04255 18.2604 8.5483 19.0928C8.32669 19.4661 8.57343 20 9.0075 20H15.9098C16.9947 20 18.0348 19.5688 18.8023 18.8018C19.5693 18.0349 20 16.9949 20 15.91ZM11.9288 15.6763C11.6282 15.6763 11.3842 15.9202 11.3842 16.2208C11.3842 16.5213 11.6282 16.7652 11.9288 16.7652H16.7191C17.0197 16.7652 17.2637 16.5213 17.2637 16.2208C17.2637 15.9202 17.0197 15.6763 16.7191 15.6763H11.9288ZM11.9288 12.815C11.6282 12.815 11.3842 13.059 11.3842 13.3595C11.3842 13.6601 11.6282 13.904 11.9288 13.904H16.7191C17.0197 13.904 17.2637 13.6601 17.2637 13.3595C17.2637 13.059 17.0197 12.815 16.7191 12.815H11.9288ZM7.23533 6.27255C7.12715 6.20978 7.0608 6.09446 7.0608 5.96943V1.08846H12.9397V5.96943C12.9397 6.09446 12.8734 6.20978 12.7652 6.27255C12.6575 6.33531 12.5238 6.33583 12.4151 6.27357L10.2702 5.04835C10.1033 4.95242 9.89717 4.95242 9.7303 5.04835L7.58541 6.27357C7.47672 6.33583 7.34301 6.33531 7.23533 6.27255Z" fill="#001921"/>
<path fill-rule="evenodd" clip-rule="evenodd" d="M7.5 16.25C7.5 18.3211 5.82107 20 3.75 20C1.67893 20 0 18.3211 0 16.25C0 14.1789 1.67893 12.5 3.75 12.5C5.82107 12.5 7.5 14.1789 7.5 16.25ZM4.95266 15.0473C5.09911 15.1938 5.09911 15.4312 4.95266 15.5777L4.28033 16.25L4.95266 16.9223C5.09911 17.0688 5.09911 17.3062 4.95266 17.4527C4.80622 17.5991 4.56878 17.5991 4.42234 17.4527L3.75 16.7803L3.07767 17.4527C2.93122 17.5991 2.69378 17.5991 2.54733 17.4527C2.40089 17.3062 2.40089 17.0688 2.54733 16.9223L3.21967 16.25L2.54733 15.5777C2.40089 15.4312 2.40089 15.1938 2.54733 15.0473C2.69378 14.9009 2.93122 14.9009 3.07767 15.0473L3.75 15.7197L4.42234 15.0473C4.56878 14.9009 4.80622 14.9009 4.95266 15.0473Z" fill="#001921"/>
</svg>
