<svg width="20" height="20" viewBox="0 0 20 20" fill="none" xmlns="http://www.w3.org/2000/svg">
<path d="M16.503 8.01231L9.88379 14.6315C9.70562 14.81 9.46341 14.9102 9.21138 14.9102H6.0411C5.51579 14.9102 5.09002 14.4844 5.09002 13.9591V10.7888C5.09002 10.5368 5.1902 10.2946 5.36869 10.1164L11.9879 3.49719L16.503 8.01231ZM17.8478 6.66747L19.0776 5.43772C19.6831 4.8322 19.9903 4.0726 19.9903 3.18017C19.9903 2.30866 19.678 1.55476 19.0617 0.938463C18.4454 0.32216 17.6915 0.0098877 16.82 0.0098877C15.9276 0.0098877 15.168 0.317088 14.5625 0.922611L13.3327 2.15236L17.8478 6.66747ZM19.6733 17.1294V10.4718H17.4541V16.8124C17.4541 17.3367 17.0274 17.7634 16.503 17.7634H3.18785C2.66349 17.7634 2.23677 17.3367 2.23677 16.8124V3.49719C2.23677 2.97283 2.66349 2.54611 3.18785 2.54611H9.5284V0.326916H2.87083C1.29774 0.326916 0.0175781 1.60707 0.0175781 3.18017V17.1294C0.0175781 18.7025 1.29774 19.9826 2.87083 19.9826H16.82C18.3931 19.9826 19.6733 18.7025 19.6733 17.1294Z" fill="#001921"/>
</svg>
