<svg width="18" height="18" viewBox="0 0 18 18" fill="none" xmlns="http://www.w3.org/2000/svg">
<g clip-path="url(#clip0_2136_4516)">
<path d="M0.428574 2.03572C0.428574 1.14812 1.14812 0.428574 2.03572 0.428574H3.10715C3.99475 0.428574 4.71429 1.14812 4.71429 2.03572V3.10715C4.71429 3.99475 3.99475 4.71429 3.10715 4.71429H2.03572C1.14812 4.71429 0.428574 3.99475 0.428574 3.10715V2.03572Z" fill="#57616A"/>
<path d="M0.428574 8.46429C0.428574 7.57669 1.14812 6.85715 2.03572 6.85715H3.10715C3.99475 6.85715 4.71429 7.57669 4.71429 8.46429V9.53572C4.71429 10.4233 3.99475 11.1429 3.10715 11.1429H2.03572C1.14812 11.1429 0.428574 10.4233 0.428574 9.53572V8.46429Z" fill="#57616A"/>
<path d="M0.428574 14.8929C0.428574 14.0053 1.14812 13.2857 2.03572 13.2857H3.10715C3.99475 13.2857 4.71429 14.0053 4.71429 14.8929V15.9643C4.71429 16.8519 3.99475 17.5714 3.10715 17.5714H2.03572C1.14812 17.5714 0.428574 16.8519 0.428574 15.9643V14.8929Z" fill="#57616A"/>
<path d="M6.85715 2.25C6.85715 1.83579 7.15096 1.5 7.5134 1.5H13.7009C14.0633 1.5 14.3571 1.83579 14.3571 2.25V2.89286C14.3571 3.30707 14.0633 3.64286 13.7009 3.64286H7.5134C7.15096 3.64286 6.85715 3.30707 6.85715 2.89286V2.25Z" fill="#57616A"/>
<path d="M6.85715 8.68793C6.85715 8.27371 7.16241 7.93793 7.53897 7.93793H16.8896C17.2662 7.93793 17.5714 8.27371 17.5714 8.68793V9.33078C17.5714 9.745 17.2662 10.0808 16.8896 10.0808H7.53897C7.16241 10.0808 6.85715 9.745 6.85715 9.33078V8.68793Z" fill="#57616A"/>
<path d="M6.85715 15.1071C6.85715 14.6929 7.19293 14.3571 7.60715 14.3571H14.6786C15.0928 14.3571 15.4286 14.6929 15.4286 15.1071V15.75C15.4286 16.1642 15.0928 16.5 14.6786 16.5H7.60715C7.19293 16.5 6.85715 16.1642 6.85715 15.75V15.1071Z" fill="#57616A"/>
</g>
<defs>
<clipPath id="clip0_2136_4516">
<rect width="17.1429" height="17.1429" fill="white" transform="translate(0.428574 0.428574)"/>
</clipPath>
</defs>
</svg>
