<svg width="20" height="20" viewBox="0 0 20 20" fill="none" xmlns="http://www.w3.org/2000/svg">
<path d="M0 1.77778C0 0.795938 0.795938 0 1.77778 0H6.22222C7.20406 0 8 0.795938 8 1.77778V6.22222C8 7.20406 7.20406 8 6.22222 8H1.77778C0.795938 8 0 7.20406 0 6.22222V1.77778Z" fill="#001921"/>
<path d="M0 13.7778C0 12.7959 0.795938 12 1.77778 12H6.22222C7.20406 12 8 12.7959 8 13.7778V18.2222C8 19.2041 7.20406 20 6.22222 20H1.77778C0.795938 20 0 19.2041 0 18.2222V13.7778Z" fill="#001921"/>
<path d="M12 1.77778C12 0.795938 12.7959 0 13.7778 0H18.2222C19.2041 0 20 0.795938 20 1.77778V6.22222C20 7.20406 19.2041 8 18.2222 8H13.7778C12.7959 8 12 7.20406 12 6.22222V1.77778Z" fill="#001921"/>
<path d="M12 13.7778C12 12.7959 12.7959 12 13.7778 12H18.2222C19.2041 12 20 12.7959 20 13.7778V18.2222C20 19.2041 19.2041 20 18.2222 20H13.7778C12.7959 20 12 19.2041 12 18.2222V13.7778Z" fill="#001921"/>
</svg>
