<svg width="20" height="20" viewBox="0 0 20 20" fill="none" xmlns="http://www.w3.org/2000/svg">
<g clip-path="url(#clip0_62_1578)">
<path d="M11.1772 1.92851C9.68228 1.64687 8.13595 1.90966 6.81803 2.66933C6.71454 2.73335 6.59925 2.77595 6.479 2.79459C6.35874 2.81323 6.23597 2.80754 6.11796 2.77785C5.99995 2.74816 5.88909 2.69508 5.79198 2.62176C5.69486 2.54843 5.61345 2.45635 5.55258 2.35098C5.4917 2.24561 5.45261 2.12909 5.4376 2.00833C5.4226 1.88757 5.43199 1.76503 5.46522 1.64796C5.49846 1.5309 5.55486 1.4217 5.63108 1.32684C5.7073 1.23197 5.80179 1.15338 5.90895 1.09571C7.60283 0.117998 9.59091 -0.220592 11.5129 0.1413C13.435 0.503191 15.1638 1.54162 16.3861 3.06841C16.5279 3.25725 16.5907 3.49389 16.5612 3.72822C16.5316 3.96255 16.412 4.17618 16.2277 4.32386C16.0434 4.47155 15.8088 4.54171 15.5737 4.51948C15.3385 4.49725 15.1213 4.38438 14.9679 4.20476C14.0168 3.01761 12.6721 2.21015 11.1772 1.92851Z" fill="#001921"/>
<path d="M4.8856 18.2047C4.97842 18.282 5.08572 18.34 5.20124 18.3754C5.31675 18.4108 5.43816 18.4228 5.55837 18.4107C5.67858 18.3987 5.79517 18.3627 5.90134 18.3051C6.0075 18.2474 6.10111 18.1692 6.17669 18.0749C6.25228 17.9807 6.30831 17.8723 6.34153 17.7562C6.37475 17.64 6.38448 17.5184 6.37016 17.3984C6.35583 17.2785 6.31774 17.1626 6.25811 17.0575C6.19848 16.9524 6.1185 16.8603 6.02286 16.7865C5.27683 16.1914 4.67478 15.4355 4.26159 14.5753C3.8484 13.7151 3.63473 12.7727 3.63653 11.8184V8.18206C3.63592 7.10395 3.90965 6.04341 4.43197 5.10028C4.48993 4.99582 4.52675 4.88097 4.54032 4.76228C4.55389 4.64359 4.54396 4.52339 4.51108 4.40855C4.4782 4.2937 4.42302 4.18645 4.34869 4.09293C4.27436 3.99941 4.18234 3.92144 4.07789 3.86348C3.97343 3.80552 3.85857 3.7687 3.73989 3.75513C3.6212 3.74155 3.501 3.75149 3.38615 3.78437C3.27131 3.81725 3.16406 3.87243 3.07054 3.94676C2.97701 4.02109 2.89905 4.11311 2.84109 4.21757C2.17015 5.43121 1.81825 6.7953 1.81838 8.18206V11.8184C1.81592 13.0451 2.09048 14.2565 2.62157 15.3623C3.15266 16.4681 3.92659 17.4397 4.8856 18.2047Z" fill="#001921"/>
<path d="M16.3635 11.8183C16.3615 13.5054 15.6905 15.1229 14.4975 16.3159C13.3045 17.5088 11.687 18.1799 9.9999 18.1818C9.7588 18.1818 9.52757 18.2776 9.35708 18.4481C9.1866 18.6186 9.09082 18.8498 9.09082 19.0909C9.09082 19.332 9.1866 19.5632 9.35708 19.7337C9.52757 19.9042 9.7588 20 9.9999 20C12.1691 19.9976 14.2487 19.1348 15.7826 17.601C17.3164 16.0671 18.1792 13.9875 18.1816 11.8183V8.18197C18.1816 7.94086 18.0858 7.70964 17.9153 7.53915C17.7449 7.36867 17.5136 7.27289 17.2725 7.27289C17.0314 7.27289 16.8002 7.36867 16.6297 7.53915C16.4592 7.70964 16.3635 7.94086 16.3635 8.18197V11.8183Z" fill="#001921"/>
<path d="M7.27226 15.1328C7.44748 15.133 7.61903 15.0826 7.76628 14.9877C7.91352 14.8927 8.03018 14.7572 8.10222 14.5974C8.17425 14.4377 8.19859 14.2606 8.17231 14.0873C8.14603 13.9141 8.07024 13.7522 7.95407 13.621C7.51417 13.1236 7.27163 12.4823 7.27226 11.8183V8.18197C7.27226 7.94086 7.17648 7.70964 7.006 7.53915C6.83551 7.36867 6.60428 7.27289 6.36318 7.27289C6.12208 7.27289 5.89085 7.36867 5.72036 7.53915C5.54988 7.70964 5.4541 7.94086 5.4541 8.18197V11.8183C5.45392 12.9256 5.858 13.995 6.59045 14.8255C6.67581 14.9222 6.78074 14.9995 6.89829 15.0525C7.01585 15.1055 7.14332 15.1328 7.27226 15.1328Z" fill="#001921"/>
<path d="M13.2124 15.0309C12.3603 15.883 11.205 16.3624 9.9999 16.3638C9.7588 16.3638 9.52757 16.2681 9.35708 16.0976C9.1866 15.9271 9.09082 15.6959 9.09082 15.4548C9.09082 15.2137 9.1866 14.9824 9.35708 14.8119C9.52757 14.6415 9.7588 14.5457 9.9999 14.5457C10.7232 14.5457 11.4169 14.2583 11.9283 13.7469C12.4398 13.2354 12.7271 12.5417 12.7271 11.8184C12.7271 11.5773 12.8229 11.3461 12.9934 11.1756C13.1639 11.0051 13.3951 10.9094 13.6362 10.9094C13.8773 10.9094 14.1085 11.0051 14.279 11.1756C14.4495 11.3461 14.5453 11.5773 14.5453 11.8184C14.5439 13.0235 14.0645 14.1788 13.2124 15.0309Z" fill="#001921"/>
<path d="M9.9999 5.45463C10.7232 5.45463 11.4169 5.74197 11.9283 6.25342C12.4398 6.76488 12.7271 7.45856 12.7271 8.18187C12.7271 8.42297 12.8229 8.6542 12.9934 8.82469C13.1639 8.99517 13.3951 9.09095 13.6362 9.09095C13.8773 9.09095 14.1085 8.99517 14.279 8.82469C14.4495 8.6542 14.5453 8.42297 14.5453 8.18187C14.5439 6.9768 14.0645 5.8215 13.2124 4.96938C12.3603 4.11727 11.205 3.63792 9.9999 3.63647C9.7588 3.63647 9.52757 3.73225 9.35708 3.90274C9.1866 4.07322 9.09082 4.30445 9.09082 4.54555C9.09082 4.78666 9.1866 5.01788 9.35708 5.18837C9.52757 5.35885 9.7588 5.45463 9.9999 5.45463Z" fill="#001921"/>
<path d="M9.35709 12.4611C9.1866 12.2906 9.09082 12.0594 9.09082 11.8183V8.18197C9.09082 7.94086 9.1866 7.70964 9.35709 7.53915C9.52757 7.36867 9.7588 7.27289 9.99991 7.27289C10.241 7.27289 10.4722 7.36867 10.6427 7.53915C10.8132 7.70964 10.909 7.94086 10.909 8.18197V11.8183C10.909 12.0594 10.8132 12.2906 10.6427 12.4611C10.4722 12.6316 10.241 12.7274 9.99991 12.7274C9.7588 12.7274 9.52757 12.6316 9.35709 12.4611Z" fill="#001921"/>
</g>
<defs>
<clipPath id="clip0_62_1578">
<rect width="20" height="20" fill="white"/>
</clipPath>
</defs>
</svg>
