<svg width="20" height="20" viewBox="0 0 20 20" fill="none" xmlns="http://www.w3.org/2000/svg">
<g clip-path="url(#clip0_62_1388)">
<path d="M9.99939 0.0141907C8.19366 0.0141907 6.46189 0.731514 5.18504 2.00836C3.9082 3.2852 3.19088 5.01698 3.19088 6.82271V12.1333L1.68392 14.4029C1.5033 14.6813 1.40085 15.0033 1.38729 15.3349C1.37373 15.6666 1.44956 15.9958 1.60685 16.2881C1.76414 16.5804 1.9971 16.8251 2.28136 16.9965C2.56562 17.1679 2.89072 17.2597 3.22265 17.2624H16.7761C17.1102 17.2613 17.4378 17.1699 17.7241 16.9978C18.0104 16.8257 18.2448 16.5793 18.4026 16.2848C18.5603 15.9903 18.6354 15.6587 18.62 15.3249C18.6045 14.9912 18.4991 14.6679 18.3149 14.3892L16.8079 12.1333V6.82271C16.8079 5.01698 16.0906 3.2852 14.8137 2.00836C13.5369 0.731514 11.8051 0.0141907 9.99939 0.0141907Z" fill="#57616A"/>
<path d="M9.99912 19.9858C10.5618 19.9852 11.1104 19.8103 11.5696 19.4852C12.0289 19.16 12.3761 18.7007 12.5637 18.1702H7.43457C7.62212 18.7007 7.96937 19.16 8.42859 19.4852C8.88782 19.8103 9.43646 19.9852 9.99912 19.9858Z" fill="#57616A"/>
</g>
<defs>
<clipPath id="clip0_62_1388">
<rect width="17.2766" height="20" fill="#57616A" transform="translate(1.36133)"/>
</clipPath>
</defs>
</svg>
