<svg width="18" height="18" viewBox="0 0 18 18" fill="none" xmlns="http://www.w3.org/2000/svg">
<path d="M9 0C4.02963 0 0 4.02963 0 9C0 13.9704 4.02963 18 9 18C13.9704 18 18 13.9704 18 9C18 4.02963 13.9704 0 9 0ZM12.1407 13.5593C11.8704 13.6815 11.5889 13.7852 11.3 13.863C10.2037 14.1667 9.10741 14.1778 8.01481 13.8222C6.6963 13.3963 5.82222 12.4963 5.3 11.237C5.2 10.9926 5.13333 10.737 5.05556 10.4815H4.02222C3.84815 10.4815 3.71111 10.3407 3.71111 10.1704V9.47407C3.71111 9.3 3.85185 9.16296 4.02222 9.16296H4.87778C4.87778 8.97037 4.87778 8.78889 4.87778 8.5963H4.02222C3.84815 8.5963 3.71111 8.45556 3.71111 8.28518V7.58889C3.71111 7.41481 3.85185 7.27778 4.02222 7.27778H5.11111L5.14815 7.17037C5.44074 6.24074 5.94444 5.44444 6.71852 4.84444C7.33333 4.36667 8.04445 4.1037 8.80741 3.98148C9.89259 3.80741 10.9444 3.95556 11.963 4.35556C12.0296 4.38148 12.0926 4.41111 12.1556 4.44815C12.4 4.59259 12.463 4.77407 12.3556 5.03704C12.2407 5.31111 12.1259 5.58889 12 5.85926C11.8926 6.09259 11.7444 6.16667 11.4926 6.11111C11.1481 6.03333 10.8111 5.92593 10.4667 5.85556C9.74074 5.70741 9.01852 5.7 8.31111 5.97778C7.7037 6.21852 7.33333 6.68148 7.08148 7.25926C7.07778 7.26667 7.07778 7.27407 7.07778 7.28148H9.19259C9.36667 7.28148 9.5037 7.42222 9.5037 7.59259V8.28889C9.5037 8.46296 9.36296 8.6 9.19259 8.6H6.77778C6.77407 8.78518 6.77778 8.97037 6.77778 9.16667H9.1963C9.37037 9.16667 9.50741 9.30741 9.50741 9.47778V10.1741C9.50741 10.3481 9.36667 10.4852 9.1963 10.4852H6.98889C7.25556 11.2481 7.68889 11.837 8.5037 12.0926C9.15556 12.2963 9.81111 12.2852 10.4704 12.1481C10.8111 12.0778 11.1444 11.9741 11.4852 11.8963C11.7519 11.837 11.8963 11.9074 12.0074 12.1519C12.1333 12.4259 12.2519 12.7037 12.363 12.9852C12.4667 13.237 12.4 13.4407 12.1407 13.5593Z" fill="#07A279"/>
</svg>
