<svg width="16" height="16" viewBox="0 0 16 16" fill="none" xmlns="http://www.w3.org/2000/svg">
<g clip-path="url(#clip0_3728_26874)">
<path d="M7.91944 0.507324C3.78793 0.507324 0.426758 3.86849 0.426758 8.00001C0.426758 12.1315 3.78793 15.4927 7.91944 15.4927C12.051 15.4927 15.4121 12.1315 15.4121 8.00001C15.4121 3.86849 12.051 0.507324 7.91944 0.507324ZM7.91944 11.7463C7.40291 11.7463 6.98286 11.3263 6.98286 10.8098C6.98286 10.2932 7.40291 9.87318 7.91944 9.87318C8.43597 9.87318 8.85603 10.2932 8.85603 10.8098C8.85603 11.3263 8.43597 11.7463 7.91944 11.7463ZM8.75394 8.06229C8.68229 8.0946 8.63007 8.17538 8.63007 8.26412C8.62188 8.61183 8.62188 8.93378 8.62188 8.93659H7.217C7.217 8.93659 7.217 8.59661 7.22543 8.24727C7.2252 7.62327 7.60288 7.0393 8.18754 6.77683C8.45517 6.66092 8.62188 6.40758 8.62188 6.12684C8.62188 5.73956 8.30672 5.4244 7.91944 5.4244C7.53216 5.4244 7.217 5.73956 7.217 6.12684H5.81212C5.81212 4.96477 6.75737 4.01952 7.91944 4.01952C9.08151 4.01952 10.0268 4.96477 10.0268 6.12684C10.0268 6.96859 9.52709 7.7284 8.75394 8.06229Z" fill="#07A279"/>
</g>
<defs>
<clipPath id="clip0_3728_26874">
<rect width="15" height="15" fill="white" transform="translate(0.419922 0.5)"/>
</clipPath>
</defs>
</svg>
