<svg width="13" height="16" viewBox="0 0 13 16" fill="none" xmlns="http://www.w3.org/2000/svg">
<path d="M0.400024 12C0.400024 12.3685 0.698201 12.6667 1.06669 12.6667H3.06669H3.73336C3.73336 14.1374 4.92932 15.3333 6.40002 15.3333C7.87072 15.3333 9.06669 14.1374 9.06669 12.6667H9.73335H11.7334C12.1018 12.6667 12.4 12.3685 12.4 12C12.4 11.6315 12.1018 11.3333 11.7334 11.3333H11.6105C11.6852 11.1238 11.7334 10.9016 11.7334 10.6667V7.33334C11.7334 4.85368 10.0298 2.76994 7.73335 2.17554V2C7.73335 1.26497 7.13505 0.666666 6.40002 0.666666C5.665 0.666666 5.06669 1.26497 5.06669 2V2.17554C2.77022 2.76994 1.06669 4.85368 1.06669 7.33334V10.6667C1.06669 10.9016 1.11487 11.1238 1.18957 11.3333H1.06669C0.698201 11.3333 0.400024 11.6315 0.400024 12ZM6.40002 14C5.665 14 5.06669 13.4017 5.06669 12.6667H7.73335C7.73335 13.4017 7.13505 14 6.40002 14ZM2.40002 10.6667V7.33334C2.40002 5.12761 4.19429 3.33333 6.40002 3.33333C8.60575 3.33333 10.4 5.12761 10.4 7.33334V10.6667C10.4 11.0345 10.1012 11.3333 9.73335 11.3333H8.40002H4.40002H3.06669C2.69885 11.3333 2.40002 11.0345 2.40002 10.6667Z" fill="black"/>
</svg>
