<svg width="20" height="20" viewBox="0 0 20 20" fill="none" xmlns="http://www.w3.org/2000/svg">
<path d="M0 6V5C0 3.34567 1.39207 2 3.10345 2H4.13793V0.5C4.13793 0.223858 4.36179 0 4.63793 0H5.7069C5.98304 0 6.2069 0.223858 6.2069 0.5V2H8.96552V0.5C8.96552 0.223858 9.18937 0 9.46552 0H10.5345C10.8106 0 11.0345 0.223858 11.0345 0.5V2H13.7931V0.5C13.7931 0.223858 14.017 0 14.2931 0H15.3621C15.6382 0 15.8621 0.223858 15.8621 0.5V2H16.8966C18.6079 2 20 3.34567 20 5V6H0ZM20 8V17C20 18.6543 18.6079 20 16.8966 20H3.10345C1.39207 20 0 18.6543 0 17V8H20ZM6.2069 15.1667C6.2069 14.8905 5.98304 14.6667 5.7069 14.6667H4.63793C4.36179 14.6667 4.13793 14.8905 4.13793 15.1667V16.1667C4.13793 16.4428 4.36179 16.6667 4.63793 16.6667H5.7069C5.98304 16.6667 6.2069 16.4428 6.2069 16.1667V15.1667ZM6.2069 11.1667C6.2069 10.8905 5.98304 10.6667 5.7069 10.6667H4.63793C4.36179 10.6667 4.13793 10.8905 4.13793 11.1667V12.1667C4.13793 12.4428 4.36179 12.6667 4.63793 12.6667H5.7069C5.98304 12.6667 6.2069 12.4428 6.2069 12.1667V11.1667ZM11.0345 15.1667C11.0345 14.8905 10.8106 14.6667 10.5345 14.6667H9.46552C9.18937 14.6667 8.96552 14.8905 8.96552 15.1667V16.1667C8.96552 16.4428 9.18937 16.6667 9.46552 16.6667H10.5345C10.8106 16.6667 11.0345 16.4428 11.0345 16.1667V15.1667ZM11.0345 11.1667C11.0345 10.8905 10.8106 10.6667 10.5345 10.6667H9.46552C9.18937 10.6667 8.96552 10.8905 8.96552 11.1667V12.1667C8.96552 12.4428 9.18937 12.6667 9.46552 12.6667H10.5345C10.8106 12.6667 11.0345 12.4428 11.0345 12.1667V11.1667ZM15.8621 15.1667C15.8621 14.8905 15.6382 14.6667 15.3621 14.6667H14.2931C14.017 14.6667 13.7931 14.8905 13.7931 15.1667V16.1667C13.7931 16.4428 14.017 16.6667 14.2931 16.6667H15.3621C15.6382 16.6667 15.8621 16.4428 15.8621 16.1667V15.1667ZM15.8621 11.1667C15.8621 10.8905 15.6382 10.6667 15.3621 10.6667H14.2931C14.017 10.6667 13.7931 10.8905 13.7931 11.1667V12.1667C13.7931 12.4428 14.017 12.6667 14.2931 12.6667H15.3621C15.6382 12.6667 15.8621 12.4428 15.8621 12.1667V11.1667Z" fill="#99A2AB"/>
</svg>
