<svg width="20" height="20" viewBox="0 0 20 20" fill="none" xmlns="http://www.w3.org/2000/svg">
<path d="M11.9008 1.73669H8.07557C7.68435 1.73669 7.36719 2.05385 7.36719 2.44508V17.5501C7.36719 17.9414 7.68435 18.2585 8.07557 18.2585H11.9008C12.2921 18.2585 12.6092 17.9414 12.6092 17.5501V2.44508C12.6092 2.05381 12.2921 1.73669 11.9008 1.73669Z" fill="#001921"/>
<path d="M19.2915 10.5443H15.4662C15.075 10.5443 14.7578 10.8615 14.7578 11.2527V17.5549C14.7578 17.9462 15.075 18.2633 15.4662 18.2633H19.2915C19.6827 18.2633 19.9998 17.9462 19.9998 17.5549V11.2527C19.9998 10.8614 19.6827 10.5443 19.2915 10.5443Z" fill="#001921"/>
<path d="M4.53365 7.38013H0.708383C0.317158 7.38013 0 7.69728 0 8.08851V17.5454C0 17.9366 0.317158 18.2538 0.708383 18.2538H4.53365C4.92487 18.2538 5.24203 17.9366 5.24203 17.5454V8.08851C5.24203 7.69728 4.92487 7.38013 4.53365 7.38013Z" fill="#001921"/>
</svg>
