<svg width="20" height="20" viewBox="0 0 20 20" fill="none" xmlns="http://www.w3.org/2000/svg">
<g clip-path="url(#clip0_430_2800)">
<path d="M19.0477 8.84811C19.0099 8.74643 18.9558 8.65393 18.8869 8.57643L16.6654 6.07725C16.3758 5.75225 15.9077 5.75225 15.618 6.07725C15.3284 6.40307 15.3284 6.93057 15.618 7.25557L16.5758 8.33307H12.438C12.0284 8.33307 11.6973 8.70639 11.6973 9.16639C11.6973 9.62639 12.0284 9.99971 12.438 9.99971H16.5758L15.618 11.0772C15.3284 11.403 15.3284 11.9305 15.618 12.2555C15.7625 12.4188 15.9521 12.4997 16.1417 12.4997C16.3314 12.4997 16.521 12.4189 16.6654 12.2555L18.8869 9.75635C18.9558 9.67967 19.0099 9.58717 19.0477 9.48467C19.1225 9.28143 19.1225 9.05143 19.0477 8.84811Z" fill="#001921"/>
<path d="M13.9197 11.6667C13.5101 11.6667 13.179 12.04 13.179 12.5V16.6667H10.216V3.33332C10.216 2.96582 10.0012 2.64082 9.68787 2.535L7.11527 1.66668H13.179V5.83336C13.179 6.29336 13.5101 6.66668 13.9197 6.66668C14.3293 6.66668 14.6604 6.29336 14.6604 5.83336V0.833359C14.6604 0.37332 14.3293 0 13.9197 0H2.06788C2.04121 0 2.01749 0.0125 1.99159 0.0158203C1.95677 0.02 1.92493 0.0266406 1.89159 0.0358203C1.81381 0.0583203 1.74343 0.0925 1.67753 0.139141C1.66125 0.15082 1.64125 0.151641 1.62569 0.164961C1.61972 0.17 1.6175 0.17918 1.61156 0.18418C1.53083 0.25582 1.46343 0.34332 1.41454 0.4475C1.40416 0.47 1.40194 0.49418 1.39382 0.5175C1.3701 0.58082 1.3442 0.6425 1.33531 0.7125C1.33159 0.7375 1.33826 0.76082 1.33753 0.785C1.3368 0.80168 1.32715 0.81668 1.32715 0.83332V17.5C1.32715 17.8975 1.57677 18.2392 1.9227 18.3167L9.33009 19.9834C9.37825 19.995 9.42714 20 9.47526 20C9.64488 20 9.81155 19.9342 9.94488 19.8109C10.116 19.6525 10.216 19.4167 10.216 19.1667V18.3334H13.9197C14.3293 18.3334 14.6604 17.96 14.6604 17.5V12.5C14.6604 12.04 14.3293 11.6667 13.9197 11.6667Z" fill="#001921"/>
</g>
<defs>
<clipPath id="clip0_430_2800">
<rect width="17.7778" height="20" fill="white" transform="translate(1.32715)"/>
</clipPath>
</defs>
</svg>
