<svg width="20" height="20" viewBox="0 0 20 20" fill="none" xmlns="http://www.w3.org/2000/svg">
<path d="M10.7143 0H2.14286C1.57454 0 1.02949 0.225765 0.627628 0.627628C0.225765 1.02949 0 1.57454 0 2.14286V19.2857C0 19.4752 0.0752549 19.6568 0.209209 19.7908C0.343164 19.9247 0.524845 20 0.714286 20H4.28571V15C4.28571 14.8106 4.36097 14.6289 4.49492 14.4949C4.62888 14.361 4.81056 14.2857 5 14.2857H7.85714C8.04658 14.2857 8.22826 14.361 8.36222 14.4949C8.49617 14.6289 8.57143 14.8106 8.57143 15V20H12.8571V2.14286C12.8571 1.57454 12.6314 1.02949 12.2295 0.627628C11.8277 0.225765 11.2826 0 10.7143 0ZM5 12.1429H3.57143C3.38199 12.1429 3.20031 12.0676 3.06635 11.9336C2.9324 11.7997 2.85714 11.618 2.85714 11.4286C2.85714 11.2391 2.9324 11.0574 3.06635 10.9235C3.20031 10.7895 3.38199 10.7143 3.57143 10.7143H5C5.18944 10.7143 5.37112 10.7895 5.50508 10.9235C5.63903 11.0574 5.71429 11.2391 5.71429 11.4286C5.71429 11.618 5.63903 11.7997 5.50508 11.9336C5.37112 12.0676 5.18944 12.1429 5 12.1429ZM5 8.57143H3.57143C3.38199 8.57143 3.20031 8.49617 3.06635 8.36222C2.9324 8.22826 2.85714 8.04658 2.85714 7.85714C2.85714 7.6677 2.9324 7.48602 3.06635 7.35207C3.20031 7.21811 3.38199 7.14286 3.57143 7.14286H5C5.18944 7.14286 5.37112 7.21811 5.50508 7.35207C5.63903 7.48602 5.71429 7.6677 5.71429 7.85714C5.71429 8.04658 5.63903 8.22826 5.50508 8.36222C5.37112 8.49617 5.18944 8.57143 5 8.57143ZM5 5H3.57143C3.38199 5 3.20031 4.92475 3.06635 4.79079C2.9324 4.65684 2.85714 4.47515 2.85714 4.28571C2.85714 4.09627 2.9324 3.91459 3.06635 3.78064C3.20031 3.64668 3.38199 3.57143 3.57143 3.57143H5C5.18944 3.57143 5.37112 3.64668 5.50508 3.78064C5.63903 3.91459 5.71429 4.09627 5.71429 4.28571C5.71429 4.47515 5.63903 4.65684 5.50508 4.79079C5.37112 4.92475 5.18944 5 5 5ZM9.28571 12.1429H7.85714C7.6677 12.1429 7.48602 12.0676 7.35207 11.9336C7.21811 11.7997 7.14286 11.618 7.14286 11.4286C7.14286 11.2391 7.21811 11.0574 7.35207 10.9235C7.48602 10.7895 7.6677 10.7143 7.85714 10.7143H9.28571C9.47515 10.7143 9.65684 10.7895 9.79079 10.9235C9.92474 11.0574 10 11.2391 10 11.4286C10 11.618 9.92474 11.7997 9.79079 11.9336C9.65684 12.0676 9.47515 12.1429 9.28571 12.1429ZM9.28571 8.57143H7.85714C7.6677 8.57143 7.48602 8.49617 7.35207 8.36222C7.21811 8.22826 7.14286 8.04658 7.14286 7.85714C7.14286 7.6677 7.21811 7.48602 7.35207 7.35207C7.48602 7.21811 7.6677 7.14286 7.85714 7.14286H9.28571C9.47515 7.14286 9.65684 7.21811 9.79079 7.35207C9.92474 7.48602 10 7.6677 10 7.85714C10 8.04658 9.92474 8.22826 9.79079 8.36222C9.65684 8.49617 9.47515 8.57143 9.28571 8.57143ZM9.28571 5H7.85714C7.6677 5 7.48602 4.92475 7.35207 4.79079C7.21811 4.65684 7.14286 4.47515 7.14286 4.28571C7.14286 4.09627 7.21811 3.91459 7.35207 3.78064C7.48602 3.64668 7.6677 3.57143 7.85714 3.57143H9.28571C9.47515 3.57143 9.65684 3.64668 9.79079 3.78064C9.92474 3.91459 10 4.09627 10 4.28571C10 4.47515 9.92474 4.65684 9.79079 4.79079C9.65684 4.92475 9.47515 5 9.28571 5Z" fill="#001921"/>
<path d="M17.8576 3.57141H14.2861V7.14284H16.429C16.6184 7.14284 16.8001 7.21809 16.9341 7.35205C17.068 7.486 17.1433 7.66769 17.1433 7.85713C17.1433 8.04657 17.068 8.22825 16.9341 8.3622C16.8001 8.49616 16.6184 8.57141 16.429 8.57141H14.2861V10.7143H16.429C16.6184 10.7143 16.8001 10.7895 16.9341 10.9235C17.068 11.0574 17.1433 11.2391 17.1433 11.4286C17.1433 11.618 17.068 11.7997 16.9341 11.9336C16.8001 12.0676 16.6184 12.1428 16.429 12.1428H14.2861V14.2857H16.429C16.6184 14.2857 16.8001 14.361 16.9341 14.4949C17.068 14.6289 17.1433 14.8105 17.1433 15C17.1433 15.1894 17.068 15.3711 16.9341 15.5051C16.8001 15.639 16.6184 15.7143 16.429 15.7143H14.2861V20H19.2861C19.4756 20 19.6573 19.9247 19.7912 19.7908C19.9252 19.6568 20.0004 19.4751 20.0004 19.2857V5.71427C20.0004 5.14595 19.7747 4.6009 19.3728 4.19904C18.9709 3.79718 18.4259 3.57141 17.8576 3.57141Z" fill="#001921"/>
</svg>
