<svg width="21" height="20" viewBox="0 0 21 20" fill="none" xmlns="http://www.w3.org/2000/svg">
<path d="M19.7813 6.72199C19.3923 6.66548 19.021 6.52195 18.6952 6.30207C18.3693 6.08219 18.0973 5.79164 17.8993 5.45205C17.7013 5.11246 17.5825 4.73257 17.5516 4.34069C17.5208 3.94881 17.5788 3.55502 17.7213 3.18865C17.8118 2.94914 17.8252 2.68729 17.7594 2.43981C17.6937 2.19233 17.5521 1.97163 17.3546 1.80866C16.4826 1.07643 15.4901 0.501218 14.4213 0.108656C14.1779 0.018245 13.9122 0.00694879 13.662 0.0763769C13.4118 0.145805 13.1899 0.292416 13.0279 0.495323C12.7841 0.807092 12.4725 1.05925 12.1168 1.23266C11.761 1.40608 11.3704 1.49621 10.9746 1.49621C10.5788 1.49621 10.1882 1.40608 9.83248 1.23266C9.47671 1.05925 9.1651 0.807092 8.92128 0.495323C8.7593 0.292416 8.53741 0.145805 8.28723 0.0763769C8.03705 0.00694879 7.77134 0.018245 7.52795 0.108656C6.54106 0.471084 5.61835 0.988706 4.79462 1.64199C4.58698 1.80637 4.43743 2.0329 4.36785 2.28842C4.29827 2.54394 4.31232 2.81503 4.40795 3.06199C4.56179 3.43805 4.62535 3.84493 4.59354 4.24999C4.56172 4.65505 4.43542 5.04701 4.22475 5.39444C4.01409 5.74187 3.72494 6.0351 3.38048 6.25059C3.03603 6.46608 2.64587 6.59785 2.24129 6.63532C1.97863 6.6634 1.73192 6.77508 1.5375 6.9539C1.34307 7.13273 1.2112 7.36925 1.16129 7.62865C1.03716 8.24312 0.974624 8.86844 0.974624 9.49532C0.973711 10.0201 1.01608 10.5441 1.10129 11.062C1.1437 11.3297 1.27312 11.576 1.46954 11.7628C1.66597 11.9495 1.91845 12.0664 2.18796 12.0953C2.60142 12.1341 2.99957 12.2714 3.34909 12.4957C3.69861 12.7199 3.98933 13.0246 4.19691 13.3843C4.40449 13.744 4.52289 14.1482 4.54221 14.563C4.56153 14.9778 4.48121 15.3912 4.30795 15.7686C4.19457 16.0141 4.16645 16.2905 4.22805 16.5538C4.28965 16.8171 4.43744 17.0523 4.64795 17.222C5.5147 17.9409 6.49767 18.5068 7.55462 18.8953C7.68978 18.9421 7.83159 18.9669 7.97462 18.9686C8.17073 18.9682 8.36388 18.9208 8.53788 18.8303C8.71187 18.7398 8.86164 18.6089 8.97462 18.4486C9.21223 18.1025 9.53074 17.8195 9.90251 17.6243C10.2743 17.4291 10.6881 17.3276 11.108 17.3286C11.5148 17.3292 11.9159 17.4247 12.2793 17.6075C12.6427 17.7904 12.9584 18.0556 13.2013 18.382C13.3628 18.5991 13.5916 18.7568 13.8521 18.8303C14.1125 18.9039 14.39 18.8892 14.6413 18.7886C15.6077 18.3997 16.5075 17.8621 17.3079 17.1953C17.509 17.0291 17.6522 16.8033 17.7169 16.5506C17.7816 16.2978 17.7644 16.0311 17.6679 15.7886C17.5111 15.4174 17.4428 15.0149 17.4682 14.6127C17.4937 14.2105 17.6123 13.8198 17.8146 13.4713C18.017 13.1228 18.2976 12.8262 18.6343 12.6047C18.9709 12.3833 19.3545 12.2431 19.7546 12.1953C20.0141 12.1594 20.2554 12.0419 20.4435 11.8597C20.6317 11.6775 20.757 11.4401 20.8013 11.182C20.9083 10.6259 20.9663 10.0615 20.9746 9.49532C20.9747 8.89808 20.9189 8.30215 20.8079 7.71532C20.7629 7.46285 20.6395 7.23099 20.4552 7.05267C20.2709 6.87435 20.0351 6.75864 19.7813 6.72199ZM14.3079 9.49532C14.3079 10.1546 14.1125 10.7991 13.7462 11.3472C13.3799 11.8954 12.8593 12.3226 12.2502 12.5749C11.6411 12.8272 10.9709 12.8932 10.3243 12.7646C9.67771 12.636 9.08377 12.3185 8.6176 11.8523C8.15142 11.3862 7.83395 10.7922 7.70533 10.1456C7.57672 9.49902 7.64273 8.82879 7.89502 8.21971C8.14731 7.61062 8.57455 7.09003 9.12272 6.72375C9.67088 6.35748 10.3153 6.16199 10.9746 6.16199C11.8587 6.16199 12.7065 6.51318 13.3316 7.1383C13.9568 7.76342 14.3079 8.61126 14.3079 9.49532Z" fill="#001921"/>
</svg>
