<svg width="30" height="36" viewBox="0 0 30 36" fill="none" xmlns="http://www.w3.org/2000/svg">
<path d="M15.0883 16.2C16.6903 16.2 18.2565 15.7249 19.5885 14.8348C20.9206 13.9447 21.9588 12.6796 22.5718 11.1994C23.1848 9.71925 23.3452 8.09054 23.0325 6.51925C22.7198 4.94797 21.9483 3.50469 20.8153 2.37194C19.6824 1.23919 18.239 0.46785 16.6676 0.15547C15.0963 -0.15691 13.4676 0.00369874 11.9876 0.616986C10.5075 1.23027 9.24255 2.26869 8.35268 3.60092C7.46282 4.93314 6.988 6.49933 6.98828 8.10142C6.99053 10.2489 7.84469 12.3077 9.36328 13.826C10.8819 15.3443 12.9408 16.1981 15.0883 16.2Z" fill="#57616A"/>
<path d="M0.505859 32.3077C0.505859 25.3999 6.10575 19.8 13.0136 19.8H16.9876C23.8954 19.8 29.4953 25.3999 29.4953 32.3077C29.4953 34.3469 27.8422 36 25.803 36H4.19817C2.15896 36 0.505859 34.3469 0.505859 32.3077Z" fill="#57616A"/>
</svg>
