<svg width="20" height="20" viewBox="0 0 20 20" fill="none" xmlns="http://www.w3.org/2000/svg">
<path d="M12.1875 10C12.1875 11.1877 11.2062 12.1538 10 12.1538C8.79376 12.1538 7.81252 11.1877 7.81252 10C7.81252 8.81231 8.79376 7.84615 10 7.84615C11.2062 7.84615 12.1875 8.81231 12.1875 10ZM19.9159 10.3818C19.778 10.6803 16.4668 17.6923 10 17.6923C3.53318 17.6923 0.221951 10.6803 0.08414 10.3818C-0.0280467 10.1391 -0.0280467 9.86062 0.08414 9.61815C0.221951 9.31969 3.53318 2.30769 10 2.30769C16.4668 2.30769 19.778 9.31969 19.9159 9.61815C20.028 9.86062 20.028 10.1394 19.9159 10.3818ZM14.0625 10C14.0625 7.79446 12.24 6 10 6C7.76002 6 5.93753 7.79446 5.93753 10C5.93753 12.2055 7.76002 14 10 14C12.24 14 14.0625 12.2055 14.0625 10Z" fill="#001921"/>
</svg>
