<svg width="18" height="19" viewBox="0 0 18 19" fill="none" xmlns="http://www.w3.org/2000/svg">
<path d="M17.9999 14.3219V15.9291C17.9999 16.8156 17.2787 17.5362 16.3928 17.5362H2.57142C1.15328 17.5362 0 16.3829 0 14.9648C0 14.9648 0 4.04591 0 4.03626C0 2.61813 1.15328 1.46484 2.57142 1.46484H14.4642C14.9972 1.46484 15.4285 1.89684 15.4285 2.42913C15.4285 2.96141 14.9972 3.39341 14.4642 3.39341H2.57142C2.21721 3.39341 1.92857 3.68141 1.92857 4.03626C1.92857 4.39112 2.21721 4.67912 2.57142 4.67912H16.3928C17.2787 4.67912 17.9999 5.39976 17.9999 6.28626V7.89339H14.7857C13.0133 7.89339 11.5714 9.33532 11.5714 11.1077C11.5714 12.88 13.0133 14.3219 14.7857 14.3219H17.9999Z" fill="#07A279"/>
<path d="M18.0003 9.17969V13.0368H14.786C13.7208 13.0368 12.8574 12.1735 12.8574 11.1083C12.8574 10.043 13.7208 9.17969 14.786 9.17969H18.0003Z" fill="#07A279"/>
</svg>
