<svg width="21" height="20" viewBox="0 0 21 20" fill="none" xmlns="http://www.w3.org/2000/svg">
<path d="M9.91286 0.88889C10.3272 0.0494064 11.5243 0.0494062 11.9387 0.88889L14.1537 5.37619C14.3181 5.70925 14.6357 5.94021 15.0032 5.99392L19.9583 6.71819C20.8845 6.85356 21.2536 7.99202 20.5831 8.64511L16.9994 12.1356C16.733 12.3951 16.6114 12.7692 16.6742 13.1358L17.5197 18.0656C17.678 18.9885 16.7093 19.6922 15.8806 19.2563L11.4516 16.9271C11.1224 16.754 10.7292 16.754 10.4 16.9271L5.97093 19.2563C5.14222 19.6922 4.17353 18.9885 4.33181 18.0656L5.17734 13.1358C5.24021 12.7692 5.11859 12.3951 4.85215 12.1356L1.26845 8.64511C0.597928 7.99202 0.967064 6.85356 1.89324 6.71818L6.84833 5.99392C7.21585 5.94021 7.53348 5.70925 7.69788 5.37619L9.91286 0.88889Z" fill="#001921"/>
</svg>
