<svg width="16" height="16" viewBox="0 0 16 16" fill="none" xmlns="http://www.w3.org/2000/svg">
<g clip-path="url(#clip0_3736_19377)">
<g clip-path="url(#clip1_3736_19377)">
<path d="M6.5047 0.525505C6.11472 0.525505 5.85474 0.850488 5.85474 1.17547V1.82544C5.85474 2.21542 6.17972 2.4754 6.5047 2.4754H9.42955C9.81953 2.4754 10.0795 2.15042 10.0795 1.82544V1.17547C10.0795 0.785492 9.75453 0.525505 9.42955 0.525505H6.5047Z" fill="#07A279"/>
<path d="M12.3543 0.850487H11.4444V1.17547V1.82544C11.4444 2.93038 10.5344 3.77533 9.49447 3.77533H6.56963C5.46468 3.77533 4.61973 2.86538 4.61973 1.82544V1.17547C4.61973 1.04548 4.61973 0.98048 4.61973 0.850487H3.64478C2.53984 0.850487 1.62988 1.76044 1.62988 2.93038V13.4598C1.62988 14.5648 2.53984 15.4747 3.64478 15.4747H12.3543C13.4593 15.4747 14.3692 14.5648 14.3692 13.4598V2.93038C14.3692 1.76044 13.4593 0.850487 12.3543 0.850487ZM6.95961 11.2499L5.85466 12.3549C5.59468 12.6149 5.2047 12.6149 4.94471 12.3549L4.35974 11.7699C4.09975 11.5099 4.09975 11.1199 4.35974 10.86C4.61973 10.6 5.00971 10.6 5.26969 10.86L5.39969 10.99L6.04965 10.34C6.30964 10.08 6.69962 10.08 6.95961 10.34C7.21959 10.6 7.21959 10.99 6.95961 11.2499ZM6.95961 6.76517L5.85466 7.87012C5.59468 8.1301 5.2047 8.1301 4.94471 7.87012L4.35974 7.28515C4.09975 7.02516 4.09975 6.63518 4.35974 6.37519C4.61973 6.11521 5.00971 6.11521 5.26969 6.37519L5.39969 6.50519L6.04965 5.85522C6.30964 5.59524 6.69962 5.59524 6.95961 5.85522C7.21959 6.11521 7.21959 6.50519 6.95961 6.76517ZM11.1844 11.9649H9.10449C8.77951 11.9649 8.45453 11.7049 8.45453 11.3149C8.45453 10.925 8.71451 10.665 9.10449 10.665H11.1844C11.5094 10.665 11.8344 10.925 11.8344 11.3149C11.8344 11.7049 11.5094 11.9649 11.1844 11.9649ZM11.1844 7.48014H9.10449C8.77951 7.48014 8.45453 7.22015 8.45453 6.83017C8.45453 6.44019 8.71451 6.1802 9.10449 6.1802H11.1844C11.5094 6.1802 11.8344 6.44019 11.8344 6.83017C11.8344 7.22015 11.5094 7.48014 11.1844 7.48014Z" fill="#07A279"/>
</g>
</g>
<defs>
<clipPath id="clip0_3736_19377">
<rect width="15" height="15" fill="white" transform="translate(0.5 0.500114)"/>
</clipPath>
<clipPath id="clip1_3736_19377">
<rect width="12.7962" height="15" fill="white" transform="translate(1.60156 0.500114)"/>
</clipPath>
</defs>
</svg>
