<svg width="16" height="16" viewBox="0 0 16 16" fill="none" xmlns="http://www.w3.org/2000/svg">
<path fill-rule="evenodd" clip-rule="evenodd" d="M15.4199 8C15.4199 3.85786 12.0621 0.5 7.91992 0.5C3.77779 0.5 0.419922 3.85786 0.419922 8C0.419922 12.1421 3.77779 15.5 7.91992 15.5C12.0621 15.5 15.4199 12.1421 15.4199 8ZM7.91992 11.75C8.33414 11.75 8.66992 11.4142 8.66992 11V8C8.66992 7.58579 8.33414 7.25 7.91992 7.25C7.50571 7.25 7.16992 7.58579 7.16992 8V11C7.16992 11.4142 7.50571 11.75 7.91992 11.75ZM7.16992 5C7.16992 5.41421 7.50571 5.75 7.91992 5.75H7.92742C8.34164 5.75 8.67742 5.41421 8.67742 5C8.67742 4.58579 8.34164 4.25 7.92742 4.25H7.91992C7.50571 4.25 7.16992 4.58579 7.16992 5Z" fill="#07A279"/>
</svg>
