<svg width="18" height="18" viewBox="0 0 18 18" fill="none" xmlns="http://www.w3.org/2000/svg">
<path fill-rule="evenodd" clip-rule="evenodd" d="M16.785 5.33067C15.979 3.38544 14.8156 1.64398 13.3269 0.154547C13.228 0.0556172 13.0938 0 12.9539 0H5.04608C4.9062 0 4.772 0.0556172 4.67311 0.154547C3.18442 1.64398 2.02096 3.38544 1.21504 5.33067C0.408797 7.27664 0 9.33093 0 11.4365V16.3125C0 17.2445 0.75552 18 1.6875 18H16.3125C17.2445 18 18 17.2445 18 16.3125V11.4365C18 9.33093 17.5912 7.27664 16.785 5.33067ZM11.2594 5.57343H6.74061C5.82546 5.57343 5.08359 4.83156 5.08359 3.91641C5.08359 3.00125 5.82546 2.25939 6.74061 2.25939H11.2594C12.1745 2.25939 12.9164 3.00125 12.9164 3.91641C12.9164 4.83156 12.1745 5.57343 11.2594 5.57343Z" fill="#07A279"/>
<rect x="5.40002" y="9" width="7.2" height="1.8" rx="0.9" fill="white"/>
<rect x="5.40002" y="12.6001" width="4.5" height="1.8" rx="0.900001" fill="white"/>
</svg>
