<svg width="20" height="20" viewBox="0 0 20 20" fill="none" xmlns="http://www.w3.org/2000/svg">
<path d="M16.82 12.5114C16.0972 11.7978 15.1948 11.7978 14.4766 12.5114C13.9288 13.0547 13.3809 13.5979 12.8423 14.1504C12.6949 14.3023 12.5706 14.3345 12.3911 14.2333C12.0366 14.0399 11.6591 13.8834 11.3184 13.6716C9.73008 12.6726 8.39958 11.3881 7.221 9.9425C6.63632 9.22431 6.11609 8.45547 5.75238 7.58996C5.67872 7.41501 5.69253 7.29992 5.83525 7.1572C6.38311 6.62776 6.91715 6.08451 7.45579 5.54126C8.20622 4.78624 8.20622 3.90231 7.45119 3.14268C7.02304 2.70992 6.59488 2.28637 6.16673 1.85361C5.72476 1.41164 5.2874 0.965075 4.84083 0.527713C4.11803 -0.17667 3.21568 -0.17667 2.49749 0.532317C1.94503 1.07557 1.41559 1.63263 0.853927 2.16667C0.333696 2.65928 0.0712791 3.26238 0.0160334 3.96676C-0.0714391 5.11311 0.209394 6.195 0.605321 7.24928C1.41559 9.43148 2.64941 11.3697 4.14565 13.1468C6.16673 15.5499 8.57913 17.4513 11.4013 18.8233C12.6719 19.4402 13.9886 19.9144 15.4204 19.9926C16.4056 20.0479 17.2619 19.7993 17.9479 19.0304C18.4175 18.5056 18.9469 18.0268 19.4441 17.525C20.1807 16.7792 20.1853 15.8768 19.4533 15.1402C18.5786 14.2609 17.6993 13.3862 16.82 12.5114Z" fill="#001921"/>
</svg>
