<svg width="21" height="20" viewBox="0 0 21 20" fill="none" xmlns="http://www.w3.org/2000/svg">
<path fill-rule="evenodd" clip-rule="evenodd" d="M10.5 20C4.98645 20 0.5 15.5143 0.5 10C0.5 4.48645 4.98645 0 10.5 0C16.0143 0 20.5 4.48645 20.5 10C20.5 15.5143 16.0143 20 10.5 20Z" fill="#2CBD53"/>
<path fill-rule="evenodd" clip-rule="evenodd" d="M14.8033 6.80877C15.215 7.22047 15.215 7.88796 14.8033 8.29966L9.91177 13.1912C9.71407 13.3889 9.44592 13.5 9.16633 13.5C8.88673 13.5 8.61859 13.3889 8.42088 13.1912L6.19744 10.9678C5.78575 10.5561 5.78575 9.8886 6.19744 9.4769C6.60914 9.0652 7.27664 9.0652 7.68833 9.4769L9.16633 10.9549L13.3124 6.80877C13.7241 6.39708 14.3916 6.39708 14.8033 6.80877Z" fill="white"/>
</svg>
