<svg width="20" height="20" viewBox="0 0 20 20" fill="none" xmlns="http://www.w3.org/2000/svg">
<path d="M0 10C0 4.47715 4.47715 0 10 0C15.5228 0 20 4.47715 20 10C20 15.5228 15.5228 20 10 20C4.47715 20 0 15.5228 0 10Z" fill="#001921"/>
<path fill-rule="evenodd" clip-rule="evenodd" d="M10.8926 6.60721C10.8926 6.1141 10.4928 5.71436 9.99972 5.71436C9.50661 5.71436 9.10686 6.1141 9.10686 6.60721V9.10718H6.6077C6.11459 9.10718 5.71484 9.50692 5.71484 10C5.71484 10.4931 6.11459 10.8929 6.6077 10.8929H9.10686V13.3929C9.10686 13.886 9.50661 14.2858 9.99972 14.2858C10.4928 14.2858 10.8926 13.886 10.8926 13.3929V10.8929H13.3934C13.8865 10.8929 14.2863 10.4931 14.2863 10C14.2863 9.50692 13.8865 9.10718 13.3934 9.10718H10.8926V6.60721Z" fill="white"/>
</svg>
