<svg width="20" height="20" viewBox="0 0 20 20" fill="none" xmlns="http://www.w3.org/2000/svg">
<path d="M6.46567 9.19893C7.17586 9.19893 7.8701 8.98832 8.4606 8.59375C9.0511 8.19917 9.51132 7.63835 9.78307 6.9822C10.0548 6.32605 10.1259 5.60406 9.98729 4.90752C9.8487 4.21098 9.50666 3.57118 9.00443 3.06904C8.5022 2.5669 7.86235 2.22497 7.16579 2.0865C6.46922 1.94802 5.74724 2.01922 5.09114 2.29108C4.43505 2.56295 3.8743 3.02327 3.47983 3.61384C3.08536 4.20441 2.87488 4.89869 2.875 5.60888C2.876 6.56082 3.25464 7.47348 3.92782 8.14655C4.601 8.81961 5.51373 9.1981 6.46567 9.19893Z" fill="#001921"/>
<path d="M0 16.3394C0 13.2772 2.48239 10.7948 5.54458 10.7948H7.30626C10.3684 10.7948 12.8508 13.2772 12.8508 16.3394C12.8508 17.2433 12.118 17.9761 11.2141 17.9761H1.63678C0.73281 17.9761 0 17.2433 0 16.3394Z" fill="#001921"/>
<path d="M15.2116 11.3995C15.7442 11.3995 16.2649 11.2416 16.7078 10.9456C17.1506 10.6497 17.4958 10.2291 17.6996 9.73697C17.9034 9.24486 17.9567 8.70336 17.8528 8.18096C17.7488 7.65855 17.4923 7.1787 17.1156 6.8021C16.739 6.42549 16.2591 6.16905 15.7366 6.06519C15.2142 5.96133 14.6727 6.01473 14.1807 6.21863C13.6886 6.42253 13.268 6.76777 12.9722 7.2107C12.6763 7.65362 12.5185 8.17433 12.5186 8.70698C12.5193 9.42094 12.8033 10.1054 13.3082 10.6102C13.8131 11.115 14.4976 11.3989 15.2116 11.3995Z" fill="#001921"/>
<path d="M13.8809 17.9824C14.1757 17.5047 14.3458 16.9419 14.3458 16.3394C14.3458 15.0317 13.9893 13.8072 13.3682 12.758C13.7339 12.6528 14.1203 12.5964 14.5199 12.5964H15.8411C18.1378 12.5964 19.9995 14.4582 19.9995 16.7548C19.9995 17.4328 19.4499 17.9824 18.772 17.9824H13.8809Z" fill="#001921"/>
</svg>
