<svg width="20" height="20" viewBox="0 0 20 20" fill="none" xmlns="http://www.w3.org/2000/svg">
<path d="M0.152126 4.03302C0.572653 2.6116 1.88793 1.57074 3.44391 1.57074H16.5561C18.1124 1.57074 19.4283 2.61222 19.8482 4.03427L10.4365 9.87575C10.1673 10.0428 9.83267 10.0428 9.56387 9.87575L0.152126 4.03302ZM11.4242 11.467C10.985 11.7399 10.4927 11.876 10 11.876C9.50737 11.876 9.01503 11.7396 8.57578 11.467L0.00976562 6.14939V14.9951C0.00976562 16.8886 1.55045 18.4293 3.44391 18.4293H16.5561C18.4496 18.4293 19.9903 16.8886 19.9903 14.9951V6.15064L11.4242 11.467Z" fill="#001921"/>
</svg>
