<svg width="12" height="12" viewBox="0 0 12 12" fill="none" xmlns="http://www.w3.org/2000/svg">
<path fill-rule="evenodd" clip-rule="evenodd" d="M7.24956 1.25012C7.24956 0.559766 6.68992 0.00012207 5.99956 0.00012207C5.30921 0.00012207 4.74956 0.559764 4.74956 1.25012V4.75007H1.25073C0.560376 4.75007 0.000732422 5.30972 0.000732422 6.00007C0.000732422 6.69043 0.560375 7.25007 1.25073 7.25007H4.74956V10.7501C4.74956 11.4405 5.3092 12.0001 5.99956 12.0001C6.68992 12.0001 7.24956 11.4405 7.24956 10.7501V7.25007H10.7507C11.4411 7.25007 12.0007 6.69043 12.0007 6.00007C12.0007 5.30972 11.4411 4.75007 10.7507 4.75007H7.24956V1.25012Z" fill="white"/>
</svg>
