<svg width="20" height="20" viewBox="0 0 20 20" fill="none" xmlns="http://www.w3.org/2000/svg">
<path d="M19.4141 8.24219H17.6562V7.07031H2.34375V8.24219H0.585938C0.262299 8.24219 0 8.50449 0 8.82813V10C0 11.4146 1.00815 12.5981 2.34375 12.8703V17.0313C2.34375 18.002 3.1308 18.7891 4.10156 18.7891H15.8984C16.8692 18.7891 17.6562 18.002 17.6562 17.0313V12.8703C18.9919 12.5981 20 11.4146 20 10V8.82813C20 8.50449 19.7377 8.24219 19.4141 8.24219ZM2.34375 11.6499C1.66321 11.4072 1.17188 10.7629 1.17188 10V9.41406H2.34375V11.6499ZM14.0247 13.1474C13.7184 14.7505 12.4068 16.062 10.8038 16.3684C7.91946 16.9196 5.42419 14.4244 5.97534 11.5399C6.28174 9.93683 7.59323 8.62549 9.19617 8.31909C12.0807 7.76794 14.5758 10.2631 14.0247 13.1474ZM18.8281 10C18.8281 10.7629 18.3368 11.4072 17.6562 11.6499V9.41406H18.8281V10Z" fill="#001921"/>
<path d="M1.75781 5.89844H18.2422C18.5658 5.89844 18.8281 5.63614 18.8281 5.3125C18.8281 4.34174 18.0411 3.55469 17.0703 3.55469H14.1016V2.96875C14.1016 1.99799 13.3145 1.21094 12.3438 1.21094H7.65625C6.68549 1.21094 5.89844 1.99799 5.89844 2.96875V3.55469H2.92969C1.95892 3.55469 1.17188 4.34174 1.17188 5.3125C1.17188 5.63614 1.43417 5.89844 1.75781 5.89844ZM7.07031 2.96875C7.07031 2.64542 7.33292 2.38281 7.65625 2.38281H12.3438C12.6671 2.38281 12.9297 2.64542 12.9297 2.96875V3.55469H7.07031V2.96875Z" fill="#001921"/>
<path d="M10 9.41406C10.3238 9.41406 10.5859 9.67621 10.5859 10V11.7578H12.3437C12.6675 11.7578 12.9297 12.02 12.9297 12.3437C12.9297 10.7285 11.6153 9.41406 10 9.41406Z" fill="#001921"/>
<path d="M12.3437 12.9297H9.99997C9.67633 12.9297 9.41403 12.6674 9.41403 12.3437V10C9.41403 9.67621 9.67618 9.41406 9.99997 9.41406C8.13047 9.41406 6.6641 11.1745 7.17191 13.1245C7.42826 14.1096 8.23407 14.9155 9.21918 15.1718C11.1693 15.6796 12.9297 14.2133 12.9297 12.3437C12.9297 12.6675 12.6675 12.9297 12.3437 12.9297Z" fill="#001921"/>
</svg>
