<svg width="18" height="18" viewBox="0 0 18 18" fill="none" xmlns="http://www.w3.org/2000/svg">
<path d="M13.9199 11.4547C13.4052 11.4559 12.898 11.5788 12.4399 11.8134C11.9817 12.0481 11.5856 12.3877 11.2838 12.8047L7.18068 10.0695C7.43925 9.3801 7.43925 8.62031 7.18068 7.93087L11.2838 5.19575C11.7443 5.82011 12.4124 6.25979 13.168 6.43578C13.9237 6.61177 14.7173 6.51253 15.4063 6.15591C16.0953 5.79928 16.6346 5.20864 16.9272 4.4901C17.2198 3.77156 17.2466 2.97222 17.0028 2.23569C16.7589 1.49916 16.2604 0.873725 15.5969 0.471749C14.9333 0.0697738 14.1481 -0.0823922 13.3824 0.0425901C12.6167 0.167572 11.9206 0.56151 11.4193 1.15363C10.918 1.74574 10.6442 2.49723 10.6472 3.27306C10.6526 3.39228 10.6646 3.5111 10.6832 3.62897L6.27252 6.56944C5.80247 6.14571 5.21965 5.86735 4.59464 5.76807C3.96962 5.6688 3.32923 5.75287 2.75102 6.0101C2.17281 6.26733 1.68158 6.68669 1.33683 7.21739C0.992081 7.74809 0.808594 8.36736 0.808594 9.00021C0.808594 9.63305 0.992081 10.2523 1.33683 10.783C1.68158 11.3137 2.17281 11.7331 2.75102 11.9903C3.32923 12.2475 3.96962 12.3316 4.59464 12.2323C5.21965 12.1331 5.80247 11.8547 6.27252 11.431L10.6832 14.3714C10.6646 14.4893 10.6526 14.6081 10.6472 14.7273C10.6472 15.3746 10.8392 16.0073 11.1988 16.5455C11.5584 17.0837 12.0695 17.5032 12.6675 17.7509C13.2655 17.9986 13.9235 18.0634 14.5584 17.9371C15.1932 17.8108 15.7763 17.4991 16.234 17.0415C16.6917 16.5838 17.0034 16.0006 17.1297 15.3658C17.256 14.731 17.1911 14.073 16.9434 13.475C16.6957 12.877 16.2763 12.3658 15.7381 12.0062C15.1999 11.6466 14.5672 11.4547 13.9199 11.4547V11.4547Z" fill="#57616A"/>
</svg>
