<svg width="20" height="20" viewBox="0 0 20 20" fill="none" xmlns="http://www.w3.org/2000/svg">
<path fill-rule="evenodd" clip-rule="evenodd" d="M11.3244 0.137803C10.9017 0.0561186 10.4693 0.0141602 10.0326 0.0141602C8.22687 0.0141602 6.49509 0.731484 5.21825 2.00833C3.9414 3.28517 3.22408 5.01695 3.22408 6.82268V12.1333L1.71713 14.4028C1.5365 14.6813 1.43405 15.0032 1.42049 15.3349C1.40693 15.6666 1.48276 15.9958 1.64005 16.2881C1.79734 16.5804 2.03031 16.825 2.31456 16.9964C2.59882 17.1679 2.92392 17.2597 3.25585 17.2624H16.8093C17.1434 17.2613 17.471 17.1698 17.7573 16.9977C18.0436 16.8256 18.278 16.5793 18.4358 16.2848C18.5935 15.9903 18.6686 15.6586 18.6532 15.3249C18.6377 14.9912 18.5323 14.6679 18.3481 14.3892L16.8411 12.1333V6.82268C16.8411 6.77313 16.8406 6.72365 16.8395 6.67422C16.3193 6.88433 15.7508 7 15.1553 7C12.67 7 10.6553 4.98528 10.6553 2.5C10.6553 1.63361 10.9001 0.824402 11.3244 0.137803Z" fill="#001921"/>
<path d="M10.0323 19.9858C10.595 19.9851 11.1436 19.8102 11.6028 19.4851C12.0621 19.16 12.4093 18.7006 12.5969 18.1702H7.46777C7.65533 18.7006 8.00258 19.16 8.4618 19.4851C8.92102 19.8102 9.46966 19.9851 10.0323 19.9858Z" fill="#001921"/>
<circle cx="15.1553" cy="2.5" r="2.5" fill="#001921"/>
</svg>
