<svg width="18" height="18" viewBox="0 0 18 18" fill="none" xmlns="http://www.w3.org/2000/svg">
<path fill-rule="evenodd" clip-rule="evenodd" d="M16.785 5.33067C15.979 3.38544 14.8156 1.64398 13.3269 0.154547C13.228 0.0556172 13.0938 0 12.9539 0H5.04608C4.9062 0 4.772 0.0556172 4.67311 0.154547C3.18442 1.64398 2.02096 3.38544 1.21504 5.33067C0.408797 7.27664 0 9.33093 0 11.4365V16.3125C0 17.2445 0.75552 18 1.6875 18H16.3125C17.2445 18 18 17.2445 18 16.3125V11.4365C18 9.33093 17.5912 7.27664 16.785 5.33067ZM11.2594 5.57343H6.74061C5.82546 5.57343 5.08359 4.83156 5.08359 3.91641C5.08359 3.00125 5.82546 2.25939 6.74061 2.25939H11.2594C12.1745 2.25939 12.9164 3.00125 12.9164 3.91641C12.9164 4.83156 12.1745 5.57343 11.2594 5.57343Z" fill="white"/>
<path d="M11.7004 9H6.30039C5.80333 9 5.40039 9.40294 5.40039 9.9C5.40039 10.3971 5.80333 10.8 6.30039 10.8H11.7004C12.1974 10.8 12.6004 10.3971 12.6004 9.9C12.6004 9.40294 12.1974 9 11.7004 9Z" fill="#07A279"/>
<path d="M9.00039 12.6001H6.30039C5.80333 12.6001 5.40039 13.003 5.40039 13.5001C5.40039 13.9972 5.80333 14.4001 6.30039 14.4001H9.00039C9.49745 14.4001 9.90039 13.9972 9.90039 13.5001C9.90039 13.003 9.49745 12.6001 9.00039 12.6001Z" fill="#07A279"/>
</svg>
