<svg width="19" height="18" viewBox="0 0 19 18" fill="none" xmlns="http://www.w3.org/2000/svg">
<path fill-rule="evenodd" clip-rule="evenodd" d="M9.38643 3C11.4901 3 13.3873 3.59247 15.0782 4.77743C16.7691 5.96239 17.9873 7.50015 18.7329 9.39076C17.9873 11.2814 16.7691 12.8191 15.0782 14.0041C13.3873 15.189 11.4901 15.7815 9.38643 15.7815C7.28279 15.7815 5.3789 15.189 3.67469 14.0041C1.97048 12.8191 0.745592 11.2814 0 9.39076C0.745592 7.50015 1.97048 5.96239 3.67469 4.77743C5.3789 3.59247 7.28279 3 9.38643 3ZM9.38633 13.6645C10.558 13.6645 11.5565 13.2451 12.382 12.4063C13.2075 11.5675 13.6202 10.5623 13.6202 9.39067C13.6202 8.21902 13.2075 7.21382 12.382 6.37503C11.5565 5.53624 10.558 5.11685 9.38633 5.11685C8.21469 5.11685 7.20949 5.53624 6.37069 6.37503C5.5319 7.21382 5.11251 8.21902 5.11251 9.39067C5.11251 10.5623 5.5319 11.5675 6.37069 12.4063C7.20949 13.2451 8.21469 13.6645 9.38633 13.6645ZM9.36627 6.8345C10.0719 6.8345 10.6777 7.08081 11.1836 7.57343C11.6896 8.06606 11.9425 8.67184 11.9425 9.3908C11.9425 10.1098 11.6896 10.7156 11.1836 11.2082C10.6777 11.7008 10.0719 11.9471 9.36627 11.9471C8.66062 11.9471 8.06149 11.7008 7.56887 11.2082C7.07625 10.7156 6.82994 10.1098 6.82994 9.3908C6.82994 8.67184 7.07625 8.06606 7.56887 7.57343C8.06149 7.08081 8.66062 6.8345 9.36627 6.8345Z" fill="#99A2AB"/>
</svg>
