<svg width="14" height="14" viewBox="0 0 14 14" fill="none" xmlns="http://www.w3.org/2000/svg">
<path fill-rule="evenodd" clip-rule="evenodd" d="M12.5466 2.91587C12.9506 2.51188 12.9506 1.85689 12.5466 1.4529C12.1426 1.0489 11.4876 1.0489 11.0836 1.4529L6.84961 5.68692L2.61558 1.4529C2.21159 1.0489 1.55659 1.0489 1.1526 1.4529C0.748612 1.85689 0.748612 2.51188 1.1526 2.91587L5.38663 7.1499L1.1526 11.3839C0.748612 11.7879 0.748612 12.4429 1.1526 12.8469C1.55659 13.2509 2.21159 13.2509 2.61558 12.8469L6.84961 8.61288L11.0836 12.8469C11.4876 13.2509 12.1426 13.2509 12.5466 12.8469C12.9506 12.4429 12.9506 11.7879 12.5466 11.3839L8.31259 7.1499L12.5466 2.91587Z" fill="#57616A"/>
<path d="M12.5466 1.4529L12.1931 1.80645L12.5466 1.4529ZM12.5466 2.91587L12.1931 2.56232L12.5466 2.91587ZM11.0836 1.4529L10.7301 1.09934V1.09934L11.0836 1.4529ZM6.84961 5.68692L6.49606 6.04048C6.58982 6.13424 6.717 6.18692 6.84961 6.18692C6.98222 6.18692 7.10939 6.13424 7.20316 6.04048L6.84961 5.68692ZM2.61558 1.4529L2.26203 1.80645L2.61558 1.4529ZM1.1526 1.4529L1.50616 1.80645L1.50616 1.80645L1.1526 1.4529ZM1.1526 2.91587L1.50616 2.56232L1.1526 2.91587ZM5.38663 7.1499L5.74018 7.50346C5.83395 7.40969 5.88663 7.28251 5.88663 7.1499C5.88663 7.01729 5.83395 6.89012 5.74018 6.79635L5.38663 7.1499ZM1.1526 11.3839L0.799049 11.0304H0.799049L1.1526 11.3839ZM1.1526 12.8469L1.50616 12.4934L1.1526 12.8469ZM2.61558 12.8469L2.26203 12.4934L2.61558 12.8469ZM6.84961 8.61288L7.20316 8.25933C7.0079 8.06407 6.69132 8.06407 6.49606 8.25933L6.84961 8.61288ZM11.0836 12.8469L11.4372 12.4934L11.0836 12.8469ZM12.5466 11.3839L12.1931 11.7375L12.5466 11.3839ZM8.31259 7.1499L7.95904 6.79635C7.76377 6.99161 7.76377 7.30819 7.95904 7.50346L8.31259 7.1499ZM12.1931 1.80645C12.4018 2.01518 12.4018 2.35359 12.1931 2.56232L12.9002 3.26943C13.4994 2.67018 13.4994 1.69859 12.9002 1.09934L12.1931 1.80645ZM11.4372 1.80645C11.6459 1.59772 11.9843 1.59772 12.1931 1.80645L12.9002 1.09934C12.3009 0.500089 11.3293 0.500089 10.7301 1.09934L11.4372 1.80645ZM7.20316 6.04048L11.4372 1.80645L10.7301 1.09934L6.49606 5.33337L7.20316 6.04048ZM2.26203 1.80645L6.49606 6.04048L7.20316 5.33337L2.96914 1.09934L2.26203 1.80645ZM1.50616 1.80645C1.71488 1.59772 2.0533 1.59772 2.26203 1.80645L2.96914 1.09934C2.36988 0.500089 1.3983 0.500089 0.799049 1.09934L1.50616 1.80645ZM1.50616 2.56232C1.29743 2.35359 1.29743 2.01518 1.50616 1.80645L0.799049 1.09934C0.199796 1.69859 0.199796 2.67018 0.799049 3.26943L1.50616 2.56232ZM5.74018 6.79635L1.50616 2.56232L0.799049 3.26943L5.03308 7.50346L5.74018 6.79635ZM1.50616 11.7375L5.74018 7.50346L5.03308 6.79635L0.799049 11.0304L1.50616 11.7375ZM1.50616 12.4934C1.29743 12.2846 1.29743 11.9462 1.50616 11.7375L0.799049 11.0304C0.199796 11.6296 0.199796 12.6012 0.799049 13.2005L1.50616 12.4934ZM2.26203 12.4934C2.0533 12.7021 1.71488 12.7021 1.50616 12.4934L0.799049 13.2005C1.3983 13.7997 2.36988 13.7997 2.96914 13.2005L2.26203 12.4934ZM6.49606 8.25933L2.26203 12.4934L2.96914 13.2005L7.20316 8.96644L6.49606 8.25933ZM11.4372 12.4934L7.20316 8.25933L6.49606 8.96644L10.7301 13.2005L11.4372 12.4934ZM12.1931 12.4934C11.9843 12.7021 11.6459 12.7021 11.4372 12.4934L10.7301 13.2005C11.3293 13.7997 12.3009 13.7997 12.9002 13.2005L12.1931 12.4934ZM12.1931 11.7375C12.4018 11.9462 12.4018 12.2846 12.1931 12.4934L12.9002 13.2005C13.4994 12.6012 13.4994 11.6296 12.9002 11.0304L12.1931 11.7375ZM7.95904 7.50346L12.1931 11.7375L12.9002 11.0304L8.66614 6.79635L7.95904 7.50346ZM12.1931 2.56232L7.95904 6.79635L8.66614 7.50346L12.9002 3.26943L12.1931 2.56232Z" fill="#57616A"/>
</svg>
