<svg width="20" height="20" viewBox="0 0 20 20" fill="none" xmlns="http://www.w3.org/2000/svg">
<path d="M20 10C20 4.48594 15.5141 -1.96087e-07 10 -4.37114e-07C4.48594 -6.78141e-07 -1.96087e-07 4.48594 -4.37114e-07 10C-6.78141e-07 15.5141 4.48594 20 10 20C15.5141 20 20 15.5141 20 10ZM5.27469 10.6628C5.09156 10.48 5 10.24 5 10C5 9.76 5.09156 9.52 5.27469 9.33719L8.67437 5.9375C9.04044 5.57144 9.63394 5.57144 10 5.9375C10.3661 6.30356 10.3661 6.89706 10 7.26312L8.20063 9.0625L13.75 9.0625C14.2678 9.0625 14.6875 9.48223 14.6875 10C14.6875 10.5178 14.2678 10.9375 13.75 10.9375L8.20062 10.9375L10 12.7369C10.3661 13.1029 10.3661 13.6964 10 14.0625C9.63394 14.4286 9.04044 14.4286 8.67437 14.0625L5.27469 10.6628Z" fill="#001921"/>
</svg>
