<svg width="15" height="15" viewBox="0 0 15 15" fill="none" xmlns="http://www.w3.org/2000/svg">
<path fill-rule="evenodd" clip-rule="evenodd" d="M14.4717 2.23529C14.943 1.76397 14.943 0.999802 14.4717 0.52848C14.0004 0.0571572 13.2362 0.0571572 12.7649 0.52848L7.8252 5.46818L2.8855 0.52848C2.41417 0.0571572 1.65001 0.0571572 1.17869 0.52848C0.707365 0.999802 0.707365 1.76397 1.17869 2.23529L6.11839 7.17499L1.17869 12.1147C0.707365 12.586 0.707365 13.3502 1.17869 13.8215C1.65001 14.2928 2.41417 14.2928 2.8855 13.8215L7.8252 8.8818L12.7649 13.8215C13.2362 14.2928 14.0004 14.2928 14.4717 13.8215C14.943 13.3502 14.943 12.586 14.4717 12.1147L9.53201 7.17499L14.4717 2.23529Z" fill="#99A2AB"/>
</svg>
