<svg width="22" height="22" viewBox="0 0 22 22" fill="none" xmlns="http://www.w3.org/2000/svg">
<path d="M11 0.5C10.0147 0.5 9.21601 1.29872 9.21601 2.28399L9.21601 9.21601H2.28399C1.29872 9.21601 0.5 10.0147 0.5 11C0.5 11.9853 1.29872 12.784 2.28399 12.784H9.21601V19.716C9.21601 20.7013 10.0147 21.5 11 21.5C11.9853 21.5 12.784 20.7013 12.784 19.716V12.784H19.716C20.7013 12.784 21.5 11.9853 21.5 11C21.5 10.0147 20.7013 9.21601 19.716 9.21601H12.784V2.28399C12.784 1.29872 11.9853 0.5 11 0.5Z" fill="#001921"/>
</svg>
