<svg width="20" height="20" viewBox="0 0 20 20" fill="none" xmlns="http://www.w3.org/2000/svg">
<path d="M1.19249e-07 10C5.34943e-08 15.5141 4.48594 20 10 20C15.5141 20 20 15.5141 20 10C20 4.48594 15.5141 1.85003e-07 10 1.19249e-07C4.48594 5.34943e-08 1.85003e-07 4.48594 1.19249e-07 10ZM14.7253 9.33719C14.9084 9.52 15 9.76 15 10C15 10.24 14.9084 10.48 14.7253 10.6628L11.3256 14.0625C10.9596 14.4286 10.3661 14.4286 10 14.0625C9.63394 13.6964 9.63394 13.1029 10 12.7369L11.7994 10.9375L6.25 10.9375C5.73223 10.9375 5.3125 10.5178 5.3125 10C5.3125 9.48223 5.73223 9.0625 6.25 9.0625L11.7994 9.0625L10 7.26313C9.63394 6.89706 9.63394 6.30356 10 5.9375C10.3661 5.57144 10.9596 5.57144 11.3256 5.9375L14.7253 9.33719Z" fill="#001921"/>
</svg>
