<svg width="20" height="20" viewBox="0 0 20 20" fill="none" xmlns="http://www.w3.org/2000/svg">
<path d="M2.56455 4.02848C2.29734 4.17112 2.11892 4.4207 2.10107 4.7237C1.94092 6.20323 1.69113 10.8735 3.84791 14.7594C4.02634 15.0802 4.22239 15.401 4.43629 15.704C5.7375 17.5936 7.68061 19.18 10.5859 20C19.8374 17.3796 18.75 6.98755 18.3936 4.68801C18.3579 4.40285 18.1795 4.17112 17.9301 4.02848L10.6751 0.106893C10.4079 -0.0356311 10.0691 -0.0356311 9.80171 0.106893L9.76603 0.124736C9.5859 0.222381 2.09465 4.2832 2.56455 4.02848Z" fill="#001921"/>
<path fill-rule="evenodd" clip-rule="evenodd" d="M14.0436 7.41816C14.3345 7.70911 14.3345 8.18083 14.0436 8.47178L9.81934 12.696C9.5284 12.987 9.05668 12.987 8.76573 12.696L6.58149 10.5118C6.29054 10.2208 6.29054 9.74912 6.58149 9.45817C6.87244 9.16723 7.34416 9.16723 7.63511 9.45817L9.29254 11.1156L12.99 7.41816C13.2809 7.12721 13.7526 7.12721 14.0436 7.41816Z" fill="white"/>
</svg>
