<svg width="13" height="12" viewBox="0 0 13 12" fill="none" xmlns="http://www.w3.org/2000/svg">
<g clip-path="url(#clip0_3742_1816)">
<path d="M5.54222 6.46073C6.03644 6.46073 6.43706 6.06006 6.43706 5.5659V4.95144C6.43706 4.21013 7.038 3.60918 7.77931 3.60918H9.56899C10.0632 3.60918 10.4638 3.2085 10.4638 2.71434C10.4638 2.22012 10.0632 1.8195 9.56899 1.8195C9.47888 1.8195 8.50756 1.8195 8.5977 1.8195C8.41286 1.29868 7.91521 0.894838 7.33189 0.894838C7.32882 0.894838 7.32533 0.894838 7.32229 0.894838C6.90282 0.336012 6.24655 0 5.54222 0C4.81254 0 4.13443 0.360918 3.72021 0.945964C2.95786 0.753663 2.14741 1.15542 1.76269 1.8195H1.51544C1.02122 1.8195 0.620605 2.22012 0.620605 2.71434C0.620605 3.2085 1.02122 3.60918 1.51544 3.60918H3.30512C4.04644 3.60918 4.64738 4.21013 4.64738 4.95144V5.5659C4.64738 6.06006 5.048 6.46073 5.54222 6.46073Z" fill="white"/>
<path fill-rule="evenodd" clip-rule="evenodd" d="M7.77937 4.50401H8.55258H9.56823H10.2961C11.502 4.50401 12.4795 5.48156 12.4795 6.68742V8.00595C12.4795 9.21181 11.502 10.1894 10.2961 10.1894H9.56823V10.7051C9.54336 11.4258 8.95367 12 8.22679 12H2.85776C2.11501 12 1.5155 11.4004 1.5155 10.6577V4.50401H3.30518C3.55204 4.50401 3.7526 4.70458 3.7526 4.95143V5.56589C3.7526 6.55292 4.55524 7.35557 5.54228 7.35557C6.52931 7.35557 7.33195 6.55292 7.33195 5.56589V4.95143C7.33195 4.70458 7.53252 4.50401 7.77937 4.50401ZM4.20002 10.2103C4.20002 10.4576 3.9999 10.6577 3.7526 10.6577C3.5053 10.6577 3.30518 10.4576 3.30518 10.2103V8.91438C3.30518 8.66708 3.5053 8.46696 3.7526 8.46696C3.9999 8.46696 4.20002 8.66708 4.20002 8.91438V10.2103ZM5.9897 10.2103C5.9897 10.4576 5.78958 10.6577 5.54228 10.6577C5.29497 10.6577 5.09486 10.4576 5.09486 10.2103V8.91438C5.09486 8.66708 5.29497 8.46696 5.54228 8.46696C5.78958 8.46696 5.9897 8.66708 5.9897 8.91438V10.2103ZM7.77937 10.2103C7.77937 10.4576 7.57926 10.6577 7.33195 10.6577C7.08465 10.6577 6.88454 10.4576 6.88454 10.2103V8.91438C6.88454 8.66708 7.08465 8.46696 7.33195 8.46696C7.57926 8.46696 7.77937 8.66708 7.77937 8.91438V10.2103ZM10.1443 5.59572H10.2961C10.899 5.59572 11.3878 6.08449 11.3878 6.68742V8.00595C11.3878 8.60888 10.899 9.09765 10.2961 9.09765H10.1443C9.86814 9.09765 9.64429 8.87379 9.64429 8.59765V6.09572C9.64429 5.81957 9.86814 5.59572 10.1443 5.59572Z" fill="white"/>
</g>
<defs>
<clipPath id="clip0_3742_1816">
<rect width="12" height="12" fill="white" transform="translate(0.550293)"/>
</clipPath>
</defs>
</svg>
