<svg width="14" height="15" viewBox="0 0 14 15" fill="none" xmlns="http://www.w3.org/2000/svg">
<path d="M13.5898 6.26953H12.3594V5.44922H1.64062V6.26953H0.410156C0.183609 6.26953 0 6.45314 0 6.67969V7.5C0 8.49025 0.705704 9.31868 1.64062 9.50923V12.4219C1.64062 13.1014 2.19156 13.6523 2.87109 13.6523H11.1289C11.8084 13.6523 12.3594 13.1014 12.3594 12.4219V9.50923C13.2943 9.31868 14 8.49025 14 7.5V6.67969C14 6.45314 13.8164 6.26953 13.5898 6.26953ZM1.64062 8.65495C1.16425 8.48502 0.820312 8.03406 0.820312 7.5V7.08984H1.64062V8.65495ZM9.81726 9.7032C9.60289 10.8254 8.68474 11.7434 7.56268 11.9579C5.54362 12.3437 3.79694 10.5971 4.18274 8.57794C4.39722 7.45578 5.31526 6.53784 6.43732 6.32336C8.45648 5.93756 10.2031 7.68414 9.81726 9.7032ZM13.1797 7.5C13.1797 8.03406 12.8358 8.48502 12.3594 8.65495V7.08984H13.1797V7.5Z" fill="#FCCE00"/>
<path d="M1.23047 4.62891H12.7695C12.9961 4.62891 13.1797 4.4453 13.1797 4.21875C13.1797 3.53922 12.6288 2.98828 11.9492 2.98828H9.87109V2.57812C9.87109 1.89859 9.32016 1.34766 8.64063 1.34766H5.35938C4.67984 1.34766 4.12891 1.89859 4.12891 2.57812V2.98828H2.05078C1.37125 2.98828 0.820312 3.53922 0.820312 4.21875C0.820312 4.4453 1.00392 4.62891 1.23047 4.62891ZM4.94922 2.57812C4.94922 2.35179 5.13304 2.16797 5.35938 2.16797H8.64063C8.86696 2.16797 9.05078 2.35179 9.05078 2.57812V2.98828H4.94922V2.57812Z" fill="#FCCE00"/>
<path d="M7.00006 7.08984C7.22672 7.08984 7.41022 7.27335 7.41022 7.5V8.73047H8.64069C8.86734 8.73047 9.05084 8.91397 9.05084 9.14062C9.05084 8.00992 8.13077 7.08984 7.00006 7.08984Z" fill="#FCCE00"/>
<path d="M8.64073 9.55078H7.0001C6.77356 9.55078 6.58995 9.36717 6.58995 9.14063V7.5C6.58995 7.27335 6.77345 7.08984 7.0001 7.08984C5.69145 7.08984 4.66499 8.32213 5.02046 9.68718C5.1999 10.3768 5.76397 10.9408 6.45355 11.1203C7.8186 11.4757 9.05088 10.4493 9.05088 9.14063C9.05088 9.36728 8.86738 9.55078 8.64073 9.55078Z" fill="#FCCE00"/>
</svg>
