<svg width="16" height="16" viewBox="0 0 16 16" fill="none" xmlns="http://www.w3.org/2000/svg">
<path fill-rule="evenodd" clip-rule="evenodd" d="M16 8C16 12.4183 12.4183 16 8 16C3.58172 16 0 12.4183 0 8C0 3.58172 3.58172 0 8 0C12.4183 0 16 3.58172 16 8ZM10.5657 5.43431C10.8781 5.74673 10.8781 6.25327 10.5657 6.56569L9.13137 8L10.5657 9.43431C10.8781 9.74673 10.8781 10.2533 10.5657 10.5657C10.2533 10.8781 9.74673 10.8781 9.43431 10.5657L8 9.13137L6.56569 10.5657C6.25327 10.8781 5.74673 10.8781 5.43431 10.5657C5.12189 10.2533 5.12189 9.74673 5.43431 9.43431L6.86863 8L5.43431 6.56569C5.12189 6.25327 5.12189 5.74673 5.43431 5.43431C5.74673 5.12189 6.25327 5.12189 6.56569 5.43431L8 6.86863L9.43431 5.43431C9.74673 5.12189 10.2533 5.12189 10.5657 5.43431Z" fill="white" fill-opacity="0.5"/>
</svg>
