<svg width="40" height="40" viewBox="0 0 40 40" fill="none" xmlns="http://www.w3.org/2000/svg">
<circle opacity="0.1" cx="20" cy="19.9951" r="20" fill="#FCCE00"/>
<g clip-path="url(#clip0_8132_3879)">
<path d="M20 23.7451C22.0711 23.7451 23.75 22.0662 23.75 19.9951C23.75 17.924 22.0711 16.2451 20 16.2451C17.9289 16.2451 16.25 17.924 16.25 19.9951C16.25 22.0662 17.9289 23.7451 20 23.7451Z" fill="#FCCE00"/>
<path d="M28.25 19.2451H27.4618C27.1092 15.7074 24.2878 12.8859 20.75 12.5334V11.7451C20.75 11.3311 20.4148 10.9951 20 10.9951C19.5852 10.9951 19.25 11.3311 19.25 11.7451V12.5334C15.7122 12.8859 12.8908 15.7074 12.5383 19.2451H11.75C11.3353 19.2451 11 19.5811 11 19.9951C11 20.4091 11.3353 20.7451 11.75 20.7451H12.5383C12.8915 24.2829 15.7122 27.1044 19.25 27.4569V28.2451C19.25 28.6591 19.5852 28.9951 20 28.9951C20.4148 28.9951 20.75 28.6591 20.75 28.2451V27.4569C24.2878 27.1036 27.1092 24.2829 27.4618 20.7451H28.25C28.6647 20.7451 29 20.4091 29 19.9951C29 19.5811 28.6647 19.2451 28.25 19.2451ZM20.7395 25.9449C20.7125 25.5556 20.3968 25.2451 20 25.2451C19.6032 25.2451 19.2875 25.5556 19.2605 25.9449C16.544 25.6089 14.387 23.4519 14.051 20.7354C14.4402 20.7076 14.75 20.3911 14.75 19.9951C14.75 19.5991 14.4402 19.2826 14.0503 19.2556C14.3863 16.5391 16.5432 14.3821 19.2597 14.0461C19.2875 14.4346 19.6032 14.7451 20 14.7451C20.3968 14.7451 20.7125 14.4346 20.7395 14.0454C23.456 14.3814 25.613 16.5384 25.949 19.2549C25.5597 19.2826 25.25 19.5991 25.25 19.9951C25.25 20.3911 25.5598 20.7076 25.9498 20.7346C25.613 23.4519 23.4567 25.6081 20.7395 25.9449Z" fill="#FCCE00"/>
</g>
<defs>
<clipPath id="clip0_8132_3879">
<rect width="18" height="18" fill="white" transform="translate(11 10.9951)"/>
</clipPath>
</defs>
</svg>
