<svg width="18" height="19" viewBox="0 0 18 19" fill="none" xmlns="http://www.w3.org/2000/svg">
<g clip-path="url(#clip0_3729_1841)">
<path d="M8.99999 13.7451C11.0711 13.7451 12.75 12.0662 12.75 9.99511C12.75 7.92405 11.0711 6.24512 8.99999 6.24512C6.92893 6.24512 5.25 7.92405 5.25 9.99511C5.25 12.0662 6.92893 13.7451 8.99999 13.7451Z" fill="#07A279"/>
<path d="M17.25 9.24512H16.4618C16.1092 5.70737 13.2878 2.88587 9.75 2.53337V1.74512C9.75 1.33112 9.41475 0.995117 9 0.995117C8.58525 0.995117 8.25 1.33112 8.25 1.74512V2.53337C4.71225 2.88587 1.89075 5.70737 1.53825 9.24512H0.75C0.33525 9.24512 0 9.58112 0 9.99512C0 10.4091 0.33525 10.7451 0.75 10.7451H1.53825C1.8915 14.2829 4.71225 17.1044 8.25 17.4569V18.2451C8.25 18.6591 8.58525 18.9951 9 18.9951C9.41475 18.9951 9.75 18.6591 9.75 18.2451V17.4569C13.2878 17.1036 16.1092 14.2829 16.4618 10.7451H17.25C17.6647 10.7451 18 10.4091 18 9.99512C18 9.58112 17.6647 9.24512 17.25 9.24512ZM9.7395 15.9449C9.7125 15.5556 9.39675 15.2451 9 15.2451C8.60325 15.2451 8.2875 15.5556 8.2605 15.9449C5.544 15.6089 3.387 13.4519 3.051 10.7354C3.44025 10.7076 3.75 10.3911 3.75 9.99512C3.75 9.59912 3.44025 9.28262 3.05025 9.25562C3.38625 6.53912 5.54325 4.38212 8.25975 4.04612C8.2875 4.43462 8.60325 4.74512 9 4.74512C9.39675 4.74512 9.7125 4.43462 9.7395 4.04537C12.456 4.38137 14.613 6.53837 14.949 9.25487C14.5597 9.28262 14.25 9.59912 14.25 9.99512C14.25 10.3911 14.5598 10.7076 14.9498 10.7346C14.613 13.4519 12.4567 15.6081 9.7395 15.9449Z" fill="#07A279"/>
</g>
<defs>
<clipPath id="clip0_3729_1841">
<rect width="18" height="18" fill="white" transform="translate(0 0.995117)"/>
</clipPath>
</defs>
</svg>
