<svg width="14" height="15" viewBox="0 0 14 15" fill="none" xmlns="http://www.w3.org/2000/svg">
<g clip-path="url(#clip0_8071_7438)">
<path d="M7 0.5C3.13416 0.5 0 3.63416 0 7.5C0 11.3658 3.13416 14.5 7 14.5C10.8658 14.5 14 11.3658 14 7.5C14 3.63416 10.8658 0.5 7 0.5ZM9.4428 11.0461C9.23251 11.1412 9.01358 11.2218 8.78889 11.2823C7.93621 11.5185 7.08354 11.5272 6.23374 11.2506C5.20823 10.9193 4.5284 10.2193 4.12222 9.23992C4.04444 9.04979 3.99259 8.85103 3.9321 8.65226H3.1284C2.993 8.65226 2.88642 8.5428 2.88642 8.41029V7.86872C2.88642 7.73333 2.99588 7.62675 3.1284 7.62675H3.79383C3.79383 7.47695 3.79383 7.3358 3.79383 7.18601H3.1284C2.993 7.18601 2.88642 7.07654 2.88642 6.94403V6.40247C2.88642 6.26708 2.99588 6.16049 3.1284 6.16049H3.97531L4.00412 6.07695C4.23169 5.35391 4.62346 4.73457 5.22551 4.2679C5.7037 3.8963 6.25679 3.69177 6.85021 3.59671C7.69424 3.46132 8.51235 3.57654 9.30453 3.88765C9.35638 3.90782 9.40535 3.93086 9.45432 3.95967C9.64444 4.07202 9.69342 4.21317 9.60988 4.4177C9.52058 4.63086 9.43128 4.84691 9.33333 5.0572C9.24979 5.23868 9.13457 5.2963 8.93868 5.25309C8.67078 5.19259 8.40864 5.10905 8.14074 5.05432C7.57613 4.93909 7.0144 4.93333 6.4642 5.14938C5.99177 5.33663 5.7037 5.69671 5.50782 6.14609C5.50494 6.15185 5.50494 6.15761 5.50494 6.16337H7.14979C7.28518 6.16337 7.39177 6.27284 7.39177 6.40535V6.94691C7.39177 7.0823 7.2823 7.18889 7.14979 7.18889H5.27161C5.26872 7.33292 5.27161 7.47695 5.27161 7.62963H7.15267C7.28807 7.62963 7.39465 7.73909 7.39465 7.8716V8.41317C7.39465 8.54856 7.28519 8.65514 7.15267 8.65514H5.4358C5.64321 9.24856 5.98025 9.70658 6.61399 9.90535C7.12099 10.0638 7.63086 10.0551 8.14362 9.94856C8.40864 9.89383 8.6679 9.81317 8.93292 9.75268C9.14033 9.70658 9.25268 9.76132 9.3391 9.95144C9.43704 10.1646 9.52922 10.3807 9.61564 10.5996C9.6963 10.7955 9.64444 10.9539 9.4428 11.0461Z" fill="#FCCE00"/>
</g>
<defs>
<clipPath id="clip0_8071_7438">
<rect width="14" height="14" fill="white" transform="translate(0 0.5)"/>
</clipPath>
</defs>
</svg>
