<svg width="17" height="15" viewBox="0 0 17 15" fill="none" xmlns="http://www.w3.org/2000/svg">
<path fill-rule="evenodd" clip-rule="evenodd" d="M9.83256 0.37686C10.3894 0.146111 10.9864 0.0273438 11.5892 0.0273438C12.192 0.0273438 12.7889 0.146111 13.3458 0.37686C13.9025 0.607561 14.4084 0.945678 14.8345 1.3719C15.2607 1.79799 15.5991 2.30414 15.8298 2.86091C16.0606 3.41781 16.1793 4.0147 16.1793 4.61751C16.1793 5.22032 16.0606 5.81722 15.8298 6.37411C15.5991 6.93094 15.2609 7.43687 14.8346 7.86299L8.74482 13.9528C8.59479 14.1028 8.39131 14.1871 8.17914 14.1871C7.96696 14.1871 7.76348 14.1028 7.61345 13.9528L1.52364 7.86299C0.662888 7.00223 0.179321 5.8348 0.179321 4.61751C0.179321 3.40022 0.662888 2.23279 1.52364 1.37203C2.3844 0.511279 3.55183 0.0277122 4.76912 0.0277122C5.98641 0.0277122 7.15384 0.511279 8.0146 1.37203L8.17914 1.53657L8.34354 1.37217C8.76966 0.945881 9.27572 0.607585 9.83256 0.37686Z" fill="#001921" fill-opacity="0.15"/>
</svg>
