<svg width="18" height="19" viewBox="0 0 18 19" fill="none" xmlns="http://www.w3.org/2000/svg">
<g clip-path="url(#clip0_3729_8048)">
<path d="M10.9669 8.59025C10.9669 9.67481 10.0846 10.5571 9.00003 10.5571C7.91547 10.5571 7.03321 9.67481 7.03321 8.59025C7.03321 7.50568 7.91547 6.62342 9.00003 6.62342C10.0846 6.62342 10.9669 7.50568 10.9669 8.59025ZM16.5864 8.59025C16.5864 15.2165 9.67128 18.7503 9.3771 18.8973C9.25825 18.9568 9.129 18.9863 9.00003 18.9863C8.87107 18.9863 8.74182 18.9568 8.62296 18.8973C8.32878 18.7503 1.4137 15.2165 1.4137 8.59025C1.4137 4.40708 4.81687 1.00391 9.00003 1.00391C13.1832 1.00391 16.5864 4.40708 16.5864 8.59025ZM12.6527 8.59025C12.6527 6.57621 11.0141 4.93756 9.00003 4.93756C6.986 4.93756 5.34735 6.57621 5.34735 8.59025C5.34735 10.6043 6.986 12.2429 9.00003 12.2429C11.0141 12.2429 12.6527 10.6043 12.6527 8.59025Z" fill="#99A2AB"/>
</g>
<defs>
<clipPath id="clip0_3729_8048">
<rect width="18" height="18" fill="white" transform="translate(0 0.995117)"/>
</clipPath>
</defs>
</svg>
