<svg width="16" height="16" viewBox="0 0 16 16" fill="none" xmlns="http://www.w3.org/2000/svg">
<path d="M9.74831 6.75123C9.74831 7.71529 8.96408 8.49952 8.00002 8.49952C7.03596 8.49952 6.25173 7.71529 6.25173 6.75123C6.25173 5.78717 7.03596 5.00293 8.00002 5.00293C8.96408 5.00293 9.74831 5.78717 9.74831 6.75123ZM14.7434 6.75123C14.7434 12.6412 8.59669 15.7824 8.33519 15.913C8.22954 15.966 8.11466 15.9922 8.00002 15.9922C7.88538 15.9922 7.77049 15.966 7.66485 15.913C7.40335 15.7824 1.25661 12.6412 1.25661 6.75123C1.25661 3.03286 4.28165 0.0078125 8.00002 0.0078125C11.7184 0.0078125 14.7434 3.03286 14.7434 6.75123ZM11.2468 6.75123C11.2468 4.96098 9.79027 3.5044 8.00002 3.5044C6.20977 3.5044 4.75319 4.96098 4.75319 6.75123C4.75319 8.54148 6.20977 9.99806 8.00002 9.99806C9.79027 9.99806 11.2468 8.54148 11.2468 6.75123Z" fill="white"/>
</svg>
