<svg width="13" height="12" viewBox="0 0 13 12" fill="none" xmlns="http://www.w3.org/2000/svg">
<g clip-path="url(#clip0_3742_1109)">
<path d="M12.1962 6.37748H11.8269C11.666 3.95502 9.86643 1.96815 7.52635 1.53819C7.58923 1.40321 7.62687 1.21294 7.62687 1.05446C7.62687 0.473017 7.15386 0 6.57242 0C5.99098 0 5.51796 0.473017 5.51796 1.05446C5.51796 1.21294 5.5556 1.40321 5.61848 1.53819C3.2784 1.96815 1.43192 3.955 1.27109 6.37748H0.901786C0.707512 6.37748 0.550293 6.52533 0.550293 6.7196C0.550293 6.91388 0.707489 7.0711 0.901786 7.0711H12.1962C12.3905 7.0711 12.5477 6.91388 12.5477 6.7196C12.5477 6.52533 12.3905 6.37748 12.1962 6.37748ZM6.57242 1.44732C6.37849 1.44732 6.22092 1.2484 6.22092 1.05446C6.22092 0.860511 6.37849 0.702964 6.57242 0.702964C6.76634 0.702964 6.92391 0.860511 6.92391 1.05446C6.92391 1.2484 6.76636 1.44732 6.57242 1.44732Z" fill="white"/>
<path d="M1.60491 8.47707C1.40806 8.47707 1.25342 8.63171 1.25342 8.82856V11.6459C1.25342 11.8427 1.40806 11.9974 1.60491 11.9974H2.65937V8.47707H1.60491Z" fill="white"/>
<path d="M11.452 8.17607C11.1774 7.90148 10.7326 7.90148 10.458 8.17605L8.44517 10.1795C8.19301 10.4316 7.8612 10.5718 7.50703 10.5859H6.54431C6.35153 10.5859 6.19282 10.4424 6.19282 10.2344C6.19282 10.0263 6.35151 9.8829 6.54431 9.8829C6.98836 9.8829 6.90609 9.8829 7.62687 9.8829C8.0135 9.8829 8.32983 9.56656 8.32983 9.17993C8.32983 8.7933 8.0135 8.48634 7.62687 8.48634H6.92391C6.80055 8.48634 6.70753 8.49075 6.60757 8.40199C6.48293 8.29289 6.3475 8.15681 6.22094 8.07628C5.51835 7.58034 4.50235 7.45994 3.65506 7.90265C3.47503 7.99671 3.36218 8.18325 3.36218 8.38638V11.9973C7.83307 12.0033 7.42399 11.9973 7.45078 11.9973C8.20182 11.9973 8.90821 11.7049 9.43921 11.1736L11.452 9.16076C11.7266 8.88616 11.7266 8.45069 11.452 8.17607Z" fill="white"/>
</g>
<defs>
<clipPath id="clip0_3742_1109">
<rect width="12" height="12" fill="white" transform="translate(0.550293)"/>
</clipPath>
</defs>
</svg>
