<svg width="17" height="17" viewBox="0 0 17 17" fill="none" xmlns="http://www.w3.org/2000/svg">
<path d="M7.3096 1.18426C7.6411 0.512676 8.59877 0.512676 8.93027 1.18426L10.7023 4.7741C10.8338 5.04055 11.0879 5.22532 11.3819 5.26829L15.346 5.8477C16.0869 5.956 16.3822 6.86677 15.8458 7.38924L12.9788 10.1817C12.7657 10.3893 12.6684 10.6885 12.7187 10.9818L13.3951 14.9256C13.5217 15.6639 12.7468 16.2269 12.0838 15.8782L8.54055 14.0149C8.27724 13.8764 7.96263 13.8764 7.69931 14.0149L4.15606 15.8782C3.49309 16.2269 2.71814 15.6639 2.84476 14.9256L3.52118 10.9818C3.57148 10.6885 3.47418 10.3893 3.26103 10.1817L0.394071 7.38924C-0.142349 6.86677 0.15296 5.956 0.893902 5.8477L4.85798 5.26829C5.15199 5.22532 5.40609 5.04055 5.53762 4.7741L7.3096 1.18426Z" fill="#FCCE00"/>
</svg>
