<svg width="13" height="13" viewBox="0 0 13 13" fill="none" xmlns="http://www.w3.org/2000/svg">
<g clip-path="url(#clip0_3742_1443)">
<path d="M1.76047 3.24648H0.45459V7.83471V9.24647V11.7171H1.76047V9.24647H3.384V11.7171H4.68988V9.24647V7.83471H1.76047V3.24648Z" fill="white"/>
<path d="M11.1487 3.24648V7.83471H8.2193V9.24647V11.7171H9.52518V9.24647H11.1487V11.7171H12.4546V9.24647V7.83471V3.24648H11.1487Z" fill="white"/>
<path d="M9.98403 5.36413C9.98403 4.9743 9.66798 4.65825 9.27814 4.65825H3.63108C3.24125 4.65825 2.9252 4.9743 2.9252 5.36413V6.07002H9.98403V5.36413Z" fill="white"/>
<path d="M7.10958 6.77588H5.80369V10.634L5.39575 10.634V11.7171H7.5134V10.634L7.10958 10.634V6.77588Z" fill="white"/>
<path d="M6.80752 2.57026V1.8347H6.10164V2.57026C5.33771 2.69901 4.71136 3.23809 4.45807 3.95235H8.45112C8.1978 3.23809 7.57145 2.69899 6.80752 2.57026Z" fill="white"/>
</g>
<defs>
<clipPath id="clip0_3742_1443">
<rect width="12" height="12" fill="white" transform="translate(0.45459 0.775879)"/>
</clipPath>
</defs>
</svg>
