<svg width="13" height="12" viewBox="0 0 13 12" fill="none" xmlns="http://www.w3.org/2000/svg">
<path fill-rule="evenodd" clip-rule="evenodd" d="M11.7403 3.55378C11.203 2.25696 10.4273 1.09598 9.43489 0.103031C9.36896 0.0370781 9.2795 0 9.18624 0H3.91435C3.82109 0 3.73163 0.0370781 3.6657 0.103031C2.67324 1.09598 1.8976 2.25696 1.36032 3.55378C0.822824 4.85109 0.550293 6.22062 0.550293 7.62431V10.875C0.550293 11.4963 1.05397 12 1.67529 12H11.4253C12.0466 12 12.5503 11.4963 12.5503 10.875V7.62431C12.5503 6.22062 12.2778 4.85109 11.7403 3.55378ZM8.05655 3.71562H5.04403C4.43393 3.71562 3.93936 3.22104 3.93936 2.61094C3.93936 2.00084 4.43393 1.50626 5.04403 1.50626H8.05653C8.66663 1.50626 9.16121 2.00084 9.16121 2.61094C9.16121 3.22104 8.66665 3.71562 8.05655 3.71562Z" fill="white"/>
<g filter="url(#filter0_b_3742_673)">
<rect x="4.15027" y="6" width="4.8" height="1.2" rx="0.6" fill="#001921" fill-opacity="0.6"/>
</g>
<g filter="url(#filter1_b_3742_673)">
<rect x="4.15027" y="8.4" width="3" height="1.2" rx="0.6" fill="#001921" fill-opacity="0.6"/>
</g>
<defs>
<filter id="filter0_b_3742_673" x="-26.8497" y="-25" width="66.8" height="63.2" filterUnits="userSpaceOnUse" color-interpolation-filters="sRGB">
<feFlood flood-opacity="0" result="BackgroundImageFix"/>
<feGaussianBlur in="BackgroundImage" stdDeviation="15.5"/>
<feComposite in2="SourceAlpha" operator="in" result="effect1_backgroundBlur_3742_673"/>
<feBlend mode="normal" in="SourceGraphic" in2="effect1_backgroundBlur_3742_673" result="shape"/>
</filter>
<filter id="filter1_b_3742_673" x="-26.8497" y="-22.6" width="65" height="63.2" filterUnits="userSpaceOnUse" color-interpolation-filters="sRGB">
<feFlood flood-opacity="0" result="BackgroundImageFix"/>
<feGaussianBlur in="BackgroundImage" stdDeviation="15.5"/>
<feComposite in2="SourceAlpha" operator="in" result="effect1_backgroundBlur_3742_673"/>
<feBlend mode="normal" in="SourceGraphic" in2="effect1_backgroundBlur_3742_673" result="shape"/>
</filter>
</defs>
</svg>
