<svg width="12" height="12" viewBox="0 0 12 12" fill="none" xmlns="http://www.w3.org/2000/svg">
<path d="M6.00148 12C4.39924 12 2.89299 11.3753 1.7591 10.2418C-0.376287 8.10639 -0.562268 4.74833 1.20076 2.39976H0.402035C0.180857 2.39976 0.0020752 2.22098 0.0020752 1.9998V0.39996C0.0020752 0.178782 0.180857 0 0.402035 0H4.8016C5.02277 0 5.20156 0.178782 5.20156 0.39996V4.79952C5.20156 5.0207 5.02277 5.19948 4.8016 5.19948H3.20176C2.98058 5.19948 2.8018 5.0207 2.8018 4.79952V4.34717C2.10467 5.69863 2.32184 7.40926 3.45653 8.54435C4.13526 9.22308 5.03917 9.59704 6.00148 9.59704C6.96378 9.59704 7.86769 9.22308 8.54642 8.54435C9.94948 7.14089 9.94948 4.85751 8.54642 3.45405C8.39004 3.29767 8.39004 3.0449 8.54642 2.88851L9.67831 1.75662C9.7535 1.68183 9.85509 1.63984 9.96108 1.63984C10.0675 1.63984 10.1691 1.68183 10.2439 1.75702C12.5828 4.09639 12.5828 7.90281 10.2439 10.2422C9.10996 11.3753 7.60372 12 6.00148 12Z" fill="white"/>
</svg>
