<svg width="14" height="14" viewBox="0 0 14 14" fill="none" xmlns="http://www.w3.org/2000/svg">
<g clip-path="url(#clip0_4394_18133)">
<path d="M13.9634 5.37023C13.8718 5.08675 13.6204 4.8854 13.3229 4.85859L9.2821 4.49169L7.68426 0.751797C7.56645 0.477712 7.29813 0.300293 7.00001 0.300293C6.70189 0.300293 6.43357 0.477711 6.31576 0.752438L4.71792 4.49169L0.676499 4.85859C0.379555 4.88604 0.128755 5.08675 0.0365745 5.37023C-0.0556062 5.65372 0.0295247 5.96465 0.254155 6.16066L3.30851 8.83935L2.40785 12.8068C2.34195 13.0985 2.45517 13.4 2.69721 13.575C2.82731 13.669 2.97952 13.7168 3.13301 13.7168C3.26536 13.7168 3.39663 13.6811 3.51445 13.6106L7.00001 11.5274L10.4843 13.6106C10.7393 13.764 11.0607 13.75 11.3022 13.575C11.5443 13.3995 11.6574 13.0978 11.5915 12.8068L10.6909 8.83935L13.7452 6.16119C13.9699 5.96465 14.0556 5.65425 13.9634 5.37023Z" fill="#E4E6E8"/>
<path d="M6.31576 0.752438C6.43357 0.477711 6.70189 0.300293 7.00001 0.300293V11.5274L3.51445 13.6106C3.39663 13.6811 3.26536 13.7168 3.13301 13.7168C2.97952 13.7168 2.82731 13.669 2.69721 13.575C2.45517 13.4 2.34195 13.0985 2.40785 12.8068L3.30851 8.83935L0.254155 6.16066C0.0295247 5.96465 -0.0556062 5.65372 0.0365745 5.37023C0.128755 5.08675 0.379555 4.88604 0.676499 4.85859L4.71792 4.49169L6.31576 0.752438Z" fill="#FCCE00"/>
</g>
<defs>
<clipPath id="clip0_4394_18133">
<rect width="14" height="14" fill="white"/>
</clipPath>
</defs>
</svg>
