<svg width="14" height="15" viewBox="0 0 14 15" fill="none" xmlns="http://www.w3.org/2000/svg">
<path d="M13.9635 5.87023C13.8719 5.58675 13.6204 5.3854 13.3229 5.35859L9.28216 4.99168L7.68432 1.2518C7.56651 0.977711 7.29819 0.800293 7.00007 0.800293C6.70195 0.800293 6.43364 0.977711 6.31582 1.25244L4.71798 4.99168L0.67656 5.35859C0.379616 5.38604 0.128816 5.58675 0.0366355 5.87023C-0.0555452 6.15372 0.0295858 6.46465 0.254216 6.66066L3.30857 9.33935L2.40791 13.3067C2.34201 13.5985 2.45523 13.9 2.69727 14.075C2.82737 14.169 2.97958 14.2168 3.13307 14.2168C3.26542 14.2168 3.39669 14.1811 3.51451 14.1106L7.00007 12.0274L10.4844 14.1106C10.7393 14.264 11.0607 14.25 11.3022 14.075C11.5444 13.8995 11.6575 13.5978 11.5916 13.3067L10.6909 9.33935L13.7453 6.66119C13.9699 6.46465 14.0557 6.15425 13.9635 5.87023Z" fill="#FBBC05"/>
</svg>
