<svg width="17" height="17" viewBox="0 0 17 17" fill="none" xmlns="http://www.w3.org/2000/svg">
<g clip-path="url(#clip0_3901_36441)">
<path d="M8.50213 16.5C6.36581 16.5 4.35748 15.667 2.84563 14.1557C-0.00155324 11.3085 -0.249528 6.8311 2.10117 3.69968H1.03621C0.741306 3.69968 0.50293 3.4613 0.50293 3.1664V1.03328C0.50293 0.738376 0.741306 0.5 1.03621 0.5H6.90229C7.19719 0.5 7.43557 0.738376 7.43557 1.03328V6.89936C7.43557 7.19426 7.19719 7.43264 6.90229 7.43264H4.76917C4.47427 7.43264 4.23589 7.19426 4.23589 6.89936V6.29622C3.30638 8.09817 3.59595 10.379 5.10887 11.8925C6.01385 12.7974 7.21906 13.2961 8.50213 13.2961C9.7852 13.2961 10.9904 12.7974 11.8954 11.8925C13.7661 10.0212 13.7661 6.97669 11.8954 5.10541C11.6869 4.89689 11.6869 4.55986 11.8954 4.35135L13.4046 2.84217C13.5048 2.74244 13.6403 2.68645 13.7816 2.68645C13.9235 2.68645 14.0589 2.74244 14.1586 2.8427C17.2773 5.96185 17.2773 11.0371 14.1586 14.1562C12.6468 15.667 10.6384 16.5 8.50213 16.5Z" fill="white"/>
</g>
<defs>
<clipPath id="clip0_3901_36441">
<rect width="16" height="16" fill="white" transform="translate(0.5 0.5)"/>
</clipPath>
</defs>
</svg>
