<svg width="19" height="19" viewBox="0 0 19 19" fill="none" xmlns="http://www.w3.org/2000/svg">
<path d="M11.7433 12.969H7.10632V11.2301H11.7433V12.969ZM11.7433 14.1282H7.10632V15.8671H11.7433V14.1282ZM18.1192 7.46254V13.8384C18.1192 14.3186 17.7299 14.7078 17.2497 14.7078H14.6414V17.8958C14.6414 18.376 14.2522 18.7652 13.772 18.7652H5.07764C4.59742 18.7652 4.20821 18.376 4.20821 17.8958V14.7078H1.5999C1.11969 14.7078 0.730469 14.3186 0.730469 13.8384V7.46254C0.730469 6.02449 1.90073 4.85424 3.33877 4.85424H15.5109C16.9489 4.85424 18.1192 6.02449 18.1192 7.46254ZM12.9025 10.0708H5.94707V17.0263H12.9025V10.0708ZM16.3803 7.46254C16.3803 6.98232 15.9911 6.5931 15.5109 6.5931C15.0306 6.5931 14.6414 6.98232 14.6414 7.46254C14.6414 7.94276 15.0306 8.33197 15.5109 8.33197C15.9911 8.33197 16.3803 7.94276 16.3803 7.46254ZM14.0618 3.69499V1.66631C14.0618 1.18609 13.6726 0.796875 13.1924 0.796875H5.65726C5.17705 0.796875 4.78783 1.18609 4.78783 1.66631V3.69499H14.0618Z" fill="#07A279"/>
</svg>
