<svg width="18" height="19" viewBox="0 0 18 19" fill="none" xmlns="http://www.w3.org/2000/svg">
<g clip-path="url(#clip0_4470_27751)">
<path d="M9.00203 18.8789C6.59867 18.8789 4.3393 17.9418 2.63847 16.2416C-0.564614 13.0385 -0.843586 8.00139 1.80095 4.47855H0.60287C0.271103 4.47855 0.00292969 4.21037 0.00292969 3.87861V1.47885C0.00292969 1.14708 0.271103 0.878906 0.60287 0.878906H7.20221C7.53398 0.878906 7.80215 1.14708 7.80215 1.47885V8.07819C7.80215 8.40995 7.53398 8.67813 7.20221 8.67813H4.80245C4.47068 8.67813 4.20251 8.40995 4.20251 8.07819V7.39965C3.15681 9.42685 3.48258 11.9928 5.18461 13.6954C6.20271 14.7135 7.55857 15.2745 9.00203 15.2745C10.4455 15.2745 11.8013 14.7135 12.8194 13.6954C14.924 11.5902 14.924 8.16518 12.8194 6.05999C12.5849 5.82541 12.5849 5.44625 12.8194 5.21167L14.5173 3.51384C14.6301 3.40165 14.7824 3.33866 14.9414 3.33866C15.101 3.33866 15.2534 3.40165 15.3656 3.51444C18.874 7.02349 18.874 12.7331 15.3656 16.2422C13.6648 17.9418 11.4054 18.8789 9.00203 18.8789Z" fill="#07A279"/>
</g>
<defs>
<clipPath id="clip0_4470_27751">
<rect width="18" height="18" fill="white" transform="translate(0 0.878906)"/>
</clipPath>
</defs>
</svg>
