<svg width="24" height="24" viewBox="0 0 24 24" fill="none" xmlns="http://www.w3.org/2000/svg">
<path d="M12 24C18.6274 24 24 18.6274 24 12C24 5.37258 18.6274 0 12 0C5.37258 0 0 5.37258 0 12C0 18.6274 5.37258 24 12 24Z" fill="#07A279"/>
<path d="M17.9448 14.5072C17.8538 14.4545 17.7533 14.4203 17.6491 14.4066C17.5448 14.3928 17.4389 14.3997 17.3373 14.4269C17.2357 14.4541 17.1405 14.501 17.0571 14.565C16.9737 14.6291 16.9037 14.7089 16.8512 14.8C16.3599 15.652 15.6529 16.3596 14.8013 16.8515C13.9497 17.3435 12.9835 17.6025 12 17.6025C11.0165 17.6025 10.0504 17.3435 9.19875 16.8515C8.34715 16.3596 7.64012 15.652 7.14882 14.8C7.09807 14.7057 7.02891 14.6225 6.94543 14.5555C6.86195 14.4884 6.76585 14.4387 6.66283 14.4095C6.55981 14.3803 6.45197 14.372 6.3457 14.3852C6.23943 14.3984 6.13689 14.4328 6.04417 14.4864C5.95144 14.5399 5.87041 14.6116 5.80588 14.697C5.74136 14.7825 5.69465 14.8801 5.66852 14.9839C5.6424 15.0878 5.63739 15.1958 5.65379 15.3016C5.67019 15.4075 5.70768 15.5089 5.76402 15.6C6.39587 16.6948 7.30482 17.604 8.39948 18.2361C9.49415 18.8683 10.7359 19.2011 12 19.2011C13.2641 19.2011 14.5059 18.8683 15.6005 18.2361C16.6952 17.604 17.6042 16.6948 18.236 15.6C18.3422 15.4164 18.3712 15.1982 18.3166 14.9933C18.262 14.7884 18.1283 14.6135 17.9448 14.5072Z" fill="white"/>
<path d="M7.76562 10.1656L8.80002 9.13119L9.83442 10.1656C9.98531 10.3113 10.1874 10.392 10.3971 10.3901C10.6069 10.3883 10.8076 10.3042 10.9559 10.1558C11.1042 10.0075 11.1883 9.80687 11.1902 9.59711C11.192 9.38736 11.1114 9.18527 10.9656 9.03439L9.36562 7.43439C9.2156 7.28442 9.01215 7.20016 8.80002 7.20016C8.58789 7.20016 8.38444 7.28442 8.23442 7.43439L6.63442 9.03439C6.48869 9.18527 6.40806 9.38736 6.40988 9.59711C6.4117 9.80687 6.49584 10.0075 6.64417 10.1558C6.79249 10.3042 6.99314 10.3883 7.2029 10.3901C7.41266 10.392 7.61474 10.3113 7.76562 10.1656Z" fill="white"/>
<path d="M14.1656 10.1656L15.2 9.13119L16.2344 10.1656C16.3853 10.3113 16.5874 10.392 16.7972 10.3901C17.0069 10.3883 17.2076 10.3042 17.3559 10.1558C17.5042 10.0075 17.5884 9.80687 17.5902 9.59711C17.592 9.38736 17.5114 9.18527 17.3656 9.03439L15.7656 7.43439C15.6156 7.28442 15.4122 7.20016 15.2 7.20016C14.9879 7.20016 14.7845 7.28442 14.6344 7.43439L13.0344 9.03439C12.8887 9.18527 12.8081 9.38736 12.8099 9.59711C12.8117 9.80687 12.8959 10.0075 13.0442 10.1558C13.1925 10.3042 13.3932 10.3883 13.6029 10.3901C13.8127 10.392 14.0148 10.3113 14.1656 10.1656Z" fill="white"/>
</svg>
