<svg width="24" height="24" viewBox="0 0 24 24" fill="none" xmlns="http://www.w3.org/2000/svg">
<path fill-rule="evenodd" clip-rule="evenodd" d="M12 24C5.38373 24 0 18.6172 0 12C0 5.38373 5.38373 0 12 0C18.6172 0 24 5.38373 24 12C24 18.6172 18.6172 24 12 24Z" fill="#2CBD53"/>
<path fill-rule="evenodd" clip-rule="evenodd" d="M17.1634 8.17052C17.6575 8.66455 17.6575 9.46554 17.1634 9.95958L11.2935 15.8295C11.0563 16.0667 10.7345 16.2 10.399 16.2C10.0635 16.2 9.74172 16.0667 9.50447 15.8295L6.83635 13.1613C6.34231 12.6673 6.34231 11.8663 6.83635 11.3723C7.33038 10.8782 8.13138 10.8782 8.62541 11.3723L10.399 13.1459L15.3744 8.17052C15.8684 7.67648 16.6694 7.67648 17.1634 8.17052Z" fill="white"/>
</svg>
