<svg width="24" height="25" viewBox="0 0 24 25" fill="none" xmlns="http://www.w3.org/2000/svg">
<g clip-path="url(#clip0_3733_109721)">
<path d="M11.9999 23.5703C18.114 23.5703 23.0704 18.6139 23.0704 12.4999C23.0704 6.3858 18.114 1.42938 11.9999 1.42938C5.88586 1.42938 0.929443 6.3858 0.929443 12.4999C0.929443 18.6139 5.88586 23.5703 11.9999 23.5703Z" fill="#01C34E"/>
<path d="M12 24.5C5.38373 24.5 0 19.1172 0 12.5C0 5.88373 5.38373 0.5 12 0.5C18.6172 0.5 24 5.88373 24 12.5C24 19.1172 18.6172 24.5 12 24.5ZM12 2.35902C6.40805 2.35902 1.85902 6.90805 1.85902 12.5C1.85902 18.092 6.40805 22.641 12 22.641C17.592 22.641 22.141 18.091 22.141 12.5C22.141 6.90805 17.592 2.35902 12 2.35902Z" fill="#01C34E"/>
<path d="M10.55 16.9151C10.3009 16.9151 10.0629 16.8156 9.88725 16.6372L6.45736 13.1515C6.09764 12.7853 6.10228 12.1978 6.46852 11.8372C6.83475 11.4784 7.42313 11.4821 7.78284 11.8483L10.5231 14.6331L16.1922 8.38962C16.5389 8.00947 17.1263 7.98251 17.5046 8.32644C17.8848 8.67129 17.9127 9.25873 17.5678 9.63982L11.2379 16.6111C11.0659 16.8007 10.8242 16.9104 10.5686 16.916C10.5621 16.9151 10.5565 16.9151 10.55 16.9151Z" fill="white"/>
</g>
<defs>
<clipPath id="clip0_3733_109721">
<rect width="24" height="24" fill="white" transform="translate(0 0.5)"/>
</clipPath>
</defs>
</svg>
