<svg width="18" height="14" viewBox="0 0 18 14" fill="none" xmlns="http://www.w3.org/2000/svg">
<path d="M0 5.4588V11.0172C0 12.3587 1.08746 13.4461 2.42894 13.4461H15.5711C16.9125 13.4461 18 12.3587 18 11.0172V5.4588C18 5.22552 17.8109 5.03638 17.5776 5.03638H0.422424C0.189141 5.03638 0 5.22552 0 5.4588ZM4.49414 8.41577H3.36767C2.9594 8.41577 2.62843 8.0848 2.62843 7.67653C2.62843 7.26825 2.9594 6.93728 3.36767 6.93728H4.49414C4.90241 6.93728 5.23338 7.26825 5.23338 7.67653C5.23338 8.0848 4.90241 8.41577 4.49414 8.41577Z" fill="#07A279"/>
<path d="M18 3.13543V2.9829C18 1.64142 16.9125 0.553955 15.5711 0.553955H2.42894C1.08746 0.553955 0 1.64142 0 2.9829V3.13543C0 3.36871 0.189141 3.55785 0.422424 3.55785H17.5776C17.8109 3.55785 18 3.36871 18 3.13543Z" fill="#07A279"/>
</svg>
