<svg width="21" height="21" viewBox="0 0 21 21" fill="none" xmlns="http://www.w3.org/2000/svg">
<g clip-path="url(#clip0_3939_11554)">
<path d="M20.0999 10.0997C20.0999 9.59764 19.6928 9.19061 19.1908 9.19061H1.00896C0.506899 9.19061 0.0998688 9.59764 0.0998688 10.0997C0.0998688 13.6915 2.00369 16.8466 4.85484 18.6102C4.72405 18.7676 4.64532 18.9699 4.64532 19.1906C4.64532 19.6927 5.05235 20.0997 5.55441 20.0997H14.6453C15.1474 20.0997 15.5544 19.6927 15.5544 19.1906C15.5544 18.9699 15.4757 18.7677 15.3449 18.6102C18.1961 16.8466 20.0999 13.6915 20.0999 10.0997Z" fill="white"/>
<path d="M5.85743 6.46334C5.85743 6.9654 6.26446 7.37243 6.76652 7.37243C7.26858 7.37243 7.67561 6.9654 7.67561 6.46334C7.67561 5.17759 6.99622 4.49825 6.50009 4.00225C6.0544 3.55656 5.85737 3.33801 5.85743 2.82692C5.85737 2.31601 6.05446 2.09741 6.50028 1.65159C6.85531 1.29662 6.85531 0.720981 6.50034 0.366012C6.14537 0.0109209 5.56967 0.0110421 5.21464 0.365951C4.71858 0.862072 4.03906 1.54147 4.03925 2.82692C4.03906 4.11256 4.71846 4.79189 5.21458 5.28789C5.66034 5.73371 5.85743 5.95231 5.85743 6.46334Z" fill="white"/>
<path d="M10.0999 6.46334C10.0999 6.9654 10.5069 7.37243 11.009 7.37243C11.511 7.37243 11.9181 6.9654 11.9181 6.46334C11.9181 5.17759 11.2387 4.49825 10.7426 4.00225C10.2969 3.55656 10.0998 3.33801 10.0999 2.82692C10.0998 2.31601 10.2969 2.09741 10.7427 1.65159C11.0978 1.29662 11.0978 0.720981 10.7428 0.366012C10.3878 0.0109209 9.81213 0.0110421 9.4571 0.365951C8.96098 0.862012 8.28153 1.54141 8.28165 2.82692C8.28146 4.11256 8.96086 4.79189 9.45698 5.28789C9.9028 5.73371 10.0999 5.95231 10.0999 6.46334Z" fill="white"/>
<path d="M14.3423 6.46334C14.3423 6.9654 14.7494 7.37243 15.2514 7.37243C15.7535 7.37243 16.1605 6.9654 16.1605 6.46334C16.1605 5.17759 15.4811 4.49825 14.9851 4.00225C14.5393 3.55656 14.3423 3.33801 14.3423 2.82692C14.3423 2.31601 14.5394 2.09741 14.9852 1.65159C15.3402 1.29662 15.3402 0.720981 14.9852 0.366012C14.6303 0.0109209 14.0546 0.0110421 13.6995 0.365951C13.2034 0.862012 12.524 1.54141 12.5241 2.82692C12.5239 4.11256 13.2033 4.79189 13.6994 5.28789C14.1452 5.73371 14.3423 5.95231 14.3423 6.46334Z" fill="white"/>
</g>
<defs>
<clipPath id="clip0_3939_11554">
<rect width="20" height="20" fill="white" transform="translate(0.0998688 0.0997925)"/>
</clipPath>
</defs>
</svg>
