<svg width="18" height="18" viewBox="0 0 18 18" fill="none" xmlns="http://www.w3.org/2000/svg">
<g clip-path="url(#clip0_3860_6613)">
<path d="M1.95882 3.70591H0V10.5883V12.7059V16.4118H1.95882V12.7059H4.39412V16.4118H6.35294V12.7059V10.5883H1.95882V3.70591Z" fill="white"/>
<path d="M16.0412 3.70591V10.5883H11.647V12.7059V16.4118H13.6059V12.7059H16.0412V16.4118H18V12.7059V10.5883V3.70591H16.0412Z" fill="white"/>
<path d="M14.2942 6.88239C14.2942 6.29763 13.8201 5.82356 13.2353 5.82356H4.76476C4.18 5.82356 3.70593 6.29763 3.70593 6.88239V7.94122H14.2942V6.88239Z" fill="white"/>
<path d="M9.98248 9.00001H8.02366V14.7871L7.41174 14.7871V16.4118H10.5882V14.7871L9.98248 14.7871V9.00001Z" fill="white"/>
<path d="M9.52943 2.69158V1.58825H8.47061V2.69158C7.32472 2.88471 6.38519 3.69334 6.00525 4.76473H11.9948C11.6148 3.69334 10.6753 2.88468 9.52943 2.69158Z" fill="white"/>
</g>
<defs>
<clipPath id="clip0_3860_6613">
<rect width="18" height="18" fill="white"/>
</clipPath>
</defs>
</svg>
