<svg width="18" height="18" viewBox="0 0 18 18" fill="none" xmlns="http://www.w3.org/2000/svg">
<g clip-path="url(#clip0_3860_6621)">
<path d="M9.97974 3.05176e-05H7.40224C7.06141 3.05176e-05 6.78448 0.27696 6.78448 0.617781C6.78448 0.958602 7.06141 1.23553 7.40224 1.23553H9.97974C10.3206 1.23553 10.5975 0.958602 10.5975 0.617781C10.5975 0.27696 10.3206 3.05176e-05 9.97974 3.05176e-05Z" fill="white"/>
<path d="M16.8602 4.06866L15.1774 2.38584C14.9431 2.15152 14.5596 2.15152 14.304 2.38584C14.0697 2.62016 14.0697 3.00359 14.304 3.2592L15.9656 4.92074C16.0934 5.04856 16.2425 5.09117 16.3916 5.09117C16.5407 5.09117 16.7112 5.02728 16.8177 4.92074C17.0946 4.68641 17.0946 4.30299 16.8602 4.06866Z" fill="white"/>
<path d="M8.68026 2.57753C4.4199 2.57753 0.968994 6.02843 0.968994 10.2888C0.968994 14.5492 4.4199 18.0001 8.68026 18.0001C12.9406 18.0001 16.3915 14.5492 16.3915 10.2888C16.3915 6.02843 12.9406 2.57753 8.68026 2.57753ZM11.8755 11.1195H8.68026C8.33944 11.1195 8.06251 10.8426 8.06251 10.5018V6.49708C8.06251 6.15625 8.33944 5.87932 8.68026 5.87932C9.02108 5.87932 9.29801 6.15625 9.29801 6.49708V9.90537H11.8755C12.2163 9.90537 12.4933 10.1823 12.4933 10.5231C12.4933 10.8427 12.2163 11.1195 11.8755 11.1195Z" fill="white"/>
</g>
<defs>
<clipPath id="clip0_3860_6621">
<rect width="18" height="18" fill="white"/>
</clipPath>
</defs>
</svg>
