<svg width="18" height="18" viewBox="0 0 18 18" fill="none" xmlns="http://www.w3.org/2000/svg">
<g clip-path="url(#clip0_3860_6632)">
<path d="M15.1382 11.2603C14.4877 10.6181 13.6756 10.6181 13.0292 11.2603C12.5361 11.7492 12.0431 12.2382 11.5583 12.7354C11.4257 12.8721 11.3138 12.9011 11.1522 12.81C10.8332 12.6359 10.4934 12.4951 10.1868 12.3045C8.75732 11.4053 7.55986 10.2493 6.49915 8.94829C5.97293 8.30191 5.50472 7.60996 5.17739 6.83099C5.1111 6.67354 5.12353 6.56996 5.25197 6.44151C5.74504 5.96502 6.22568 5.47609 6.71046 4.98717C7.38584 4.30764 7.38584 3.51211 6.70632 2.82844C6.32098 2.43896 5.93564 2.05776 5.5503 1.66828C5.15253 1.27051 4.7589 0.868598 4.35699 0.474972C3.70647 -0.158972 2.89436 -0.158972 2.24798 0.479116C1.75077 0.96804 1.27428 1.4694 0.768779 1.95003C0.300571 2.39338 0.0643953 2.93617 0.0146742 3.57011C-0.064051 4.60183 0.188698 5.57553 0.545033 6.52438C1.27428 8.48837 2.38472 10.2327 3.73133 11.8321C5.5503 13.995 7.72146 15.7062 10.2614 16.941C11.405 17.4962 12.59 17.923 13.8786 17.9934C14.7653 18.0431 15.536 17.8194 16.1533 17.1274C16.576 16.6551 17.0525 16.2241 17.5 15.7725C18.1629 15.1013 18.167 14.2892 17.5082 13.6262C16.721 12.8348 15.9296 12.0476 15.1382 11.2603Z" fill="white"/>
</g>
<defs>
<clipPath id="clip0_3860_6632">
<rect width="18" height="18" fill="white"/>
</clipPath>
</defs>
</svg>
