<svg width="18" height="18" viewBox="0 0 18 18" fill="none" xmlns="http://www.w3.org/2000/svg">
<path d="M9.04517 8.1C9.84621 8.1 10.6293 7.86245 11.2953 7.4174C11.9613 6.97235 12.4804 6.33979 12.7869 5.5997C13.0935 4.85962 13.1736 4.04527 13.0173 3.25962C12.861 2.47398 12.4752 1.75234 11.9087 1.18597C11.3422 0.619594 10.6205 0.233925 9.83485 0.0777351C9.04918 -0.078455 8.23484 0.00184937 7.49481 0.308493C6.75479 0.615136 6.12231 1.13435 5.67738 1.80046C5.23245 2.46657 4.99504 3.24967 4.99518 4.05071C4.9963 5.12443 5.42338 6.15383 6.18268 6.913C6.94198 7.67216 7.97146 8.09906 9.04517 8.1Z" fill="white"/>
<path d="M5.37084 10.481C3.2341 11.4755 1.75287 13.6417 1.75287 16.1538C1.75287 17.1734 2.57942 18 3.59902 18H14.4015C15.4211 18 16.2476 17.1734 16.2476 16.1538C16.2476 13.6417 14.7664 11.4755 12.6296 10.481L9.00023 16.7672L5.37084 10.481Z" fill="white"/>
<path d="M9.97175 9.90879C9.9542 9.9 9.93665 9.9 9.91031 9.9H7.9969C7.84768 9.9 7.73358 10.023 7.73358 10.1636C7.73358 10.1812 7.73358 10.1987 7.74236 10.2163L7.94423 11.2883H9.96298L10.1736 10.2163C10.2 10.0757 10.1122 9.93515 9.97175 9.90879Z" fill="white"/>
<path d="M10.7792 16.1823L9.94541 11.6397H7.96177L7.20694 16.1823C7.18938 16.2614 7.21572 16.3493 7.27716 16.4108L8.76049 17.9045C8.85704 18.0099 9.02381 18.0099 9.12913 17.9132L10.7002 16.4196C10.7617 16.358 10.7968 16.2702 10.7792 16.1823Z" fill="white"/>
</svg>
