<svg width="24" height="24" viewBox="0 0 24 24" fill="none" xmlns="http://www.w3.org/2000/svg">
<path fill-rule="evenodd" clip-rule="evenodd" d="M24 12C24 5.37258 18.6274 0 12 0C5.37258 0 0 5.37258 0 12C0 18.6274 5.37258 24 12 24C18.6274 24 24 18.6274 24 12ZM12 18C12.6627 18 13.2 17.4627 13.2 16.8V12C13.2 11.3373 12.6627 10.8 12 10.8C11.3373 10.8 10.8 11.3373 10.8 12V16.8C10.8 17.4627 11.3373 18 12 18ZM10.8 7.2C10.8 7.86274 11.3373 8.4 12 8.4H12.012C12.6747 8.4 13.212 7.86274 13.212 7.2C13.212 6.53726 12.6747 6 12.012 6H12C11.3373 6 10.8 6.53726 10.8 7.2Z" fill="#57616A"/>
</svg>
