<svg width="44" height="44" viewBox="0 0 44 44" fill="none" xmlns="http://www.w3.org/2000/svg">
<ellipse cx="21.9998" cy="21.9998" rx="21.9998" ry="22" fill="#07A279"/>
<path fill-rule="evenodd" clip-rule="evenodd" d="M30.7498 18.0228C29.8543 15.8614 28.5616 13.9264 26.9075 12.2715C26.7976 12.1616 26.6485 12.0998 26.4931 12.0998H17.7066C17.5512 12.0998 17.4021 12.1616 17.2922 12.2715C15.6381 13.9264 14.3454 15.8614 13.4499 18.0228C12.5541 20.1849 12.0999 22.4675 12.0999 24.807V30.2248C12.0999 31.2603 12.9393 32.0998 13.9749 32.0998H30.2249C31.2604 32.0998 32.0999 31.2603 32.0999 30.2248V24.807C32.0999 22.4675 31.6456 20.1849 30.7498 18.0228ZM24.6103 18.2925H19.5894C18.5726 18.2925 17.7483 17.4682 17.7483 16.4514C17.7483 15.4345 18.5726 14.6102 19.5894 14.6102H24.6102C25.6271 14.6102 26.4514 15.4345 26.4514 16.4514C26.4514 17.4682 25.6271 18.2925 24.6103 18.2925Z" fill="white"/>
<rect x="18.0999" y="22.0998" width="8" height="2" rx="1" fill="#07A279"/>
<rect x="18.0999" y="26.0998" width="5" height="2" rx="1" fill="#07A279"/>
</svg>
