<svg width="20" height="20" viewBox="0 0 20 20" fill="none" xmlns="http://www.w3.org/2000/svg">
<path d="M9.9998 0.55003C9.11306 0.55003 8.39421 1.26888 8.39421 2.15562L8.39421 8.39444H2.1554C1.26865 8.39444 0.549805 9.11329 0.549805 10C0.549805 10.8868 1.26865 11.6056 2.1554 11.6056H8.39421V17.8444C8.39421 18.7312 9.11306 19.45 9.9998 19.45C10.8865 19.45 11.6054 18.7312 11.6054 17.8444V11.6056H17.8442C18.731 11.6056 19.4498 10.8868 19.4498 10C19.4498 9.11329 18.731 8.39444 17.8442 8.39444H11.6054V2.15562C11.6054 1.26888 10.8865 0.55003 9.9998 0.55003Z" fill="#07A279"/>
</svg>
