<svg width="40" height="40" viewBox="0 0 40 40" fill="none" xmlns="http://www.w3.org/2000/svg">
<circle cx="20" cy="20" r="20" fill="#FFFAE9"/>
<g clip-path="url(#clip0_4266_43353)">
<path d="M25.6413 15.812H24.8325C24.4766 15.812 24.188 15.5234 24.188 15.1674V14.3583C24.188 11.1596 26.8253 9 29.5463 9H30.3554C30.7114 9 31 9.28858 31 9.64453V10.4536C31 13.408 28.6114 15.812 25.6413 15.812Z" fill="#FFBE00"/>
<path d="M25.6412 15.8119C28.6114 15.8119 30.9999 13.408 30.9999 10.4536V9.64452C30.9999 9.46654 30.9278 9.30541 30.8112 9.18875L24.3767 15.6232C24.4933 15.7398 24.6545 15.8119 24.8325 15.8119H25.6412Z" fill="#F08246"/>
<path d="M30.8112 16.7828L29.9602 15.9318C29.0513 15.0233 27.8432 14.5229 26.5581 14.5229C26.1328 14.5229 25.716 14.5781 25.3155 14.6845C25.4219 14.284 25.4771 13.8671 25.4771 13.4416C25.4771 12.1563 24.9766 10.9481 24.0679 10.0399C23.6187 9.59039 23.2172 9.18884 23.2172 9.18884C22.9656 8.93713 22.5575 8.93713 22.3058 9.18884L21.455 10.0396C20.5463 10.9479 20.0459 12.1561 20.0459 13.4416V19.3097C20.0459 19.6656 20.3345 19.9542 20.6904 19.9542H26.5582H26.5585C27.8432 19.9542 29.0514 19.4538 29.9604 18.5452L30.8112 17.6943C31.0629 17.4426 31.0629 17.0345 30.8112 16.7828Z" fill="#FCD956"/>
<path d="M14.4771 24.8784C14.642 24.8784 14.807 24.9413 14.9328 25.0672C15.1845 25.3189 15.1845 25.7269 14.9328 25.9787L10.1003 30.8112C9.84861 31.0629 9.44049 31.0629 9.18878 30.8112C8.93707 30.5595 8.93707 30.1514 9.18878 29.8997L14.0213 25.0672C14.1472 24.9413 14.3121 24.8784 14.4771 24.8784Z" fill="#F08246"/>
<path d="M26.5581 19.9542H26.5585C27.8432 19.9542 29.0513 19.4538 29.9603 18.5452L30.8112 17.6943C31.0629 17.4426 31.0629 17.0345 30.8112 16.7828L29.9603 15.9319C29.0513 15.0233 27.8432 14.5229 26.5581 14.5229C26.1329 14.5229 25.7161 14.5781 25.3156 14.6844L20.2346 19.7654C20.3512 19.882 20.5124 19.9542 20.6904 19.9542H26.5581Z" fill="#FFBE00"/>
<path d="M26.6689 20.925L25.8179 20.074C24.909 19.1654 23.7009 18.6651 22.4158 18.6651C21.9905 18.6651 21.5737 18.7203 21.1732 18.8266C21.2796 18.4261 21.3348 18.0092 21.3348 17.5838C21.3348 16.2985 20.8342 15.0903 19.9256 14.1821C19.4764 13.7326 19.0749 13.331 19.0749 13.331C18.8233 13.0793 18.4151 13.0793 18.1634 13.331L17.3126 14.1818C16.404 15.0901 15.9036 16.2982 15.9036 17.5838V23.4518C15.9036 23.8078 16.1921 24.0964 16.5481 24.0964H22.4158H22.4162C23.7009 24.0964 24.9091 23.596 25.8181 22.6874L26.6689 21.8365C26.9206 21.5848 26.9206 21.1767 26.6689 20.925Z" fill="#FFBE00"/>
<path d="M22.4158 24.0963H22.4161C23.7008 24.0963 24.909 23.596 25.818 22.6873L26.6689 21.8365C26.9206 21.5848 26.9206 21.1767 26.6689 20.925L25.8179 20.074C24.909 19.1655 23.7008 18.6651 22.4158 18.6651C21.9905 18.6651 21.5737 18.7203 21.1733 18.8266L16.0923 23.9076C16.2089 24.0242 16.37 24.0963 16.548 24.0963H22.4158Z" fill="#F08246"/>
<path d="M22.5268 25.0672L21.6758 24.2162C20.7669 23.3077 19.5588 22.8073 18.2736 22.8073C17.8483 22.8073 17.4315 22.8625 17.0311 22.9689C17.1374 22.5683 17.1926 22.1514 17.1926 21.7259C17.1926 20.4406 16.6921 19.2325 15.7835 18.3242L14.9328 17.4732C14.7204 17.2607 14.451 17.2844 14.4771 17.2844C14.3061 17.2844 14.1422 17.3523 14.0213 17.4732L13.1705 18.324C11.3109 20.1828 11.2715 23.2297 13.1704 25.1278L14.8719 26.8297C16.7712 28.7281 19.815 28.6897 21.6759 26.8296L22.5268 25.9787C22.7785 25.727 22.7782 25.3187 22.5268 25.0672Z" fill="#FCD956"/>
<path d="M21.676 26.8296L22.5269 25.9787C22.7786 25.727 22.7784 25.3186 22.5269 25.0672L21.6759 24.2162C20.7669 23.3077 19.5588 22.8073 18.2737 22.8073C17.8484 22.8073 17.4316 22.8625 17.0312 22.9688L14.0212 25.9788L14.872 26.8297C16.7712 28.7281 19.8151 28.6897 21.676 26.8296Z" fill="#FFBE00"/>
</g>
<defs>
<clipPath id="clip0_4266_43353">
<rect width="22" height="22" fill="white" transform="translate(9 9)"/>
</clipPath>
</defs>
</svg>
