<svg width="40" height="40" viewBox="0 0 40 40" fill="none" xmlns="http://www.w3.org/2000/svg">
<circle cx="20" cy="20" r="20" fill="#FFF2F5"/>
<g clip-path="url(#clip0_4268_42465)">
<path d="M17.8127 28.2058C20.6422 26.9727 18.3476 23.7314 22.3756 21.8212C25.9437 20.129 29.674 19.6147 29.0168 14.4801C28.3637 9.37766 19.2144 6.60235 13.8189 11.7244C8.19804 17.0603 11.3633 31.0166 17.8127 28.2058Z" fill="#FF7B8B"/>
<path d="M17.4608 26.8941C18.8938 26.2728 18.2644 21.7617 21.977 20.4592C25.404 19.257 28.1333 17.7718 27.9585 14.986C27.7209 11.1995 19.4391 8.2739 14.7513 12.8711C10.1784 17.3556 12.3815 29.0963 17.4608 26.8941Z" fill="#FF4755"/>
<path d="M22.3761 21.8218C18.3481 23.732 20.6427 26.9733 17.8132 28.2064C13.7029 29.9977 10.9269 24.9789 10.9086 19.7214L10.9082 19.7213L10.9155 21.9066L10.9171 21.9063C10.9819 26.6793 13.4673 31.4615 17.7581 30.965C20.7879 30.6144 20.6261 25.3901 22.3761 24.3251C25.5089 22.4187 29.1165 22.1494 29.0891 18.0086L29.0898 18.0086L29.09 15.8127C28.9736 19.7225 25.6084 20.289 22.3761 21.8218Z" fill="#994E37"/>
<path d="M21.9778 23.5283C19.686 25.0997 20.3896 29.8176 17.3598 30.1682C14.9721 30.4445 13.1438 29.0858 11.9802 27.0041C13.1016 29.525 15.0775 31.2751 17.7581 30.9649C20.7879 30.6142 20.626 25.3899 22.3761 24.3249C25.5089 22.4185 29.1165 22.1492 29.0891 18.0085L29.0898 18.0084L29.0899 15.8126C29.0932 21.3318 25.0024 21.4545 21.9778 23.5283Z" fill="#8C4534"/>
<path d="M20.4007 16.5053C21.4222 16.5053 22.2504 15.9652 22.2504 15.2989C22.2504 14.6327 21.4222 14.0926 20.4007 14.0926C19.3791 14.0926 18.551 14.6327 18.551 15.2989C18.551 15.9652 19.3791 16.5053 20.4007 16.5053Z" fill="#F4E9D3"/>
<path d="M20.4007 15.7089C19.5932 15.7089 18.907 15.3713 18.6547 14.9009C18.5878 15.0256 18.551 15.1596 18.551 15.2992C18.551 15.9654 19.3792 16.5055 20.4008 16.5055C21.4223 16.5055 22.2504 15.9655 22.2504 15.2992C22.2504 15.1596 22.2137 15.0256 22.1468 14.9009C21.8944 15.3713 21.2082 15.7089 20.4007 15.7089Z" fill="#E5D6BE"/>
</g>
<defs>
<clipPath id="clip0_4268_42465">
<rect width="22" height="22" fill="white" transform="translate(9.00024 9)"/>
</clipPath>
</defs>
</svg>
