<svg width="40" height="40" viewBox="0 0 40 40" fill="none" xmlns="http://www.w3.org/2000/svg">
<circle cx="20" cy="20" r="20" fill="#FFEEEA"/>
<g clip-path="url(#clip0_4268_42478)">
<path d="M21.8119 18.5906C21.5513 18.4603 21.4458 18.1436 21.5761 17.883L22.2002 16.6352C22.3305 16.3746 22.6483 16.27 22.9078 16.3993C23.1684 16.5296 23.274 16.8463 23.1437 17.1069L22.5195 18.3547C22.39 18.6131 22.0752 18.7213 21.8119 18.5906Z" fill="#59422D"/>
<path d="M17.4805 18.3547L16.8564 17.1069C16.7261 16.8463 16.8316 16.5296 17.0922 16.3993C17.3528 16.27 17.6695 16.3746 17.7998 16.6352L18.424 17.883C18.5543 18.1436 18.4486 18.4603 18.1881 18.5906C17.9249 18.7213 17.6101 18.6131 17.4805 18.3547Z" fill="#664B34"/>
<path d="M25.3085 29C25.017 29 24.7812 28.7641 24.7812 28.4726V26.6892L23.1523 25.8745C22.8917 25.7442 22.7861 25.4275 22.9164 25.1669C23.0472 24.9063 23.3639 24.8023 23.624 24.931L25.5444 25.8915C25.7231 25.9811 25.8359 26.1634 25.8359 26.3632V28.4726C25.8359 28.7641 25.6 29 25.3085 29Z" fill="#E61E14"/>
<path d="M27.4179 26.8906C27.1264 26.8906 26.8906 26.6547 26.8906 26.3632V24.5798L25.2333 23.7512C24.9728 23.6209 24.8672 23.3042 24.9975 23.0436C25.1278 22.7831 25.4445 22.679 25.7051 22.8078L27.6538 23.7821C27.8325 23.8717 27.9452 24.054 27.9452 24.2539V26.3632C27.9452 26.6547 27.7094 26.8906 27.4179 26.8906Z" fill="#E61E14"/>
<path d="M28.4725 23.7265C28.1811 23.7265 27.9452 23.4907 27.9452 23.1992V21.6171H26.2756C25.9842 21.6171 25.7483 21.3813 25.7483 21.0898C25.7483 20.7983 25.9842 20.5625 26.2756 20.5625H28.4725C28.764 20.5625 28.9999 20.7983 28.9999 21.0898V23.1992C28.9999 23.4907 28.764 23.7265 28.4725 23.7265Z" fill="#E61E14"/>
<path d="M14.6914 29C14.3999 29 14.1641 28.7641 14.1641 28.4726V26.3632C14.1641 26.1634 14.2768 25.9811 14.4555 25.8915L16.3759 24.9311C16.637 24.8023 16.9527 24.9064 17.0835 25.1669C17.2138 25.4275 17.1082 25.7442 16.8476 25.8745L15.2188 26.6892V28.4726C15.2188 28.7641 14.9829 29 14.6914 29Z" fill="#FD3018"/>
<path d="M12.582 26.8906C12.2906 26.8906 12.0547 26.6547 12.0547 26.3632V24.2539C12.0547 24.054 12.1675 23.8717 12.3462 23.7821L14.2949 22.8078C14.556 22.679 14.8717 22.7831 15.0025 23.0436C15.1328 23.3042 15.0272 23.6209 14.7666 23.7512L13.1094 24.5798V26.3632C13.1094 26.6547 12.8735 26.8906 12.582 26.8906Z" fill="#FD3018"/>
<path d="M11.5273 23.7265C11.2359 23.7265 11 23.4907 11 23.1992V21.0898C11 20.7983 11.2359 20.5625 11.5273 20.5625H13.6367C13.9282 20.5625 14.1641 20.7983 14.1641 21.0898C14.1641 21.3813 13.9282 21.6171 13.6367 21.6171H12.0547V23.1992C12.0547 23.4907 11.8188 23.7265 11.5273 23.7265Z" fill="#FD3018"/>
<path d="M28.0402 16.421C28.0173 16.0317 27.5586 15.7916 27.2386 16.0203C26.7429 16.3261 26.1628 16.3577 25.6461 16.1046C25.2783 15.9316 24.864 16.2122 24.8866 16.6214C24.9746 17.3243 24.666 18.0198 24.1589 18.5269C23.8718 18.7699 23.9474 19.2445 24.2855 19.4023C24.8762 19.6555 25.4457 20.0035 26.0468 20.457C26.2541 20.6182 26.5708 20.5958 26.764 20.3832C26.8062 20.3304 26.8484 20.2777 26.8906 20.225C27.7894 19.0921 28.1641 17.5414 28.0402 16.421Z" fill="#E61E14"/>
<path d="M15.8515 18.5164C15.7778 18.4531 15.7039 18.3793 15.6301 18.2948C15.2286 17.8264 15.059 17.1315 15.1238 16.6109C15.1472 16.1899 14.717 15.9005 14.3539 16.1046C13.8582 16.3577 13.2254 16.3155 12.793 16.0308C12.4294 15.7885 11.9912 16.0455 11.9703 16.4211C11.8553 17.5697 12.2137 19.075 13.1094 20.2038C13.1515 20.2671 13.2043 20.3198 13.2465 20.3726C13.3519 20.4886 13.4996 20.5519 13.6473 20.5519C13.7527 20.5519 13.8687 20.5202 13.9637 20.4464C14.5121 20.0351 15.1028 19.6765 15.725 19.3918C15.8832 19.3179 15.9992 19.1702 16.0203 18.991C16.0519 18.8116 15.9886 18.6323 15.8515 18.5164Z" fill="#FD3018"/>
<path d="M26.6797 19.6132C26.0152 19.1175 25.3719 18.7273 24.7285 18.432C24.7285 18.432 23.368 17.8202 22.1446 17.5988C21.3641 17.4722 20.7418 17.3878 20.0352 17.3984C19.4446 17.3984 18.7203 17.4722 17.845 17.5988C17.2122 17.7148 16.3684 17.9679 15.6301 18.2948C15.0501 18.5058 14.1325 18.991 13.3309 19.6027C13.3098 19.6238 13.2887 19.6343 13.2676 19.6554C13.1727 19.7503 13.1094 19.8875 13.1094 20.0351V20.2038C13.1094 20.3198 13.1199 20.4464 13.1305 20.5625C13.1621 20.921 13.2148 21.2691 13.2992 21.6171C13.4891 22.4503 13.7317 22.9461 14.0797 23.5577C14.5016 24.2433 14.9445 24.7812 15.5984 25.3191C16.9273 26.3843 18.4953 26.8906 20.0352 26.8906C21.7226 26.8906 23.273 26.2577 24.4016 25.3191C24.9711 24.8234 25.3297 24.412 25.6566 23.9585C25.7515 23.8214 25.8359 23.6948 25.9203 23.5577C26.0152 23.389 26.1102 23.2308 26.1945 23.0515C26.7113 21.9968 26.7956 21.248 26.8906 20.225V20.0351C26.8906 19.8663 26.8168 19.7082 26.6797 19.6132Z" fill="#FD4E26"/>
<path d="M29 14.6914C29 12.6558 27.3441 11 25.3086 11H24.2539C23.9586 11 23.7266 11.232 23.7266 11.5273V14.6914C23.7266 16.1596 24.936 17.3281 26.3633 17.3281C27.7201 17.3281 29 16.2288 29 14.6914Z" fill="#FD3018"/>
<path d="M15.7461 11H14.6914C12.6559 11 11 12.6558 11 14.6914C11 16.181 12.2287 17.3281 13.6367 17.3281C15.0329 17.3281 16.2734 16.2176 16.2734 14.6914V11.5273C16.2734 11.232 16.0414 11 15.7461 11Z" fill="#FD4E26"/>
<path d="M26.8906 20.0351V20.225C26.7957 21.248 26.7114 21.9968 26.1946 23.0515C26.1102 23.2308 26.0152 23.389 25.9203 23.5577C25.8359 23.6948 25.7516 23.8214 25.6567 23.9585C25.3297 24.412 24.9711 24.8234 24.4016 25.3191C23.273 26.2577 21.7226 26.8906 20.0352 26.8906V17.3984C20.7418 17.3878 21.3641 17.4722 22.1445 17.5988C23.3679 17.8202 24.7285 18.432 24.7285 18.432C25.3719 18.7273 26.0152 19.1175 26.6797 19.6132C26.8168 19.7082 26.8906 19.8663 26.8906 20.0351Z" fill="#FD3018"/>
<path d="M26.8906 14.6914C26.8906 14.9866 26.6586 15.2187 26.3633 15.2187C26.0679 15.2187 25.8359 14.9866 25.8359 14.6914C25.8359 13.8159 25.1293 13.1093 24.2539 13.1093H23.7266V12.0546H24.2539C25.7094 12.0546 26.8906 13.2359 26.8906 14.6914Z" fill="#E61E14"/>
<path d="M16.2734 12.0546V13.1093H15.7461C14.8707 13.1093 14.1641 13.8159 14.1641 14.6914C14.1641 14.9866 13.9321 15.2187 13.6367 15.2187C13.3414 15.2187 13.1094 14.9866 13.1094 14.6914C13.1094 13.2359 14.2906 12.0546 15.7461 12.0546H16.2734Z" fill="#FD3018"/>
<path d="M20.5625 20.0351V21.0898C20.5625 21.3851 20.3305 21.6171 20.0352 21.6171C19.7398 21.6171 19.5078 21.3851 19.5078 21.0898V20.0351C19.5078 19.7398 19.7398 19.5078 20.0352 19.5078C20.3305 19.5078 20.5625 19.7398 20.5625 20.0351Z" fill="#FD3018"/>
<path d="M21.7717 21.4626C21.5657 21.2566 21.5657 20.9229 21.7717 20.7169L22.8264 19.6622C23.0323 19.4563 23.3661 19.4563 23.5721 19.6622C23.778 19.8682 23.778 20.202 23.5721 20.4079L22.5174 21.4626C22.3114 21.6686 21.9777 21.6686 21.7717 21.4626Z" fill="#E61E14"/>
<path d="M17.4826 21.4626L16.4279 20.4079C16.2219 20.202 16.2219 19.8682 16.4279 19.6622C16.6339 19.4563 16.9676 19.4563 17.1736 19.6622L18.2283 20.7169C18.4343 20.9229 18.4343 21.2566 18.2283 21.4626C18.0223 21.6686 17.6886 21.6686 17.4826 21.4626Z" fill="#FD3018"/>
<path d="M20.5625 20.0351V21.0898C20.5625 21.3851 20.3305 21.6171 20.0352 21.6171V19.5078C20.3305 19.5078 20.5625 19.7398 20.5625 20.0351Z" fill="#E61E14"/>
</g>
<defs>
<clipPath id="clip0_4268_42478">
<rect width="18" height="18" fill="white" transform="translate(11 11)"/>
</clipPath>
</defs>
</svg>
