<svg width="40" height="40" viewBox="0 0 40 40" fill="none" xmlns="http://www.w3.org/2000/svg">
<circle cx="20" cy="19.9999" r="20" fill="#FDF6DF"/>
<path d="M23.085 8.4511C23.0051 8.71982 22.8322 8.95134 22.5973 9.10424C22.56 9.1284 22.5204 9.15468 22.4785 9.18308C22.2092 9.54555 21.9169 9.7872 21.5982 9.89043C21.0303 10.4212 20.5491 11.0378 20.1721 11.7176C19.0727 15.1937 20.2272 19.4736 24.6021 20.4123C27.7732 20.034 29.3569 17.7476 29.2945 14.4665C28.9543 11.4955 27.2821 9.98908 25.7188 9.22598C25.5682 9.15215 25.435 9.04716 25.3281 8.91796C25.2211 8.78876 25.1429 8.6383 25.0985 8.47657L25.0956 8.4664C25.053 8.31212 24.9609 8.17608 24.8336 8.07914C24.7062 7.9822 24.5506 7.92972 24.3905 7.92973H23.7857C23.6284 7.92972 23.4752 7.98044 23.349 8.07437C23.2228 8.16829 23.1302 8.3004 23.085 8.4511Z" fill="#D6BF6C"/>
<path d="M21.5984 9.89059C21.3237 10.931 21.1345 12.2723 21.228 13.9094L21.3932 15.9288C21.4001 16.012 21.4394 16.0892 21.5026 16.1437C21.5659 16.1983 21.648 16.2258 21.7314 16.2203C21.8147 16.2149 21.8926 16.1769 21.9482 16.1146C22.0038 16.0523 22.0326 15.9706 22.0286 15.8872C21.998 15.2776 21.9491 14.6296 21.8757 13.9493C21.6586 11.9476 22.0191 10.3428 22.479 9.18316C22.1676 9.39587 21.8732 9.63239 21.5984 9.89059Z" fill="#9D8044"/>
<path d="M23.9093 20.6806C23.8385 20.6806 23.7706 20.6524 23.7206 20.6023C23.6705 20.5523 23.6424 20.4844 23.6424 20.4135V11.0943C23.6418 11.0589 23.6482 11.0237 23.6614 10.9907C23.6745 10.9578 23.6941 10.9278 23.719 10.9026C23.7438 10.8773 23.7734 10.8572 23.8061 10.8435C23.8388 10.8298 23.8739 10.8228 23.9094 10.8228C23.9448 10.8228 23.9799 10.8298 24.0126 10.8435C24.0453 10.8572 24.0749 10.8773 24.0998 10.9026C24.1246 10.9278 24.1442 10.9578 24.1573 10.9907C24.1705 11.0237 24.177 11.0589 24.1764 11.0943V20.4129C24.1764 20.4481 24.1696 20.4828 24.1562 20.5153C24.1428 20.5478 24.1232 20.5773 24.0984 20.6021C24.0736 20.627 24.0441 20.6467 24.0117 20.6602C23.9792 20.6737 23.9444 20.6806 23.9093 20.6806Z" fill="#9D8044"/>
<path d="M26.7964 19.8895C26.7571 19.8894 26.7183 19.8807 26.6827 19.8639C26.6471 19.8472 26.6157 19.8227 26.5907 19.7925C26.5656 19.7622 26.5475 19.7267 26.5377 19.6886C26.5279 19.6506 26.5266 19.6108 26.5339 19.5721C26.743 18.4802 26.771 17.211 26.771 16.1134C26.771 13.162 25.8909 11.7842 25.882 11.7705C25.8442 11.7115 25.8311 11.64 25.8456 11.5714C25.8601 11.5028 25.901 11.4426 25.9594 11.4039C26.0179 11.3652 26.0892 11.3511 26.158 11.3645C26.2268 11.3779 26.2876 11.4178 26.3272 11.4757C26.3671 11.5358 27.305 12.9821 27.305 16.1134C27.305 17.236 27.2756 18.5368 27.0581 19.6726C27.0464 19.7335 27.0139 19.7885 26.9662 19.828C26.9184 19.8676 26.8584 19.8893 26.7964 19.8895Z" fill="#9D8044"/>
<path d="M29.357 15.5999C29.3574 15.2212 29.3361 14.8428 29.2932 14.4665C29.03 16.7101 27.9841 19.2271 24.6454 19.3876C19.4301 19.6384 19.9221 13.4953 20.1726 11.7176C19.4054 13.1071 18.9247 15.0594 19.5077 17.6823C20.286 21.1847 22.386 22.4032 24.4968 22.4422C24.4965 22.4423 29.357 22.5618 29.357 15.5999Z" fill="#9D8044"/>
<path d="M24.0397 29.9934C24.0359 29.9988 24.0324 30.0043 24.0292 30.0101C23.9457 30.1784 23.8811 30.3556 23.8368 30.5382C24.7746 32.3459 29.7528 30.3174 31.4476 27.1102C31.4476 27.1102 32.0823 26.4121 31.6109 25.5323C31.1395 24.6526 29.2233 23.9145 26.4744 24.9512C24.3366 25.7575 23.0772 26.6606 22.1669 27.7521C21.8649 28.1143 21.7366 28.5428 21.7918 28.931C22.0212 29.5506 22.8648 29.8566 24.0397 29.9934Z" fill="#C96C5D"/>
<path d="M25.3737 26.142C23.622 26.9818 23.1423 27.9272 23.0451 28.5647C22.9525 29.1716 22.1887 29.403 21.7975 28.9298L21.791 28.9218C21.8882 29.6435 22.6169 30.2285 24.0392 29.9931L27.8534 26.5872C27.9296 26.5189 27.9838 26.4295 28.0091 26.3304C28.0344 26.2312 28.0298 26.1268 27.9956 26.0303C27.9615 25.9339 27.8995 25.8497 27.8175 25.7885C27.7355 25.7273 27.6372 25.6919 27.535 25.6867C26.8943 25.6482 26.1668 25.7617 25.3737 26.142Z" fill="#843734"/>
<path d="M28.7513 25.8203C28.01 25.7319 27.0616 25.8453 25.9309 26.4407C24.5468 27.1694 23.9517 27.867 23.7417 28.4481C23.6958 29.794 25.3142 28.738 26.7188 27.6897C28.7383 26.9041 29.8758 26.092 28.7513 25.8203Z" fill="#C96C5D"/>
<path d="M26.8669 28.1713C26.8669 28.1713 27.4643 28.1296 27.893 28.4352C27.9345 28.4646 27.9849 28.4788 28.0356 28.4753C28.0863 28.4719 28.1343 28.451 28.1714 28.4162C28.1944 28.3947 28.2125 28.3685 28.2246 28.3394C28.2367 28.3103 28.2424 28.2789 28.2414 28.2474C28.2405 28.2159 28.2328 28.185 28.2189 28.1567C28.205 28.1284 28.1853 28.1034 28.161 28.0833C27.9856 27.9305 27.7789 27.8181 27.5552 27.7541C27.3316 27.6901 27.0967 27.676 26.867 27.7129L26.8669 28.1713Z" fill="#843734"/>
<path d="M25.4263 31.0689C25.4263 31.0689 24.5041 31.1034 23.8375 30.5384C23.3604 32.6139 27.1623 32.3335 28.7867 31.1551C31.5371 29.1598 31.4479 27.1102 31.4479 27.1102C31.4479 27.1102 28.631 30.8724 25.4263 31.0689Z" fill="#843734"/>
<path d="M29.3697 25.9494C29.1677 25.8887 28.9608 25.8457 28.7513 25.8209C28.8794 25.9051 28.9966 26.0341 28.9578 26.2137C28.9409 26.2824 28.9037 26.3444 28.851 26.3917C28.7983 26.439 28.7327 26.4693 28.6626 26.4787C28.101 26.5665 26.2084 26.9493 24.9748 28.256C24.2002 29.0764 23.877 28.8093 23.742 28.4485C23.6454 28.7087 23.6221 28.9904 23.6746 29.2628C23.7271 29.5353 23.8534 29.7881 24.0397 29.9938C24.3221 29.4788 24.7286 29.0424 25.2224 28.7241C25.7161 28.4059 26.2814 28.2159 26.8671 28.1713C26.8671 28.1713 27.1306 27.1173 29.3211 26.7606C29.7577 26.6895 29.7934 26.077 29.3697 25.9494Z" fill="#843734"/>
<path d="M18.4259 23.4215C18.4259 23.4215 18.2063 27.1616 14.5565 27.9948C14.1825 24.3471 14.255 20.1217 14.5565 15.5999L18.4259 23.4215Z" fill="#7F4C45"/>
<path d="M12.6818 27.2805C12.8826 27.4338 13.0943 27.5723 13.3152 27.6948C13.5515 27.8266 13.7601 28.0028 13.9295 28.2137L13.9308 28.2152C13.9764 28.2719 14.0385 28.313 14.1085 28.3329C14.1785 28.3528 14.2529 28.3505 14.3216 28.3263C14.3902 28.3021 14.4496 28.2572 14.4917 28.1979C14.5338 28.1385 14.5564 28.0675 14.5564 27.9948V19.8938C12.0777 20.4412 10.2367 24.9963 12.6818 27.2805Z" fill="#BC8875"/>
<path d="M14.5561 19.8938V15.5999C14.5561 15.5999 10.5493 17.3289 10.8235 23.3117C10.8981 24.9377 11.4325 26.3214 12.6818 27.2799C11.6694 26.1001 12.2511 24.6454 12.2511 24.6454L14.5561 19.8938Z" fill="#7F4C45"/>
<path d="M8.39301 23.0445C7.8295 20.4035 8.44058 16.6001 12.6305 14.4517C12.8014 14.3646 12.9503 14.2398 13.0659 14.0866C13.1814 13.9335 13.2606 13.756 13.2974 13.5678C13.3316 13.3904 13.4265 13.2306 13.5657 13.1156C13.705 13.0007 13.8799 12.9378 14.0605 12.9378H14.5754C14.7404 12.9378 14.901 12.9903 15.0342 13.0877C15.1673 13.185 15.266 13.3222 15.316 13.4794C15.3575 13.6093 15.4269 13.7285 15.5193 13.8287C15.6116 13.929 15.7248 14.0079 15.8508 14.0598C16.6041 14.3793 17.3026 14.815 17.9207 15.351C19.5631 17.108 19.4927 20.4669 18.8784 24.3357L14.5618 16.4247L9.79005 25.0741C9.20288 24.4898 8.72919 23.8016 8.39301 23.0445Z" fill="#D6BF6C"/>
<path d="M17.9199 15.3517C18.4613 16.491 18.583 17.7848 18.2635 19.005C18.0436 19.8775 16.8488 19.9962 16.4487 19.1905L15.1553 16.5874C15.0791 16.4341 14.9609 16.3056 14.8144 16.2169C14.6679 16.1283 14.4992 16.0831 14.328 16.0868C14.1568 16.0904 13.9902 16.1427 13.8476 16.2375C13.705 16.3323 13.5923 16.4658 13.5227 16.6222L10.803 22.737C10.6551 23.0791 10.4033 23.3661 10.0833 23.5572C9.64215 23.8137 9.00898 23.9099 8.39331 23.0448C8.64123 24.2067 9.11611 25.144 9.61401 25.616C9.69298 25.6914 9.78894 25.7466 9.89377 25.7771C9.99861 25.8076 10.1092 25.8124 10.2163 25.7911C10.3234 25.7698 10.4238 25.723 10.5089 25.6547C10.5941 25.5864 10.6616 25.4986 10.7057 25.3987L14.2356 17.3736C14.2619 17.3138 14.3048 17.2628 14.3593 17.2267C14.4137 17.1907 14.4774 17.171 14.5427 17.1701C14.608 17.1691 14.6723 17.187 14.7277 17.2216C14.7831 17.2561 14.8275 17.3059 14.8555 17.3649L18.6417 25.3535C18.6954 25.4667 18.7801 25.5621 18.8861 25.6287C18.9921 25.6953 19.1149 25.7303 19.24 25.7295C19.3652 25.7288 19.4876 25.6923 19.5927 25.6244C19.6979 25.5565 19.7815 25.46 19.8337 25.3463C20.5097 23.8912 20.9353 22.1698 20.629 20.3307C20.2217 17.8894 19.0474 16.3249 17.9199 15.3517Z" fill="#9D8044"/>
<path d="M12.2126 16.7901C11.7902 17.6454 10.3519 20.7496 9.97053 24.0788L9.2998 24.0382C9.2998 24.0382 9.41734 19.9459 11.7775 16.5324C11.8115 16.4837 11.8616 16.4486 11.9189 16.4332C11.9762 16.4178 12.0372 16.4231 12.091 16.4482C12.1217 16.4623 12.1494 16.4824 12.1722 16.5074C12.1951 16.5323 12.2127 16.5616 12.224 16.5935C12.2353 16.6254 12.2402 16.6592 12.2382 16.693C12.2362 16.7268 12.2275 16.7598 12.2126 16.7901Z" fill="#9D8044"/>
<path d="M16.8163 17.5105C17.0978 18.039 17.8093 19.4246 18.1734 20.5777L18.8315 20.2394C18.8315 20.2394 18.1495 18.3219 17.3967 17.1681C17.3693 17.1262 17.3329 17.0908 17.2901 17.0647C17.2473 17.0385 17.1993 17.0223 17.1494 17.017C17.0996 17.0118 17.0492 17.0178 17.0019 17.0345C16.9547 17.0512 16.9117 17.0782 16.8762 17.1136C16.8249 17.1646 16.7914 17.2307 16.7806 17.3022C16.7698 17.3736 16.7824 17.4467 16.8163 17.5105Z" fill="#9D8044"/>
<path d="M13.7474 20.6806V26.1297C13.7474 26.1712 13.7379 26.2122 13.7198 26.2495C13.7017 26.2868 13.6753 26.3196 13.6427 26.3452C13.6101 26.3709 13.5721 26.3888 13.5316 26.3977C13.491 26.4066 13.449 26.4061 13.4087 26.3964C13.3516 26.3826 13.3004 26.3508 13.2627 26.3058C13.2251 26.2607 13.2028 26.2048 13.1993 26.1462L12.9712 22.3571L13.7474 20.6806Z" fill="#7F4C45"/>
</svg>
