<svg width="40" height="40" viewBox="0 0 40 40" fill="none" xmlns="http://www.w3.org/2000/svg">
<circle cx="20" cy="20" r="20" fill="#F5F9FF"/>
<path d="M22.0229 12.0284H17.9593C16.5303 14.9429 16.1895 15.6381 15.5908 16.8591C15.1507 17.7565 14.9209 18.7534 14.9209 19.7649V29.5633C14.9209 30.3568 15.5274 31 16.2756 31H23.7242C24.4724 31 25.0789 30.3568 25.0789 29.5633V19.7725C25.0789 18.7561 24.8469 17.7547 24.4028 16.8539C24.0884 16.2161 23.7675 15.5657 22.0229 12.0284Z" fill="#CDE2FF"/>
<path d="M17.8247 31H16.2754C15.5274 31 14.9209 30.3568 14.9209 29.5631V19.765C14.9209 18.7535 15.1507 17.7567 15.5907 16.859C16.1896 15.6381 16.5304 14.9427 17.9593 12.0282H19.5086C18.0797 14.9427 17.7388 15.6381 17.1399 16.859C16.6999 17.7567 16.4702 18.7535 16.4702 19.765V29.5631C16.4702 30.3568 17.0766 31 17.8247 31Z" fill="#C0DBFF"/>
<path d="M23.7512 19.7725V29.5654C23.7507 29.6252 23.6989 29.6721 23.6392 29.6721H16.361C16.3012 29.6721 16.2495 29.6252 16.249 29.5654V19.765C16.249 18.9594 16.4336 18.1568 16.7833 17.4437L18.0133 14.9349C18.0604 14.8389 18.1579 14.7776 18.2648 14.7764C18.9279 14.7687 19.4708 14.7403 20.0297 15.2353C20.3516 15.521 20.7794 15.6925 21.2359 15.6925H22.1739C22.2814 15.6925 22.3798 15.7537 22.4276 15.8499C23.2526 17.5087 23.7512 18.3101 23.7512 19.7725Z" fill="#FFF5F4"/>
<path d="M22.1287 12.0726H17.8711C17.4307 12.0726 17.0737 11.7156 17.0737 11.2753V9.79739C17.0738 9.357 17.4308 9.00002 17.8711 9.00002H22.1287C22.5691 9.00002 22.9261 9.357 22.9261 9.79739V11.2753C22.926 11.7156 22.569 12.0726 22.1287 12.0726Z" fill="#62A6FD"/>
<path d="M19.4205 12.0725H17.8712C17.4307 12.0725 17.074 11.7157 17.074 11.2753V9.79726C17.0739 9.35678 17.4307 9.00002 17.8711 9.00002H19.4204C18.98 9.00002 18.6232 9.35678 18.6232 9.79726V11.2753C18.6232 11.7157 18.98 12.0725 19.4205 12.0725Z" fill="#4394FB"/>
<path d="M23.7512 19.7725V29.5654C23.7507 29.6251 23.6989 29.6721 23.6392 29.6721H16.361C16.3012 29.6721 16.2495 29.6251 16.249 29.5654V19.765C16.249 18.9594 16.4336 18.1568 16.7833 17.4437L18.0134 14.9347C18.0604 14.8387 18.1577 14.7776 18.2649 14.7762C18.7434 14.7709 19.1595 14.7545 19.5641 14.9325C19.7199 15.0002 19.8743 15.0976 20.0297 15.2353C20.3515 15.5212 20.7796 15.6925 21.2359 15.6925H22.1739C22.2815 15.6925 22.3797 15.7536 22.4275 15.8501C23.2527 17.5087 23.7512 18.31 23.7512 19.7725Z" fill="#EBE0DA"/>
<path d="M23.7512 19.7725V29.5654C23.7508 29.6251 23.6989 29.6721 23.6392 29.6721H17.9103C17.8505 29.6721 17.7988 29.6251 17.7983 29.5654V19.765C17.7983 18.9594 17.9829 18.1568 18.3326 17.4437L19.5628 14.9347C19.5632 14.9338 19.5637 14.9334 19.5641 14.9325C19.7199 15.0002 19.8744 15.0976 20.0297 15.2353C20.3515 15.5212 20.7796 15.6925 21.236 15.6925H22.1739C22.2815 15.6925 22.3798 15.7536 22.4276 15.8501C23.2527 17.5087 23.7512 18.31 23.7512 19.7725Z" fill="#FFF5F4"/>
</svg>
