<svg width="40" height="40" viewBox="0 0 40 40" fill="none" xmlns="http://www.w3.org/2000/svg">
<circle cx="20" cy="20" r="20" fill="#FFF6F1"/>
<g clip-path="url(#clip0_4263_42442)">
<path d="M21.7997 10C19.1073 10 16.7356 13.1465 15.3452 16.5474C17.2242 16.245 19.6586 16.9308 21.6038 19.0414C23.8766 21.5076 24.4762 24.7121 23.09 26.4958C22.7457 27.1115 22.3 27.6843 21.753 28.1883C21.0233 28.8608 20.4546 28.9352 19.4645 29.6419C20.2015 29.8743 20.9859 30 21.7998 30C26.0827 30 29.5548 26.528 29.5548 22.245C29.5548 17.962 26.0827 10 21.7997 10V10Z" fill="#F0A479"/>
<path d="M18.0294 15.3774C17.591 15.2713 17.3755 14.7766 17.5982 14.3842C18.8604 12.1591 20.5398 10.376 22.4041 10.0526C22.2047 10.018 22.0031 10 21.7997 10C18.8073 10 16.4706 13.7941 15.3452 16.5474C15.7212 16.4868 16.1432 16.465 16.5757 16.4912C21.7715 16.808 25.4853 23.4134 23.09 26.4958C22.7457 27.1115 22.3 27.6843 21.753 28.1883C21.0233 28.8608 20.4546 28.9352 19.4645 29.6419C20.1182 29.848 20.8094 29.9699 21.5252 29.995C22.6336 29.3057 23.5869 28.3373 24.2617 27.1613C27.0679 23.3833 23.2429 16.6379 18.0294 15.3774Z" fill="#E5966E"/>
<path d="M25.4099 26.8976C25.2937 26.7781 25.2964 26.5871 25.4159 26.4708C26.3009 25.6108 26.9244 24.5268 27.2192 23.3363C27.2591 23.1746 27.4229 23.0759 27.5846 23.116C27.7465 23.156 27.8452 23.3197 27.8051 23.4814C27.4833 24.7816 26.8026 25.965 25.8367 26.9037C25.7172 27.0196 25.5262 27.0172 25.4099 26.8976Z" fill="#F7B594"/>
<path d="M22.9022 26.8759C21.0858 28.55 17.7118 27.6762 15.267 25.0235C12.8222 22.3708 12.2325 18.9436 14.0489 17.2696C14.2428 17.0909 14.4554 16.9406 14.6834 16.8175C13.9487 17.1178 13.2539 17.5516 12.6359 18.1212C9.85594 20.6833 9.67939 25.0137 12.2413 27.7937C14.8035 30.5737 19.1339 30.7504 21.9139 28.1883C22.4609 27.6843 22.9066 27.1115 23.2509 26.4958C23.146 26.6309 23.0301 26.7581 22.9022 26.8759Z" fill="#F0A479"/>
<path d="M13.4488 27.7937C11.1377 25.2861 11.0554 21.5169 13.1018 18.922C13.2556 18.2796 13.5678 17.713 14.0489 17.2696C14.2428 17.0909 14.4554 16.9406 14.6834 16.8175C13.9486 17.1178 13.2539 17.5517 12.6359 18.1212C9.85594 20.6833 9.67939 25.0137 12.2413 27.7937C13.7375 29.4171 15.8365 30.1523 17.8778 29.9733C16.2407 29.8287 14.6502 29.0975 13.4488 27.7937Z" fill="#E5966E"/>
<path d="M21.7642 19.041C19.3194 16.3884 15.865 15.5952 14.0486 17.2694C12.2322 18.9435 12.7417 22.451 15.1864 25.1036C17.6312 27.756 21.0855 28.5493 22.9019 26.8751C24.7183 25.201 24.2089 21.6936 21.7642 19.041Z" fill="#FBFCFF"/>
<path d="M16.3938 25.1039C13.9491 22.4513 13.4397 18.9438 15.2563 17.2696C15.7626 16.803 16.3963 16.5282 17.0997 16.4319C15.9199 16.2851 14.8321 16.5478 14.049 17.2696C12.2324 18.9436 12.7418 22.4513 15.1865 25.1039C16.9498 27.0173 19.2384 27.9631 21.0587 27.7136C19.5019 27.52 17.7845 26.613 16.3938 25.1039Z" fill="#EDEFF3"/>
<path d="M20.7423 19.9829C19.6839 18.8347 18.1886 18.4914 17.4023 19.216C16.616 19.9408 16.8365 21.4592 17.8949 22.6074C18.9531 23.7557 20.4486 24.0991 21.2349 23.3743C22.0211 22.6497 21.8006 21.1313 20.7423 19.9829Z" fill="#FFC850"/>
<path d="M19.1024 22.6079C18.044 21.4595 17.8235 19.9411 18.61 19.2165C18.7505 19.0868 18.9142 18.9918 19.0937 18.9291C18.4443 18.7473 17.8223 18.8295 17.4026 19.2165C16.6163 19.9411 16.8368 21.4595 17.895 22.6079C18.7639 23.5507 19.9274 23.9505 20.7513 23.6623C20.1841 23.5034 19.5957 23.1433 19.1024 22.6079Z" fill="#FEB644"/>
</g>
<defs>
<clipPath id="clip0_4263_42442">
<rect width="20" height="20" fill="white" transform="translate(10 10)"/>
</clipPath>
</defs>
</svg>
