<svg width="19" height="18" viewBox="0 0 19 18" fill="none" xmlns="http://www.w3.org/2000/svg">
<g clip-path="url(#clip0_3859_2339)">
<path d="M10.5577 0H7.98021C7.63939 0 7.36246 0.27693 7.36246 0.61775C7.36246 0.958571 7.63939 1.2355 7.98021 1.2355H10.5577C10.8985 1.2355 11.1755 0.958571 11.1755 0.61775C11.1755 0.27693 10.8985 0 10.5577 0Z" fill="white"/>
<path d="M17.4382 4.06863L15.7554 2.38581C15.521 2.15149 15.1376 2.15149 14.882 2.38581C14.6477 2.62013 14.6477 3.00356 14.882 3.25917L16.5436 4.92071C16.6714 5.04853 16.8205 5.09114 16.9696 5.09114C17.1187 5.09114 17.2891 5.02725 17.3956 4.92071C17.6725 4.68638 17.6725 4.30296 17.4382 4.06863Z" fill="white"/>
<path d="M9.2583 2.5775C4.99793 2.5775 1.54703 6.0284 1.54703 10.2888C1.54703 14.5491 4.99793 18 9.2583 18C13.5187 18 16.9695 14.5491 16.9695 10.2888C16.9695 6.0284 13.5187 2.5775 9.2583 2.5775ZM12.4536 11.1195H9.2583C8.91747 11.1195 8.64054 10.8426 8.64054 10.5018V6.49705C8.64054 6.15622 8.91747 5.87929 9.2583 5.87929C9.59912 5.87929 9.87605 6.15622 9.87605 6.49705V9.90534H12.4536C12.7944 9.90534 13.0713 10.1823 13.0713 10.5231C13.0713 10.8426 12.7944 11.1195 12.4536 11.1195Z" fill="white"/>
</g>
<defs>
<clipPath id="clip0_3859_2339">
<rect width="18" height="18" fill="white" transform="translate(0.578003)"/>
</clipPath>
</defs>
</svg>
