<svg width="15" height="15" viewBox="0 0 15 15" fill="none" xmlns="http://www.w3.org/2000/svg">
<path fill-rule="evenodd" clip-rule="evenodd" d="M14.0497 2.2353C14.5211 1.76398 14.5211 0.999817 14.0497 0.528495C13.5784 0.0571725 12.8142 0.0571725 12.3429 0.528495L7.40323 5.46819L2.46353 0.528495C1.99221 0.0571725 1.22804 0.0571725 0.756721 0.528495C0.285398 0.999817 0.285398 1.76398 0.756721 2.2353L5.69642 7.175L0.756721 12.1147C0.285398 12.586 0.285398 13.3502 0.756721 13.8215C1.22804 14.2928 1.99221 14.2928 2.46353 13.8215L7.40323 8.88181L12.3429 13.8215C12.8142 14.2928 13.5784 14.2928 14.0497 13.8215C14.5211 13.3502 14.5211 12.586 14.0497 12.1147L9.11004 7.175L14.0497 2.2353Z" fill="white"/>
</svg>
