<svg width="18" height="19" viewBox="0 0 18 19" fill="none" xmlns="http://www.w3.org/2000/svg">
<path fill-rule="evenodd" clip-rule="evenodd" d="M18 9.09375C18 14.0643 13.9706 18.0938 9 18.0938C4.02944 18.0938 0 14.0643 0 9.09375C0 4.12319 4.02944 0.09375 9 0.09375C13.9706 0.09375 18 4.12319 18 9.09375ZM11.8864 6.20735C12.2379 6.55883 12.2379 7.12867 11.8864 7.48015L10.2728 9.09375L11.8864 10.7074C12.2379 11.0588 12.2379 11.6287 11.8864 11.9801C11.5349 12.3316 10.9651 12.3316 10.6136 11.9801L9 10.3665L7.3864 11.9801C7.03492 12.3316 6.46508 12.3316 6.1136 11.9801C5.76213 11.6287 5.76213 11.0588 6.1136 10.7074L7.72721 9.09375L6.1136 7.48015C5.76213 7.12867 5.76213 6.55883 6.1136 6.20735C6.46508 5.85588 7.03492 5.85588 7.3864 6.20735L9 7.82096L10.6136 6.20735C10.9651 5.85588 11.5349 5.85588 11.8864 6.20735Z" fill="#99A2AB"/>
</svg>
