<svg width="25" height="24" viewBox="0 0 25 24" fill="none" xmlns="http://www.w3.org/2000/svg">
<path d="M4.54272 20.7971C4.74094 20.8875 4.95644 20.9344 5.17482 20.935C5.24249 20.935 5.31017 20.9306 5.37736 20.9217L9.56833 20.3733C9.78863 20.3443 10.0003 20.2735 10.1918 20.1662C10.3295 20.0889 10.4572 19.9927 10.571 19.8796L18.95 11.5006L13.0773 5.62807L4.69823 14.0072C4.42849 14.2781 4.25475 14.6304 4.20483 15.0096L3.65624 19.2005C3.62793 19.4168 3.64616 19.6366 3.70952 19.8453C3.77239 20.0541 3.87942 20.2469 4.02341 20.411C4.10356 20.5027 4.19427 20.5842 4.29314 20.6541C4.37138 20.7093 4.45489 20.7572 4.54272 20.7971Z" fill="white"/>
<path d="M14.6064 4.09893L20.4791 9.97148L22.8108 7.63986C23.1251 7.32423 23.3022 6.89671 23.3022 6.45095C23.3022 6.00525 23.1251 5.57773 22.8108 5.2621L19.3157 1.76749C19.1569 1.60893 18.9697 1.4854 18.7657 1.40189C18.5651 1.31957 18.3481 1.27602 18.1269 1.27602C17.6815 1.27602 17.2538 1.45276 16.938 1.76749L14.6064 4.09893Z" fill="white"/>
</svg>
