<svg width="24" height="24" viewBox="0 0 24 24" fill="none" xmlns="http://www.w3.org/2000/svg">
<path fill-rule="evenodd" clip-rule="evenodd" d="M24 12C24 18.6274 18.6274 24 12 24C5.37258 24 0 18.6274 0 12C0 5.37258 5.37258 0 12 0C18.6274 0 24 5.37258 24 12ZM15.8485 8.15147C16.3172 8.6201 16.3172 9.3799 15.8485 9.84853L13.6971 12L15.8485 14.1515C16.3172 14.6201 16.3172 15.3799 15.8485 15.8485C15.3799 16.3172 14.6201 16.3172 14.1515 15.8485L12 13.6971L9.84853 15.8485C9.3799 16.3172 8.6201 16.3172 8.15147 15.8485C7.68284 15.3799 7.68284 14.6201 8.15147 14.1515L10.3029 12L8.15147 9.84853C7.68284 9.3799 7.68284 8.6201 8.15147 8.15147C8.6201 7.68284 9.3799 7.68284 9.84853 8.15147L12 10.3029L14.1515 8.15147C14.6201 7.68284 15.3799 7.68284 15.8485 8.15147Z" fill="white"/>
</svg>
