<svg width="44" height="44" viewBox="0 0 44 44" fill="none" xmlns="http://www.w3.org/2000/svg">
<rect width="44" height="44" rx="12" fill="white"/>
<path d="M35.1997 22.3227C35.1997 21.4134 35.1117 20.4747 34.965 19.5947H22.2637V24.7867H29.5383C29.245 26.4587 28.277 27.9254 26.8397 28.8641L31.181 32.2374C33.733 29.8614 35.1997 26.4001 35.1997 22.3227Z" fill="#4280EF"/>
<path d="M22.264 35.4641C25.9013 35.4641 28.952 34.2614 31.1813 32.2081L26.84 28.8641C25.6373 29.6854 24.0826 30.1547 22.264 30.1547C18.744 30.1547 15.7813 27.7787 14.696 24.6107L10.2373 28.0427C12.5253 32.5894 17.16 35.4641 22.264 35.4641Z" fill="#34A353"/>
<path d="M14.6958 24.5814C14.1385 22.9094 14.1385 21.0907 14.6958 19.4187L10.2371 15.9574C8.33046 19.7707 8.33046 24.2587 10.2371 28.0427L14.6958 24.5814Z" fill="#F6B704"/>
<path d="M22.264 13.8747C24.1706 13.8454 26.048 14.5787 27.4266 15.8987L31.2693 12.0267C28.8346 9.7387 25.608 8.5067 22.264 8.53603C17.16 8.53603 12.5253 11.4107 10.2373 15.9574L14.696 19.4187C15.7813 16.2214 18.744 13.8747 22.264 13.8747Z" fill="#E54335"/>
</svg>
