<svg width="18" height="18" viewBox="0 0 18 18" fill="none" xmlns="http://www.w3.org/2000/svg">
<path d="M0.81842 4.09088C0.601426 4.09088 0.39332 4.00468 0.239882 3.85124C0.0864445 3.6978 0.000244141 3.4897 0.000244141 3.2727V2.45453C0.000244141 1.80355 0.258845 1.17923 0.719158 0.718914C1.17947 0.258601 1.80379 0 2.45477 0H3.27295C3.48994 0 3.69805 0.0862003 3.85148 0.239638C4.00492 0.393076 4.09112 0.601182 4.09112 0.818175C4.09112 1.03517 4.00492 1.24328 3.85148 1.39671C3.69805 1.55015 3.48994 1.63635 3.27295 1.63635H2.45477C2.23778 1.63635 2.02967 1.72255 1.87623 1.87599C1.7228 2.02943 1.6366 2.23753 1.6366 2.45453V3.2727C1.6366 3.4897 1.55039 3.6978 1.39696 3.85124C1.24352 4.00468 1.03541 4.09088 0.81842 4.09088Z" fill="white"/>
<path d="M17.1817 4.09088C16.9648 4.09088 16.7566 4.00468 16.6032 3.85124C16.4498 3.6978 16.3636 3.4897 16.3636 3.2727V2.45453C16.3636 2.23753 16.2774 2.02943 16.1239 1.87599C15.9705 1.72255 15.7624 1.63635 15.5454 1.63635H14.7272C14.5102 1.63635 14.3021 1.55015 14.1487 1.39671C13.9953 1.24328 13.9091 1.03517 13.9091 0.818175C13.9091 0.601182 13.9953 0.393076 14.1487 0.239638C14.3021 0.0862003 14.5102 0 14.7272 0H15.5454C16.1964 0 16.8207 0.258601 17.281 0.718914C17.7413 1.17923 17.9999 1.80355 17.9999 2.45453V3.2727C17.9999 3.4897 17.9137 3.6978 17.7603 3.85124C17.6068 4.00468 17.3987 4.09088 17.1817 4.09088Z" fill="white"/>
<path d="M3.27295 18H2.45477C1.80379 18 1.17947 17.7414 0.719158 17.2811C0.258845 16.8208 0.000244141 16.1965 0.000244141 15.5455V14.7274C0.000244141 14.5104 0.0864445 14.3023 0.239882 14.1488C0.39332 13.9954 0.601426 13.9092 0.81842 13.9092C1.03541 13.9092 1.24352 13.9954 1.39696 14.1488C1.55039 14.3023 1.6366 14.5104 1.6366 14.7274V15.5455C1.6366 15.7625 1.7228 15.9706 1.87623 16.1241C2.02967 16.2775 2.23778 16.3637 2.45477 16.3637H3.27295C3.48994 16.3637 3.69805 16.4499 3.85148 16.6033C4.00492 16.7568 4.09112 16.9649 4.09112 17.1819C4.09112 17.3989 4.00492 17.607 3.85148 17.7604C3.69805 17.9138 3.48994 18 3.27295 18Z" fill="white"/>
<path d="M15.5454 18H14.7272C14.5102 18 14.3021 17.9138 14.1487 17.7604C13.9953 17.607 13.9091 17.3989 13.9091 17.1819C13.9091 16.9649 13.9953 16.7568 14.1487 16.6033C14.3021 16.4499 14.5102 16.3637 14.7272 16.3637H15.5454C15.7624 16.3637 15.9705 16.2775 16.1239 16.1241C16.2774 15.9706 16.3636 15.7625 16.3636 15.5455V14.7274C16.3636 14.5104 16.4498 14.3023 16.6032 14.1488C16.7566 13.9954 16.9648 13.9092 17.1817 13.9092C17.3987 13.9092 17.6068 13.9954 17.7603 14.1488C17.9137 14.3023 17.9999 14.5104 17.9999 14.7274V15.5455C17.9999 16.1965 17.7413 16.8208 17.281 17.2811C16.8207 17.7414 16.1964 18 15.5454 18Z" fill="white"/>
<path d="M2.45453 8.18213H3.2727V9.81849H2.45453C2.23753 9.81849 2.02943 9.73229 1.87599 9.57885C1.72255 9.42541 1.63635 9.2173 1.63635 9.00031C1.63635 8.78331 1.72255 8.57521 1.87599 8.42177C2.02943 8.26833 2.23753 8.18213 2.45453 8.18213Z" fill="white"/>
<path d="M16.3638 9.00031C16.3638 9.2173 16.2776 9.42541 16.1241 9.57885C15.9707 9.73229 15.7626 9.81849 15.5456 9.81849H14.7274V8.18213H15.5456C15.7626 8.18213 15.9707 8.26833 16.1241 8.42177C16.2776 8.57521 16.3638 8.78331 16.3638 9.00031Z" fill="white"/>
<path d="M14.727 5.72748V8.182H3.27258V5.72748C3.27453 5.07709 3.53375 4.4539 3.99364 3.99401C4.45354 3.53412 5.07673 3.27489 5.72711 3.27295H12.2725C12.9229 3.27489 13.5461 3.53412 14.006 3.99401C14.4659 4.4539 14.7251 5.07709 14.727 5.72748Z" fill="white"/>
<path d="M3.27258 9.81836H14.727V12.2729C14.7251 12.9233 14.4659 13.5465 14.006 14.0064C13.5461 14.4662 12.9229 14.7255 12.2725 14.7274H5.72711C5.07673 14.7255 4.45354 14.4662 3.99364 14.0064C3.53375 13.5465 3.27453 12.9233 3.27258 12.2729V9.81836Z" fill="white"/>
</svg>
