<svg width="17" height="16" viewBox="0 0 17 16" fill="none" xmlns="http://www.w3.org/2000/svg">
<g clip-path="url(#clip0_4336_6894)">
<path d="M1.12892 4.9809L14.4679 0.100431C14.7033 0.0131671 14.9589 -0.00470523 15.2043 0.0489349C15.4496 0.102575 15.6744 0.225475 15.852 0.40305C16.0295 0.580625 16.1524 0.805418 16.2061 1.05075C16.2597 1.29608 16.2418 1.55166 16.1546 1.78714L11.2691 15.1211C11.1796 15.3675 11.0184 15.5815 10.8062 15.7354C10.594 15.8894 10.3405 15.9763 10.0785 15.9849C9.81648 15.9934 9.55788 15.9234 9.33605 15.7836C9.11421 15.6439 8.93931 15.441 8.83387 15.2009L6.43855 9.80647L1.04408 7.41115C0.804052 7.30572 0.601096 7.13081 0.461376 6.90898C0.321655 6.68714 0.251574 6.42855 0.260166 6.16652C0.268757 5.90449 0.355626 5.65104 0.509577 5.43883C0.663528 5.22663 0.877505 5.06539 1.12393 4.97591L1.12892 4.9809Z" fill="#07A279"/>
</g>
<defs>
<clipPath id="clip0_4336_6894">
<rect width="16" height="16" fill="white" transform="translate(0.25)"/>
</clipPath>
</defs>
</svg>
