<svg width="15" height="14" viewBox="0 0 15 14" fill="none" xmlns="http://www.w3.org/2000/svg">
<g clip-path="url(#clip0)">
<path d="M14.4634 5.37023C14.3718 5.08675 14.1204 4.8854 13.8229 4.85859L9.7821 4.49168L8.18426 0.751797C8.06645 0.477711 7.79813 0.300293 7.50001 0.300293C7.20189 0.300293 6.93357 0.477711 6.81576 0.752438L5.21792 4.49168L1.1765 4.85859C0.879555 4.88604 0.628755 5.08675 0.536574 5.37023C0.444394 5.65372 0.529525 5.96465 0.754155 6.16066L3.80851 8.83935L2.90785 12.8067C2.84195 13.0985 2.95517 13.4 3.19721 13.575C3.32731 13.669 3.47952 13.7168 3.63301 13.7168C3.76536 13.7168 3.89663 13.6811 4.01445 13.6106L7.50001 11.5274L10.9843 13.6106C11.2393 13.764 11.5607 13.75 11.8022 13.575C12.0443 13.3995 12.1574 13.0978 12.0915 12.8067L11.1909 8.83935L14.2452 6.16119C14.4699 5.96465 14.5556 5.65425 14.4634 5.37023Z" fill="#FFC107"/>
</g>
<defs>
<clipPath id="clip0">
<rect width="14" height="14" fill="white" transform="translate(0.5)"/>
</clipPath>
</defs>
</svg>
