<svg width="17" height="16" viewBox="0 0 17 16" fill="none" xmlns="http://www.w3.org/2000/svg">
<g clip-path="url(#clip0_3193_4017)">
<path d="M14.2062 10.0091C13.628 9.43827 12.9061 9.43827 12.3315 10.0091C11.8932 10.4437 11.455 10.8783 11.024 11.3203C10.9062 11.4418 10.8067 11.4676 10.6631 11.3866C10.3795 11.2319 10.0775 11.1067 9.80496 10.9373C8.53431 10.1381 7.46991 9.11048 6.52704 7.954C6.0593 7.37945 5.64311 6.76438 5.35215 6.07197C5.29322 5.93201 5.30427 5.83993 5.41845 5.72576C5.85673 5.30221 6.28396 4.86761 6.71488 4.43301C7.31522 3.82899 7.31522 3.12185 6.7112 2.51414C6.36867 2.16794 6.02615 1.82909 5.68363 1.48289C5.33005 1.12932 4.98016 0.77206 4.62291 0.42217C4.04467 -0.141336 3.32279 -0.141336 2.74823 0.425854C2.30627 0.860453 1.88272 1.3061 1.43339 1.73334C1.0172 2.12742 0.807267 2.6099 0.763071 3.17341C0.693093 4.09049 0.917759 4.956 1.2345 5.79942C1.88272 7.54519 2.86978 9.09575 4.06677 10.5174C5.68363 12.44 7.61354 13.9611 9.87125 15.0586C10.8878 15.5521 11.9411 15.9315 13.0866 15.9941C13.8747 16.0383 14.5598 15.8394 15.1086 15.2243C15.4842 14.8045 15.9078 14.4214 16.3055 14.02C16.8948 13.4233 16.8985 12.7015 16.3129 12.1122C15.6131 11.4087 14.9097 10.7089 14.2062 10.0091Z" fill="#07A279"/>
</g>
<defs>
<clipPath id="clip0_3193_4017">
<rect width="16" height="16" fill="white" transform="translate(0.75)"/>
</clipPath>
</defs>
</svg>
