<svg width="10" height="10" viewBox="0 0 10 10" fill="none" xmlns="http://www.w3.org/2000/svg">
<g clip-path="url(#clip0_3193_4159)">
<path d="M1.08824 2.05859H0V5.88212V7.05859V9.11742H1.08824V7.05859H2.44118V9.11742H3.52941V7.05859V5.88212H1.08824V2.05859Z" fill="white"/>
<path d="M8.91176 2.05859V5.88212H6.47058V7.05859V9.11742H7.55882V7.05859H8.91176V9.11742H10V7.05859V5.88212V2.05859H8.91176Z" fill="white"/>
<path d="M7.94119 3.82359C7.94119 3.49872 7.67782 3.23535 7.35296 3.23535H2.64707C2.32221 3.23535 2.05884 3.49872 2.05884 3.82359V4.41183H7.94119V3.82359Z" fill="white"/>
<path d="M5.54586 5H4.45763V8.21506L4.11768 8.21506V9.11765H5.88239V8.21506L5.54586 8.21506V5Z" fill="white"/>
<path d="M5.29406 1.49529V0.882324H4.70583V1.49529C4.06922 1.60258 3.54726 2.05182 3.33618 2.64703H6.66372C6.45263 2.05182 5.93067 1.60256 5.29406 1.49529Z" fill="white"/>
</g>
<defs>
<clipPath id="clip0_3193_4159">
<rect width="10" height="10" fill="white"/>
</clipPath>
</defs>
</svg>
