<svg width="36" height="36" viewBox="0 0 36 36" fill="none" xmlns="http://www.w3.org/2000/svg">
<path d="M18 36C27.9411 36 36 27.9411 36 18C36 8.05887 27.9411 0 18 0C8.05887 0 0 8.05887 0 18C0 27.9411 8.05887 36 18 36Z" fill="#001921" fill-opacity="0.6"/>
<path fill-rule="evenodd" clip-rule="evenodd" d="M23.7727 12.2272C24.4757 12.9301 24.4757 14.0698 23.7727 14.7728L14.7727 23.7728C14.0698 24.4757 12.9301 24.4757 12.2272 23.7728C11.5242 23.0698 11.5242 21.9302 12.2272 21.2272L21.2272 12.2272C21.9301 11.5243 23.0698 11.5243 23.7727 12.2272Z" fill="white"/>
<path fill-rule="evenodd" clip-rule="evenodd" d="M12.2272 12.2272C12.9301 11.5243 14.0698 11.5243 14.7727 12.2272L23.7727 21.2272C24.4757 21.9302 24.4757 23.0698 23.7727 23.7728C23.0698 24.4757 21.9301 24.4757 21.2272 23.7728L12.2272 14.7728C11.5242 14.0698 11.5242 12.9301 12.2272 12.2272Z" fill="white"/>
</svg>
