<svg width="17" height="16" viewBox="0 0 17 16" fill="none" xmlns="http://www.w3.org/2000/svg">
<g clip-path="url(#clip0_3193_3655)">
<g clip-path="url(#clip1_3193_3655)">
<path d="M16.5848 7.6017L9.14817 0.165044C8.92807 -0.0550146 8.57157 -0.0550146 8.35148 0.165044L0.915044 7.6017C0.809352 7.7074 0.75 7.85075 0.75 7.99997C0.75 8.14919 0.809352 8.29251 0.915044 8.39836L8.35148 15.8347C8.46151 15.945 8.60537 15.9999 8.74975 15.9999C8.89369 15.9999 9.0381 15.9451 9.14813 15.8347L16.5848 8.39836C16.6904 8.29251 16.75 8.14919 16.75 7.99997C16.75 7.85075 16.6904 7.7074 16.5848 7.6017ZM11.3696 7.40181L9.91396 8.85708C9.80413 8.96734 9.66011 9.02228 9.51557 9.02228C9.37175 9.02228 9.22745 8.96738 9.11742 8.85708C8.89736 8.63698 8.89736 8.28059 9.11742 8.0605L9.61556 7.56275H7.0911V10.5675C7.0911 10.8786 6.839 11.131 6.52767 11.131C6.21657 11.131 5.96436 10.8786 5.96436 10.5675V6.99928C5.96436 6.68838 6.21657 6.43597 6.52767 6.43597H9.60736L9.00134 5.8303C8.78136 5.6102 8.78136 5.25358 9.00134 5.03348C9.22139 4.81339 9.57805 4.81339 9.79811 5.03348L11.3694 6.60499C11.5896 6.82509 11.5896 7.18171 11.3696 7.40181Z" fill="#FFA216"/>
</g>
</g>
<defs>
<clipPath id="clip0_3193_3655">
<rect width="16" height="16" fill="white" transform="translate(0.75)"/>
</clipPath>
<clipPath id="clip1_3193_3655">
<rect width="16" height="16" fill="white" transform="translate(0.75)"/>
</clipPath>
</defs>
</svg>
