<svg width="40" height="40" viewBox="0 0 40 40" fill="none" xmlns="http://www.w3.org/2000/svg">
<rect x="0.75" y="0.841797" width="39" height="39" rx="8" fill="#FFF8DB"/>
<path d="M19.1895 11.4586C19.5935 10.6401 20.7607 10.6401 21.1647 11.4586L23.3243 15.8337C23.4846 16.1584 23.7943 16.3836 24.1526 16.436L28.9839 17.1422C29.8869 17.2742 30.2468 18.3842 29.593 19.0209L26.0989 22.4242C25.8391 22.6772 25.7206 23.0419 25.7819 23.3993L26.6062 28.2059C26.7606 29.1057 25.8161 29.7918 25.0081 29.3669L20.6898 27.0959C20.3688 26.9271 19.9854 26.9271 19.6645 27.0959L15.3461 29.3669C14.5382 29.7918 13.5937 29.1057 13.748 28.2059L14.5724 23.3993C14.6337 23.0419 14.5151 22.6772 14.2553 22.4242L10.7612 19.0209C10.1075 18.3841 10.4674 17.2742 11.3704 17.1422L16.2016 16.436C16.5599 16.3836 16.8696 16.1584 17.0299 15.8337L19.1895 11.4586Z" fill="#FBBC05"/>
</svg>
