<svg width="39" height="40" viewBox="0 0 39 40" fill="none" xmlns="http://www.w3.org/2000/svg">
<rect y="0.841797" width="39" height="39" rx="8" fill="#D7E6FF"/>
<path d="M28.6787 18.6279H26.9648V17.4854H12.0352V18.6279H10.3213C10.0057 18.6279 9.75 18.8837 9.75 19.1992V20.3418C9.75 21.7211 10.7329 22.875 12.0352 23.1404V27.1973C12.0352 28.1438 12.8025 28.9111 13.749 28.9111H25.251C26.1975 28.9111 26.9648 28.1438 26.9648 27.1973V23.1404C28.2671 22.875 29.25 21.7211 29.25 20.3418V19.1992C29.25 18.8837 28.9943 18.6279 28.6787 18.6279ZM12.0352 21.9505C11.3716 21.7138 10.8926 21.0857 10.8926 20.3418V19.7705H12.0352V21.9505ZM23.424 23.4105C23.1255 24.9736 21.8466 26.2523 20.2837 26.551C17.4715 27.0884 15.0386 24.6556 15.576 21.8432C15.8747 20.2802 17.1534 19.0016 18.7163 18.7029C21.5287 18.1655 23.9614 20.5983 23.424 23.4105ZM28.1074 20.3418C28.1074 21.0857 27.6284 21.7138 26.9648 21.9505V19.7705H28.1074V20.3418Z" fill="#4285F4"/>
<path d="M11.4639 16.3428H27.5361C27.8517 16.3428 28.1074 16.087 28.1074 15.7715C28.1074 14.825 27.3401 14.0576 26.3936 14.0576H23.499V13.4863C23.499 12.5398 22.7317 11.7725 21.7852 11.7725H17.2148C16.2683 11.7725 15.501 12.5398 15.501 13.4863V14.0576H12.6064C11.66 14.0576 10.8926 14.825 10.8926 15.7715C10.8926 16.087 11.1483 16.3428 11.4639 16.3428ZM16.6436 13.4863C16.6436 13.1711 16.8996 12.915 17.2148 12.915H21.7852C22.1004 12.915 22.3564 13.1711 22.3564 13.4863V14.0576H16.6436V13.4863Z" fill="#4285F4"/>
<path d="M19.5 19.7705C19.8157 19.7705 20.0713 20.0261 20.0713 20.3418V22.0557H21.7852C22.1009 22.0557 22.3564 22.3113 22.3564 22.627C22.3564 21.052 21.0749 19.7705 19.5 19.7705Z" fill="#4285F4"/>
<path d="M21.7851 23.1982H19.5C19.1844 23.1982 18.9287 22.9425 18.9287 22.627V20.3418C18.9287 20.0261 19.1843 19.7705 19.5 19.7705C17.6772 19.7705 16.2475 21.4869 16.7426 23.3882C16.9925 24.3487 17.7782 25.1344 18.7387 25.3843C20.64 25.8794 22.3564 24.4497 22.3564 22.627C22.3564 22.9426 22.1008 23.1982 21.7851 23.1982Z" fill="#4285F4"/>
</svg>
