<svg width="10" height="10" viewBox="0 0 10 10" fill="none" xmlns="http://www.w3.org/2000/svg">
<path d="M6.09272 4.21952C6.09272 4.82205 5.60257 5.3122 5.00003 5.3122C4.3975 5.3122 3.90735 4.82205 3.90735 4.21952C3.90735 3.61698 4.3975 3.12683 5.00003 3.12683C5.60257 3.12683 6.09272 3.61698 6.09272 4.21952ZM9.21467 4.21952C9.21467 7.90077 5.37295 9.864 5.20952 9.94564C5.14349 9.97874 5.07168 9.99513 5.00003 9.99513C4.92838 9.99513 4.85658 9.97874 4.79055 9.94564C4.62712 9.864 0.7854 7.90077 0.7854 4.21952C0.7854 1.89554 2.67605 0.00488281 5.00003 0.00488281C7.32401 0.00488281 9.21467 1.89554 9.21467 4.21952ZM7.0293 4.21952C7.0293 3.10061 6.11894 2.19025 5.00003 2.19025C3.88113 2.19025 2.97077 3.10061 2.97077 4.21952C2.97077 5.33842 3.88113 6.24879 5.00003 6.24879C6.11894 6.24879 7.0293 5.33842 7.0293 4.21952Z" fill="white"/>
</svg>
