<svg width="18" height="18" viewBox="0 0 18 18" fill="none" xmlns="http://www.w3.org/2000/svg">
<g clip-path="url(#clip0_3193_2116)">
<path d="M10.652 14.4383C10.8001 13.5243 10.1793 12.6633 9.26538 12.5152C8.35142 12.367 7.4904 12.9878 7.34224 13.9018C7.19408 14.8157 7.81489 15.6767 8.72885 15.8249C9.64281 15.9731 10.5038 15.3523 10.652 14.4383Z" fill="#00ABB6"/>
<path d="M17.4995 5.67223C15.0833 3.25601 11.976 2.15137 8.99999 2.15137C6.02402 2.15137 2.9167 3.25601 0.500449 5.67223C-0.167308 6.34077 -0.164249 7.37598 0.494227 8.03723C1.31653 8.86868 2.39315 8.53772 2.87525 8.03948C4.51191 6.405 6.68685 5.50486 8.99999 5.50486C11.3131 5.50486 13.4881 6.405 15.1247 8.03948C15.6068 8.53772 16.6835 8.86868 17.5058 8.03723C18.1642 7.37598 18.1673 6.34077 17.4995 5.67223Z" fill="#00ABB6"/>
<path d="M9.00003 7.32324C7.33288 7.32324 5.54403 7.94305 4.15785 9.32891C3.48155 10.0052 3.49502 11.0452 4.1646 11.7077C4.82944 12.368 5.86385 12.3652 6.52851 11.7006C7.18867 11.0404 8.06638 10.6769 8.99999 10.6769C9.9336 10.6769 10.8113 11.0404 11.4715 11.7006C12.1361 12.3652 13.1706 12.368 13.8354 11.7077C14.505 11.0452 14.5184 10.0052 13.8421 9.32891C12.456 7.94308 10.6672 7.32324 9.00003 7.32324Z" fill="#00ABB6"/>
</g>
<defs>
<clipPath id="clip0_3193_2116">
<rect width="18" height="18" fill="white"/>
</clipPath>
</defs>
</svg>
