<svg width="18" height="18" viewBox="0 0 18 18" fill="none" xmlns="http://www.w3.org/2000/svg">
<g clip-path="url(#clip0_3193_1749)">
<path fill-rule="evenodd" clip-rule="evenodd" d="M9.00039 18C12.6122 18.0034 15.5429 15.0782 15.5462 11.4664C15.5481 9.47736 14.6446 7.5956 13.0913 6.35322V4.09095C13.0913 1.83155 11.2598 0 9.00039 0C6.74103 0 4.90951 1.83155 4.90951 4.09091V6.35318C2.08894 8.60915 1.63125 12.7245 3.88721 15.5451C5.12959 17.0984 7.01135 18.0018 9.00039 18ZM6.54587 4.09091C6.54587 2.73531 7.64479 1.63635 9.00043 1.63635C10.3561 1.63635 11.455 2.73527 11.455 4.09091V5.39102C9.88168 4.74851 8.11921 4.74851 6.5459 5.39102L6.54587 4.09091ZM8.18205 13.909V12.046C7.9333 11.9024 7.72673 11.6958 7.5831 11.4471C7.13122 10.6644 7.39938 9.66363 8.18205 9.21175C8.96472 8.75987 9.96548 9.02804 10.4174 9.8107C10.8692 10.5934 10.6011 11.5941 9.81841 12.046V13.909C9.81841 14.3609 9.45211 14.7272 9.00023 14.7272C8.54835 14.7272 8.18205 14.3609 8.18205 13.909Z" fill="#EA4335"/>
</g>
<defs>
<clipPath id="clip0_3193_1749">
<rect width="18" height="18" fill="white"/>
</clipPath>
</defs>
</svg>
