<svg width="40" height="40" viewBox="0 0 40 40" fill="none" xmlns="http://www.w3.org/2000/svg">
<rect x="0.75" y="0.841797" width="39" height="39" rx="8" fill="#DBF7E6"/>
<g clip-path="url(#clip0_3193_1253)">
<path d="M20.25 10.5918C14.8654 10.5918 10.5 14.9572 10.5 20.3418C10.5 25.7264 14.8654 30.0918 20.25 30.0918C25.6346 30.0918 30 25.7264 30 20.3418C30 14.9572 25.6346 10.5918 20.25 10.5918ZM23.6525 25.281C23.3596 25.4134 23.0546 25.5257 22.7417 25.61C21.554 25.939 20.3664 25.9511 19.1827 25.5659C17.7543 25.1045 16.8074 24.1295 16.2417 22.7653C16.1333 22.5004 16.0611 22.2236 15.9769 21.9467H14.8574C14.6688 21.9467 14.5204 21.7943 14.5204 21.6097V20.8554C14.5204 20.6668 14.6728 20.5183 14.8574 20.5183H15.7843C15.7843 20.3097 15.7843 20.1131 15.7843 19.9045H14.8574C14.6688 19.9045 14.5204 19.752 14.5204 19.5674V18.8131C14.5204 18.6245 14.6728 18.4761 14.8574 18.4761H16.037L16.0772 18.3597C16.3941 17.3526 16.9398 16.4899 17.7784 15.8399C18.4444 15.3224 19.2148 15.0375 20.0414 14.9051C21.217 14.7165 22.3565 14.877 23.4599 15.3103C23.5321 15.3384 23.6003 15.3705 23.6685 15.4106C23.9333 15.5671 24.0015 15.7637 23.8852 16.0486C23.7608 16.3455 23.6364 16.6464 23.5 16.9393C23.3836 17.1921 23.2231 17.2724 22.9503 17.2122C22.5772 17.1279 22.212 17.0115 21.8389 16.9353C21.0525 16.7748 20.2701 16.7668 19.5037 17.0677C18.8457 17.3285 18.4444 17.8301 18.1716 18.456C18.1676 18.464 18.1676 18.472 18.1676 18.4801H20.4586C20.6472 18.4801 20.7957 18.6325 20.7957 18.8171V19.5714C20.7957 19.76 20.6432 19.9085 20.4586 19.9085H17.8426C17.8386 20.1091 17.8426 20.3097 17.8426 20.5224H20.4627C20.6512 20.5224 20.7997 20.6748 20.7997 20.8594V21.6137C20.7997 21.8023 20.6472 21.9507 20.4627 21.9507H18.0713C18.3602 22.7773 18.8296 23.4153 19.7123 23.6921C20.4185 23.9128 21.1287 23.9007 21.8429 23.7523C22.212 23.6761 22.5731 23.5637 22.9423 23.4795C23.2312 23.4153 23.3877 23.4915 23.508 23.7563C23.6444 24.0532 23.7728 24.3541 23.8932 24.6591C24.0056 24.9319 23.9333 25.1526 23.6525 25.281Z" fill="#2CBD53"/>
</g>
<defs>
<clipPath id="clip0_3193_1253">
<rect width="19.5" height="19.5" fill="white" transform="translate(10.5 10.5918)"/>
</clipPath>
</defs>
</svg>
