<svg width="39" height="40" viewBox="0 0 39 40" fill="none" xmlns="http://www.w3.org/2000/svg">
<rect y="0.841797" width="39" height="39" rx="8" fill="#FFF8DB"/>
<g clip-path="url(#clip0_3193_1625)">
<path d="M20.5614 10.5918H17.7691C17.3999 10.5918 17.0999 10.8918 17.0999 11.261C17.0999 11.6302 17.3999 11.9303 17.7691 11.9303H20.5614C20.9306 11.9303 21.2306 11.6302 21.2306 11.261C21.2306 10.8918 20.9306 10.5918 20.5614 10.5918Z" fill="#FFA216"/>
<path d="M28.0153 14.9993L26.1922 13.1762C25.9383 12.9224 25.523 12.9224 25.2461 13.1762C24.9922 13.4301 24.9922 13.8455 25.2461 14.1224L27.0461 15.9224C27.1845 16.0608 27.3461 16.107 27.5076 16.107C27.6691 16.107 27.8538 16.0378 27.9691 15.9224C28.2691 15.6685 28.2691 15.2531 28.0153 14.9993Z" fill="#FFA216"/>
<path d="M19.1537 13.3843C14.5383 13.3843 10.7998 17.1228 10.7998 21.7382C10.7998 26.3535 14.5383 30.092 19.1537 30.092C23.7691 30.092 27.5075 26.3535 27.5075 21.7382C27.5075 17.1228 23.7691 13.3843 19.1537 13.3843ZM22.6152 22.6381H19.1537C18.7845 22.6381 18.4844 22.3381 18.4844 21.9689V17.6305C18.4844 17.2612 18.7845 16.9612 19.1537 16.9612C19.5229 16.9612 19.8229 17.2612 19.8229 17.6305V21.3228H22.6152C22.9844 21.3228 23.2844 21.6228 23.2844 21.992C23.2844 22.3382 22.9844 22.6381 22.6152 22.6381Z" fill="#FFA216"/>
</g>
<defs>
<clipPath id="clip0_3193_1625">
<rect width="19.5" height="19.5" fill="white" transform="translate(9.75 10.5918)"/>
</clipPath>
</defs>
</svg>
