<svg width="12" height="12" viewBox="0 0 12 12" fill="none" xmlns="http://www.w3.org/2000/svg">
<path fill-rule="evenodd" clip-rule="evenodd" d="M7.24962 1.25009C7.24962 0.559736 6.68998 9.15527e-05 5.99962 9.15527e-05C5.30927 9.15527e-05 4.74962 0.559734 4.74962 1.25009V4.75004H1.25079C0.560438 4.75004 0.000793457 5.30969 0.000793457 6.00004C0.000793457 6.6904 0.560436 7.25004 1.25079 7.25004H4.74962V10.7501C4.74962 11.4404 5.30927 12.0001 5.99962 12.0001C6.68998 12.0001 7.24962 11.4405 7.24962 10.7501V7.25004H10.7508C11.4411 7.25004 12.0008 6.6904 12.0008 6.00004C12.0008 5.30969 11.4412 4.75004 10.7508 4.75004H7.24962V1.25009Z" fill="#07A279"/>
</svg>
