<svg width="14" height="18" viewBox="0 0 14 18" fill="none" xmlns="http://www.w3.org/2000/svg">
<g clip-path="url(#clip0_3215_4466)">
<path d="M2.89868 2.28159H10.6292V0.70224C10.6292 0.302123 10.3015 0 9.92854 0C9.85591 0 9.78166 0.011438 9.70759 0.0358576L2.89868 2.28159Z" fill="#2CBD53"/>
<path d="M12.0326 3.33398H1.33148C0.943918 3.33398 0.629761 3.64815 0.629761 4.03571V13.3449V17.2981C0.629761 17.6856 0.943918 17.9998 1.33148 17.9998H12.0326C12.4201 17.9998 12.7343 17.6856 12.7343 17.2981V4.03571C12.7343 3.64818 12.4201 3.33398 12.0326 3.33398ZM3.17347 9.66077H3.32593C3.55279 8.2083 4.70329 7.05781 6.15577 6.83094V6.56724C6.15577 6.27659 6.3914 6.04096 6.68205 6.04096C6.9727 6.04096 7.20834 6.27659 7.20834 6.56724V6.83094C8.66082 7.05781 9.81131 8.2083 10.0382 9.66077H10.1907C10.4813 9.66077 10.7169 9.89639 10.7169 10.1871C10.7169 10.4777 10.4813 10.7133 10.1907 10.7133H3.17347C2.88283 10.7133 2.64719 10.4777 2.64719 10.1871C2.64719 9.89639 2.88279 9.66077 3.17347 9.66077ZM6.43003 12.6615C6.43003 12.9521 6.1944 13.1878 5.90374 13.1878H3.37757C3.08692 13.1878 2.85128 12.9521 2.85128 12.6615C2.85128 12.3708 3.08692 12.1351 3.37757 12.1351H5.90374C6.1944 12.1351 6.43003 12.3708 6.43003 12.6615ZM10.0591 15.2929H3.30505C3.0144 15.2929 2.77876 15.0573 2.77876 14.7666C2.77876 14.4759 3.0144 14.2403 3.30505 14.2403H10.0591C10.3497 14.2403 10.5853 14.4759 10.5853 14.7666C10.5853 15.0573 10.3497 15.2929 10.0591 15.2929Z" fill="#2CBD53"/>
<path d="M8.96686 9.66083C8.72733 8.62072 7.79381 7.84277 6.68204 7.84277C5.57028 7.84277 4.63674 8.62076 4.39722 9.66083H8.96686Z" fill="#2CBD53"/>
</g>
<defs>
<clipPath id="clip0_3215_4466">
<rect width="12.6" height="18" fill="white" transform="translate(0.599976)"/>
</clipPath>
</defs>
</svg>
