<svg width="18" height="18" viewBox="0 0 18 18" fill="none" xmlns="http://www.w3.org/2000/svg">
<g clip-path="url(#clip0_4394_6935)">
<path d="M12.3514 0.528201C12.3579 0.143715 11.9293 -0.121385 11.5882 0.0565673L5.90143 2.89997H12.3514V0.528201Z" fill="#07A279"/>
<path d="M9.00003 8.39819C8.22881 8.39819 7.57374 8.90488 7.35016 9.60284H10.6499C10.4263 8.90484 9.77126 8.39819 9.00003 8.39819Z" fill="#07A279"/>
<path d="M14.0834 3.95459H3.91666C3.62544 3.95459 3.38934 4.19069 3.38934 4.48191V17.4727C3.38934 17.7639 3.62544 18 3.91666 18H14.0834C14.3746 18 14.6107 17.7639 14.6107 17.4727V4.48191C14.6107 4.19069 14.3746 3.95459 14.0834 3.95459ZM10.1296 15.7407H7.87035C7.17225 15.7152 7.17127 14.712 7.87035 14.6861H10.1296C10.4208 14.6861 10.6569 14.9222 10.6569 15.2134C10.6569 15.5046 10.4208 15.7407 10.1296 15.7407ZM11.8241 13.4815H6.1759C5.47875 13.4564 5.47591 12.4531 6.1759 12.4268H11.8241C12.5212 12.4519 12.5241 13.4552 11.8241 13.4815ZM11.8241 10.6574H6.1759C5.88468 10.6574 5.64858 10.4213 5.64858 10.1301C5.65017 9.79493 5.93931 9.57029 6.26411 9.60274C6.47848 8.48844 7.35836 7.60856 8.47265 7.39418C8.42024 6.57712 9.57992 6.57761 9.52729 7.39418C10.6416 7.60856 11.5215 8.48844 11.7358 9.60274C12.4965 9.54297 12.5772 10.6122 11.8241 10.6574Z" fill="#07A279"/>
</g>
<defs>
<clipPath id="clip0_4394_6935">
<rect width="18" height="18" fill="white"/>
</clipPath>
</defs>
</svg>
