<svg width="44" height="44" viewBox="0 0 44 44" fill="none" xmlns="http://www.w3.org/2000/svg">
<rect width="44" height="44" rx="12" fill="#8AFF6F"/>
<path d="M7.00001 22.1401C7.00737 14.5938 12.1237 7 22.1961 7C32.0055 7 37.113 14.6785 36.9981 21.9502C36.8641 30.3798 31.6796 34.7404 27.0351 36.3082L26.5059 33.7947C26.2287 32.4771 26.5581 31.3015 27.4179 30.4708C28.5299 29.3964 29.1913 28.0681 29.5357 26.2311C29.8998 24.2891 29.7287 22.1578 28.9207 20.0289L26.1735 11.6565H23.4184L25.6201 21.2204C25.8217 22.1731 25.154 23.0817 24.2521 23.0817L21.5768 10.3651H19.0724L21.4821 26.0586C19.9727 26.2054 19.4143 25.1447 19.2888 24.3773L17.7522 12.5247H15.2083C15.2083 12.5247 15.224 18.9101 15.224 23.271C15.224 29.6803 18.3851 31.5883 20.5682 32.1573C21.8029 32.4794 22.6276 33.5199 22.852 34.9812L23.1618 36.9999C18.4862 37.0129 6.98705 35.1269 7.00001 22.1401Z" fill="#00645A"/>
</svg>
