<svg width="44" height="44" viewBox="0 0 44 44" fill="none" xmlns="http://www.w3.org/2000/svg">
<rect width="44" height="44" rx="12" fill="#33E0A0"/>
<path d="M35.3027 18.1164L38 15.2081H32.0187C29.0244 13.1807 25.4081 12 21.4975 12C17.5915 12 13.9853 13.1833 10.996 15.2081H5L7.69694 18.1164C6.04371 19.6114 5.00738 21.7651 5.00738 24.156C5.00738 28.6684 8.69841 32.3267 13.2511 32.3267C15.4139 32.3267 17.384 31.5 18.8549 30.1485L21.4972 33L24.1394 30.1512C25.6103 31.5026 27.5783 32.3267 29.7409 32.3267C34.2935 32.3267 37.9896 28.6684 37.9896 24.156C37.992 21.7624 36.9556 19.6091 35.3024 18.1164H35.3027ZM13.2534 29.6856C10.1716 29.6856 7.67448 27.2106 7.67448 24.156C7.67448 21.1015 10.1719 18.6265 13.2534 18.6265C16.3353 18.6265 18.8324 21.1018 18.8324 24.156C18.8324 27.2103 16.3349 29.6856 13.2534 29.6856ZM21.4998 23.9952C21.4998 20.3565 18.83 17.2328 15.3063 15.8986C17.212 15.109 19.3021 14.6711 21.4975 14.6711C23.6925 14.6711 25.7853 15.109 27.691 15.8986C24.17 17.2355 21.5002 20.3565 21.5002 23.9952H21.4998ZM29.7435 29.6856C26.6617 29.6856 24.1646 27.2106 24.1646 24.156C24.1646 21.1015 26.662 18.6265 29.7435 18.6265C32.8254 18.6265 35.3225 21.1018 35.3225 24.156C35.3225 27.2103 32.825 29.6856 29.7435 29.6856ZM29.7435 21.255C28.1275 21.255 26.819 22.552 26.819 24.1537C26.819 25.7551 28.1275 27.0521 29.7435 27.0521C31.3592 27.0521 32.6678 25.7551 32.6678 24.1537C32.6678 22.5547 31.3592 21.255 29.7435 21.255ZM16.178 24.156C16.178 25.7574 14.8695 27.0544 13.2534 27.0544C11.6378 27.0544 10.3292 25.7574 10.3292 24.156C10.3292 22.5543 11.6378 21.2573 13.2534 21.2573C14.8691 21.255 16.178 22.5543 16.178 24.156Z" fill="black"/>
</svg>
