<svg width="24" height="24" viewBox="0 0 24 24" fill="none" xmlns="http://www.w3.org/2000/svg">
<path fill-rule="evenodd" clip-rule="evenodd" d="M12 24C5.38373 24 0 18.6172 0 12C0 5.38373 5.38373 0 12 0C18.6172 0 24 5.38373 24 12C24 18.6172 18.6172 24 12 24Z" fill="#4285F4"/>
<path fill-rule="evenodd" clip-rule="evenodd" d="M17.1634 8.17131C17.6575 8.66535 17.6575 9.46634 17.1634 9.96037L11.2935 15.8303C11.0563 16.0675 10.7345 16.2008 10.399 16.2008C10.0635 16.2008 9.74172 16.0675 9.50447 15.8303L6.83635 13.1621C6.34231 12.6681 6.34231 11.8671 6.83635 11.3731C7.33038 10.879 8.13138 10.879 8.62541 11.3731L10.399 13.1467L15.3744 8.17131C15.8684 7.67727 16.6694 7.67727 17.1634 8.17131Z" fill="white"/>
</svg>
