<svg width="24" height="24" viewBox="0 0 24 24" fill="none" xmlns="http://www.w3.org/2000/svg">
<path d="M6.14181 3.30004C6.16985 3.34965 6.19059 3.38635 6.20533 3.42005L6.0892 3.49993C6.09801 3.52653 6.10295 3.55737 6.10295 3.63045C6.10295 3.70356 6.09802 3.73437 6.08922 3.76096C6.07868 3.79276 6.06036 3.82638 6.01533 3.90613C5.88006 4.14567 5.66797 4.52205 5.66797 5.1712V6.17105H7.65112V5.1712C7.65112 5.09812 7.65605 5.06731 7.66486 5.04071C7.6754 5.00889 7.69372 4.97525 7.73875 4.89552C7.87401 4.65598 8.08611 4.2796 8.08611 3.63045C8.08611 2.98131 7.87402 2.60493 7.73876 2.36539L7.62569 2.44315L7.62014 2.43332C7.58821 2.37675 7.5654 2.33635 7.54936 2.29966L7.66488 2.22022C7.65606 2.19362 7.65112 2.16278 7.65112 2.0897V1.08984H5.66797V2.0897C5.66797 2.73884 5.88006 3.11521 6.01532 3.35476L6.12868 3.27679L6.14181 3.30004Z" fill="#FFA216"/>
<path d="M12.7874 2.22022C12.7979 2.25204 12.8162 2.28566 12.8612 2.36538C12.9965 2.60492 13.2086 2.9813 13.2086 3.63045C13.2086 4.2796 12.9965 4.65597 12.8612 4.89552C12.8162 4.97525 12.7979 5.00889 12.7873 5.04071C12.7785 5.06731 12.7736 5.09813 12.7736 5.1712V6.17105H10.7905V5.1712C10.7905 4.52205 11.0026 4.14567 11.1378 3.90613C11.1829 3.82638 11.2012 3.79277 11.2117 3.76096C11.2205 3.73437 11.2254 3.70356 11.2254 3.63045C11.2254 3.55737 11.2205 3.52653 11.2117 3.49993C11.2012 3.4681 11.1828 3.43448 11.1378 3.35477C11.0026 3.11522 10.7905 2.73884 10.7905 2.0897V1.08984H12.7736V2.0897C12.7736 2.16278 12.7785 2.19362 12.7874 2.22022Z" fill="#FFA216"/>
<path fill-rule="evenodd" clip-rule="evenodd" d="M16.3874 3.29991C16.4155 3.3496 16.4362 3.38632 16.451 3.42005L16.3349 3.49993C16.3437 3.52653 16.3486 3.55737 16.3486 3.63045C16.3486 3.70356 16.3437 3.73437 16.3349 3.76096C16.3244 3.79276 16.306 3.82638 16.261 3.90612C16.1257 4.14567 15.9136 4.52205 15.9136 5.1712V6.17105H17.8968V5.1712C17.8968 5.09812 17.9017 5.0673 17.9105 5.04071C17.9211 5.00889 17.9394 4.97526 17.9844 4.89553C18.1197 4.65598 18.3318 4.2796 18.3318 3.63045C18.3318 2.98131 18.1197 2.60493 17.9844 2.36539C17.9394 2.28566 17.9211 2.25204 17.9106 2.22022C17.9017 2.19362 17.8968 2.16278 17.8968 2.0897V1.08984H15.9136V2.0897C15.9136 2.73884 16.1257 3.11521 16.261 3.35476L16.38 3.28676L16.3874 3.29991ZM17.9844 2.36539L17.8714 2.44315L17.8659 2.43344L17.9844 2.36539Z" fill="#FFA216"/>
<path fill-rule="evenodd" clip-rule="evenodd" d="M2.28941 13.8684C2.28941 13.6279 2.09443 13.4329 1.85392 13.4329V13.4329C0.830029 13.4329 0 12.6029 0 11.579V10.7985C0 9.34353 1.17947 8.16406 2.63441 8.16406H21.3656C22.8205 8.16406 24 9.34353 24 10.7985V11.579C24 12.6029 23.17 13.4329 22.1461 13.4329V13.4329C21.9056 13.4329 21.7106 13.6279 21.7106 13.8684V19.4403C21.7106 21.3526 20.168 22.908 18.2717 22.908H5.7283C3.83196 22.908 2.28941 21.3526 2.28941 19.4403V13.8684Z" fill="#FFA216"/>
</svg>
