<svg width="18" height="18" viewBox="0 0 18 18" fill="none" xmlns="http://www.w3.org/2000/svg">
<path fill-rule="evenodd" clip-rule="evenodd" d="M18 9C18 13.9706 13.9706 18 9 18C4.02944 18 0 13.9706 0 9C0 4.02944 4.02944 0 9 0C13.9706 0 18 4.02944 18 9ZM8.75266 5.6636C8.40118 5.31213 7.83134 5.31213 7.47986 5.6636C7.12839 6.01508 7.12839 6.58492 7.47986 6.9364L9.54347 9L7.47986 11.0636C7.12839 11.4151 7.12839 11.9849 7.47986 12.3364C7.83134 12.6879 8.40118 12.6879 8.75266 12.3364L11.4527 9.6364C11.8041 9.28492 11.8041 8.71508 11.4527 8.3636L8.75266 5.6636Z" fill="#99A2AB"/>
</svg>
