<svg width="27" height="27" viewBox="0 0 27 27" fill="none" xmlns="http://www.w3.org/2000/svg">
<g clip-path="url(#clip0_4749_46408)">
<path d="M26.0099 8.43823H13.5005C10.7047 8.43549 8.43597 10.6997 8.43318 13.4955C8.43233 14.3639 8.65486 15.2179 9.07941 15.9754L2.82471 5.24336C7.38038 -0.652871 15.8534 -1.73957 21.7496 2.8161C23.6431 4.27915 25.1135 6.21953 26.0099 8.43823Z" fill="#F44336"/>
<path d="M27 13.5003C26.9937 20.9532 20.9535 26.9935 13.5005 26.9997C12.9361 27.0018 12.3722 26.9642 11.8131 26.8872L17.8879 16.0314C19.2801 13.6076 18.4502 10.5143 16.0317 9.11296C15.266 8.66965 14.3966 8.43673 13.5118 8.43799H26.01C26.6669 10.0447 27.0032 11.7644 27 13.5003Z" fill="#FFC107"/>
<path d="M17.8878 16.0314L11.813 26.8872H11.8018C4.40941 25.9532 -0.826136 19.2033 0.107853 11.8109C0.410166 9.41822 1.34832 7.15027 2.82471 5.24316L9.07941 15.9752L9.11316 16.0314C10.508 18.4545 13.6029 19.288 16.026 17.8933C16.8 17.4477 17.4423 16.8054 17.8878 16.0314Z" fill="#4CAF50"/>
<path d="M17.8879 16.0314C16.4931 18.4545 13.3981 19.288 10.9751 17.8932C10.2011 17.4477 9.55879 16.8054 9.11325 16.0314L9.0795 15.9752C7.71264 13.5363 8.58177 10.4511 11.0207 9.08422C11.7782 8.65968 12.6322 8.43715 13.5006 8.43799H13.5118C14.3966 8.43673 15.266 8.66964 16.0317 9.11296C18.4503 10.5144 19.2802 13.6077 17.8879 16.0314Z" fill="#F44336"/>
<path d="M17.8879 16.0314C16.4931 18.4545 13.3981 19.288 10.9751 17.8932C10.2011 17.4477 9.55879 16.8054 9.11325 16.0314L9.0795 15.9752C7.71264 13.5363 8.58177 10.4511 11.0207 9.08422C11.7782 8.65968 12.6322 8.43715 13.5006 8.43799H13.5118C14.3966 8.43673 15.266 8.66964 16.0317 9.11296C18.4503 10.5144 19.2802 13.6077 17.8879 16.0314Z" fill="#2196F3"/>
<path d="M13.4814 19.1252C12.5007 19.1251 11.5373 18.8667 10.6881 18.376C9.83191 17.8808 9.12082 17.1693 8.62609 16.3129C7.07287 13.6226 7.99462 10.1825 10.6849 8.62933C11.5409 8.13512 12.5121 7.87521 13.5005 7.87573C16.607 7.87331 19.1272 10.3897 19.1296 13.4961C19.1304 14.485 18.8704 15.4565 18.376 16.3129C17.3623 18.0556 15.4975 19.1271 13.4814 19.1252ZM13.5106 9.00067C11.8963 8.99207 10.4018 9.85123 9.59688 11.2506C8.35431 13.4052 9.09366 16.1592 11.2483 17.4018C13.4029 18.6444 16.157 17.905 17.3995 15.7504C18.6421 13.5982 17.9047 10.8462 15.7525 9.60355C15.0711 9.21017 14.2985 9.0023 13.5117 9.00072H13.5106V9.00067Z" fill="#FAFAFA"/>
</g>
<defs>
<clipPath id="clip0_4749_46408">
<rect width="27" height="27" fill="white"/>
</clipPath>
</defs>
</svg>
