<svg width="91" height="90" viewBox="0 0 91 90" fill="none" xmlns="http://www.w3.org/2000/svg">
<g clip-path="url(#clip0_4737_47857)">
<path d="M88.2119 50.6549C87.5372 50.754 86.8475 50.8064 86.1452 50.8064C79.6796 50.8064 74.2076 46.5769 72.3306 40.735C72.0096 39.7364 71.1942 38.9675 70.1637 38.7714C59.4263 36.727 51.3064 27.3004 51.3064 15.9678C51.3064 11.2082 52.7433 6.78709 55.2009 3.10465C55.7852 2.22908 55.2976 1.06295 54.265 0.858516C51.43 0.29707 48.4999 0 45.5 0C20.6472 0.000175781 0.500061 20.1472 0.500061 45C0.500061 69.8527 20.6472 90 45.5 90C67.8986 90 86.4196 73.6959 89.9031 52.2759C90.0611 51.304 89.1859 50.512 88.2119 50.6549Z" fill="#F5B97D"/>
<path d="M25.1783 36.2901C28.3849 36.2901 30.9844 33.6906 30.9844 30.484C30.9844 27.2774 28.3849 24.678 25.1783 24.678C21.9717 24.678 19.3723 27.2774 19.3723 30.484C19.3723 33.6906 21.9717 36.2901 25.1783 36.2901Z" fill="#CD916E"/>
<path d="M28.0805 63.8709C30.4855 63.8709 32.4353 61.9212 32.4353 59.5161C32.4353 57.111 30.4855 55.1613 28.0805 55.1613C25.6754 55.1613 23.7256 57.111 23.7256 59.5161C23.7256 61.9212 25.6754 63.8709 28.0805 63.8709Z" fill="#CD916E"/>
<path d="M71.6308 59.5162C71.0978 59.5162 70.5859 59.2228 70.3309 58.7137L68.8793 55.8105C68.5207 55.0932 68.8112 54.2215 69.5286 53.8627C70.2446 53.5055 71.1163 53.7947 71.4764 54.5121L72.928 57.4153C73.2866 58.1326 72.9961 59.0043 72.2787 59.3631C72.0702 59.4666 71.8491 59.5162 71.6308 59.5162Z" fill="#A06E50"/>
<path d="M55.663 50.8064C55.13 50.8064 54.6181 50.513 54.3631 50.004C54.0045 49.2866 54.2951 48.4149 55.0124 48.0561L57.9156 46.6045C58.633 46.2488 59.5033 46.5365 59.8635 47.2539C60.2221 47.9712 59.9315 48.8429 59.2141 49.2017L56.3109 50.6533C56.1024 50.7568 55.8813 50.8064 55.663 50.8064Z" fill="#B67F5F"/>
<path d="M16.4696 47.9033C15.9366 47.9033 15.4247 47.6099 15.1697 47.1008L13.7181 44.1976C13.3595 43.4803 13.65 42.6086 14.3674 42.2498C15.0834 41.894 15.9551 42.1818 16.3152 42.8991L17.7668 45.8023C18.1254 46.5197 17.8349 47.3914 17.1175 47.7502C16.909 47.8537 16.6879 47.9033 16.4696 47.9033Z" fill="#B67F5F"/>
<path d="M35.3406 74.0322C34.8076 74.0322 34.2958 73.7389 34.0407 73.2298C33.6821 72.5124 33.9727 71.6407 34.69 71.282L37.5932 69.8304C38.3106 69.4732 39.1809 69.7623 39.5411 70.4797C39.8997 71.1971 39.6091 72.0688 38.8917 72.4275L35.9885 73.8791C35.7801 73.9827 35.5589 74.0322 35.3406 74.0322Z" fill="#B67F5F"/>
<path d="M38.2423 17.4194C37.8709 17.4194 37.4995 17.2777 37.216 16.9942L35.7644 15.5426C35.1973 14.9755 35.1973 14.0569 35.7644 13.49C36.3314 12.9229 37.2501 12.9229 37.817 13.49L39.2686 14.9414C39.8356 15.5085 39.8356 16.4271 39.2686 16.994C38.9852 17.2777 38.6138 17.4194 38.2423 17.4194Z" fill="#B67F5F"/>
<path d="M35.3391 50.8064C34.9677 50.8064 34.5963 50.6647 34.3128 50.3812L32.8612 48.9296C32.2941 48.3625 32.2941 47.4439 32.8612 46.877C33.4282 46.3099 34.3469 46.3099 34.9138 46.877L36.3654 48.3286C36.9324 48.8956 36.9324 49.8143 36.3654 50.3812C36.0818 50.6647 35.7106 50.8064 35.3391 50.8064Z" fill="#A06E50"/>
<path d="M51.3068 81.2903C50.5043 81.2903 49.8552 80.641 49.8552 79.8387V78.3871C49.8552 77.5847 50.5045 76.9355 51.3068 76.9355C52.109 76.9355 52.7584 77.5849 52.7584 78.3871V79.8387C52.7584 80.641 52.1092 81.2903 51.3068 81.2903Z" fill="#A06E50"/>
<path d="M42.5971 26.1291C42.2257 26.1291 41.8543 25.9875 41.5707 25.7039C41.0037 25.1368 41.0037 24.2182 41.5707 23.6513L43.0224 22.1997C43.5894 21.6326 44.5081 21.6326 45.0749 22.1997C45.642 22.7668 45.642 23.6854 45.0749 24.2523L43.6233 25.7039C43.34 25.9873 42.9686 26.1291 42.5971 26.1291Z" fill="#A06E50"/>
<path d="M64.1931 11.7659L63.7767 14.2646C63.4345 16.3183 64.5937 18.3271 66.5432 19.0582L70.2302 20.4409C72.6656 21.354 75.3533 19.9429 75.984 17.4195L77.2983 12.1626C78.1175 8.88622 75.0569 5.96474 71.8222 6.93523L67.2373 8.31072C65.6468 8.78761 64.4661 10.1278 64.1931 11.7659Z" fill="#F5B97D"/>
<path d="M78.8874 27.5807L77.1343 28.4573C75.7594 29.1448 75.1587 30.7849 75.7643 32.1976L77.1747 35.4886C78.0287 37.4811 80.6858 37.8688 82.0736 36.2035L84.3426 33.4806C85.4064 32.2039 85.1837 30.2965 83.8543 29.2995L81.928 27.8548C81.0481 27.1951 79.8711 27.0889 78.8874 27.5807Z" fill="#F5B97D"/>
<path d="M87.5964 21.775C89.1998 21.775 90.4996 20.4752 90.4996 18.8718C90.4996 17.2684 89.1998 15.9686 87.5964 15.9686C85.993 15.9686 84.6932 17.2684 84.6932 18.8718C84.6932 20.4752 85.993 21.775 87.5964 21.775Z" fill="#F5B97D"/>
<path d="M50.944 84.5565C26.0911 84.5565 5.94396 64.4093 5.94396 39.5565C5.94396 28.516 9.92066 18.4042 16.5186 10.5747C6.72337 18.8296 0.500366 31.1877 0.500366 45.0001C0.500366 69.8527 20.6475 90.0001 45.5004 90.0001C59.3213 90.0001 71.6654 83.7924 79.9118 74.0054C72.091 80.5923 61.9885 84.5565 50.944 84.5565Z" fill="#E3AA75"/>
<path d="M70.876 17.0717C68.4411 16.1585 66.993 13.6496 67.4205 11.0846L67.9169 8.10669L67.2375 8.3106C65.647 8.78784 64.4663 10.128 64.1931 11.7659L63.7767 14.2647C63.4345 16.3183 64.5937 18.3271 66.5432 19.0582L70.2302 20.4409C72.1856 21.1741 74.3021 20.4107 75.3876 18.7745L70.876 17.0717Z" fill="#E3AA75"/>
<path d="M89.2302 20.1412C87.6269 20.1412 86.327 18.8413 86.327 17.238C86.327 16.8618 86.3992 16.5001 86.5295 16.1703C85.4532 16.5952 84.694 17.6439 84.694 18.8712C84.694 20.4745 85.9939 21.7744 87.5972 21.7744C88.8245 21.7744 89.873 21.0152 90.2979 19.9389C89.9679 20.0689 89.6063 20.1412 89.2302 20.1412Z" fill="#E3AA75"/>
<path d="M80.272 33.618L78.6745 29.8907C78.3745 29.1908 78.3495 28.4453 78.5312 27.7587L77.1341 28.4572C75.7592 29.1447 75.1585 30.7847 75.7641 32.1977L77.1746 35.4886C78.0285 37.4811 80.6856 37.8689 82.0732 36.2037L82.6371 35.527C81.6396 35.3231 80.7275 34.6806 80.272 33.618Z" fill="#E3AA75"/>
<path d="M28.2625 33.2057C25.0558 33.2057 22.4561 30.6061 22.4561 27.3993C22.4561 26.5962 22.6194 25.8314 22.9142 25.1356C20.8321 26.018 19.3713 28.0801 19.3713 30.4839C19.3713 33.6907 21.971 36.2903 25.1777 36.2903C27.5814 36.2903 29.6436 34.8296 30.5259 32.7475C29.8303 33.0423 29.0655 33.2057 28.2625 33.2057Z" fill="#B67F5F"/>
<path d="M30.3492 61.6028C27.9442 61.6028 25.9944 59.6531 25.9944 57.248C25.9944 56.6339 26.1245 56.051 26.3541 55.521C24.8091 56.19 23.7263 57.7253 23.7263 59.5162C23.7263 61.9212 25.6761 63.871 28.0811 63.871C29.872 63.871 31.4073 62.7881 32.0763 61.2432C31.5463 61.4726 30.9634 61.6028 30.3492 61.6028Z" fill="#B67F5F"/>
<path d="M55.6623 69.6779C58.8689 69.6779 61.4683 67.0784 61.4683 63.8719C61.4683 60.6653 58.8689 58.0658 55.6623 58.0658C52.4557 58.0658 49.8562 60.6653 49.8562 63.8719C49.8562 67.0784 52.4557 69.6779 55.6623 69.6779Z" fill="#CD916E"/>
<path d="M58.7464 66.5928C55.5396 66.5928 52.94 63.9932 52.94 60.7864C52.94 59.9833 53.1033 59.2184 53.398 58.5227C51.3159 59.4051 49.8552 61.4672 49.8552 63.871C49.8552 67.0778 52.4548 69.6774 55.6616 69.6774C58.0652 69.6774 60.1275 68.2167 61.0097 66.1346C60.3143 66.4293 59.5493 66.5928 58.7464 66.5928Z" fill="#B67F5F"/>
<path d="M43.9887 40.6451C45.592 40.6451 46.8919 39.3453 46.8919 37.7419C46.8919 36.1386 45.592 34.8387 43.9887 34.8387C42.3853 34.8387 41.0854 36.1386 41.0854 37.7419C41.0854 39.3453 42.3853 40.6451 43.9887 40.6451Z" fill="#CD916E"/>
<path d="M45.5306 39.1029C43.9271 39.1029 42.6274 37.803 42.6274 36.1997C42.6274 35.7981 42.7091 35.4157 42.8564 35.0679C41.8155 35.5091 41.0851 36.5402 41.0851 37.742C41.0851 39.3453 42.3848 40.6452 43.9883 40.6452C45.1901 40.6452 46.2212 39.9149 46.6624 38.8739C46.3146 39.0212 45.9321 39.1029 45.5306 39.1029Z" fill="#B67F5F"/>
</g>
<defs>
<clipPath id="clip0_4737_47857">
<rect width="90" height="90" fill="white" transform="translate(0.5)"/>
</clipPath>
</defs>
</svg>
