<svg width="198" height="198" viewBox="0 0 198 198" fill="none" xmlns="http://www.w3.org/2000/svg">
<path d="M0 32C0 14.3269 14.3269 0 32 0H166C183.673 0 198 14.3269 198 32V166C198 183.673 183.673 198 166 198H32C14.3269 198 0 183.673 0 166V32Z" fill="#FCCE00"/>
<path d="M34.5151 76C40.9035 76.039 46.5864 78.1824 51.5639 82.4303C56.5414 86.6393 59.0301 92.0759 59.0301 98.74C59.0301 105.872 56.7178 111.698 52.093 116.219C47.5075 120.74 41.6481 123 34.5151 123C27.4212 123 21.5619 120.74 16.9371 116.219C12.3124 111.698 10 105.872 10 98.74C10 92.0759 12.4887 86.6393 17.4662 82.4303C22.4437 78.1824 28.1266 76.0585 34.5151 76.0585V76ZM34.5151 87.107C31.0661 87.1459 28.107 88.3541 25.6379 90.7313C23.208 93.0696 21.993 95.7587 21.993 98.7985C21.993 102.579 23.208 105.716 25.6379 108.21C28.107 110.704 31.0661 111.951 34.5151 111.951C37.964 111.951 40.9035 110.704 43.3334 108.21C45.8026 105.716 47.0371 102.579 47.0371 98.7985C47.0371 95.7587 45.8026 93.0696 43.3334 90.7313C40.9035 88.3541 37.964 87.1654 34.5151 87.1654V87.107Z" fill="white"/>
<path d="M78.8843 113.296H97.4617V123H59.4839L80.4716 85.7624H63.07V76.0585H99.7544L78.8843 113.296Z" fill="white"/>
<path d="M118.686 113.296H137.264V123H99.286L120.274 85.7624H102.872V76.0585H139.557L118.686 113.296Z" fill="white"/>
<path d="M164.485 76C170.873 76.039 176.556 78.1824 181.534 82.4303C186.511 86.6393 189 92.0759 189 98.74C189 105.872 186.688 111.698 182.063 116.219C177.477 120.74 171.618 123 164.485 123C157.391 123 151.532 120.74 146.907 116.219C142.282 111.698 139.97 105.872 139.97 98.74C139.97 92.0759 142.459 86.6393 147.436 82.4303C152.414 78.1824 158.097 76.0585 164.485 76.0585V76ZM164.485 87.107C161.036 87.1459 158.077 88.3541 155.608 90.7313C153.178 93.0696 151.963 95.7587 151.963 98.7985C151.963 102.579 153.178 105.716 155.608 108.21C158.077 110.704 161.036 111.951 164.485 111.951C167.934 111.951 170.873 110.704 173.303 108.21C175.772 105.716 177.007 102.579 177.007 98.7985C177.007 95.7587 175.772 93.0696 173.303 90.7313C170.873 88.3541 167.934 87.1654 164.485 87.1654V87.107Z" fill="white"/>
</svg>
