<svg width="18" height="18" viewBox="0 0 18 18" fill="none" xmlns="http://www.w3.org/2000/svg">
<g clip-path="url(#clip0_6042_8191)">
<path d="M12.3514 0.528201C12.3579 0.143715 11.9293 -0.121385 11.5883 0.0565673L5.90149 2.89997H12.3514V0.528201Z" fill="#001921"/>
<path d="M9.0001 8.39819C8.22887 8.39819 7.5738 8.90488 7.35022 9.60284H10.65C10.4264 8.90484 9.77132 8.39819 9.0001 8.39819Z" fill="#001921"/>
<path d="M14.0834 3.95459H3.91672C3.6255 3.95459 3.3894 4.19069 3.3894 4.48191V17.4727C3.3894 17.7639 3.6255 18 3.91672 18H14.0834C14.3746 18 14.6107 17.7639 14.6107 17.4727V4.48191C14.6107 4.19069 14.3746 3.95459 14.0834 3.95459ZM10.1297 15.7407H7.87041C7.17231 15.7152 7.17133 14.712 7.87041 14.6861H10.1297C10.4209 14.6861 10.657 14.9222 10.657 15.2134C10.657 15.5046 10.4209 15.7407 10.1297 15.7407ZM11.8241 13.4815H6.17596C5.47881 13.4564 5.47597 12.4531 6.17596 12.4268H11.8241C12.5213 12.4519 12.5241 13.4552 11.8241 13.4815ZM11.8241 10.6574H6.17596C5.88474 10.6574 5.64865 10.4213 5.64865 10.1301C5.65023 9.79493 5.93937 9.57029 6.26417 9.60274C6.47854 8.48844 7.35842 7.60856 8.47271 7.39418C8.4203 6.57712 9.57998 6.57761 9.52735 7.39418C10.6416 7.60856 11.5215 8.48844 11.7359 9.60274C12.4965 9.54297 12.5772 10.6122 11.8241 10.6574Z" fill="#001921"/>
</g>
<defs>
<clipPath id="clip0_6042_8191">
<rect width="18" height="18" fill="white"/>
</clipPath>
</defs>
</svg>
