<svg width="16" height="16" viewBox="0 0 16 16" fill="none" xmlns="http://www.w3.org/2000/svg">
<path d="M0.878858 4.98093L14.2178 0.100461C14.4533 0.0131976 14.7089 -0.00467471 14.9542 0.0489654C15.1995 0.102606 15.4243 0.225506 15.6019 0.403081C15.7795 0.580655 15.9024 0.805449 15.956 1.05078C16.0096 1.29611 15.9918 1.55169 15.9045 1.78717L11.0191 15.1211C10.9296 15.3675 10.7683 15.5815 10.5561 15.7355C10.3439 15.8894 10.0905 15.9763 9.82844 15.9849C9.56642 15.9935 9.30782 15.9234 9.08599 15.7837C8.86415 15.644 8.68925 15.441 8.58381 15.201L6.18849 9.8065L0.794024 7.41118C0.55399 7.30575 0.351035 7.13084 0.211314 6.90901C0.0715943 6.68717 0.00151343 6.42858 0.0101045 6.16655C0.0186956 5.90452 0.105565 5.65107 0.259516 5.43886C0.413467 5.22666 0.627444 5.06542 0.873868 4.97594L0.878858 4.98093Z" fill="#001921"/>
</svg>
