<svg width="16" height="16" viewBox="0 0 16 16" fill="none" xmlns="http://www.w3.org/2000/svg">
<path d="M9.74854 6.75123C9.74854 7.71529 8.96431 8.49952 8.00025 8.49952C7.03619 8.49952 6.25196 7.71529 6.25196 6.75123C6.25196 5.78717 7.03619 5.00293 8.00025 5.00293C8.96431 5.00293 9.74854 5.78717 9.74854 6.75123ZM14.7437 6.75123C14.7437 12.6412 8.59691 15.7824 8.33542 15.913C8.22977 15.966 8.11489 15.9922 8.00025 15.9922C7.88561 15.9922 7.77072 15.966 7.66508 15.913C7.40358 15.7824 1.25684 12.6412 1.25684 6.75123C1.25684 3.03286 4.28188 0.0078125 8.00025 0.0078125C11.7186 0.0078125 14.7437 3.03286 14.7437 6.75123ZM11.2471 6.75123C11.2471 4.96098 9.7905 3.5044 8.00025 3.5044C6.21 3.5044 4.75342 4.96098 4.75342 6.75123C4.75342 8.54148 6.21 9.99806 8.00025 9.99806C9.7905 9.99806 11.2471 8.54148 11.2471 6.75123Z" fill="#001921"/>
</svg>
