<svg width="64" height="8" viewBox="0 0 64 8" fill="none" xmlns="http://www.w3.org/2000/svg">
<path d="M0 1.02849H1.54906L3.18514 5.02007H3.25476L4.89085 1.02849H6.4399V6.96945H5.22154V3.1026H5.17223L3.63477 6.94044H2.80513L1.26767 3.0881H1.21836V6.96945H0V1.02849Z" fill="#99A2AB"/>
<path d="M9.92543 6.96945V1.02849H13.9286V2.0641H11.1815V3.47972H13.7227V4.51532H11.1815V5.93384H13.9402V6.96945H9.92543Z" fill="#99A2AB"/>
<path d="M17.3779 6.96945V1.02849H19.7218C20.1704 1.02849 20.5534 1.10875 20.8705 1.26926C21.1896 1.42784 21.4323 1.65314 21.5986 1.94516C21.7669 2.23525 21.851 2.57658 21.851 2.96916C21.851 3.36368 21.7659 3.70308 21.5957 3.98737C21.4255 4.26972 21.179 4.48631 20.856 4.63716C20.535 4.788 20.1463 4.86343 19.6899 4.86343H18.1205V3.85393H19.4868C19.7266 3.85393 19.9258 3.82105 20.0844 3.7553C20.243 3.68954 20.3609 3.59092 20.4383 3.45941C20.5176 3.3279 20.5572 3.16449 20.5572 2.96916C20.5572 2.77191 20.5176 2.60559 20.4383 2.47022C20.3609 2.33484 20.242 2.23235 20.0815 2.16273C19.9229 2.09117 19.7227 2.05539 19.481 2.05539H18.6339V6.96945H17.3779ZM20.5862 4.26585L22.0628 6.96945H20.6762L19.2315 4.26585H20.5862Z" fill="#99A2AB"/>
<path d="M30.4312 3.10841H29.1606C29.1374 2.94402 29.09 2.79801 29.0184 2.67038C28.9469 2.5408 28.855 2.43057 28.7429 2.33968C28.6307 2.24878 28.5011 2.17916 28.3541 2.13082C28.2091 2.08247 28.0515 2.05829 27.8813 2.05829C27.5738 2.05829 27.306 2.13468 27.0778 2.28746C26.8496 2.43831 26.6726 2.65877 26.5469 2.94886C26.4212 3.23701 26.3584 3.58705 26.3584 3.99897C26.3584 4.42249 26.4212 4.77833 26.5469 5.06649C26.6745 5.35464 26.8525 5.5722 27.0807 5.71918C27.3089 5.86616 27.5728 5.93964 27.8726 5.93964C28.0409 5.93964 28.1965 5.9174 28.3396 5.87292C28.4847 5.82844 28.6133 5.76366 28.7255 5.67857C28.8376 5.59154 28.9305 5.48614 29.0039 5.36237C29.0794 5.2386 29.1316 5.09743 29.1606 4.93885L30.4312 4.94465C30.3983 5.21733 30.3161 5.48034 30.1846 5.73368C30.055 5.98509 29.88 6.21039 29.6595 6.40958C29.441 6.60684 29.1799 6.76349 28.8763 6.87952C28.5746 6.99362 28.2333 7.05067 27.8523 7.05067C27.3224 7.05067 26.8486 6.93077 26.4309 6.69097C26.0151 6.45116 25.6863 6.10403 25.4446 5.64956C25.2048 5.19509 25.0849 4.64489 25.0849 3.99897C25.0849 3.35111 25.2067 2.79995 25.4504 2.34548C25.6941 1.89101 26.0248 1.54484 26.4425 1.30697C26.8602 1.06717 27.3301 0.947266 27.8523 0.947266C28.1965 0.947266 28.5156 0.995613 28.8096 1.09231C29.1055 1.189 29.3675 1.33018 29.5957 1.51583C29.8239 1.69955 30.0096 1.92486 30.1527 2.19173C30.2977 2.45861 30.3905 2.76417 30.4312 3.10841Z" fill="#99A2AB"/>
<path d="M33.7825 6.96945V1.02849H35.0386V3.47972H37.5884V1.02849H38.8416V6.96945H37.5884V4.51532H35.0386V6.96945H33.7825Z" fill="#99A2AB"/>
<path d="M43.3519 6.96945H42.0059L44.0568 1.02849H45.6755L47.7235 6.96945H46.3775L44.8893 2.38609H44.8429L43.3519 6.96945ZM43.2677 4.63426H46.4471V5.61475H43.2677V4.63426Z" fill="#99A2AB"/>
<path d="M55.8583 1.02849V6.96945H54.7734L52.1888 3.23024H52.1452V6.96945H50.8892V1.02849H51.9915L54.5559 4.7648H54.6081V1.02849H55.8583Z" fill="#99A2AB"/>
<path d="M59.1205 2.0641V1.02849H63.9997V2.0641H62.1809V6.96945H60.9393V2.0641H59.1205Z" fill="#99A2AB"/>
</svg>
