<svg width="125" height="31" viewBox="0 0 125 31" fill="none" xmlns="http://www.w3.org/2000/svg">
<path d="M32.6015 15.1875C32.6015 11.3568 31.1381 7.31092 28.0821 4.42714C25.1553 1.62943 21.0233 0.166016 16.7622 0.166016C12.501 0.166016 8.36905 1.62943 5.44222 4.42714C2.38627 7.31092 0.922852 11.3568 0.922852 15.1875C0.922852 18.9752 2.38627 22.9781 5.44222 25.9049C8.36905 28.7026 12.501 30.166 16.7622 30.166C21.0233 30.166 25.1553 28.7026 28.0821 25.9049C31.1381 22.9781 32.6015 18.9752 32.6015 15.1875ZM16.7622 7.39701C18.7421 7.39701 20.9372 8.17175 22.5297 9.67821C23.864 10.9695 24.854 12.9494 24.854 15.1875C24.854 17.3827 23.864 19.3626 22.5297 20.6969C21.1954 22.0312 19.3016 22.935 16.7622 22.935C14.2658 22.935 12.3289 21.9881 10.9515 20.6538C9.87551 19.6208 8.67034 17.8561 8.67034 15.3167C8.67034 13.2937 9.40205 11.1847 10.9515 9.67821C12.501 8.12871 14.6962 7.39701 16.7622 7.39701Z" fill="#07A279"/>
<path d="M37.3535 0.81164V29.5204H44.7997V18.5017L51.9446 29.5204H61.1986L52.2029 17.77C53.5372 17.5118 55.0436 16.8662 56.1627 15.7901C57.5831 14.4128 58.4439 12.2607 58.4439 9.80734C58.4439 7.52613 57.6261 5.02972 55.9906 3.3511C53.8815 1.15597 51.1269 0.81164 48.9748 0.81164H37.3535ZM44.7997 6.57922H46.2201C47.8557 6.57922 49.1039 7.00963 49.7926 7.6983C50.4382 8.30088 50.7825 9.2478 50.7825 10.1086C50.7825 11.0125 50.3951 11.9594 49.8356 12.519C48.9317 13.3798 47.3392 13.6811 46.2201 13.6811H44.7997V6.57922Z" fill="#07A279"/>
<path d="M74.7547 29.5204C79.6614 29.5204 83.4921 27.4544 85.7733 25.1732C88.571 22.3755 89.518 19.0182 89.518 15.2306C89.518 12.1316 88.8723 7.99959 85.5151 4.77147C81.8135 1.19901 76.9928 0.81164 74.109 0.81164H64.3386V29.5204H74.7547ZM71.7848 7.13875H73.5926C75.4433 7.13875 77.7676 7.31092 79.5323 8.9465C80.9527 10.2808 81.7705 12.562 81.7705 15.2306C81.7705 18.4157 80.5222 20.2234 79.5753 21.1273C77.6385 23.0211 75.099 23.1933 73.2913 23.1933H71.7848V7.13875Z" fill="#07A279"/>
<path d="M124.653 15.1875C124.653 11.3568 123.19 7.31092 120.134 4.42714C117.207 1.62943 113.075 0.166016 108.814 0.166016C104.553 0.166016 100.421 1.62943 97.4941 4.42714C94.4381 7.31092 92.9747 11.3568 92.9747 15.1875C92.9747 18.9752 94.4381 22.9781 97.4941 25.9049C100.421 28.7026 104.553 30.166 108.814 30.166C113.075 30.166 117.207 28.7026 120.134 25.9049C123.19 22.9781 124.653 18.9752 124.653 15.1875ZM108.814 7.39701C110.794 7.39701 112.989 8.17175 114.582 9.67821C115.916 10.9695 116.906 12.9494 116.906 15.1875C116.906 17.3827 115.916 19.3626 114.582 20.6969C113.247 22.0312 111.353 22.935 108.814 22.935C106.318 22.935 104.381 21.9881 103.003 20.6538C101.927 19.6208 100.722 17.8561 100.722 15.3167C100.722 13.2937 101.454 11.1847 103.003 9.67821C104.553 8.12871 106.748 7.39701 108.814 7.39701Z" fill="#07A279"/>
</svg>
