<svg width="109" height="48" viewBox="0 0 109 48" fill="none" xmlns="http://www.w3.org/2000/svg">
<path d="M0 46.7016V36.5077H7.02193V38.2846H2.24225V40.7137H6.55587V42.4907H2.24225V46.7016H0Z" fill="#99A2AB"/>
<path d="M10.5717 46.7016V36.5077H14.7558C15.5568 36.5077 16.2403 36.6454 16.8065 36.9208C17.3761 37.1929 17.8094 37.5795 18.1063 38.0806C18.4066 38.5783 18.5568 39.164 18.5568 39.8376C18.5568 40.5146 18.4049 41.0969 18.1011 41.5847C17.7973 42.0692 17.3571 42.4409 16.7806 42.6997C16.2075 42.9585 15.5136 43.088 14.6989 43.088H11.8973V41.3558H14.3364C14.7645 41.3558 15.12 41.2994 15.4031 41.1865C15.6862 41.0737 15.8968 40.9045 16.0349 40.6788C16.1764 40.4532 16.2472 40.1728 16.2472 39.8376C16.2472 39.4992 16.1764 39.2138 16.0349 38.9815C15.8968 38.7492 15.6845 38.5733 15.398 38.4539C15.1149 38.3311 14.7576 38.2697 14.326 38.2697H12.8139V46.7016H10.5717ZM16.299 42.0626L18.9348 46.7016H16.4595L13.8807 42.0626H16.299Z" fill="#99A2AB"/>
<path d="M31.9287 41.6046C31.9287 42.7163 31.7095 43.662 31.271 44.4418C30.836 45.2217 30.2422 45.8173 29.4897 46.2288C28.7405 46.6369 27.8982 46.841 26.9626 46.841C26.0201 46.841 25.1743 46.6353 24.4252 46.2238C23.676 45.8123 23.084 45.2167 22.649 44.4369C22.214 43.6571 21.9965 42.713 21.9965 41.6046C21.9965 40.493 22.214 39.5473 22.649 38.7675C23.084 37.9876 23.676 37.3937 24.4252 36.9855C25.1743 36.574 26.0201 36.3683 26.9626 36.3683C27.8982 36.3683 28.7405 36.574 29.4897 36.9855C30.2422 37.3937 30.836 37.9876 31.271 38.7675C31.7095 39.5473 31.9287 40.493 31.9287 41.6046ZM29.6554 41.6046C29.6554 40.8846 29.5432 40.2773 29.3188 39.7829C29.0978 39.2884 28.7854 38.9135 28.3815 38.658C27.9776 38.4024 27.5046 38.2747 26.9626 38.2747C26.4206 38.2747 25.9476 38.4024 25.5437 38.658C25.1398 38.9135 24.8256 39.2884 24.6012 39.7829C24.3803 40.2773 24.2698 40.8846 24.2698 41.6046C24.2698 42.3247 24.3803 42.932 24.6012 43.4264C24.8256 43.9209 25.1398 44.2958 25.5437 44.5513C25.9476 44.8069 26.4206 44.9346 26.9626 44.9346C27.5046 44.9346 27.9776 44.8069 28.3815 44.5513C28.7854 44.2958 29.0978 43.9209 29.3188 43.4264C29.5432 42.932 29.6554 42.3247 29.6554 41.6046Z" fill="#99A2AB"/>
<path d="M35.6312 36.5077H38.3965L41.3171 43.3567H41.4414L44.362 36.5077H47.1273V46.7016H44.9523V40.0666H44.8643L42.1198 46.6519H40.6387L37.8942 40.0417H37.8061V46.7016H35.6312V36.5077Z" fill="#99A2AB"/>
<path d="M70.5018 41.6133C70.5018 40.0532 69.9058 38.4054 68.6612 37.2309C67.4692 36.0915 65.7864 35.4955 64.0509 35.4955C62.3155 35.4955 60.6326 36.0915 59.4406 37.2309C58.196 38.4054 57.6 40.0532 57.6 41.6133C57.6 43.156 58.196 44.7862 59.4406 45.9782C60.6326 47.1177 62.3155 47.7137 64.0509 47.7137C65.7864 47.7137 67.4692 47.1177 68.6612 45.9782C69.9058 44.7862 70.5018 43.156 70.5018 41.6133ZM64.0509 38.4405C64.8573 38.4405 65.7513 38.756 66.3999 39.3695C66.9433 39.8954 67.3465 40.7018 67.3465 41.6133C67.3465 42.5074 66.9433 43.3137 66.3999 43.8571C65.8565 44.4006 65.0852 44.7687 64.0509 44.7687C63.0342 44.7687 62.2454 44.383 61.6844 43.8396C61.2462 43.4189 60.7553 42.7002 60.7553 41.6659C60.7553 40.842 61.0533 39.9831 61.6844 39.3695C62.3155 38.7385 63.2095 38.4405 64.0509 38.4405Z" fill="#07A279"/>
<path d="M72.4372 35.7584V47.4507H75.4699V42.9631L78.3798 47.4507H82.1487L78.485 42.6651C79.0284 42.5599 79.6419 42.297 80.0977 41.8588C80.6762 41.2978 81.0268 40.4213 81.0268 39.4221C81.0268 38.4931 80.6937 37.4763 80.0276 36.7927C79.1686 35.8987 78.0467 35.7584 77.1702 35.7584H72.4372ZM75.4699 38.1074H76.0483C76.7145 38.1074 77.2228 38.2827 77.5033 38.5632C77.7662 38.8086 77.9065 39.1942 77.9065 39.5448C77.9065 39.913 77.7487 40.2986 77.5208 40.5265C77.1527 40.8771 76.5041 40.9998 76.0483 40.9998H75.4699V38.1074Z" fill="#07A279"/>
<path d="M87.6697 47.4507C89.6681 47.4507 91.2282 46.6093 92.1573 45.6802C93.2967 44.5408 93.6824 43.1735 93.6824 41.6309C93.6824 40.3687 93.4194 38.6859 92.0521 37.3712C90.5445 35.9162 88.5812 35.7584 87.4067 35.7584H83.4275V47.4507H87.6697ZM86.4601 38.3353H87.1964C87.9502 38.3353 88.8968 38.4054 89.6155 39.0715C90.194 39.615 90.527 40.544 90.527 41.6309C90.527 42.9281 90.0187 43.6643 89.633 44.0324C88.8442 44.8037 87.8099 44.8739 87.0737 44.8739H86.4601V38.3353Z" fill="#07A279"/>
<path d="M107.992 41.6133C107.992 40.0532 107.396 38.4054 106.151 37.2309C104.959 36.0915 103.277 35.4955 101.541 35.4955C99.8057 35.4955 98.1228 36.0915 96.9308 37.2309C95.6862 38.4054 95.0902 40.0532 95.0902 41.6133C95.0902 43.156 95.6862 44.7862 96.9308 45.9782C98.1228 47.1177 99.8057 47.7137 101.541 47.7137C103.277 47.7137 104.959 47.1177 106.151 45.9782C107.396 44.7862 107.992 43.156 107.992 41.6133ZM101.541 38.4405C102.347 38.4405 103.242 38.756 103.89 39.3695C104.434 39.8954 104.837 40.7018 104.837 41.6133C104.837 42.5074 104.434 43.3137 103.89 43.8571C103.347 44.4006 102.575 44.7687 101.541 44.7687C100.524 44.7687 99.7356 44.383 99.1746 43.8396C98.7364 43.4189 98.2456 42.7002 98.2456 41.6659C98.2456 40.842 98.5436 39.9831 99.1746 39.3695C99.8057 38.7385 100.7 38.4405 101.541 38.4405Z" fill="#07A279"/>
<path d="M14.7888 0C18.6427 0.0236429 22.0709 1.32402 25.0736 3.90113C28.0763 6.45459 29.5776 9.75282 29.5776 13.7958C29.5776 18.1225 28.1827 21.6572 25.3928 24.3998C22.6265 27.1424 19.0919 28.5137 14.7888 28.5137C10.5094 28.5137 6.97474 27.1424 4.18485 24.3998C1.39495 21.6572 0 18.1225 0 13.7958C0 9.75282 1.50134 6.45459 4.50403 3.90113C7.50671 1.32402 10.935 0.0354643 14.7888 0.0354643V0ZM14.7888 6.73831C12.7082 6.76195 10.9232 7.49489 9.43364 8.93713C7.96776 10.3557 7.23482 11.9871 7.23482 13.8313C7.23482 16.1247 7.96776 18.0279 9.43364 19.5411C10.9232 21.0543 12.7082 21.8109 14.7888 21.8109C16.8694 21.8109 18.6427 21.0543 20.1085 19.5411C21.5981 18.0279 22.3428 16.1247 22.3428 13.8313C22.3428 11.9871 21.5981 10.3557 20.1085 8.93713C18.6427 7.49489 16.8694 6.77378 14.7888 6.77378V6.73831Z" fill="#FCCE00"/>
<path d="M41.5548 22.6265H52.7616V28.5137H29.8514L42.5123 5.92262H32.0147V0.0354644H54.1448L41.5548 22.6265Z" fill="#FCCE00"/>
<path d="M65.5655 22.6265H76.7724V28.5137H53.8622L66.5231 5.92262H56.0255V0.0354644H78.1555L65.5655 22.6265Z" fill="#FCCE00"/>
<path d="M93.1937 0C97.0476 0.0236429 100.476 1.32402 103.479 3.90113C106.481 6.45459 107.983 9.75282 107.983 13.7958C107.983 18.1225 106.588 21.6572 103.798 24.3998C101.031 27.1424 97.4968 28.5137 93.1937 28.5137C88.9143 28.5137 85.3796 27.1424 82.5898 24.3998C79.7999 21.6572 78.4049 18.1225 78.4049 13.7958C78.4049 9.75282 79.9062 6.45459 82.9089 3.90113C85.9116 1.32402 89.3399 0.0354643 93.1937 0.0354643V0ZM93.1937 6.73831C91.1131 6.76195 89.3281 7.49489 87.8385 8.93713C86.3727 10.3557 85.6397 11.9871 85.6397 13.8313C85.6397 16.1247 86.3727 18.0279 87.8385 19.5411C89.3281 21.0543 91.1131 21.8109 93.1937 21.8109C95.2743 21.8109 97.0476 21.0543 98.5134 19.5411C100.003 18.0279 100.748 16.1247 100.748 13.8313C100.748 11.9871 100.003 10.3557 98.5134 8.93713C97.0476 7.49489 95.2743 6.77378 93.1937 6.77378V6.73831Z" fill="#FCCE00"/>
</svg>
