<svg width="65" height="17" viewBox="0 0 65 17" fill="none" xmlns="http://www.w3.org/2000/svg">
<path d="M4.97659 8.11023C4.97659 8.71257 5.09037 9.26806 5.31792 9.77671C5.54547 10.2854 5.85334 10.7271 6.24151 11.1019C6.62969 11.4767 7.0781 11.7711 7.58675 11.9853C8.10878 12.1861 8.65758 12.2865 9.23315 12.2865C9.80872 12.2865 10.3508 12.1861 10.8595 11.9853C11.3815 11.7711 11.8366 11.4767 12.2248 11.1019C12.6263 10.7271 12.9409 10.2854 13.1685 9.77671C13.396 9.26806 13.5098 8.71257 13.5098 8.11023C13.5098 7.50788 13.396 6.95239 13.1685 6.44374C12.9409 5.9351 12.6263 5.49338 12.2248 5.11859C11.8366 4.7438 11.3815 4.45601 10.8595 4.25523C10.3508 4.04106 9.80872 3.93398 9.23315 3.93398C8.65758 3.93398 8.10878 4.04106 7.58675 4.25523C7.0781 4.45601 6.62969 4.7438 6.24151 5.11859C5.85334 5.49338 5.54547 5.9351 5.31792 6.44374C5.09037 6.95239 4.97659 7.50788 4.97659 8.11023ZM0.86058 8.11023C0.86058 6.98585 1.06805 5.94179 1.483 4.97804C1.89795 4.00091 2.47352 3.15093 3.20972 2.42812C3.94592 1.70531 4.82266 1.14312 5.83995 0.741563C6.87063 0.326615 8.00169 0.119141 9.23315 0.119141C10.4512 0.119141 11.5756 0.326615 12.6063 0.741563C13.6369 1.14312 14.5204 1.70531 15.2566 2.42812C16.0062 3.15093 16.5884 4.00091 17.0034 4.97804C17.4183 5.94179 17.6258 6.98585 17.6258 8.11023C17.6258 9.2346 17.4183 10.2854 17.0034 11.2625C16.5884 12.2262 16.0062 13.0695 15.2566 13.7923C14.5204 14.5151 13.6369 15.084 12.6063 15.499C11.5756 15.9005 10.4512 16.1013 9.23315 16.1013C8.00169 16.1013 6.87063 15.9005 5.83995 15.499C4.82266 15.084 3.94592 14.5151 3.20972 13.7923C2.47352 13.0695 1.89795 12.2262 1.483 11.2625C1.06805 10.2854 0.86058 9.2346 0.86058 8.11023Z" fill="#FCCE00"/>
<path d="M25.4323 12.3467H31.7769V15.6797H18.8266L25.9944 3.87375H20.0312V0.540781H32.56L25.4323 12.3467Z" fill="#FCCE00"/>
<path d="M39.7654 12.3467H46.11V15.6797H33.1597L40.3275 3.87375H34.3643V0.540781H46.8931L39.7654 12.3467Z" fill="#FCCE00"/>
<path d="M52.2111 8.11023C52.2111 8.71257 52.3249 9.26806 52.5524 9.77671C52.78 10.2854 53.0879 10.7271 53.476 11.1019C53.8642 11.4767 54.3126 11.7711 54.8213 11.9853C55.3433 12.1861 55.8921 12.2865 56.4677 12.2865C57.0432 12.2865 57.5854 12.1861 58.094 11.9853C58.616 11.7711 59.0711 11.4767 59.4593 11.1019C59.8609 10.7271 60.1754 10.2854 60.403 9.77671C60.6305 9.26806 60.7443 8.71257 60.7443 8.11023C60.7443 7.50788 60.6305 6.95239 60.403 6.44374C60.1754 5.9351 59.8609 5.49338 59.4593 5.11859C59.0711 4.7438 58.616 4.45601 58.094 4.25523C57.5854 4.04106 57.0432 3.93398 56.4677 3.93398C55.8921 3.93398 55.3433 4.04106 54.8213 4.25523C54.3126 4.45601 53.8642 4.7438 53.476 5.11859C53.0879 5.49338 52.78 5.9351 52.5524 6.44374C52.3249 6.95239 52.2111 7.50788 52.2111 8.11023ZM48.0951 8.11023C48.0951 6.98585 48.3026 5.94179 48.7175 4.97804C49.1325 4.00091 49.708 3.15093 50.4442 2.42812C51.1804 1.70531 52.0572 1.14312 53.0745 0.741563C54.1052 0.326615 55.2362 0.119141 56.4677 0.119141C57.6857 0.119141 58.8101 0.326615 59.8408 0.741563C60.8715 1.14312 61.7549 1.70531 62.4911 2.42812C63.2407 3.15093 63.823 4.00091 64.2379 4.97804C64.6528 5.94179 64.8603 6.98585 64.8603 8.11023C64.8603 9.2346 64.6528 10.2854 64.2379 11.2625C63.823 12.2262 63.2407 13.0695 62.4911 13.7923C61.7549 14.5151 60.8715 15.084 59.8408 15.499C58.8101 15.9005 57.6857 16.1013 56.4677 16.1013C55.2362 16.1013 54.1052 15.9005 53.0745 15.499C52.0572 15.084 51.1804 14.5151 50.4442 13.7923C49.708 13.0695 49.1325 12.2262 48.7175 11.2625C48.3026 10.2854 48.0951 9.2346 48.0951 8.11023Z" fill="#FCCE00"/>
</svg>
