<svg width="17" height="16" viewBox="0 0 17 16" fill="none" xmlns="http://www.w3.org/2000/svg">
<path d="M13.9562 10.0091C13.378 9.43827 12.6561 9.43827 12.0815 10.0091C11.6432 10.4437 11.205 10.8783 10.774 11.3203C10.6562 11.4418 10.5567 11.4676 10.4131 11.3866C10.1295 11.2319 9.82751 11.1067 9.55496 10.9373C8.28431 10.1381 7.21991 9.11048 6.27704 7.954C5.8093 7.37945 5.39311 6.76438 5.10215 6.07197C5.04322 5.93201 5.05427 5.83993 5.16845 5.72576C5.60673 5.30221 6.03396 4.86761 6.46488 4.43301C7.06522 3.82899 7.06522 3.12185 6.4612 2.51414C6.11867 2.16794 5.77615 1.82909 5.43363 1.48289C5.08005 1.12932 4.73016 0.77206 4.37291 0.42217C3.79467 -0.141336 3.07279 -0.141336 2.49823 0.425854C2.05627 0.860453 1.63272 1.3061 1.18339 1.73334C0.767201 2.12742 0.557267 2.6099 0.513071 3.17341C0.443093 4.09049 0.667759 4.956 0.984501 5.79942C1.63272 7.54519 2.61978 9.09575 3.81677 10.5174C5.43363 12.44 7.36354 13.9611 9.62125 15.0586C10.6378 15.5521 11.6911 15.9315 12.8366 15.9941C13.6247 16.0383 14.3098 15.8394 14.8586 15.2243C15.2342 14.8045 15.6578 14.4214 16.0555 14.02C16.6448 13.4233 16.6485 12.7015 16.0629 12.1122C15.3631 11.4087 14.6597 10.7089 13.9562 10.0091Z" fill="#001921"/>
</svg>
