<svg width="17" height="16" viewBox="0 0 17 16" fill="none" xmlns="http://www.w3.org/2000/svg">
<g clip-path="url(#clip0_8263_11785)">
<path d="M13.706 10.0091C13.1277 9.43827 12.4058 9.43827 11.8313 10.0091C11.393 10.4437 10.9547 10.8783 10.5238 11.3203C10.4059 11.4418 10.3065 11.4676 10.1629 11.3866C9.87927 11.2319 9.57726 11.1067 9.30472 10.9373C8.03406 10.1381 6.96966 9.11048 6.0268 7.954C5.55905 7.37945 5.14287 6.76438 4.85191 6.07197C4.79298 5.93201 4.80403 5.83993 4.9182 5.72576C5.35649 5.30221 5.78372 4.86761 6.21464 4.43301C6.81497 3.82899 6.81497 3.12185 6.21095 2.51414C5.86843 2.16794 5.52591 1.82909 5.18338 1.48289C4.82981 1.12932 4.47992 0.77206 4.12266 0.42217C3.54442 -0.141336 2.82255 -0.141336 2.24799 0.425854C1.80602 0.860453 1.38247 1.3061 0.933142 1.73334C0.516957 2.12742 0.307023 2.6099 0.262827 3.17341C0.192849 4.09049 0.417515 4.956 0.734257 5.79942C1.38247 7.54519 2.36953 9.09575 3.56652 10.5174C5.18338 12.44 7.1133 13.9611 9.37101 15.0586C10.3875 15.5521 11.4409 15.9315 12.5863 15.9941C13.3745 16.0383 14.0595 15.8394 14.6083 15.2243C14.984 14.8045 15.4075 14.4214 15.8053 14.02C16.3946 13.4233 16.3983 12.7015 15.8127 12.1122C15.1129 11.4087 14.4094 10.7089 13.706 10.0091Z" fill="#99A2AB"/>
</g>
<defs>
<clipPath id="clip0_8263_11785">
<rect width="16" height="16" fill="white" transform="translate(0.25)"/>
</clipPath>
</defs>
</svg>
