<svg width="16" height="17" viewBox="0 0 16 17" fill="none" xmlns="http://www.w3.org/2000/svg">
<path fill-rule="evenodd" clip-rule="evenodd" d="M8 0.328125C12.4183 0.328125 16 3.90985 16 8.32812C16 12.7464 12.4183 16.3281 8 16.3281C3.58172 16.3281 0 12.7464 0 8.32812C0 3.90985 3.58172 0.328125 8 0.328125ZM5.03431 8.54799C4.7219 8.86041 4.7219 9.36694 5.03431 9.67936C5.34673 9.99178 5.85327 9.99178 6.16569 9.67936L8 7.84504L9.83432 9.67936C10.1467 9.99178 10.6533 9.99178 10.9657 9.67936C11.2781 9.36694 11.2781 8.86041 10.9657 8.54799L8.56569 6.14799C8.25327 5.83557 7.74673 5.83557 7.43431 6.14799L5.03431 8.54799Z" fill="#99A2AB"/>
</svg>
