<svg width="20" height="20" viewBox="0 0 20 20" fill="none" xmlns="http://www.w3.org/2000/svg">
<path d="M16.3551 0.0141602H3.64585C3.42832 0.0166647 3.21892 0.0972023 3.05578 0.241111C3.70317 0.468879 4.27276 0.875445 4.69853 1.41369C5.1243 1.95193 5.38883 2.59981 5.46145 3.28225C5.47533 3.40289 5.47533 3.52473 5.46145 3.64537V19.078C5.46102 19.2516 5.5104 19.4217 5.60372 19.5682C5.69704 19.7146 5.8304 19.8312 5.98798 19.9041C6.14592 19.9768 6.32143 20.0026 6.49362 19.9785C6.66582 19.9544 6.82746 19.8813 6.95932 19.7679L9.54656 17.5529L12.1338 19.7679C12.2982 19.9086 12.5075 19.9859 12.7239 19.9859C12.9402 19.9859 13.1495 19.9086 13.3139 19.7679L15.9012 17.5529L18.4884 19.7679C18.6528 19.9086 18.8621 19.9858 19.0785 19.9858C19.2098 19.9849 19.3396 19.9571 19.4597 19.9041C19.6173 19.8312 19.7507 19.7146 19.844 19.5682C19.9373 19.4217 19.9867 19.2516 19.9863 19.078V3.64537C19.9863 2.68231 19.6037 1.7587 18.9227 1.07772C18.2417 0.396733 17.3181 0.0141602 16.3551 0.0141602ZM15.4473 12.7234H10.0005C9.75969 12.7234 9.52879 12.6277 9.35854 12.4575C9.1883 12.2873 9.09266 12.0563 9.09266 11.8156C9.09266 11.5748 9.1883 11.3439 9.35854 11.1737C9.52879 11.0034 9.75969 10.9078 10.0005 10.9078H15.4473C15.688 10.9078 15.9189 11.0034 16.0892 11.1737C16.2594 11.3439 16.3551 11.5748 16.3551 11.8156C16.3551 12.0563 16.2594 12.2873 16.0892 12.4575C15.9189 12.6277 15.688 12.7234 15.4473 12.7234ZM15.4473 9.09218H10.0005C9.75969 9.09218 9.52879 8.99654 9.35854 8.82629C9.1883 8.65604 9.09266 8.42514 9.09266 8.18438C9.09266 7.94361 9.1883 7.71271 9.35854 7.54247C9.52879 7.37222 9.75969 7.27658 10.0005 7.27658H15.4473C15.688 7.27658 15.9189 7.37222 16.0892 7.54247C16.2594 7.71271 16.3551 7.94361 16.3551 8.18438C16.3551 8.42514 16.2594 8.65604 16.0892 8.82629C15.9189 8.99654 15.688 9.09218 15.4473 9.09218ZM15.4473 5.46097H10.0005C9.75969 5.46097 9.52879 5.36533 9.35854 5.19508C9.1883 5.02484 9.09266 4.79393 9.09266 4.55317C9.09266 4.31241 9.1883 4.0815 9.35854 3.91126C9.52879 3.74101 9.75969 3.64537 10.0005 3.64537H15.4473C15.688 3.64537 15.9189 3.74101 16.0892 3.91126C16.2594 4.0815 16.3551 4.31241 16.3551 4.55317C16.3551 4.79393 16.2594 5.02484 16.0892 5.19508C15.9189 5.36533 15.688 5.46097 15.4473 5.46097ZM3.64585 3.64537V10.9078H0.922449C0.681685 10.9078 0.450783 10.8121 0.280537 10.6419C0.110291 10.4716 0.0146484 10.2407 0.0146484 9.99998V3.64537C0.0146484 3.51828 0.0146484 3.40026 0.0146484 3.28225C0.0628012 2.80072 0.300268 2.35804 0.674808 2.0516C1.04935 1.74516 1.53028 1.60005 2.01181 1.6482C2.49334 1.69636 2.93601 1.93382 3.24246 2.30836C3.5489 2.68291 3.694 3.16384 3.64585 3.64537Z" fill="#001921"/>
</svg>
