<svg width="18" height="18" viewBox="0 0 18 18" fill="none" xmlns="http://www.w3.org/2000/svg">
<path d="M9.00203 18C6.59867 18 4.3393 17.0629 2.63847 15.3627C-0.564614 12.1596 -0.843586 7.12249 1.80095 3.59964H0.60287C0.271103 3.59964 0.00292969 3.33147 0.00292969 2.9997V0.59994C0.00292969 0.268173 0.271103 0 0.60287 0H7.20221C7.53398 0 7.80215 0.268173 7.80215 0.59994V7.19928C7.80215 7.53105 7.53398 7.79922 7.20221 7.79922H4.80245C4.47068 7.79922 4.20251 7.53105 4.20251 7.19928V6.52075C3.15681 8.54795 3.48258 11.1139 5.18461 12.8165C6.20271 13.8346 7.55857 14.3956 9.00203 14.3956C10.4455 14.3956 11.8013 13.8346 12.8194 12.8165C14.924 10.7113 14.924 7.28627 12.8194 5.18108C12.5849 4.94651 12.5849 4.56734 12.8194 4.33277L14.5173 2.63494C14.6301 2.52275 14.7824 2.45975 14.9414 2.45975C15.101 2.45975 15.2534 2.52275 15.3656 2.63554C18.874 6.14459 18.874 11.8542 15.3656 15.3633C13.6648 17.0629 11.4054 18 9.00203 18Z" fill="white"/>
</svg>
