<svg width="20" height="21" viewBox="0 0 20 21" fill="none" xmlns="http://www.w3.org/2000/svg">
<path d="M12.7697 14.2996H7.61748V12.3675H12.7697V14.2996ZM12.7697 15.5877H7.61748V17.5197H12.7697V15.5877ZM19.854 8.18138V15.2657C19.854 15.7992 19.4215 16.2317 18.8879 16.2317H15.9898V19.7738C15.9898 20.3074 15.5573 20.7399 15.0238 20.7399H5.36339C4.82982 20.7399 4.39736 20.3074 4.39736 19.7738V16.2317H1.49924C0.965666 16.2317 0.533203 15.7992 0.533203 15.2657V8.18138C0.533203 6.58355 1.83349 5.28326 3.43132 5.28326H16.9559C18.5537 5.28326 19.854 6.58355 19.854 8.18138ZM14.0577 11.0795H6.32943V18.8078H14.0577V11.0795ZM17.9219 8.18138C17.9219 7.6478 17.4894 7.21534 16.9559 7.21534C16.4223 7.21534 15.9898 7.6478 15.9898 8.18138C15.9898 8.71495 16.4223 9.14742 16.9559 9.14742C17.4894 9.14742 17.9219 8.71495 17.9219 8.18138ZM15.3458 3.99521V1.74112C15.3458 1.20755 14.9133 0.775085 14.3797 0.775085H6.00742C5.47384 0.775085 5.04138 1.20755 5.04138 1.74112V3.99521H15.3458Z" fill="#001921"/>
</svg>
