<svg width="16" height="17" viewBox="0 0 16 17" fill="none" xmlns="http://www.w3.org/2000/svg">
<path d="M0 5.29997V4.49997C0 3.1765 1.11366 2.09997 2.48276 2.09997H3.31034V0.99997C3.31034 0.723828 3.5342 0.499969 3.81034 0.499969H4.46552C4.74166 0.499969 4.96552 0.723827 4.96552 0.999969V2.09997H7.17241V0.99997C7.17241 0.723828 7.39627 0.499969 7.67241 0.499969H8.32758C8.60373 0.499969 8.82759 0.723827 8.82759 0.999969V2.09997H11.0345V0.99997C11.0345 0.723828 11.2583 0.499969 11.5345 0.499969H12.1897C12.4658 0.499969 12.6897 0.723827 12.6897 0.999969V2.09997H13.5172C14.8863 2.09997 16 3.1765 16 4.49997V5.29997H0ZM16 6.89997V14.1C16 15.4234 14.8863 16.5 13.5172 16.5H2.48276C1.11366 16.5 0 15.4234 0 14.1V6.89997H16ZM4.96552 12.7333C4.96552 12.4572 4.74166 12.2333 4.46552 12.2333H3.81035C3.5342 12.2333 3.31034 12.4572 3.31034 12.7333V13.3333C3.31034 13.6094 3.5342 13.8333 3.81034 13.8333H4.46552C4.74166 13.8333 4.96552 13.6094 4.96552 13.3333V12.7333ZM4.96552 9.5333C4.96552 9.25716 4.74166 9.0333 4.46552 9.0333H3.81035C3.5342 9.0333 3.31034 9.25716 3.31034 9.5333V10.1333C3.31034 10.4094 3.5342 10.6333 3.81034 10.6333H4.46552C4.74166 10.6333 4.96552 10.4094 4.96552 10.1333V9.5333ZM8.82759 12.7333C8.82759 12.4572 8.60373 12.2333 8.32759 12.2333H7.67241C7.39627 12.2333 7.17241 12.4572 7.17241 12.7333V13.3333C7.17241 13.6094 7.39627 13.8333 7.67241 13.8333H8.32758C8.60373 13.8333 8.82759 13.6094 8.82759 13.3333V12.7333ZM8.82759 9.5333C8.82759 9.25716 8.60373 9.0333 8.32759 9.0333H7.67241C7.39627 9.0333 7.17241 9.25716 7.17241 9.5333V10.1333C7.17241 10.4094 7.39627 10.6333 7.67241 10.6333H8.32758C8.60373 10.6333 8.82759 10.4094 8.82759 10.1333V9.5333ZM12.6897 12.7333C12.6897 12.4572 12.4658 12.2333 12.1897 12.2333H11.5345C11.2583 12.2333 11.0345 12.4572 11.0345 12.7333V13.3333C11.0345 13.6094 11.2583 13.8333 11.5345 13.8333H12.1897C12.4658 13.8333 12.6897 13.6094 12.6897 13.3333V12.7333ZM12.6897 9.5333C12.6897 9.25716 12.4658 9.0333 12.1897 9.0333H11.5345C11.2583 9.0333 11.0345 9.25716 11.0345 9.5333V10.1333C11.0345 10.4094 11.2583 10.6333 11.5345 10.6333H12.1897C12.4658 10.6333 12.6897 10.4094 12.6897 10.1333V9.5333Z" fill="#001921"/>
</svg>
