<svg width="20" height="20" viewBox="0 0 20 20" fill="none" xmlns="http://www.w3.org/2000/svg">
<path d="M16.1375 5.58185H3.86207C3.4906 5.58185 3.18945 5.88296 3.18945 6.2544V16.7612C3.18945 18.5471 4.64243 20 6.42818 20H13.5711C15.3569 20 16.8099 18.5471 16.8099 16.7612V6.2544C16.8099 5.88299 16.5089 5.58185 16.1375 5.58185ZM8.38288 15.9491C8.38288 16.4054 8.01295 16.7754 7.55654 16.7754C7.1003 16.7754 6.7302 16.4054 6.7302 15.9491V9.63269C6.7302 9.17632 7.10024 8.80642 7.55654 8.80642C8.01292 8.80642 8.38288 9.17635 8.38288 9.63269V15.9491ZM13.2692 15.9491C13.2692 16.4054 12.8993 16.7754 12.4429 16.7754C11.9866 16.7754 11.6165 16.4054 11.6165 15.9491V9.63269C11.6165 9.17632 11.9865 8.80642 12.4429 8.80642C12.8992 8.80642 13.2692 9.17635 13.2692 9.63269V15.9491Z" fill="#001921"/>
<path d="M15.4634 1.04647H12.5336V0.792386C12.5336 0.355458 12.1782 0 11.7413 0H8.2579C7.82097 0 7.46552 0.355458 7.46552 0.792386V1.04647H4.53565C3.41375 1.04647 2.50098 1.95918 2.50098 3.08111V4.38582C2.50098 4.61915 2.69013 4.80833 2.92356 4.80833H17.0756C17.3089 4.80833 17.4981 4.61915 17.4981 4.38582V3.08111C17.4981 1.95922 16.5854 1.04647 15.4634 1.04647Z" fill="#001921"/>
</svg>
