<svg width="20" height="20" viewBox="0 0 20 20" fill="none" xmlns="http://www.w3.org/2000/svg">
<path fill-rule="evenodd" clip-rule="evenodd" d="M10 20C4.47715 20 0 15.5228 0 10C0 4.47715 4.47715 0 10 0C15.5228 0 20 4.47715 20 10C20 15.5228 15.5228 20 10 20ZM13.7071 9.72517C14.0976 9.33465 14.0976 8.70148 13.7071 8.31096C13.3166 7.92044 12.6834 7.92044 12.2929 8.31096L10 10.6039L7.70711 8.31096C7.31658 7.92044 6.68342 7.92044 6.29289 8.31096C5.90237 8.70148 5.90237 9.33465 6.29289 9.72517L9.29289 12.7252C9.68342 13.1157 10.3166 13.1157 10.7071 12.7252L13.7071 9.72517Z" fill="#001921"/>
</svg>
