<svg width="20" height="20" viewBox="0 0 20 20" fill="none" xmlns="http://www.w3.org/2000/svg">
<g clip-path="url(#clip0_62_1214)">
<path d="M16.0717 20.0098H11.0997C10.4093 20.0098 9.84968 19.4501 9.84968 18.7598C9.84968 18.0694 10.4093 17.5098 11.0997 17.5098H16.0717C16.7941 17.5098 17.3816 16.9491 17.3816 16.2598V3.75977C17.3816 3.07039 16.7941 2.50977 16.0717 2.50977H11.0997C10.4093 2.50977 9.84968 1.95012 9.84968 1.25977C9.84968 0.56941 10.4093 0.00976562 11.0997 0.00976562H16.0717C18.2386 0.00976562 20.0014 1.69195 20.0014 3.75977V16.2598C20.0014 18.3276 18.2386 20.0098 16.0717 20.0098ZM13.7234 9.12602L10.0215 5.59346C9.52742 5.12194 8.75 5.1219 8.25584 5.59338C7.72782 6.09716 7.72775 6.93994 8.25569 7.4438L9.63453 8.75977H1.27539C0.585036 8.75977 0.0253906 9.31941 0.0253906 10.0098C0.0253906 10.7001 0.585035 11.2598 1.27539 11.2598H9.63453L8.25546 12.5758C7.72748 13.0796 7.72752 13.9224 8.25554 14.4262C8.74968 14.8976 9.52708 14.8976 10.0212 14.4261L13.7231 10.8935C14.2349 10.4057 14.2349 9.61383 13.7234 9.12602Z" fill="#001921"/>
</g>
<defs>
<clipPath id="clip0_62_1214">
<rect width="20" height="20" fill="white"/>
</clipPath>
</defs>
</svg>
