<svg width="18" height="18" viewBox="0 0 18 18" fill="none" xmlns="http://www.w3.org/2000/svg">
<path d="M10.9669 7.59513C10.9669 8.6797 10.0846 9.56196 9.00003 9.56196C7.91547 9.56196 7.03321 8.6797 7.03321 7.59513C7.03321 6.51056 7.91547 5.6283 9.00003 5.6283C10.0846 5.6283 10.9669 6.51056 10.9669 7.59513ZM16.5864 7.59513C16.5864 14.2214 9.67128 17.7552 9.3771 17.9022C9.25825 17.9617 9.129 17.9912 9.00003 17.9912C8.87107 17.9912 8.74182 17.9617 8.62296 17.9022C8.32878 17.7552 1.4137 14.2214 1.4137 7.59513C1.4137 3.41197 4.81687 0.00878906 9.00003 0.00878906C13.1832 0.00878906 16.5864 3.41197 16.5864 7.59513ZM12.6527 7.59513C12.6527 5.5811 11.0141 3.94245 9.00003 3.94245C6.986 3.94245 5.34735 5.5811 5.34735 7.59513C5.34735 9.60916 6.986 11.2478 9.00003 11.2478C11.0141 11.2478 12.6527 9.60916 12.6527 7.59513Z" fill="#57616A"/>
</svg>
