<svg width="20" height="20" viewBox="0 0 20 20" fill="none" xmlns="http://www.w3.org/2000/svg">
<path fill-rule="evenodd" clip-rule="evenodd" d="M8.57143 2.85714C5.41552 2.85714 2.85714 5.41552 2.85714 8.57143C2.85714 11.7273 5.41552 14.2857 8.57143 14.2857C11.7273 14.2857 14.2857 11.7273 14.2857 8.57143C14.2857 5.41552 11.7273 2.85714 8.57143 2.85714ZM0 8.57143C0 3.83756 3.83756 0 8.57143 0C13.3053 0 17.1429 3.83756 17.1429 8.57143C17.1429 10.4226 16.556 12.1367 15.5582 13.5379L19.5816 17.5613C20.1395 18.1192 20.1395 19.0237 19.5816 19.5816C19.0237 20.1395 18.1192 20.1395 17.5613 19.5816L13.5379 15.5582C12.1367 16.556 10.4226 17.1429 8.57143 17.1429C3.83756 17.1429 0 13.3053 0 8.57143Z" fill="#001921"/>
</svg>
