<svg width="12" height="12" viewBox="0 0 12 12" fill="none" xmlns="http://www.w3.org/2000/svg">
<path fill-rule="evenodd" clip-rule="evenodd" d="M12 6C12 9.31371 9.31371 12 6 12C2.68629 12 0 9.31371 0 6C0 2.68629 2.68629 0 6 0C9.31371 0 12 2.68629 12 6ZM7.92426 4.07574C8.15858 4.31005 8.15858 4.68995 7.92426 4.92426L6.84853 6L7.92426 7.07574C8.15858 7.31005 8.15858 7.68995 7.92426 7.92426C7.68995 8.15858 7.31005 8.15858 7.07574 7.92426L6 6.84853L4.92426 7.92426C4.68995 8.15858 4.31005 8.15858 4.07574 7.92426C3.84142 7.68995 3.84142 7.31005 4.07574 7.07574L5.15147 6L4.07574 4.92426C3.84142 4.68995 3.84142 4.31005 4.07574 4.07574C4.31005 3.84142 4.68995 3.84142 4.92426 4.07574L6 5.15147L7.07574 4.07574C7.31005 3.84142 7.68995 3.84142 7.92426 4.07574Z" fill="#EA4335"/>
</svg>
