<svg width="20" height="20" viewBox="0 0 20 20" fill="none" xmlns="http://www.w3.org/2000/svg">
<g clip-path="url(#clip0_62_865)">
<path d="M20 9.99991C20 9.49785 19.593 9.09082 19.0909 9.09082H0.909091C0.40703 9.09082 0 9.49785 0 9.99991C0 13.5917 1.90382 16.7468 4.75497 18.5104C4.62418 18.6679 4.54545 18.8701 4.54545 19.0908C4.54545 19.5929 4.95249 19.9999 5.45455 19.9999H14.5455C15.0475 19.9999 15.4545 19.5929 15.4545 19.0908C15.4545 18.8701 15.3758 18.6679 15.245 18.5104C18.0962 16.7468 20 13.5917 20 9.99991Z" fill="#001921"/>
<path d="M5.75764 6.36349C5.75764 6.86555 6.16467 7.27258 6.66673 7.27258C7.16879 7.27258 7.57582 6.86555 7.57582 6.36349C7.57582 5.07773 6.89642 4.3984 6.4003 3.9024C5.95461 3.4567 5.75757 3.23816 5.75764 2.72707C5.75757 2.21616 5.95467 1.99755 6.40048 1.55173C6.75551 1.19676 6.75551 0.621128 6.40054 0.266158C6.04558 -0.0889327 5.46988 -0.0888114 5.11485 0.266098C4.61879 0.762219 3.93927 1.44161 3.93945 2.72707C3.93927 4.0127 4.61867 4.69204 5.11479 5.18804C5.56054 5.63385 5.75764 5.85246 5.75764 6.36349Z" fill="#001921"/>
<path d="M9.99988 6.36349C9.99988 6.86555 10.4069 7.27258 10.909 7.27258C11.411 7.27258 11.8181 6.86555 11.8181 6.36349C11.8181 5.07773 11.1387 4.3984 10.6426 3.9024C10.1969 3.4567 9.99982 3.23816 9.99988 2.72707C9.99982 2.21616 10.1969 1.99755 10.6427 1.55173C10.9978 1.19676 10.9978 0.621128 10.6428 0.266158C10.2878 -0.0889327 9.71213 -0.0888114 9.3571 0.266098C8.86097 0.762158 8.18152 1.44155 8.18164 2.72707C8.18146 4.0127 8.86085 4.69204 9.35698 5.18804C9.80279 5.63385 9.99988 5.85246 9.99988 6.36349Z" fill="#001921"/>
<path d="M14.2421 6.36349C14.2421 6.86555 14.6491 7.27258 15.1512 7.27258C15.6532 7.27258 16.0603 6.86555 16.0603 6.36349C16.0603 5.07773 15.3809 4.3984 14.8848 3.9024C14.439 3.4567 14.242 3.23816 14.2421 2.72707C14.242 2.21616 14.4391 1.99755 14.8849 1.55173C15.24 1.19676 15.24 0.621128 14.885 0.266158C14.53 -0.0889327 13.9543 -0.0888114 13.5993 0.266098C13.1032 0.762158 12.4237 1.44155 12.4238 2.72707C12.4236 4.0127 13.103 4.69204 13.5992 5.18804C14.045 5.63385 14.2421 5.85246 14.2421 6.36349Z" fill="#001921"/>
</g>
<defs>
<clipPath id="clip0_62_865">
<rect width="20" height="20" fill="white"/>
</clipPath>
</defs>
</svg>
