<svg width="20" height="20" viewBox="0 0 20 20" fill="none" xmlns="http://www.w3.org/2000/svg">
<path fill-rule="evenodd" clip-rule="evenodd" d="M10.0044 0C10.7661 0 11.3835 0.617461 11.3835 1.37914V9.99874C11.3835 10.7604 10.7661 11.3779 10.0044 11.3779C9.2427 11.3779 8.62524 10.7604 8.62524 9.99874V1.37914C8.62524 0.617461 9.2427 0 10.0044 0ZM5.48873 4.40327C6.0274 4.94177 6.02754 5.81499 5.48905 6.35366C4.5972 7.2458 3.98992 8.38234 3.74397 9.6196C3.49802 10.8568 3.62446 12.1392 4.10729 13.3046C4.59013 14.47 5.40768 15.4661 6.45658 16.1669C7.50547 16.8677 8.73861 17.2417 10.0001 17.2417C11.2615 17.2417 12.4947 16.8677 13.5436 16.1669C14.5925 15.4661 15.41 14.47 15.8928 13.3046C16.3757 12.1392 16.5021 10.8568 16.2562 9.6196C16.0102 8.38234 15.4029 7.2458 14.5111 6.35366C13.9726 5.81499 13.9727 4.94177 14.5114 4.40327C15.0501 3.86477 15.9233 3.86491 16.4618 4.40359C17.7393 5.68151 18.6092 7.30953 18.9615 9.08181C19.3138 10.8541 19.1327 12.691 18.4411 14.3604C17.7494 16.0298 16.5784 17.4566 15.0759 18.4604C13.5734 19.4642 11.807 20 10.0001 20C8.19311 20 6.42673 19.4642 4.92426 18.4604C3.42178 17.4566 2.2507 16.0298 1.55907 14.3604C0.867438 12.691 0.686325 10.8541 1.03863 9.08181C1.39093 7.30953 2.26083 5.68151 3.53833 4.40359C4.07683 3.86491 4.95005 3.86477 5.48873 4.40327Z" fill="#001921"/>
</svg>
