<svg width="20" height="20" viewBox="0 0 20 20" fill="none" xmlns="http://www.w3.org/2000/svg">
<g clip-path="url(#clip0_444_2881)">
<path d="M4.55469 2.53509H13.1441V0.780267C13.1441 0.335692 12.78 0 12.3656 0C12.2849 0 12.2024 0.0127088 12.1201 0.0398417L4.55469 2.53509Z" fill="#001921"/>
<path d="M14.703 3.70459H2.81289C2.38227 3.70459 2.0332 4.05366 2.0332 4.48428V14.8279V19.2203C2.0332 19.6509 2.38227 20 2.81289 20H14.703C15.1336 20 15.4827 19.6509 15.4827 19.2203V4.48428C15.4827 4.0537 15.1336 3.70459 14.703 3.70459ZM4.85955 10.7343H5.02894C5.28101 9.1205 6.55934 7.84217 8.17321 7.5901V7.2971C8.17321 6.97415 8.43502 6.71234 8.75797 6.71234C9.08091 6.71234 9.34273 6.97415 9.34273 7.2971V7.5901C10.9566 7.84217 12.2349 9.1205 12.487 10.7343H12.6564C12.9793 10.7343 13.2411 10.9961 13.2411 11.3191C13.2411 11.642 12.9793 11.9039 12.6564 11.9039H4.85955C4.53661 11.9039 4.27479 11.642 4.27479 11.3191C4.27479 10.9961 4.53657 10.7343 4.85955 10.7343ZM8.47794 14.0684C8.47794 14.3913 8.21613 14.6532 7.89318 14.6532H5.08632C4.76338 14.6532 4.50156 14.3913 4.50156 14.0684C4.50156 13.7455 4.76338 13.4837 5.08632 13.4837H7.89318C8.21613 13.4837 8.47794 13.7455 8.47794 14.0684ZM12.5102 16.9923H5.00574C4.6828 16.9923 4.42098 16.7304 4.42098 16.4074C4.42098 16.0845 4.6828 15.8228 5.00574 15.8228H12.5102C12.8331 15.8228 13.0949 16.0845 13.0949 16.4074C13.0949 16.7304 12.8331 16.9923 12.5102 16.9923Z" fill="#001921"/>
<path d="M11.2971 10.7344C11.031 9.57874 9.99372 8.71436 8.75842 8.71436C7.52313 8.71436 6.48587 9.57878 6.21973 10.7344H11.2971Z" fill="#001921"/>
</g>
<defs>
<clipPath id="clip0_444_2881">
<rect width="14" height="20" fill="white" transform="translate(2)"/>
</clipPath>
</defs>
</svg>
