<svg width="18" height="18" viewBox="0 0 18 18" fill="none" xmlns="http://www.w3.org/2000/svg">
<g clip-path="url(#clip0_3728_3379)">
<path d="M0.818193 4.09096C0.601195 4.09096 0.393084 4.00476 0.239643 3.85132C0.0862022 3.69788 0 3.48977 0 3.27277V2.45458C0 1.80358 0.258607 1.17925 0.718929 0.718929C1.17925 0.258607 1.80358 0 2.45458 0H3.27277C3.48977 0 3.69788 0.0862022 3.85132 0.239643C4.00476 0.393084 4.09096 0.601195 4.09096 0.818193C4.09096 1.03519 4.00476 1.2433 3.85132 1.39674C3.69788 1.55018 3.48977 1.63639 3.27277 1.63639H2.45458C2.23758 1.63639 2.02947 1.72259 1.87603 1.87603C1.72259 2.02947 1.63639 2.23758 1.63639 2.45458V3.27277C1.63639 3.48977 1.55018 3.69788 1.39674 3.85132C1.2433 4.00476 1.03519 4.09096 0.818193 4.09096Z" fill="#001921"/>
<path d="M17.1819 4.09096C16.9649 4.09096 16.7568 4.00476 16.6034 3.85132C16.45 3.69788 16.3637 3.48977 16.3637 3.27277V2.45458C16.3637 2.23758 16.2775 2.02947 16.1241 1.87603C15.9707 1.72259 15.7626 1.63639 15.5456 1.63639H14.7274C14.5104 1.63639 14.3023 1.55018 14.1488 1.39674C13.9954 1.2433 13.9092 1.03519 13.9092 0.818193C13.9092 0.601195 13.9954 0.393084 14.1488 0.239643C14.3023 0.0862022 14.5104 0 14.7274 0H15.5456C16.1966 0 16.8209 0.258607 17.2812 0.718929C17.7415 1.17925 18.0001 1.80358 18.0001 2.45458V3.27277C18.0001 3.48977 17.9139 3.69788 17.7605 3.85132C17.607 4.00476 17.3989 4.09096 17.1819 4.09096Z" fill="#001921"/>
<path d="M3.27277 18.0004H2.45458C1.80358 18.0004 1.17925 17.7418 0.718929 17.2814C0.258607 16.8211 0 16.1968 0 15.5458V14.7276C0 14.5106 0.0862022 14.3025 0.239643 14.1491C0.393084 13.9956 0.601195 13.9094 0.818193 13.9094C1.03519 13.9094 1.2433 13.9956 1.39674 14.1491C1.55018 14.3025 1.63639 14.5106 1.63639 14.7276V15.5458C1.63639 15.7628 1.72259 15.9709 1.87603 16.1244C2.02947 16.2778 2.23758 16.364 2.45458 16.364H3.27277C3.48977 16.364 3.69788 16.4502 3.85132 16.6036C4.00476 16.7571 4.09096 16.9652 4.09096 17.1822C4.09096 17.3992 4.00476 17.6073 3.85132 17.7607C3.69788 17.9142 3.48977 18.0004 3.27277 18.0004Z" fill="#001921"/>
<path d="M15.5456 18.0004H14.7274C14.5104 18.0004 14.3023 17.9142 14.1488 17.7607C13.9954 17.6073 13.9092 17.3992 13.9092 17.1822C13.9092 16.9652 13.9954 16.7571 14.1488 16.6036C14.3023 16.4502 14.5104 16.364 14.7274 16.364H15.5456C15.7626 16.364 15.9707 16.2778 16.1241 16.1244C16.2775 15.9709 16.3637 15.7628 16.3637 15.5458V14.7276C16.3637 14.5106 16.45 14.3025 16.6034 14.1491C16.7568 13.9956 16.9649 13.9094 17.1819 13.9094C17.3989 13.9094 17.607 13.9956 17.7605 14.1491C17.9139 14.3025 18.0001 14.5106 18.0001 14.7276V15.5458C18.0001 16.1968 17.7415 16.8211 17.2812 17.2814C16.8209 17.7418 16.1966 18.0004 15.5456 18.0004Z" fill="#001921"/>
<path d="M2.45491 8.18213H3.2731V9.81852H2.45491C2.23791 9.81852 2.0298 9.73232 1.87636 9.57888C1.72292 9.42544 1.63672 9.21733 1.63672 9.00033C1.63672 8.78333 1.72292 8.57522 1.87636 8.42177C2.0298 8.26833 2.23791 8.18213 2.45491 8.18213Z" fill="#001921"/>
<path d="M16.3639 9.00033C16.3639 9.21733 16.2777 9.42544 16.1243 9.57888C15.9709 9.73232 15.7627 9.81852 15.5457 9.81852H14.7275V8.18213H15.5457C15.7627 8.18213 15.9709 8.26833 16.1243 8.42177C16.2777 8.57522 16.3639 8.78333 16.3639 9.00033Z"  fill="#001921"/>
<path d="M14.7272 5.72753V8.18211H3.27246V5.72753C3.2744 5.07713 3.53363 4.45393 3.99354 3.99402C4.45344 3.53412 5.07664 3.27489 5.72704 3.27295H12.2726C12.923 3.27489 13.5462 3.53412 14.0061 3.99402C14.466 4.45393 14.7252 5.07713 14.7272 5.72753Z"  fill="#001921"/>
<path d="M3.27246 9.81836H14.7272V12.2729C14.7252 12.9233 14.466 13.5465 14.0061 14.0064C13.5462 14.4663 12.923 14.7256 12.2726 14.7275H5.72704C5.07664 14.7256 4.45344 14.4663 3.99354 14.0064C3.53363 13.5465 3.2744 12.9233 3.27246 12.2729V9.81836Z" fill="#001921"/>
</g>
<defs>
<clipPath id="clip0_3728_3379">
<rect width="18" height="18" fill="white"/>
</clipPath>
</defs>
</svg>
