<svg width="19" height="18" viewBox="0 0 19 18" fill="none" xmlns="http://www.w3.org/2000/svg">
<path d="M17.9036 6.04979C17.5535 5.99894 17.2194 5.86975 16.9261 5.67186C16.6328 5.47398 16.388 5.21248 16.2098 4.90685C16.0316 4.60121 15.9247 4.25932 15.8969 3.90663C15.8692 3.55393 15.9214 3.19952 16.0496 2.86979C16.1311 2.65423 16.1431 2.41856 16.0839 2.19583C16.0248 1.9731 15.8974 1.77447 15.7196 1.62779C14.9348 0.968792 14.0415 0.451099 13.0796 0.0977937C12.8606 0.0164236 12.6214 0.00625696 12.3963 0.0687423C12.1711 0.131228 11.9714 0.263178 11.8256 0.445794C11.6062 0.726385 11.3257 0.953325 11.0055 1.1094C10.6853 1.26548 10.3338 1.34659 9.97761 1.34659C9.6214 1.34659 9.26987 1.26548 8.94968 1.1094C8.62949 0.953325 8.34904 0.726385 8.12961 0.445794C7.98382 0.263178 7.78412 0.131228 7.55896 0.0687423C7.33379 0.00625696 7.09466 0.0164236 6.87561 0.0977937C5.98741 0.423979 5.15696 0.889838 4.41561 1.47779C4.22874 1.62573 4.09413 1.82961 4.03151 2.05958C3.96889 2.28955 3.98154 2.53353 4.06761 2.75579C4.20606 3.09425 4.26327 3.46044 4.23463 3.82499C4.206 4.18955 4.09233 4.54232 3.90273 4.855C3.71314 5.16769 3.4529 5.43159 3.14289 5.62553C2.83288 5.81948 2.48173 5.93807 2.11761 5.97179C1.88122 5.99707 1.65918 6.09757 1.4842 6.25852C1.30922 6.41946 1.19053 6.63233 1.14561 6.86579C1.03389 7.41881 0.977613 7.9816 0.977613 8.54579C0.976792 9.01812 1.01492 9.48972 1.09161 9.95579C1.12978 10.1967 1.24626 10.4184 1.42304 10.5865C1.59982 10.7546 1.82706 10.8598 2.06961 10.8858C2.44173 10.9207 2.80007 11.0443 3.11463 11.2461C3.4292 11.4479 3.69085 11.7222 3.87767 12.0459C4.06449 12.3696 4.17106 12.7333 4.18844 13.1067C4.20583 13.48 4.13354 13.8521 3.97761 14.1918C3.87557 14.4127 3.85026 14.6614 3.90569 14.8984C3.96113 15.1354 4.09414 15.347 4.28361 15.4998C5.06368 16.1468 5.94835 16.6561 6.89961 17.0058C7.02125 17.0479 7.14888 17.0702 7.27761 17.0718C7.45411 17.0714 7.62795 17.0287 7.78454 16.9473C7.94114 16.8658 8.07593 16.7481 8.17761 16.6038C8.39146 16.2922 8.67812 16.0375 9.01271 15.8619C9.3473 15.6862 9.71971 15.5949 10.0976 15.5958C10.4638 15.5963 10.8247 15.6822 11.1518 15.8468C11.4789 16.0114 11.763 16.25 11.9816 16.5438C12.127 16.7392 12.3329 16.8811 12.5673 16.9473C12.8017 17.0135 13.0515 17.0003 13.2776 16.9098C14.1474 16.5597 14.9572 16.0759 15.6776 15.4758C15.8586 15.3262 15.9874 15.123 16.0456 14.8955C16.1039 14.668 16.0884 14.428 16.0016 14.2098C15.8605 13.8757 15.7989 13.5134 15.8219 13.1514C15.8448 12.7895 15.9515 12.4378 16.1336 12.1242C16.3158 11.8105 16.5683 11.5435 16.8713 11.3442C17.1743 11.145 17.5195 11.0188 17.8796 10.9758C18.1131 10.9435 18.3303 10.8377 18.4996 10.6737C18.669 10.5098 18.7818 10.2961 18.8216 10.0638C18.918 9.56334 18.9702 9.05538 18.9776 8.54579C18.9777 8.00828 18.9275 7.47194 18.8276 6.94379C18.7871 6.71657 18.676 6.50789 18.5101 6.34741C18.3443 6.18692 18.132 6.08278 17.9036 6.04979ZM12.9776 8.54579C12.9776 9.13913 12.8017 9.71915 12.472 10.2125C12.1424 10.7058 11.6738 11.0904 11.1257 11.3174C10.5775 11.5445 9.97428 11.6039 9.39233 11.4881C8.81039 11.3724 8.27584 11.0867 7.85629 10.6671C7.43673 10.2476 7.15101 9.713 7.03525 9.13106C6.9195 8.54912 6.97891 7.94592 7.20597 7.39774C7.43303 6.84956 7.81755 6.38103 8.3109 6.05138C8.80424 5.72174 9.38426 5.54579 9.97761 5.54579C10.7733 5.54579 11.5363 5.86186 12.0989 6.42447C12.6615 6.98708 12.9776 7.75014 12.9776 8.54579Z" fill="#57616A"/>
</svg>
