<svg width="16" height="16" viewBox="0 0 16 16" fill="none" xmlns="http://www.w3.org/2000/svg">
<g clip-path="url(#clip0_3728_26759)">
<path d="M8.80329 1.94638C7.68212 1.73515 6.52238 1.93225 5.53393 2.502C5.45631 2.55001 5.36985 2.58196 5.27966 2.59594C5.18947 2.60992 5.09739 2.60565 5.00888 2.58339C4.92037 2.56112 4.83723 2.52131 4.76439 2.46632C4.69155 2.41132 4.6305 2.34227 4.58484 2.26324C4.53919 2.18421 4.50987 2.09682 4.49861 2.00625C4.48736 1.91568 4.4944 1.82377 4.51933 1.73597C4.54425 1.64817 4.58655 1.56627 4.64372 1.49513C4.70088 1.42398 4.77175 1.36504 4.85212 1.32178C6.12253 0.588498 7.61359 0.334556 9.05511 0.605975C10.4966 0.877393 11.7932 1.65621 12.71 2.80131C12.8164 2.94294 12.8635 3.12042 12.8413 3.29616C12.8191 3.47191 12.7294 3.63213 12.5912 3.7429C12.4529 3.85366 12.277 3.90628 12.1007 3.88961C11.9243 3.87294 11.7614 3.78828 11.6463 3.65357C10.933 2.7632 9.92447 2.15761 8.80329 1.94638Z" fill="#07A279"/>
<path d="M4.08461 14.1535C4.15423 14.2115 4.2347 14.255 4.32134 14.2816C4.40797 14.3081 4.49903 14.3171 4.58919 14.308C4.67934 14.299 4.76679 14.2721 4.84641 14.2288C4.92604 14.1856 4.99625 14.1269 5.05293 14.0562C5.10962 13.9855 5.15165 13.9042 5.17656 13.8171C5.20147 13.73 5.20877 13.6388 5.19803 13.5488C5.18728 13.4589 5.15872 13.3719 5.11399 13.2931C5.06927 13.2143 5.00929 13.1452 4.93755 13.0899C4.37803 12.6435 3.92649 12.0767 3.6166 11.4315C3.30671 10.7863 3.14646 10.0795 3.14781 9.36378V6.63654C3.14735 5.82796 3.35265 5.03256 3.74439 4.32521C3.78786 4.24687 3.81547 4.16073 3.82565 4.07171C3.83583 3.98269 3.82838 3.89255 3.80372 3.80641C3.77906 3.72027 3.73767 3.63984 3.68193 3.5697C3.62618 3.49955 3.55717 3.44108 3.47882 3.39761C3.40048 3.35414 3.31434 3.32653 3.22533 3.31635C3.13631 3.30617 3.04616 3.31362 2.96002 3.33828C2.87389 3.36294 2.79345 3.40432 2.72331 3.46007C2.65317 3.51581 2.5947 3.58483 2.55123 3.66317C2.04802 4.57341 1.7841 5.59648 1.78419 6.63654V9.36378C1.78235 10.2838 1.98827 11.1924 2.38659 12.0217C2.78491 12.8511 3.36535 13.5798 4.08461 14.1535Z" fill="#07A279"/>
<path d="M12.693 9.36371C12.6916 10.6291 12.1883 11.8422 11.2935 12.7369C10.3988 13.6316 9.18568 14.1349 7.92033 14.1364C7.73951 14.1364 7.56609 14.2082 7.43822 14.3361C7.31036 14.4639 7.23853 14.6374 7.23853 14.8182C7.23853 14.999 7.31036 15.1724 7.43822 15.3003C7.56609 15.4282 7.73951 15.5 7.92033 15.5C9.54722 15.4982 11.107 14.8511 12.2573 13.7007C13.4077 12.5503 14.0548 10.9906 14.0566 9.36371V6.63648C14.0566 6.45565 13.9848 6.28223 13.8569 6.15436C13.7291 6.0265 13.5556 5.95467 13.3748 5.95467C13.194 5.95467 13.0206 6.0265 12.8927 6.15436C12.7648 6.28223 12.693 6.45565 12.693 6.63648V9.36371Z" fill="#07A279"/>
<path d="M5.8746 11.8496C6.00602 11.8498 6.13468 11.812 6.24512 11.7407C6.35555 11.6695 6.44305 11.5679 6.49707 11.4481C6.5511 11.3283 6.56935 11.1954 6.54964 11.0655C6.52993 10.9356 6.47309 10.8141 6.38596 10.7157C6.05603 10.3427 5.87413 9.86173 5.8746 9.36371V6.63648C5.8746 6.45565 5.80277 6.28223 5.67491 6.15436C5.54704 6.0265 5.37362 5.95467 5.1928 5.95467C5.01197 5.95467 4.83855 6.0265 4.71068 6.15436C4.58282 6.28223 4.51099 6.45565 4.51099 6.63648V9.36371C4.51085 10.1942 4.81391 10.9962 5.36325 11.6191C5.42727 11.6916 5.50597 11.7496 5.59413 11.7894C5.68229 11.8291 5.7779 11.8496 5.8746 11.8496Z" fill="#07A279"/>
<path d="M10.3297 11.7732C9.69061 12.4123 8.82414 12.7718 7.92033 12.7729C7.73951 12.7729 7.56609 12.701 7.43822 12.5732C7.31036 12.4453 7.23853 12.2719 7.23853 12.0911C7.23853 11.9102 7.31036 11.7368 7.43822 11.609C7.56609 11.4811 7.73951 11.4093 7.92033 11.4093C8.46282 11.4093 8.98308 11.1938 9.36667 10.8102C9.75026 10.4266 9.96576 9.90631 9.96576 9.36383C9.96576 9.183 10.0376 9.00958 10.1655 8.88172C10.2933 8.75385 10.4667 8.68202 10.6476 8.68202C10.8284 8.68202 11.0018 8.75385 11.1297 8.88172C11.2575 9.00958 11.3294 9.183 11.3294 9.36383C11.3283 10.2676 10.9688 11.1341 10.3297 11.7732Z" fill="#07A279"/>
<path d="M7.92033 4.59097C8.46282 4.59097 8.98308 4.80647 9.36667 5.19007C9.75026 5.57366 9.96576 6.09392 9.96576 6.6364C9.96576 6.81723 10.0376 6.99065 10.1655 7.11851C10.2933 7.24638 10.4667 7.31821 10.6476 7.31821C10.8284 7.31821 11.0018 7.24638 11.1297 7.11851C11.2575 6.99065 11.3294 6.81723 11.3294 6.6364C11.3283 5.7326 10.9688 4.86612 10.3297 4.22704C9.69061 3.58795 8.82414 3.22844 7.92033 3.22736C7.73951 3.22736 7.56609 3.29919 7.43822 3.42705C7.31036 3.55492 7.23853 3.72834 7.23853 3.90917C7.23853 4.08999 7.31036 4.26341 7.43822 4.39128C7.56609 4.51914 7.73951 4.59097 7.92033 4.59097Z" fill="#07A279"/>
<path d="M7.43822 9.84582C7.31036 9.71796 7.23853 9.54454 7.23853 9.36371V6.63648C7.23853 6.45565 7.31036 6.28223 7.43822 6.15436C7.56609 6.0265 7.73951 5.95467 7.92034 5.95467C8.10117 5.95467 8.27459 6.0265 8.40246 6.15436C8.53032 6.28223 8.60216 6.45565 8.60216 6.63648V9.36371C8.60216 9.54454 8.53032 9.71796 8.40246 9.84582C8.27459 9.97369 8.10117 10.0455 7.92034 10.0455C7.73951 10.0455 7.56609 9.97369 7.43822 9.84582Z" fill="#07A279"/>
</g>
<defs>
<clipPath id="clip0_3728_26759">
<rect width="15" height="15" fill="white" transform="translate(0.419922 0.5)"/>
</clipPath>
</defs>
</svg>
