<svg width="21" height="20" viewBox="0 0 21 20" fill="none" xmlns="http://www.w3.org/2000/svg">
<path fill-rule="evenodd" clip-rule="evenodd" d="M12.1769 1.35517C12.873 1.06673 13.6191 0.918274 14.3726 0.918274C15.1262 0.918274 15.8723 1.06673 16.5684 1.35517C17.2644 1.64355 17.8967 2.06619 18.4293 2.59897C18.9621 3.13159 19.3851 3.76427 19.6735 4.46024C19.9619 5.15635 20.1104 5.90247 20.1104 6.65598C20.1104 7.40949 19.9619 8.15561 19.6735 8.85173C19.385 9.54777 18.9623 10.1802 18.4295 10.7128L10.8172 18.3251C10.6297 18.5126 10.3753 18.618 10.1101 18.618C9.84491 18.618 9.59055 18.5126 9.40302 18.3251L1.79075 10.7128C0.71481 9.63689 0.110352 8.17759 0.110352 6.65598C0.110352 5.13437 0.71481 3.67508 1.79075 2.59914C2.86669 1.52319 4.32599 0.918734 5.8476 0.918734C7.36921 0.918734 8.8285 1.52319 9.90445 2.59914L10.1101 2.80481L10.3156 2.5993C10.8483 2.06645 11.4809 1.64358 12.1769 1.35517Z" fill="#001921"/>
</svg>
