<svg width="20" height="20" viewBox="0 0 20 20" fill="none" xmlns="http://www.w3.org/2000/svg">
<path d="M12.1849 8.43903C12.1849 9.64411 11.2046 10.6244 9.99958 10.6244C8.7945 10.6244 7.81421 9.64411 7.81421 8.43903C7.81421 7.23396 8.7945 6.25367 9.99958 6.25367C11.2046 6.25367 12.1849 7.23396 12.1849 8.43903ZM18.4288 8.43903C18.4288 15.8015 10.7454 19.728 10.4185 19.8913C10.2865 19.9575 10.1429 19.9903 9.99958 19.9903C9.85628 19.9903 9.71267 19.9575 9.58061 19.8913C9.25374 19.728 1.57031 15.8015 1.57031 8.43903C1.57031 3.79107 5.35162 0.00976562 9.99958 0.00976562C14.6475 0.00976562 18.4288 3.79107 18.4288 8.43903ZM14.0581 8.43903C14.0581 6.20122 12.2374 4.3805 9.99958 4.3805C7.76176 4.3805 5.94104 6.20122 5.94104 8.43903C5.94104 10.6768 7.76176 12.4976 9.99958 12.4976C12.2374 12.4976 14.0581 10.6768 14.0581 8.43903Z" fill="#001921"/>
</svg>
