<svg width="28" height="28" viewBox="0 0 28 28" fill="none" xmlns="http://www.w3.org/2000/svg">
<path d="M2.33366 6.99984C2.02424 6.99984 1.72749 6.87692 1.5087 6.65813C1.28991 6.43934 1.16699 6.14259 1.16699 5.83317V4.6665C1.16699 3.73825 1.53574 2.84801 2.19212 2.19163C2.8485 1.53525 3.73873 1.1665 4.66699 1.1665H5.83366C6.14308 1.1665 6.43983 1.28942 6.65862 1.50821C6.87741 1.72701 7.00033 2.02375 7.00033 2.33317C7.00033 2.64259 6.87741 2.93934 6.65862 3.15813C6.43983 3.37692 6.14308 3.49984 5.83366 3.49984H4.66699C4.35757 3.49984 4.06083 3.62275 3.84203 3.84155C3.62324 4.06034 3.50033 4.35708 3.50033 4.6665V5.83317C3.50033 6.14259 3.37741 6.43934 3.15862 6.65813C2.93982 6.87692 2.64308 6.99984 2.33366 6.99984Z" fill="#001921"/>
<path d="M25.6667 6.99978C25.3572 6.99978 25.0605 6.87686 24.8417 6.65807C24.6229 6.43928 24.5 6.14253 24.5 5.83311V4.66644C24.5 4.35702 24.3771 4.06028 24.1583 3.84149C23.9395 3.62269 23.6427 3.49978 23.3333 3.49978H22.1667C21.8572 3.49978 21.5605 3.37686 21.3417 3.15807C21.1229 2.93928 21 2.64253 21 2.33311C21 2.02369 21.1229 1.72694 21.3417 1.50815C21.5605 1.28936 21.8572 1.16644 22.1667 1.16644H23.3333C24.2616 1.16644 25.1518 1.53519 25.8082 2.19157C26.4646 2.84795 26.8333 3.73819 26.8333 4.66644V5.83311C26.8333 6.14253 26.7104 6.43928 26.4916 6.65807C26.2728 6.87686 25.9761 6.99978 25.6667 6.99978Z" fill="#001921"/>
<path d="M5.83366 26.8333H4.66699C3.73873 26.8333 2.8485 26.4646 2.19212 25.8082C1.53574 25.1518 1.16699 24.2616 1.16699 23.3333V22.1667C1.16699 21.8572 1.28991 21.5605 1.5087 21.3417C1.72749 21.1229 2.02424 21 2.33366 21C2.64308 21 2.93982 21.1229 3.15862 21.3417C3.37741 21.5605 3.50033 21.8572 3.50033 22.1667V23.3333C3.50033 23.6427 3.62324 23.9395 3.84203 24.1583C4.06083 24.3771 4.35757 24.5 4.66699 24.5H5.83366C6.14308 24.5 6.43983 24.6229 6.65862 24.8417C6.87741 25.0605 7.00033 25.3572 7.00033 25.6667C7.00033 25.9761 6.87741 26.2728 6.65862 26.4916C6.43983 26.7104 6.14308 26.8333 5.83366 26.8333Z" fill="#001921"/>
<path d="M23.3333 26.8333H22.1667C21.8572 26.8333 21.5605 26.7104 21.3417 26.4916C21.1229 26.2728 21 25.9761 21 25.6667C21 25.3572 21.1229 25.0605 21.3417 24.8417C21.5605 24.6229 21.8572 24.5 22.1667 24.5H23.3333C23.6427 24.5 23.9395 24.3771 24.1583 24.1583C24.3771 23.9395 24.5 23.6427 24.5 23.3333V22.1667C24.5 21.8572 24.6229 21.5605 24.8417 21.3417C25.0605 21.1229 25.3572 21 25.6667 21C25.9761 21 26.2728 21.1229 26.4916 21.3417C26.7104 21.5605 26.8333 21.8572 26.8333 22.1667V23.3333C26.8333 24.2616 26.4646 25.1518 25.8082 25.8082C25.1518 26.4646 24.2616 26.8333 23.3333 26.8333Z" fill="#001921"/>
<path d="M4.66666 12.8336H5.83333V15.1669H4.66666C4.35725 15.1669 4.0605 15.044 3.84171 14.8252C3.62292 14.6064 3.5 14.3097 3.5 14.0002C3.5 13.6908 3.62292 13.3941 3.84171 13.1753C4.0605 12.9565 4.35725 12.8336 4.66666 12.8336Z" fill="#001921"/>
<path d="M24.5003 14.0002C24.5003 14.3096 24.3774 14.6063 24.1586 14.8251C23.9398 15.0439 23.6431 15.1668 23.3337 15.1668H22.167V12.8335H23.3337C23.6431 12.8335 23.9398 12.9564 24.1586 13.1752C24.3774 13.394 24.5003 13.6907 24.5003 14.0002Z" fill="#001921"/>
<path d="M22.1663 9.3335V12.8335H5.83301V9.3335C5.83578 8.40609 6.20542 7.51746 6.86119 6.86168C7.51697 6.2059 8.4056 5.83627 9.33301 5.8335H18.6663C19.5937 5.83627 20.4824 6.2059 21.1382 6.86168C21.7939 7.51746 22.1636 8.40609 22.1663 9.3335Z" fill="#001921"/>
<path d="M5.83301 15.1665H22.1663V18.6665C22.1636 19.5939 21.7939 20.4825 21.1382 21.1383C20.4824 21.7941 19.5937 22.1637 18.6663 22.1665H9.33301C8.4056 22.1637 7.51697 21.7941 6.86119 21.1383C6.20542 20.4825 5.83578 19.5939 5.83301 18.6665V15.1665Z" fill="#001921"/>
</svg>
