<svg width="20" height="20" viewBox="0 0 20 20" fill="none" xmlns="http://www.w3.org/2000/svg">
<path d="M18 2H2.00001C0.899999 2 0 2.9 0 3.99997V16C0 17.1 0.899999 18 2.00001 18H18C19.1 18 20 17.1 20 16V3.99997C20 2.9 19.1 2 18 2Z" fill="#001921"/>
<path d="M7.01972 9.4999C7.37574 9.4999 7.72377 9.39433 8.01978 9.19653C8.31579 8.99873 8.5465 8.71759 8.68273 8.38866C8.81896 8.05973 8.85459 7.6978 8.78511 7.34862C8.71563 6.99945 8.54417 6.67872 8.2924 6.427C8.04064 6.17528 7.71988 6.00387 7.37069 5.93445C7.02151 5.86503 6.65958 5.90072 6.33068 6.03701C6.00177 6.1733 5.72068 6.40406 5.52293 6.70011C5.32518 6.99616 5.21966 7.3442 5.21973 7.70022C5.22023 8.17742 5.41004 8.63494 5.7475 8.97235C6.08497 9.30975 6.54252 9.49949 7.01972 9.4999Z" fill="white"/>
<path d="M3.7793 13.0793C3.7793 11.5442 5.02372 10.2998 6.55878 10.2998H7.44191C8.97698 10.2998 10.2214 11.5442 10.2214 13.0793C10.2214 13.5324 9.85405 13.8998 9.40089 13.8998H4.59981C4.14665 13.8998 3.7793 13.5324 3.7793 13.0793Z" fill="white"/>
<path d="M11.9971 9.325C11.9971 9.21454 12.0866 9.125 12.1971 9.125H15.7971C15.9075 9.125 15.9971 9.21454 15.9971 9.325V10.6748C15.9971 10.7853 15.9075 10.8748 15.7971 10.8748H12.1971C12.0866 10.8748 11.9971 10.7853 11.9971 10.6748V9.325Z" fill="white"/>
<path d="M11.9971 12.3501C11.9971 12.2397 12.0866 12.1501 12.1971 12.1501H15.7971C15.9075 12.1501 15.9971 12.2397 15.9971 12.3501V13.7C15.9971 13.8104 15.9075 13.9 15.7971 13.9H12.1971C12.0866 13.9 11.9971 13.8104 11.9971 13.7V12.3501Z" fill="white"/>
</svg>
