<svg width="20" height="21" viewBox="0 0 20 21" fill="none" xmlns="http://www.w3.org/2000/svg">
<path fill-rule="evenodd" clip-rule="evenodd" d="M9.34473 4.27601C9.34473 4.81924 8.90435 5.25962 8.36112 5.25962L2.62339 5.25962C2.08015 5.25962 1.63978 4.81924 1.63978 4.27601C1.63978 3.73278 2.08015 3.2924 2.62339 3.2924L8.36112 3.2924C8.90435 3.2924 9.34473 3.73278 9.34473 4.27601Z" fill="#001921"/>
<path fill-rule="evenodd" clip-rule="evenodd" d="M18.3613 4.27601C18.3613 4.81924 17.921 5.25962 17.3777 5.25962L11.64 5.25962C11.0968 5.25962 10.6564 4.81924 10.6564 4.27601C10.6564 3.73278 11.0968 3.2924 11.64 3.2924L17.3777 3.2924C17.921 3.2924 18.3613 3.73278 18.3613 4.27601Z" fill="#001921"/>
<path fill-rule="evenodd" clip-rule="evenodd" d="M10.9844 10.8334C10.9844 11.3766 10.544 11.817 10.0008 11.817L2.62369 11.817C2.08045 11.817 1.64008 11.3766 1.64008 10.8334C1.64008 10.2901 2.08045 9.84976 2.62369 9.84976L10.0008 9.84976C10.544 9.84976 10.9844 10.2901 10.9844 10.8334Z" fill="#001921"/>
<path fill-rule="evenodd" clip-rule="evenodd" d="M18.3613 10.8334C18.3613 11.3766 17.921 11.817 17.3777 11.817L13.2793 11.817C12.7361 11.817 12.2957 11.3766 12.2957 10.8334C12.2957 10.2901 12.7361 9.84976 13.2793 9.84976L17.3777 9.84976C17.921 9.84976 18.3613 10.2901 18.3613 10.8334Z" fill="#001921"/>
<path fill-rule="evenodd" clip-rule="evenodd" d="M7.70508 17.3907C7.70508 17.934 7.2647 18.3743 6.72147 18.3743L2.62309 18.3743C2.07986 18.3743 1.63948 17.934 1.63948 17.3907C1.63948 16.8475 2.07986 16.4071 2.62309 16.4071L6.72147 16.4071C7.2647 16.4071 7.70508 16.8475 7.70508 17.3907Z" fill="#001921"/>
<path fill-rule="evenodd" clip-rule="evenodd" d="M18.3613 17.3907C18.3613 17.934 17.921 18.3743 17.3777 18.3743L10.0006 18.3743C9.45741 18.3743 9.01703 17.934 9.01703 17.3907C9.01703 16.8475 9.45741 16.4071 10.0006 16.4071L17.3777 16.4071C17.921 16.4071 18.3613 16.8475 18.3613 17.3907Z" fill="#001921"/>
<path fill-rule="evenodd" clip-rule="evenodd" d="M8.36112 0.833374C8.90435 0.833374 9.34473 1.27375 9.34473 1.81698L9.34473 6.73504C9.34473 7.27827 8.90435 7.71865 8.36112 7.71865C7.81788 7.71865 7.37751 7.27827 7.37751 6.73504L7.37751 1.81698C7.37751 1.27375 7.81788 0.833374 8.36112 0.833374Z" fill="#001921"/>
<path fill-rule="evenodd" clip-rule="evenodd" d="M13.2791 7.39074C13.8223 7.39074 14.2627 7.83111 14.2627 8.37435L14.2627 13.2924C14.2627 13.8356 13.8223 14.276 13.2791 14.276C12.7359 14.276 12.2955 13.8356 12.2955 13.2924L12.2955 8.37435C12.2955 7.83111 12.7359 7.39074 13.2791 7.39074Z" fill="#001921"/>
<path fill-rule="evenodd" clip-rule="evenodd" d="M6.72147 13.9481C7.2647 13.9481 7.70508 14.3885 7.70508 14.9317L7.70508 19.8498C7.70508 20.393 7.2647 20.8334 6.72147 20.8334C6.17823 20.8334 5.73786 20.393 5.73786 19.8498L5.73786 14.9317C5.73786 14.3885 6.17823 13.9481 6.72147 13.9481Z" fill="#001921"/>
</svg>
