<svg width="20" height="20" viewBox="0 0 20 20" fill="none" xmlns="http://www.w3.org/2000/svg">
<path d="M3.30401 17.3309C3.46919 17.4062 3.64878 17.4454 3.83076 17.4458C3.88715 17.4458 3.94355 17.4422 3.99954 17.4348L7.49201 16.9777C7.6756 16.9535 7.85198 16.8946 8.01157 16.8052C8.12636 16.7408 8.23275 16.6606 8.32754 16.5663L15.3101 9.58384L10.4161 4.69005L3.43359 11.6727C3.20882 11.8984 3.06403 12.192 3.02243 12.508L2.56528 16.0004C2.54168 16.1806 2.55688 16.3638 2.60967 16.5377C2.66207 16.7117 2.75126 16.8724 2.87125 17.0092C2.93804 17.0856 3.01363 17.1535 3.09603 17.2118C3.16122 17.2578 3.23081 17.2977 3.30401 17.3309Z" fill="#001921"/>
<path d="M11.6904 3.41577L16.5844 8.30956L18.5274 6.36654C18.7894 6.10351 18.9369 5.74725 18.9369 5.37578C18.9369 5.00437 18.7894 4.6481 18.5274 4.38508L15.6149 1.4729C15.4825 1.34076 15.3265 1.23782 15.1565 1.16823C14.9893 1.09963 14.8085 1.06334 14.6241 1.06334C14.253 1.06334 13.8966 1.21062 13.6334 1.4729L11.6904 3.41577Z" fill="#001921"/>
</svg>
