<svg width="20" height="20" viewBox="0 0 20 20" fill="none" xmlns="http://www.w3.org/2000/svg">
<path d="M14.4163 4.08545L10.8838 0.383598C10.396 -0.12792 9.6041 -0.127921 9.11629 0.383925L5.5837 4.08581C5.1122 4.57991 5.11216 5.35731 5.58362 5.85145C6.08741 6.37947 6.93021 6.37951 7.43404 5.85153L8.75004 4.47246V12.8316C8.75004 13.522 9.30968 14.0816 10 14.0816C10.6904 14.0816 11.25 13.522 11.25 12.8316V4.47246L12.566 5.8513C13.0699 6.37924 13.9126 6.37917 14.4164 5.85115C14.8879 5.35699 14.8879 4.57957 14.4163 4.08545Z" fill="#001921"/>
<path d="M0 11.0743V16.0463C0 18.2132 1.68219 19.976 3.75 19.976H16.25C18.3178 19.976 20 18.2132 20 16.0463V11.0743C20 10.3839 19.4404 9.82427 18.75 9.82427C18.0596 9.82427 17.5 10.3839 17.5 11.0743V16.0463C17.5 16.7687 16.9394 17.3562 16.25 17.3562H3.75C3.06063 17.3562 2.5 16.7687 2.5 16.0463V11.0743C2.5 10.3839 1.94036 9.82427 1.25 9.82427C0.559644 9.82427 0 10.3839 0 11.0743Z" fill="#001921"/>
</svg>
