<svg width="20" height="20" viewBox="0 0 20 20" fill="none" xmlns="http://www.w3.org/2000/svg">
<path fill-rule="evenodd" clip-rule="evenodd" d="M20 10C20 15.5228 15.5228 20 10 20C4.47715 20 0 15.5228 0 10C0 4.47715 4.47715 0 10 0C15.5228 0 20 4.47715 20 10ZM9.72517 6.29289C9.33465 5.90237 8.70148 5.90237 8.31096 6.29289C7.92044 6.68342 7.92044 7.31658 8.31096 7.70711L10.6039 10L8.31096 12.2929C7.92044 12.6834 7.92044 13.3166 8.31096 13.7071C8.70148 14.0976 9.33465 14.0976 9.72517 13.7071L12.7252 10.7071C13.1157 10.3166 13.1157 9.68342 12.7252 9.29289L9.72517 6.29289Z" fill="#001921"/>
</svg>
