<svg width="20" height="20" viewBox="0 0 20 20" fill="none" xmlns="http://www.w3.org/2000/svg">
<path d="M10.0029 20C7.33251 20 4.82209 18.9588 2.93228 17.0696C-0.626697 13.5106 -0.936666 7.91388 2.00171 3.9996H0.670506C0.301876 3.9996 0.00390625 3.70163 0.00390625 3.333V0.6666C0.00390625 0.29797 0.301876 0 0.670506 0H8.00311C8.37174 0 8.66971 0.29797 8.66971 0.6666V7.9992C8.66971 8.36783 8.37174 8.6658 8.00311 8.6658H5.33671C4.96808 8.6658 4.67011 8.36783 4.67011 7.9992V7.24528C3.50822 9.49772 3.87019 12.3488 5.76133 14.2406C6.89255 15.3718 8.39907 15.9951 10.0029 15.9951C11.6067 15.9951 13.1133 15.3718 14.2445 14.2406C16.5829 11.9015 16.5829 8.09586 14.2445 5.75676C13.9838 5.49612 13.9838 5.07483 14.2445 4.81419L16.131 2.92771C16.2563 2.80305 16.4256 2.73306 16.6022 2.73306C16.7796 2.73306 16.9489 2.80305 17.0735 2.92837C20.9718 6.82732 20.9718 13.1713 17.0735 17.0703C15.1837 18.9588 12.6733 20 10.0029 20Z" fill="#001921"/>
</svg>
