<svg width="20" height="20" viewBox="0 0 20 20" fill="none" xmlns="http://www.w3.org/2000/svg">
<path d="M19.9158 10.3878C19.778 10.6909 16.4664 17.8125 9.99986 17.8125C8.82486 17.8125 7.75517 17.5753 6.78861 17.1888L9.91893 14.0585C9.94611 14.0591 9.97268 14.0625 9.99986 14.0625C12.2399 14.0625 14.0624 12.24 14.0624 10C14.0624 9.97282 14.0589 9.94626 14.0583 9.91907L17.7311 6.24626C19.1227 7.90532 19.8527 9.47345 19.9161 9.6122C20.028 9.85845 20.028 10.1416 19.9158 10.3878ZM18.7877 2.53782L2.53766 18.7878L1.21203 17.4622L3.56641 15.1078C1.33016 13.0581 0.164219 10.5647 0.0839064 10.3878C-0.0279688 10.1413 -0.0279688 9.85845 0.0839064 9.6122C0.221719 9.30907 3.53329 2.1875 9.99986 2.1875C11.9324 2.1875 13.5805 2.82563 14.9483 3.72594L17.4621 1.21219L18.7877 2.53782ZM6.54611 12.1281L7.94142 10.7328C7.85923 10.5034 7.81236 10.2572 7.81236 10C7.81236 8.79376 8.79392 7.81251 9.99986 7.81251C10.2571 7.81251 10.5033 7.85938 10.7327 7.94157L12.128 6.54626C11.5083 6.16282 10.7808 5.93751 9.99986 5.93751C7.75986 5.93751 5.93736 7.76001 5.93736 10C5.93736 10.7809 6.16267 11.5084 6.54611 12.1281Z" fill="#001921"/>
</svg>
