<svg width="20" height="20" viewBox="0 0 20 20" fill="none" xmlns="http://www.w3.org/2000/svg">
<path d="M10 0C4.47737 0 0 4.47737 0 10C0 15.5226 4.47737 20 10 20C15.5226 20 20 15.5226 20 10C20 4.47737 15.5226 0 10 0ZM13.4897 15.0658C13.1893 15.2016 12.8765 15.3169 12.5556 15.4033C11.3374 15.7407 10.1193 15.7531 8.90535 15.358C7.44033 14.8848 6.46914 13.8848 5.88889 12.4856C5.77778 12.214 5.7037 11.93 5.61728 11.6461H4.46914C4.27572 11.6461 4.12346 11.4897 4.12346 11.3004V10.5267C4.12346 10.3333 4.27984 10.1811 4.46914 10.1811H5.41975C5.41975 9.96708 5.41975 9.76543 5.41975 9.55144H4.46914C4.27572 9.55144 4.12346 9.39506 4.12346 9.20576V8.4321C4.12346 8.23868 4.27984 8.08642 4.46914 8.08642H5.67901L5.72016 7.96708C6.04527 6.93416 6.60494 6.04938 7.46502 5.38272C8.14815 4.85185 8.93827 4.55967 9.78601 4.42387C10.9918 4.23045 12.1605 4.39506 13.2922 4.83951C13.3663 4.86831 13.4362 4.90123 13.5062 4.94239C13.7778 5.10288 13.8477 5.30453 13.7284 5.59671C13.6008 5.90123 13.4733 6.20988 13.3333 6.51029C13.214 6.76955 13.0494 6.85185 12.7695 6.79012C12.3868 6.7037 12.0123 6.58436 11.6296 6.50617C10.823 6.34156 10.0206 6.33333 9.23457 6.64198C8.55967 6.90946 8.14815 7.42387 7.86831 8.06584C7.8642 8.07407 7.8642 8.0823 7.8642 8.09054H10.214C10.4074 8.09054 10.5597 8.24691 10.5597 8.43621V9.20988C10.5597 9.40329 10.4033 9.55556 10.214 9.55556H7.53086C7.52675 9.76132 7.53086 9.96708 7.53086 10.1852H10.2181C10.4115 10.1852 10.5638 10.3416 10.5638 10.5309V11.3045C10.5638 11.4979 10.4074 11.6502 10.2181 11.6502H7.76543C8.06173 12.4979 8.54321 13.1523 9.44856 13.4362C10.1728 13.6626 10.9012 13.6502 11.6337 13.4979C12.0123 13.4198 12.3827 13.3045 12.7613 13.2181C13.0576 13.1523 13.2181 13.2305 13.3416 13.5021C13.4815 13.8066 13.6132 14.1152 13.7366 14.428C13.8519 14.7078 13.7778 14.9342 13.4897 15.0658Z" fill="#001921"/>
</svg>
