<svg width="20" height="20" viewBox="0 0 20 20" fill="none" xmlns="http://www.w3.org/2000/svg">
<path fill-rule="evenodd" clip-rule="evenodd" d="M13 19C13 19.5523 13.4477 20 14 20L16.7 20C18.5 20 19.9 18.58 20 16.66V9.36C20 8.44 19.6 7.52 18.9 6.92L12.2 0.84C10.9 -0.28 9.1 -0.28 7.8 0.84L1.1 6.92C0.4 7.54 0 8.44 0 9.36V16.66C0 18.48 1.5 20 3.3 20L5.97026 20C6.52254 20 6.97026 19.5523 6.97026 19V13.0149C6.97026 11.3498 8.32006 10 9.98513 10C11.6502 10 13 11.3498 13 13.0149V19Z" fill="#001921"/>
</svg>
