<svg width="20" height="20" viewBox="0 0 20 20" fill="none" xmlns="http://www.w3.org/2000/svg">
<path fill-rule="evenodd" clip-rule="evenodd" d="M0 10C0 15.5228 4.47715 20 10 20C15.5228 20 20 15.5228 20 10C20 4.47715 15.5228 0 10 0C4.47715 0 0 4.47715 0 10ZM10.2748 6.29289C10.6654 5.90237 11.2985 5.90237 11.689 6.29289C12.0796 6.68342 12.0796 7.31658 11.689 7.70711L9.39615 10L11.689 12.2929C12.0796 12.6834 12.0796 13.3166 11.689 13.7071C11.2985 14.0976 10.6654 14.0976 10.2748 13.7071L7.27483 10.7071C6.8843 10.3166 6.8843 9.68342 7.27483 9.29289L10.2748 6.29289Z" fill="#001921"/>
</svg>
