<svg width="18" height="18" viewBox="0 0 18 18" fill="none" xmlns="http://www.w3.org/2000/svg">
<g clip-path="url(#clip0_3728_11717)">
<path d="M0.0943305 17.7734C0.192698 17.915 0.354381 18 0.52742 18H17.4726C17.6456 18 17.8073 17.915 17.9057 17.7734C18.0045 17.6312 18.0272 17.45 17.9664 17.2878C17.761 16.7383 17.3768 16.2562 17.2207 16.075C17.1208 15.9581 16.9746 15.8906 16.8206 15.8906H1.17939C1.02541 15.8906 0.879157 15.9581 0.779244 16.075C0.62322 16.2562 0.239033 16.7383 0.0335454 17.2878C-0.0272045 17.45 -0.0045639 17.6312 0.0943305 17.7734Z" fill="#07A279"/>
<path d="M2.10938 8.47266H5.30858V14.8359H2.10938V8.47266Z" fill="#07A279"/>
<path d="M7.41797 8.47266H10.582V14.8359H7.41797V8.47266Z" fill="#07A279"/>
<path d="M12.6914 8.47266H15.8906V14.8359H12.6914V8.47266Z" fill="#07A279"/>
<path d="M1.14142 7.26266C1.24042 7.36205 1.37819 7.41794 1.51446 7.41794C1.51453 7.41794 1.51463 7.41787 1.5147 7.41787C1.51477 7.41787 1.51488 7.41794 1.51495 7.41759H16.485C16.4851 7.41794 16.4852 7.41787 16.4853 7.41787C16.4853 7.41787 16.4854 7.41794 16.4855 7.41794C16.6218 7.41794 16.7596 7.36208 16.8586 7.26266C16.9659 7.15537 17.7678 6.32024 17.9999 5.30859H0C0.232207 6.32024 1.03408 7.15537 1.14142 7.26266Z" fill="#07A279"/>
<path d="M17.6647 4.25389L9.23617 0.0556084C9.08784 -0.0185361 8.91277 -0.0185361 8.76444 0.0556084L0.335938 4.25389H17.6647Z" fill="#07A279"/>
</g>
<defs>
<clipPath id="clip0_3728_11717">
<rect width="18" height="18" fill="white"/>
</clipPath>
</defs>
</svg>
