<svg width="18" height="18" viewBox="0 0 18 18" fill="none" xmlns="http://www.w3.org/2000/svg">
<path fill-rule="evenodd" clip-rule="evenodd" d="M18 9C18 4.02944 13.9706 0 9 0C4.02944 0 0 4.02944 0 9C0 13.9706 4.02944 18 9 18C13.9706 18 18 13.9706 18 9ZM9 13.5C9.49706 13.5 9.9 13.0971 9.9 12.6V9C9.9 8.50294 9.49706 8.1 9 8.1C8.50294 8.1 8.1 8.50294 8.1 9V12.6C8.1 13.0971 8.50294 13.5 9 13.5ZM8.1 5.4C8.1 5.89706 8.50294 6.3 9 6.3H9.009C9.50606 6.3 9.909 5.89706 9.909 5.4C9.909 4.90294 9.50606 4.5 9.009 4.5H9C8.50294 4.5 8.1 4.90294 8.1 5.4Z" fill="white"/>
</svg>
