<svg width="20" height="20" viewBox="0 0 20 20" fill="none" xmlns="http://www.w3.org/2000/svg">
<path d="M0 8.2876V14.4636C0 15.9541 1.20829 17.1624 2.69882 17.1624H17.3012C18.7917 17.1624 20 15.9541 20 14.4636V8.2876C20 8.02839 19.7898 7.81824 19.5306 7.81824H0.46936C0.210156 7.81824 0 8.02839 0 8.2876ZM4.99349 11.5731H3.74186C3.28822 11.5731 2.92048 11.2054 2.92048 10.7517C2.92048 10.2981 3.28822 9.93036 3.74186 9.93036H4.99349C5.44712 9.93036 5.81487 10.2981 5.81487 10.7517C5.81487 11.2054 5.44712 11.5731 4.99349 11.5731Z" fill="#001921"/>
<path d="M20 5.70607V5.53659C20 4.04606 18.7917 2.83777 17.3012 2.83777H2.69882C1.20829 2.83777 0 4.04606 0 5.53659V5.70607C0 5.96527 0.210156 6.17543 0.46936 6.17543H19.5306C19.7898 6.17543 20 5.96527 20 5.70607Z" fill="#001921"/>
</svg>
