<svg width="20" height="20" viewBox="0 0 20 20" fill="none" xmlns="http://www.w3.org/2000/svg">
<path d="M10 0C4.48594 0 0 4.48594 0 10C0 15.5141 4.48594 20 10 20C15.5141 20 20 15.5141 20 10C20 4.48594 15.5141 0 10 0ZM10.6628 14.7253C10.48 14.9084 10.24 15 10 15C9.76 15 9.52 14.9084 9.33719 14.7253L5.9375 11.3256C5.57144 10.9596 5.57144 10.3661 5.9375 10C6.30356 9.63394 6.89706 9.63394 7.26312 10L9.0625 11.7994V6.25C9.0625 5.73223 9.48223 5.3125 10 5.3125C10.5178 5.3125 10.9375 5.73223 10.9375 6.25V11.7994L12.7369 10C13.1029 9.63394 13.6964 9.63394 14.0625 10C14.4286 10.3661 14.4286 10.9596 14.0625 11.3256L10.6628 14.7253Z" fill="#001921"/>
</svg>
