<svg width="20" height="20" viewBox="0 0 20 20" fill="none" xmlns="http://www.w3.org/2000/svg">
<g clip-path="url(#clip0_62_1532)">
<path d="M11.0884 0H8.22448C7.84579 0 7.53809 0.3077 7.53809 0.686389C7.53809 1.06508 7.84579 1.37278 8.22448 1.37278H11.0884C11.4671 1.37278 11.7748 1.06508 11.7748 0.686389C11.7748 0.3077 11.4671 0 11.0884 0Z" fill="#001921"/>
<path d="M18.7337 4.52076L16.8639 2.65096C16.6036 2.3906 16.1775 2.3906 15.8935 2.65096C15.6332 2.91132 15.6332 3.33735 15.8935 3.62135L17.7397 5.46751C17.8817 5.60953 18.0474 5.65688 18.213 5.65688C18.3787 5.65688 18.5681 5.58589 18.6864 5.46751C18.9941 5.20715 18.9941 4.78112 18.7337 4.52076Z" fill="#001921"/>
<path d="M9.64522 2.86389C4.91148 2.86389 1.07715 6.69823 1.07715 11.432C1.07715 16.1657 4.91148 20 9.64522 20C14.379 20 18.2133 16.1657 18.2133 11.432C18.2133 6.69823 14.379 2.86389 9.64522 2.86389ZM13.1955 12.355H9.64522C9.26653 12.355 8.95883 12.0473 8.95883 11.6686V7.21894C8.95883 6.84025 9.26653 6.53255 9.64522 6.53255C10.0239 6.53255 10.3316 6.84025 10.3316 7.21894V11.0059H13.1955C13.5742 11.0059 13.8819 11.3136 13.8819 11.6923C13.8819 12.0474 13.5742 12.355 13.1955 12.355Z" fill="#001921"/>
</g>
<defs>
<clipPath id="clip0_62_1532">
<rect width="20" height="20" fill="white"/>
</clipPath>
</defs>
</svg>
