<svg width="17" height="17" viewBox="0 0 17 17" fill="none" xmlns="http://www.w3.org/2000/svg">
<g clip-path="url(#clip0_3733_106472)">
<g clip-path="url(#clip1_3733_106472)">
<path d="M14.587 4.43247H12.9175L11.9957 3.04116C11.6479 2.51943 11.0392 2.20638 10.4131 2.20638H6.58705C5.96096 2.20638 5.35227 2.51943 5.00444 3.04116L4.0827 4.43247H2.41313C1.35227 4.43247 0.500092 5.28464 0.500092 6.34551V13.0933C0.500092 14.1542 1.35227 15.0064 2.41313 15.0064H14.587C15.6479 15.0064 16.5001 14.1542 16.5001 13.0933V6.34551C16.5001 5.28464 15.6479 4.43247 14.587 4.43247ZM8.50009 13.4412C6.11748 13.4412 4.18705 11.5107 4.18705 9.12812C4.18705 6.74551 6.11748 4.83247 8.50009 4.83247C10.8827 4.83247 12.8131 6.7629 12.8131 9.14551C12.8131 11.5107 10.8827 13.4412 8.50009 13.4412ZM14.3436 7.12812C14.3262 7.12812 14.3088 7.12812 14.274 7.12812H13.5784C13.2653 7.11073 13.0218 6.84986 13.0392 6.53682C13.0566 6.24116 13.2827 6.01508 13.5784 5.99769H14.274C14.587 5.98029 14.8479 6.22377 14.8653 6.53682C14.8827 6.84986 14.6566 7.11073 14.3436 7.12812Z" fill="#07A279"/>
<path d="M8.5001 6.74551C7.17836 6.74551 6.1001 7.82378 6.1001 9.14551C6.1001 10.4673 7.17836 11.5281 8.5001 11.5281C9.82184 11.5281 10.9001 10.4499 10.9001 9.12812C10.9001 7.80638 9.82184 6.74551 8.5001 6.74551Z" fill="#07A279"/>
</g>
</g>
<defs>
<clipPath id="clip0_3733_106472">
<rect width="16" height="16" fill="white" transform="translate(0.500092 0.606384)"/>
</clipPath>
<clipPath id="clip1_3733_106472">
<rect width="16" height="16" fill="white" transform="translate(0.500092 0.606384)"/>
</clipPath>
</defs>
</svg>
