<svg width="20" height="20" viewBox="0 0 20 20" fill="none" xmlns="http://www.w3.org/2000/svg">
<path d="M10 0.00976562C4.49133 0.00976562 0.00976562 4.49133 0.00976562 10C0.00976562 15.5087 4.49133 19.9903 10 19.9903C15.5087 19.9903 19.9903 15.5087 19.9903 10C19.9903 4.49133 15.5087 0.00976562 10 0.00976562ZM10 14.9951C9.31131 14.9951 8.75123 14.4351 8.75123 13.7464C8.75123 13.0576 9.31131 12.4976 10 12.4976C10.6887 12.4976 11.2488 13.0576 11.2488 13.7464C11.2488 14.4351 10.6887 14.9951 10 14.9951ZM11.1127 10.0831C11.0171 10.1261 10.9475 10.2338 10.9475 10.3522C10.9366 10.8158 10.9366 11.245 10.9366 11.2488H9.06342C9.06342 11.2488 9.06342 10.7955 9.07466 10.3297C9.07435 9.49769 9.57792 8.71907 10.3575 8.3691C10.7143 8.21457 10.9366 7.87677 10.9366 7.50245C10.9366 6.98608 10.5164 6.56586 10 6.56586C9.48364 6.56586 9.06342 6.98608 9.06342 7.50245H7.19025C7.19025 5.95302 8.45059 4.69269 10 4.69269C11.5494 4.69269 12.8098 5.95302 12.8098 7.50245C12.8098 8.62479 12.1435 9.63786 11.1127 10.0831Z" fill="#001921"/>
</svg>
