<svg width="20" height="20" viewBox="0 0 20 20" fill="none" xmlns="http://www.w3.org/2000/svg">
<g clip-path="url(#clip0_62_916)">
<path fill-rule="evenodd" clip-rule="evenodd" d="M9.99995 20C14.013 20.0037 17.2693 16.7535 17.2731 12.7404C17.2751 10.5304 16.2713 8.43955 14.5454 7.05913V4.5455C14.5454 2.03505 12.5104 0 9.99995 0C7.48954 0 5.45453 2.03505 5.45453 4.54546V7.05909C2.32056 9.56572 1.81201 14.1383 4.31864 17.2723C5.69905 18.9982 7.78991 20.002 9.99995 20ZM7.2727 4.54546C7.2727 3.03923 8.49372 1.81817 9.99999 1.81817C11.5063 1.81817 12.7273 3.03919 12.7273 4.54546V5.99002C10.9792 5.27613 9.02085 5.27613 7.27273 5.99002L7.2727 4.54546ZM9.09068 15.4545V13.3844C8.81429 13.2249 8.58477 12.9954 8.42518 12.7189C7.92308 11.8494 8.22105 10.7374 9.09068 10.2353C9.96031 9.73319 11.0723 10.0312 11.5744 10.9008C12.0764 11.7704 11.7785 12.8824 10.9089 13.3844V15.4545C10.9089 15.9565 10.5019 16.3636 9.99977 16.3636C9.49767 16.3636 9.09068 15.9566 9.09068 15.4545Z" fill="#001921"/>
</g>
<defs>
<clipPath id="clip0_62_916">
<rect width="20" height="20" fill="white"/>
</clipPath>
</defs>
</svg>
