<svg width="20" height="20" viewBox="0 0 20 20" fill="none" xmlns="http://www.w3.org/2000/svg">
<path d="M2.5 12.8787C3.88069 12.8787 5 11.7593 5 10.3787C5 8.99805 3.88069 7.87866 2.5 7.87866C1.11931 7.87866 0 8.99805 0 10.3787C0 11.7593 1.11931 12.8787 2.5 12.8787Z" fill="#57616A"/>
<path d="M10 12.8787C11.3807 12.8787 12.5 11.7593 12.5 10.3787C12.5 8.99805 11.3807 7.87866 10 7.87866C8.61931 7.87866 7.5 8.99805 7.5 10.3787C7.5 11.7593 8.61931 12.8787 10 12.8787Z" fill="#57616A"/>
<path d="M20 10.3787C20 11.7593 18.8807 12.8787 17.5 12.8787C16.1193 12.8787 15 11.7593 15 10.3787C15 8.99805 16.1193 7.87866 17.5 7.87866C18.8807 7.87866 20 8.99805 20 10.3787Z" fill="#57616A"/>
</svg>
