<svg width="20" height="20" viewBox="0 0 20 20" fill="none" xmlns="http://www.w3.org/2000/svg">
<path d="M5.1185 2.75091C5.14187 2.79226 5.15915 2.82284 5.17144 2.85093L5.07466 2.91749C5.082 2.93966 5.08612 2.96535 5.08612 3.02626C5.08612 3.08718 5.08201 3.11286 5.07467 3.13501C5.06589 3.16152 5.05062 3.18953 5.0131 3.25599C4.90038 3.45561 4.72363 3.76926 4.72363 4.31021V5.14343H6.37626V4.31021C6.37626 4.24932 6.38037 4.22364 6.38771 4.20147C6.39649 4.17496 6.41176 4.14693 6.44928 4.08048C6.562 3.88086 6.73875 3.56721 6.73875 3.02626C6.73875 2.48531 6.56201 2.17166 6.44929 1.97204L6.35507 2.03684L6.35044 2.02865C6.32383 1.98151 6.30483 1.94784 6.29146 1.91727L6.38772 1.85106C6.38038 1.82889 6.37626 1.8032 6.37626 1.7423V0.909084H4.72363V1.7423C4.72363 2.28324 4.90037 2.59689 5.01309 2.79651L5.10756 2.73154L5.1185 2.75091Z" fill="#001921"/>
<path d="M10.6565 1.85106C10.6652 1.87758 10.6805 1.9056 10.718 1.97203C10.8307 2.17165 11.0075 2.4853 11.0075 3.02626C11.0075 3.56721 10.8307 3.88086 10.718 4.08048C10.6805 4.14692 10.6652 4.17496 10.6564 4.20147C10.6491 4.22364 10.645 4.24932 10.645 4.31021V5.14343H8.99239V4.31021C8.99239 3.76926 9.16913 3.45561 9.28185 3.25599C9.31937 3.18953 9.33464 3.16152 9.34342 3.13501C9.35076 3.11286 9.35487 3.08718 9.35487 3.02626C9.35487 2.96535 9.35075 2.93966 9.34341 2.91749C9.33462 2.89097 9.31935 2.86295 9.28185 2.79652C9.16913 2.5969 8.99239 2.28325 8.99239 1.7423V0.909084H10.645V1.7423C10.645 1.8032 10.6491 1.82889 10.6565 1.85106Z" fill="#001921"/>
<path fill-rule="evenodd" clip-rule="evenodd" d="M13.6565 2.7508C13.6799 2.79222 13.6972 2.82281 13.7095 2.85093L13.6127 2.91749C13.6201 2.93966 13.6242 2.96535 13.6242 3.02626C13.6242 3.08718 13.6201 3.11286 13.6127 3.13501C13.604 3.16152 13.5887 3.18953 13.5512 3.25598C13.4384 3.45561 13.2617 3.76926 13.2617 4.31021V5.14343H14.9143V4.31021C14.9143 4.24932 14.9184 4.22364 14.9258 4.20147C14.9346 4.17496 14.9498 4.14693 14.9873 4.08049C15.1001 3.88086 15.2768 3.56721 15.2768 3.02626C15.2768 2.48531 15.1001 2.17166 14.9874 1.97204C14.9498 1.9056 14.9346 1.87759 14.9258 1.85106C14.9184 1.82889 14.9143 1.8032 14.9143 1.7423V0.909084H13.2617V1.7423C13.2617 2.28324 13.4384 2.59689 13.5512 2.79651L13.6503 2.73985L13.6565 2.7508ZM14.9874 1.97204L14.8931 2.03684L14.8886 2.02875L14.9874 1.97204Z" fill="#001921"/>
<path fill-rule="evenodd" clip-rule="evenodd" d="M1.90784 11.5579C1.90784 11.3575 1.74536 11.195 1.54493 11.195C0.691691 11.195 0 10.5033 0 9.65006V8.99965C0 7.7872 0.98289 6.80431 2.19535 6.80431H17.8047C19.0171 6.80431 20 7.7872 20 8.99965V9.65006C20 10.5033 19.3083 11.195 18.4551 11.195C18.2546 11.195 18.0922 11.3575 18.0922 11.5579V16.2012C18.0922 17.7947 16.8067 19.0909 15.2264 19.0909H4.77358C3.1933 19.0909 1.90784 17.7947 1.90784 16.2012V11.5579Z" fill="#001921"/>
</svg>
