<svg width="20" height="20" viewBox="0 0 20 20" fill="none" xmlns="http://www.w3.org/2000/svg">
<path fill-rule="evenodd" clip-rule="evenodd" d="M10 20C4.48645 20 0 15.5143 0 10C0 4.48645 4.48645 0 10 0C15.5143 0 20 4.48645 20 10C20 15.5143 15.5143 20 10 20Z" fill="#001921"/>
<path fill-rule="evenodd" clip-rule="evenodd" d="M14.3033 6.80877C14.715 7.22047 14.715 7.88796 14.3033 8.29966L9.41177 13.1912C9.21407 13.3889 8.94592 13.5 8.66633 13.5C8.38673 13.5 8.11859 13.3889 7.92088 13.1912L5.69744 10.9678C5.28575 10.5561 5.28575 9.8886 5.69744 9.4769C6.10914 9.0652 6.77664 9.0652 7.18833 9.4769L8.66633 10.9549L12.8124 6.80877C13.2241 6.39708 13.8916 6.39708 14.3033 6.80877Z" fill="white"/>
</svg>
