<svg width="21" height="20" viewBox="0 0 21 20" fill="none" xmlns="http://www.w3.org/2000/svg">
<path fill-rule="evenodd" clip-rule="evenodd" d="M13.004 1.35517C13.7002 1.06673 14.4463 0.918274 15.1998 0.918274C15.9533 0.918274 16.6994 1.06673 17.3955 1.35517C18.0915 1.64355 18.7239 2.06619 19.2565 2.59897C19.2565 2.59903 19.2566 2.59908 19.2566 2.59914C19.2567 2.59919 19.2567 2.59925 19.2568 2.5993C19.7896 3.13192 20.2122 3.76427 20.5006 4.46024C20.789 5.15635 20.9375 5.90247 20.9375 6.65598C20.9375 7.40949 20.789 8.15561 20.5006 8.85173C20.2122 9.54777 19.7895 10.1802 19.2566 10.7128C19.2566 10.7129 19.2565 10.7129 19.2565 10.713L11.6444 18.3251C11.4568 18.5126 11.2025 18.618 10.9373 18.618C10.6721 18.618 10.4177 18.5126 10.2302 18.3251L2.6179 10.7128C1.54196 9.63689 0.9375 8.17759 0.9375 6.65598C0.9375 5.13437 1.54196 3.67508 2.6179 2.59914C3.69384 1.52319 5.15313 0.918734 6.67475 0.918734C8.19636 0.918734 9.65565 1.52319 10.7316 2.59914L10.9373 2.80481L11.1428 2.5993C11.1428 2.59925 11.1429 2.59919 11.1429 2.59914C11.6756 2.06628 12.308 1.64358 13.004 1.35517ZM15.1998 2.91827C14.709 2.91827 14.223 3.01497 13.7696 3.20284C13.3162 3.39071 12.9043 3.66606 12.5573 4.01318L12.5572 4.01335L11.6444 4.92613C11.2539 5.31666 10.6207 5.31666 10.2302 4.92613L9.31738 4.01335C8.61651 3.31248 7.66593 2.91873 6.67475 2.91873C5.68357 2.91873 4.73298 3.31248 4.03211 4.01335C3.33124 4.71422 2.9375 5.6648 2.9375 6.65598C2.9375 7.64716 3.33124 8.59775 4.03211 9.29862L10.9373 16.2038L17.8424 9.29862L17.8426 9.29845C18.1897 8.9515 18.4651 8.53955 18.6529 8.08614C18.8408 7.63274 18.9375 7.14676 18.9375 6.65598C18.9375 6.1652 18.8408 5.67922 18.6529 5.22582C18.4651 4.77242 18.1897 4.36047 17.8426 4.01351L17.8423 4.01318C17.4953 3.66606 17.0834 3.39071 16.63 3.20284C16.1766 3.01497 15.6906 2.91827 15.1998 2.91827Z" fill="#001921"/>
</svg>
