<svg width="20" height="20" viewBox="0 0 20 20" fill="none" xmlns="http://www.w3.org/2000/svg">
<path d="M8.74432 11.8873C8.74432 11.5623 8.47831 11.2971 8.15404 11.2971H5.20266V13.6582C5.20266 14.0927 4.85007 14.4452 4.41562 14.4452C3.98118 14.4452 3.62858 14.0927 3.62858 13.6582V11.2971H0.677192C0.352145 11.2971 0.0869141 11.5623 0.0869141 11.8873V19.3642C0.0869141 19.6893 0.352145 19.9546 0.677192 19.9546H8.15404C8.47831 19.9546 8.74432 19.6893 8.74432 19.3642V11.8873Z" fill="#001921"/>
<path d="M18.9758 11.8873C18.9758 11.5623 18.7098 11.2971 18.3855 11.2971H15.4341V13.6582C15.4341 14.0927 15.0816 14.4452 14.6471 14.4452C14.2127 14.4452 13.86 14.0927 13.86 13.6582V11.2971H10.9086C10.5836 11.2971 10.3184 11.5623 10.3184 11.8873V19.3642C10.3184 19.6893 10.5836 19.9546 10.9086 19.9546H18.3855C18.7098 19.9546 18.9758 19.6893 18.9758 19.3642V11.8873Z" fill="#001921"/>
<path d="M13.8606 1.65596C13.8606 1.33169 13.5945 1.06567 13.2702 1.06567H10.3189V3.42679C10.3189 3.86124 9.96628 4.21382 9.53184 4.21382C9.09739 4.21382 8.74479 3.86124 8.74479 3.42679V1.06567H5.7934C5.46836 1.06567 5.20312 1.33169 5.20312 1.65596V9.1328C5.20312 9.45786 5.46836 9.72308 5.7934 9.72308H13.2702C13.5945 9.72308 13.8606 9.45786 13.8606 9.1328V1.65596Z" fill="#001921"/>
</svg>
