<svg width="21" height="21" viewBox="0 0 21 21" fill="none" xmlns="http://www.w3.org/2000/svg">
<path fill-rule="evenodd" clip-rule="evenodd" d="M20.245 3.19329C20.9183 2.51997 20.9183 1.42831 20.245 0.754988C19.5717 0.0816706 18.48 0.0816706 17.8067 0.754988L10.75 7.8117L3.69329 0.754988C3.01997 0.0816706 1.92831 0.0816706 1.25499 0.754988C0.581671 1.42831 0.581671 2.51997 1.25499 3.19329L8.3117 10.25L1.25499 17.3067C0.581671 17.98 0.581671 19.0717 1.25499 19.745C1.92831 20.4183 3.01997 20.4183 3.69329 19.745L10.75 12.6883L17.8067 19.745C18.48 20.4183 19.5717 20.4183 20.245 19.745C20.9183 19.0717 20.9183 17.98 20.245 17.3067L13.1883 10.25L20.245 3.19329Z" fill="#001921"/>
</svg>
