<svg width="20" height="20" viewBox="0 0 20 20" fill="none" xmlns="http://www.w3.org/2000/svg">
<g clip-path="url(#clip0_62_1564)">
<path d="M2.17647 4.11755H0V11.7646V14.1176V18.2352H2.17647V14.1176H4.88235V18.2352H7.05882V14.1176V11.7646H2.17647V4.11755Z" fill="#001921"/>
<path d="M17.8238 4.11755V11.7646H12.9414V14.1176V18.2352H15.1179V14.1176H17.8238V18.2352H20.0002V14.1176V11.7646V4.11755H17.8238Z" fill="#001921"/>
<path d="M15.8819 7.64706C15.8819 6.99733 15.3552 6.47058 14.7054 6.47058H5.29366C4.64393 6.47058 4.11719 6.99733 4.11719 7.64706V8.82353H15.8819V7.64706Z" fill="#001921"/>
<path d="M11.0917 9.99988H8.91526V16.43L8.23535 16.43V18.2352H11.7648V16.43L11.0917 16.43V9.99988Z" fill="#001921"/>
<path d="M10.5886 2.99057V1.76465H9.41214V2.99057C8.13893 3.20516 7.09501 4.10363 6.67285 5.29407H13.3279C12.9057 4.10363 11.8618 3.20512 10.5886 2.99057Z" fill="#001921"/>
</g>
<defs>
<clipPath id="clip0_62_1564">
<rect width="20" height="20" fill="white"/>
</clipPath>
</defs>
</svg>
