<svg width="14" height="13" viewBox="0 0 14 13" fill="none" xmlns="http://www.w3.org/2000/svg">
<g opacity="0.6">
<path fill-rule="evenodd" clip-rule="evenodd" d="M6.07143 1.85714C4.02009 1.85714 2.35714 3.52009 2.35714 5.57143C2.35714 7.62277 4.02009 9.28572 6.07143 9.28572C8.12277 9.28572 9.78572 7.62277 9.78572 5.57143C9.78572 3.52009 8.12277 1.85714 6.07143 1.85714ZM0.5 5.57143C0.5 2.49441 2.99441 0 6.07143 0C9.14845 0 11.6429 2.49441 11.6429 5.57143C11.6429 6.7747 11.2614 7.88888 10.6128 8.79964L13.228 11.4148C13.5907 11.7775 13.5907 12.3654 13.228 12.728C12.8654 13.0907 12.2775 13.0907 11.9148 12.728L9.29964 10.1128C8.38888 10.7614 7.2747 11.1429 6.07143 11.1429C2.99441 11.1429 0.5 8.64845 0.5 5.57143Z" fill="#57616A"/>
</g>
</svg>
