<svg width="20" height="20" viewBox="0 0 20 20" fill="none" xmlns="http://www.w3.org/2000/svg">
<g clip-path="url(#clip0_62_654)">
<path d="M13.7232 0.58689C13.7305 0.159684 13.2542 -0.134872 12.8753 0.0628525L6.55664 3.22219H13.7232V0.58689Z" fill="#001921"/>
<path d="M9.99921 9.3313C9.1423 9.3313 8.41444 9.89428 8.16602 10.6698H11.8324C11.584 9.89424 10.8561 9.3313 9.99921 9.3313Z" fill="#001921"/>
<path d="M15.6479 4.39398H4.35153C4.02796 4.39398 3.76562 4.65631 3.76562 4.97989V19.4141C3.76562 19.7377 4.02796 20 4.35153 20H15.6479C15.9714 20 16.2338 19.7377 16.2338 19.4141V4.97989C16.2338 4.65631 15.9714 4.39398 15.6479 4.39398ZM11.2548 17.4897H8.74452C7.96886 17.4613 7.96776 16.3467 8.74452 16.3179H11.2548C11.5784 16.3179 11.8407 16.5802 11.8407 16.9038C11.8407 17.2274 11.5784 17.4897 11.2548 17.4897ZM13.1376 14.9794H6.8618C6.08719 14.9515 6.08403 13.8368 6.8618 13.8076H13.1376C13.9122 13.8355 13.9153 14.9502 13.1376 14.9794ZM13.1376 11.8415H6.8618C6.53822 11.8415 6.27589 11.5792 6.27589 11.2556C6.27765 10.8832 6.59892 10.6336 6.95981 10.6697C7.198 9.43159 8.17564 8.45395 9.41375 8.21575C9.35551 7.30791 10.644 7.30845 10.5856 8.21575C11.8237 8.45395 12.8013 9.43159 13.0395 10.6697C13.8847 10.6033 13.9743 11.7913 13.1376 11.8415Z" fill="#001921"/>
</g>
<defs>
<clipPath id="clip0_62_654">
<rect width="20" height="20" fill="white"/>
</clipPath>
</defs>
</svg>
