<svg width="16" height="16" viewBox="0 0 16 16" fill="none" xmlns="http://www.w3.org/2000/svg">
<g clip-path="url(#clip0_3728_26747)">
<path fill-rule="evenodd" clip-rule="evenodd" d="M7.91988 15.5C10.9297 15.5028 13.3719 13.0651 13.3747 10.0553C13.3763 8.3978 12.6234 6.82966 11.329 5.79435V3.90912C11.329 2.02629 9.80269 0.5 7.91988 0.5C6.03708 0.5 4.51082 2.02629 4.51082 3.90909V5.79432C2.16034 7.67429 1.77893 11.1038 3.6589 13.4542C4.69421 14.7487 6.26235 15.5015 7.91988 15.5ZM5.87444 3.90909C5.87444 2.77942 6.79021 1.86363 7.91991 1.86363C9.04961 1.86363 9.96538 2.77939 9.96538 3.90909V4.99252C8.65429 4.4571 7.18556 4.4571 5.87447 4.99252L5.87444 3.90909ZM7.23793 12.0908V10.5383C7.03064 10.4187 6.8585 10.2465 6.7388 10.0392C6.36224 9.38702 6.58571 8.55303 7.23793 8.17646C7.89015 7.79989 8.72412 8.02336 9.10069 8.67558C9.47726 9.32781 9.25378 10.1618 8.60156 10.5383V12.0908C8.60156 12.4674 8.29631 12.7727 7.91975 12.7727C7.54318 12.7727 7.23793 12.4674 7.23793 12.0908Z" fill="#07A279"/>
</g>
<defs>
<clipPath id="clip0_3728_26747">
<rect width="15" height="15" fill="white" transform="translate(0.419922 0.5)"/>
</clipPath>
</defs>
</svg>
