<svg width="20" height="20" viewBox="0 0 20 20" fill="none" xmlns="http://www.w3.org/2000/svg">
<g clip-path="url(#clip0_431_2748)">
<path d="M8.00627 0.0338135C7.4863 0.0338135 7.13965 0.467124 7.13965 0.900435V1.76706C7.13965 2.28703 7.57296 2.63368 8.00627 2.63368H11.9061C12.426 2.63368 12.7727 2.20037 12.7727 1.76706V0.900435C12.7727 0.380462 12.3394 0.0338135 11.9061 0.0338135H8.00627Z" fill="#001921"/>
<path d="M15.8061 0.467163H14.5928V0.900474V1.76709C14.5928 3.24035 13.3796 4.36696 11.993 4.36696H8.09316C6.6199 4.36696 5.4933 3.15369 5.4933 1.76709V0.900474C5.4933 0.727149 5.4933 0.640487 5.4933 0.467163H4.19336C2.72011 0.467163 1.50684 1.68043 1.50684 3.24035V17.2796C1.50684 18.7529 2.72011 19.9661 4.19336 19.9661H15.8061C17.2793 19.9661 18.4926 18.7529 18.4926 17.2796V3.24035C18.4926 1.68043 17.2793 0.467163 15.8061 0.467163V0.467163ZM8.61313 14.3331L7.13988 15.8064C6.79323 16.153 6.27325 16.153 5.92661 15.8064L5.14665 15.0264C4.8 14.6797 4.8 14.1598 5.14665 13.8131C5.49329 13.4665 6.01327 13.4665 6.35992 13.8131L6.53324 13.9864L7.39986 13.1198C7.74651 12.7732 8.26648 12.7732 8.61313 13.1198C8.95978 13.4665 8.95978 13.9864 8.61313 14.3331ZM8.61313 8.35341L7.13988 9.82667C6.79323 10.1733 6.27325 10.1733 5.92661 9.82667L5.14665 9.04671C4.8 8.70006 4.8 8.18009 5.14665 7.83344C5.49329 7.48679 6.01327 7.48679 6.35992 7.83344L6.53324 8.00676L7.39986 7.14014C7.74651 6.7935 8.26648 6.7935 8.61313 7.14014C8.95978 7.48679 8.95978 8.00677 8.61313 8.35341V8.35341ZM14.2462 15.2864H11.473C11.0397 15.2864 10.6064 14.9397 10.6064 14.4198C10.6064 13.8998 10.953 13.5531 11.473 13.5531H14.2462C14.6795 13.5531 15.1128 13.8998 15.1128 14.4198C15.1128 14.9397 14.6795 15.2864 14.2462 15.2864ZM14.2462 9.3067H11.473C11.0397 9.3067 10.6064 8.96005 10.6064 8.44008C10.6064 7.9201 10.953 7.57345 11.473 7.57345H14.2462C14.6795 7.57345 15.1128 7.9201 15.1128 8.44008C15.1128 8.96005 14.6795 9.3067 14.2462 9.3067Z" fill="#001921"/>
</g>
<defs>
<clipPath id="clip0_431_2748">
<rect width="17.0616" height="20" fill="white" transform="translate(1.46875)"/>
</clipPath>
</defs>
</svg>
