<svg width="20" height="20" viewBox="0 0 20 20" fill="none" xmlns="http://www.w3.org/2000/svg">
<g clip-path="url(#clip0_62_1499)">
<path d="M7.5 2.87866C7.5 4.25935 8.61938 5.37866 10 5.37866C11.3806 5.37866 12.5 4.25935 12.5 2.87866C12.5 1.49797 11.3806 0.378662 10 0.378662C8.61938 0.378662 7.5 1.49797 7.5 2.87866Z" fill="#001921"/>
<path d="M7.5 10.3787C7.5 11.7594 8.61938 12.8787 10 12.8787C11.3806 12.8787 12.5 11.7594 12.5 10.3787C12.5 8.99797 11.3806 7.87866 10 7.87866C8.61938 7.87866 7.5 8.99797 7.5 10.3787Z" fill="#001921"/>
<path d="M10 20.3787C8.61938 20.3787 7.5 19.2594 7.5 17.8787C7.5 16.498 8.61938 15.3787 10 15.3787C11.3806 15.3787 12.5 16.498 12.5 17.8787C12.5 19.2594 11.3806 20.3787 10 20.3787Z" fill="#001921"/>
</g>
<defs>
<clipPath id="clip0_62_1499">
<rect width="20" height="20" fill="white"/>
</clipPath>
</defs>
</svg>
