<svg width="16" height="16" viewBox="0 0 16 16" fill="none" xmlns="http://www.w3.org/2000/svg">
<path d="M12.9102 4.46546H3.08985C2.79267 4.46546 2.55176 4.70635 2.55176 5.0035V13.409C2.55176 14.8377 3.71414 16 5.14274 16H10.8571C12.2857 16 13.4481 14.8377 13.4481 13.409V5.0035C13.4481 4.70638 13.2073 4.46546 12.9102 4.46546ZM6.7065 12.7593C6.7065 13.1243 6.41055 13.4203 6.04543 13.4203C5.68044 13.4203 5.38436 13.1243 5.38436 12.7593V7.70614C5.38436 7.34104 5.68038 7.04512 6.04543 7.04512C6.41053 7.04512 6.7065 7.34107 6.7065 7.70614V12.7593ZM10.6155 12.7593C10.6155 13.1243 10.3196 13.4203 9.95448 13.4203C9.58948 13.4203 9.2934 13.1243 9.2934 12.7593V7.70614C9.2934 7.34104 9.58943 7.04512 9.95448 7.04512C10.3196 7.04512 10.6155 7.34107 10.6155 7.70614V12.7593Z" fill="white"/>
<path d="M12.3709 0.837177H10.027V0.633909C10.027 0.284366 9.74272 0 9.39321 0H6.60652C6.25697 0 5.97261 0.284366 5.97261 0.633909V0.837177H3.62871C2.7312 0.837177 2.00098 1.56735 2.00098 2.46489V3.50865C2.00098 3.69532 2.1523 3.84667 2.33904 3.84667H13.6607C13.8473 3.84667 13.9987 3.69532 13.9987 3.50865V2.46489C13.9987 1.56737 13.2685 0.837177 12.3709 0.837177Z" fill="white"/>
</svg>
