<svg width="20" height="20" viewBox="0 0 20 20" fill="none" xmlns="http://www.w3.org/2000/svg">
<g clip-path="url(#clip0_62_822)">
<path d="M8.58366 0C8.167 0 7.83366 0.0833333 7.58366 0.25C7.33366 0.333333 7.08366 0.5 6.83366 0.75L3.00033 4.41667C2.75033 4.58333 2.58366 4.83333 2.41699 5.16667C2.25033 5.5 2.16699 5.91667 2.16699 6.25V17.4167C2.16699 18.8333 3.33366 20 4.75033 20H15.2503C16.667 20 17.8337 18.8333 17.8337 17.4167V2.58333C17.8337 1.16667 16.667 0 15.2503 0H8.58366ZM8.417 16C6.75033 15.6667 5.41699 14.25 5.08366 12.5833C4.58366 9.91667 6.417 7.58333 8.917 7.25C9.167 7.25 9.417 7.41667 9.417 7.75V11.25C9.417 11.5 9.667 11.75 9.917 11.75H13.417C13.667 11.75 13.917 12 13.917 12.25C13.5003 14.75 11.0837 16.5833 8.417 16ZM15.0003 10H11.5003C11.2503 10 11.0003 9.75 11.0003 9.5V6.08333C11.0003 5.83333 11.2503 5.58333 11.5003 5.58333C13.5003 5.83333 15.0837 7.41667 15.3337 9.41667C15.5003 9.75 15.3337 10 15.0003 10Z" fill="#001921"/>
</g>
<defs>
<clipPath id="clip0_62_822">
<rect width="20" height="20" fill="white"/>
</clipPath>
</defs>
</svg>
