<svg width="20" height="20" viewBox="0 0 20 20" fill="none" xmlns="http://www.w3.org/2000/svg">
<path d="M10 0C4.5 0 0 4.5 0 10C0 15.5 4.5 20 10 20C15.5 20 20 15.5 20 10C20 4.5 15.5 0 10 0ZM10 18C9.2 18 8.1 16.5 7.4 14H12.5C11.9 16.5 10.8 18 10 18ZM7.1 12C7 11.4 7 10.7 7 10C7 9.3 7 8.6 7.1 8H12.9C13 8.6 13 9.3 13 10C13 10.7 13 11.4 12.9 12H7.1ZM2 10C2 9.3 2.1 8.6 2.3 8H5.1C5 8.6 5 9.3 5 10C5 10.7 5 11.4 5.1 12H2.3C2.1 11.4 2 10.7 2 10ZM10 2C10.8 2 11.9 3.5 12.6 6H7.4C8.1 3.5 9.2 2 10 2ZM14.9 8H17.7C17.9 8.6 18 9.3 18 10C18 10.7 17.9 11.4 17.7 12H14.9C15 11.4 15 10.7 15 10C15 9.3 15 8.6 14.9 8ZM16.9 6H14.6C14.4 4.8 14 3.7 13.5 2.8C15 3.5 16.1 4.6 16.9 6ZM6.4 2.8C6 3.7 5.6 4.8 5.4 6H3.1C3.9 4.6 5 3.5 6.4 2.8ZM3.1 14H5.4C5.6 15.2 6 16.3 6.5 17.2C5 16.5 3.9 15.4 3.1 14ZM13.6 17.2C14 16.3 14.4 15.2 14.7 14H17C16.1 15.4 15 16.5 13.6 17.2Z" fill="#001921"/>
</svg>
