<svg width="16" height="16" viewBox="0 0 16 16" fill="none" xmlns="http://www.w3.org/2000/svg">
<g clip-path="url(#clip0_3728_27020)">
<path fill-rule="evenodd" clip-rule="evenodd" d="M8.91346 0.603474C8.59645 0.542211 8.27216 0.510742 7.94461 0.510742C6.59032 0.510742 5.29149 1.04873 4.33385 2.00637C3.37622 2.964 2.83823 4.26283 2.83823 5.61713V9.60011L1.70801 11.3022C1.57254 11.5111 1.4957 11.7526 1.48553 12.0013C1.47537 12.25 1.53224 12.4969 1.65021 12.7162C1.76817 12.9354 1.9429 13.1189 2.15609 13.2475C2.36928 13.376 2.61311 13.4449 2.86206 13.4469H13.0272C13.2777 13.4461 13.5234 13.3775 13.7381 13.2484C13.9529 13.1194 14.1287 12.9346 14.247 12.7137C14.3653 12.4928 14.4216 12.2441 14.41 11.9938C14.3985 11.7435 14.3194 11.501 14.1812 11.292L13.051 9.60011V5.61713C13.051 5.57997 13.0506 5.54286 13.0498 5.50579C12.6596 5.66337 12.2333 5.75012 11.7866 5.75012C9.92266 5.75012 8.41162 4.23908 8.41162 2.37512C8.41162 1.72533 8.59525 1.11842 8.91346 0.603474Z" fill="#07A279"/>
<path d="M7.94489 15.4894C8.36689 15.4889 8.77837 15.3577 9.12279 15.1139C9.4672 14.8701 9.72764 14.5255 9.8683 14.1277H6.02148C6.16215 14.5255 6.42259 14.8701 6.767 15.1139C7.11142 15.3577 7.5229 15.4889 7.94489 15.4894Z" fill="#07A279"/>
<circle cx="11.7871" cy="2.375" r="1.875" fill="#07A279"/>
</g>
<defs>
<clipPath id="clip0_3728_27020">
<rect width="15" height="15" fill="white" transform="translate(0.419922 0.5)"/>
</clipPath>
</defs>
</svg>
