<svg width="20" height="20" viewBox="0 0 20 20" fill="none" xmlns="http://www.w3.org/2000/svg">
<g clip-path="url(#clip0_62_808)">
<path d="M11.8359 16.0427C12.0005 15.0272 11.3108 14.0705 10.2952 13.9058C9.27974 13.7412 8.32305 14.431 8.15843 15.4465C7.9938 16.462 8.68359 17.4187 9.6991 17.5834C10.7146 17.748 11.6713 17.0582 11.8359 16.0427Z" fill="#001921"/>
<path d="M19.4439 6.30245C16.7592 3.61776 13.3066 2.39038 9.99999 2.39038C6.69335 2.39038 3.24078 3.61776 0.556055 6.30245C-0.185897 7.04527 -0.182499 8.1955 0.549141 8.93023C1.46281 9.85406 2.65906 9.48633 3.19472 8.93273C5.01324 7.11664 7.42984 6.11648 9.99999 6.11648C12.5701 6.11648 14.9867 7.11664 16.8053 8.93273C17.3409 9.48633 18.5372 9.85406 19.4508 8.93023C20.1825 8.1955 20.1859 7.04527 19.4439 6.30245Z" fill="#001921"/>
<path d="M9.99976 8.13684C8.14738 8.13684 6.15976 8.82551 4.61957 10.3654C3.86812 11.1168 3.88308 12.2723 4.62707 13.0085C5.36578 13.7421 6.51511 13.739 7.25363 13.0005C7.98714 12.267 8.96238 11.8631 9.99972 11.8631C11.0371 11.8631 12.0123 12.267 12.7458 13.0005C13.4843 13.739 14.6337 13.7421 15.3724 13.0085C16.1164 12.2723 16.1313 11.1168 15.3799 10.3654C13.8398 8.82555 11.8521 8.13684 9.99976 8.13684Z" fill="#001921"/>
</g>
<defs>
<clipPath id="clip0_62_808">
<rect width="20" height="20" fill="white"/>
</clipPath>
</defs>
</svg>
