<svg width="20" height="20" viewBox="0 0 20 20" fill="none" xmlns="http://www.w3.org/2000/svg">
<path d="M0.909084 4.54542C0.66798 4.54542 0.436751 4.44964 0.266264 4.27915C0.0957782 4.10867 0 3.87744 0 3.63634V2.72725C0 2.00394 0.287335 1.31025 0.798793 0.798793C1.31025 0.287335 2.00394 0 2.72725 0H3.63634C3.87744 0 4.10867 0.0957782 4.27915 0.266264C4.44964 0.436751 4.54542 0.66798 4.54542 0.909084C4.54542 1.15019 4.44964 1.38142 4.27915 1.5519C4.10867 1.72239 3.87744 1.81817 3.63634 1.81817H2.72725C2.48615 1.81817 2.25492 1.91395 2.08443 2.08443C1.91395 2.25492 1.81817 2.48615 1.81817 2.72725V3.63634C1.81817 3.87744 1.72239 4.10867 1.5519 4.27915C1.38142 4.44964 1.15019 4.54542 0.909084 4.54542Z" fill="#001921"/>
<path d="M19.0904 4.54542C18.8493 4.54542 18.6181 4.44964 18.4476 4.27915C18.2771 4.10867 18.1813 3.87744 18.1813 3.63634V2.72725C18.1813 2.48615 18.0856 2.25492 17.9151 2.08443C17.7446 1.91395 17.5134 1.81817 17.2723 1.81817H16.3632C16.1221 1.81817 15.8909 1.72239 15.7204 1.5519C15.5499 1.38142 15.4541 1.15019 15.4541 0.909084C15.4541 0.66798 15.5499 0.436751 15.7204 0.266264C15.8909 0.0957782 16.1221 0 16.3632 0H17.2723C17.9956 0 18.6893 0.287335 19.2007 0.798793C19.7122 1.31025 19.9995 2.00394 19.9995 2.72725V3.63634C19.9995 3.87744 19.9037 4.10867 19.7332 4.27915C19.5628 4.44964 19.3315 4.54542 19.0904 4.54542Z" fill="#001921"/>
<path d="M3.63634 20H2.72725C2.00394 20 1.31025 19.7127 0.798793 19.2012C0.287335 18.6897 0 17.9961 0 17.2728V16.3637C0 16.1226 0.0957782 15.8913 0.266264 15.7209C0.436751 15.5504 0.66798 15.4546 0.909084 15.4546C1.15019 15.4546 1.38142 15.5504 1.5519 15.7209C1.72239 15.8913 1.81817 16.1226 1.81817 16.3637V17.2728C1.81817 17.5139 1.91395 17.7451 2.08443 17.9156C2.25492 18.0861 2.48615 18.1818 2.72725 18.1818H3.63634C3.87744 18.1818 4.10867 18.2776 4.27915 18.4481C4.44964 18.6186 4.54542 18.8498 4.54542 19.0909C4.54542 19.332 4.44964 19.5632 4.27915 19.7337C4.10867 19.9042 3.87744 20 3.63634 20Z" fill="#001921"/>
<path d="M17.2723 20H16.3632C16.1221 20 15.8909 19.9042 15.7204 19.7337C15.5499 19.5632 15.4541 19.332 15.4541 19.0909C15.4541 18.8498 15.5499 18.6186 15.7204 18.4481C15.8909 18.2776 16.1221 18.1818 16.3632 18.1818H17.2723C17.5134 18.1818 17.7446 18.0861 17.9151 17.9156C18.0856 17.7451 18.1813 17.5139 18.1813 17.2728V16.3637C18.1813 16.1226 18.2771 15.8913 18.4476 15.7209C18.6181 15.5504 18.8493 15.4546 19.0904 15.4546C19.3315 15.4546 19.5628 15.5504 19.7332 15.7209C19.9037 15.8913 19.9995 16.1226 19.9995 16.3637V17.2728C19.9995 17.9961 19.7122 18.6897 19.2007 19.2012C18.6893 19.7127 17.9956 20 17.2723 20Z" fill="#001921"/>
<path d="M2.72744 9.09119H3.63652V10.9094H2.72744C2.48634 10.9094 2.25511 10.8136 2.08462 10.6431C1.91414 10.4726 1.81836 10.2414 1.81836 10.0003C1.81836 9.75917 1.91414 9.52794 2.08462 9.35745C2.25511 9.18697 2.48634 9.09119 2.72744 9.09119Z" fill="#001921"/>
<path d="M18.1815 10.0003C18.1815 10.2414 18.0857 10.4726 17.9152 10.6431C17.7447 10.8136 17.5135 10.9094 17.2724 10.9094H16.3633V9.09119H17.2724C17.5135 9.09119 17.7447 9.18697 17.9152 9.35745C18.0857 9.52794 18.1815 9.75917 18.1815 10.0003Z" fill="#001921"/>
<path d="M16.3629 6.36391V9.09116H3.63574V6.36391C3.6379 5.64126 3.92593 4.94883 4.43692 4.43784C4.94791 3.92684 5.64035 3.63882 6.36299 3.63666H13.6357C14.3583 3.63882 15.0507 3.92684 15.5617 4.43784C16.0727 4.94883 16.3608 5.64126 16.3629 6.36391Z" fill="#001921"/>
<path d="M3.63574 10.909H16.3629V13.6362C16.3608 14.3589 16.0727 15.0513 15.5617 15.5623C15.0507 16.0733 14.3583 16.3613 13.6357 16.3635H6.36299C5.64035 16.3613 4.94791 16.0733 4.43692 15.5623C3.92593 15.0513 3.6379 14.3589 3.63574 13.6362V10.909Z" fill="#001921"/>
</svg>
