<svg width="18" height="18" viewBox="0 0 18 18" fill="none" xmlns="http://www.w3.org/2000/svg">
<path fill-rule="evenodd" clip-rule="evenodd" d="M9 18C4.0378 18 0 13.9629 0 9C0 4.0378 4.0378 0 9 0C13.9629 0 18 4.0378 18 9C18 13.9629 13.9629 18 9 18Z" fill="#07A279"/>
<path fill-rule="evenodd" clip-rule="evenodd" d="M12.8726 6.12799C13.2431 6.49852 13.2431 7.09926 12.8726 7.46979L8.47016 11.8722C8.29222 12.0501 8.05089 12.1501 7.79926 12.1501C7.54762 12.1501 7.30629 12.0501 7.12836 11.8722L5.12726 9.87111C4.75673 9.50058 4.75673 8.89984 5.12726 8.52931C5.49779 8.15878 6.09853 8.15878 6.46906 8.52931L7.79926 9.8595L11.5308 6.12799C11.9013 5.75747 12.502 5.75747 12.8726 6.12799Z" fill="white"/>
</svg>
