<svg width="20" height="18" viewBox="0 0 20 18" fill="none" xmlns="http://www.w3.org/2000/svg">
<path d="M9.87846 13.6217C7.3301 13.6217 5.25684 11.5484 5.25684 9.00004C5.25684 6.45168 7.3301 4.37842 9.87846 4.37842C12.4268 4.37842 14.5001 6.45168 14.5001 9.00004C14.5001 11.5484 12.4268 13.6217 9.87846 13.6217ZM9.87846 5.83788C8.13484 5.83788 6.7163 7.25642 6.7163 9.00004C6.7163 10.7437 8.13484 12.1622 9.87846 12.1622C11.6221 12.1622 13.0406 10.7437 13.0406 9.00004C13.0406 7.25642 11.6221 5.83788 9.87846 5.83788Z" fill="white"/>
<path d="M9.87866 18C9.47565 18 9.14893 17.6732 9.14893 17.2702V15.8108C9.14893 15.4078 9.47565 15.0811 9.87866 15.0811C10.2817 15.0811 10.6084 15.4078 10.6084 15.8108V17.2702C10.6084 17.6732 10.2817 18 9.87866 18Z" fill="white"/>
<path d="M9.87866 2.91892C9.47565 2.91892 9.14893 2.59219 9.14893 2.18919V0.72973C9.14893 0.326724 9.47565 0 9.87866 0C10.2817 0 10.6084 0.326724 10.6084 0.72973V2.18919C10.6084 2.59219 10.2817 2.91892 9.87866 2.91892Z" fill="white"/>
<path d="M9.87842 0V2.91892C10.2814 2.91892 10.6081 2.59219 10.6081 2.18919V0.72973C10.6081 0.326724 10.2814 0 9.87842 0Z" fill="white"/>
<path d="M13.0406 9.00004C13.0406 10.7437 11.622 12.1622 9.87842 12.1622V13.6217C12.4268 13.6217 14.5 11.5484 14.5 9.00004C14.5 6.45168 12.4268 4.37842 9.87842 4.37842V5.83788C11.622 5.83788 13.0406 7.25642 13.0406 9.00004Z" fill="white"/>
<path d="M9.87842 15.0811V18C10.2814 18 10.6081 17.6732 10.6081 17.2702V15.8108C10.6081 15.4078 10.2814 15.0811 9.87842 15.0811Z" fill="white"/>
<path d="M3.06761 9.72972H1.60815C1.20514 9.72972 0.878418 9.403 0.878418 8.99999C0.878418 8.59699 1.20514 8.27026 1.60815 8.27026H3.06761C3.47061 8.27026 3.79734 8.59699 3.79734 8.99999C3.79734 9.403 3.47061 9.72972 3.06761 9.72972Z" fill="white"/>
<path d="M2.08421 13.5C1.88271 13.151 2.00229 12.7047 2.35129 12.5032L3.61523 11.7734C3.96424 11.5719 4.41054 11.6915 4.61205 12.0405C4.81355 12.3895 4.69397 12.8358 4.34496 13.0373L3.08102 13.767C2.73202 13.9686 2.28572 13.849 2.08421 13.5Z" fill="white"/>
<path d="M5.37864 16.7942C5.02963 16.5927 4.91005 16.1464 5.11156 15.7974L5.84129 14.5335C6.04279 14.1845 6.48909 14.065 6.8381 14.2665C7.1871 14.468 7.30668 14.9143 7.10518 15.2633L6.37545 16.5272C6.17395 16.8762 5.72764 16.9958 5.37864 16.7942Z" fill="white"/>
<path d="M5.84129 3.4665L5.11156 2.20261C4.91005 1.8536 5.02963 1.4073 5.37864 1.20579C5.72764 1.00429 6.17395 1.12387 6.37545 1.47288L7.10518 2.73677C7.30668 3.08577 7.1871 3.53208 6.8381 3.73358C6.48909 3.93513 6.04279 3.81555 5.84129 3.4665Z" fill="white"/>
<path d="M3.61526 6.22652L2.35132 5.49679C2.00231 5.29528 1.88268 4.84898 2.08423 4.49998C2.28574 4.15097 2.73204 4.03139 3.08105 4.23289L4.34499 4.96262C4.69399 5.16413 4.81362 5.61043 4.61207 5.95944C4.41056 6.30844 3.96426 6.42802 3.61526 6.22652Z" fill="white"/>
<path d="M18.1217 9.00004C18.1217 11.0002 16.5002 12.6217 14.5 12.6217C12.4999 12.6217 10.8784 11.0002 10.8784 9.00004C10.8784 6.99987 12.4999 5.37842 14.5 5.37842C16.5002 5.37842 18.1217 6.99987 18.1217 9.00004Z" fill="white" stroke="#707E7C" stroke-width="2"/>
</svg>
