<svg width="24" height="26" viewBox="0 0 24 26" fill="none" xmlns="http://www.w3.org/2000/svg">
<path fill-rule="evenodd" clip-rule="evenodd" d="M4.80533 20.6009L9.72126 19.132L8.85278 20.7189C10.6328 22.2163 12.466 22.6171 14.502 21.7524C12.5848 24.7574 9.6168 25.1033 7.1281 23.8826L6.24119 25.5L4.80737 20.6009H4.80533ZM4.7111 7.68791H6.74507V7.16707C6.74507 7.14927 6.75219 7.13219 6.76487 7.1196C6.77754 7.10701 6.79474 7.09994 6.81266 7.09994H7.7426C7.76052 7.09994 7.77772 7.10701 7.79039 7.1196C7.80307 7.13219 7.81019 7.14927 7.81019 7.16707V7.68791H9.8585C9.87642 7.68791 9.89362 7.69498 9.90629 7.70757C9.91897 7.72016 9.92609 7.73724 9.92609 7.75505V8.72144C9.92609 8.73016 9.92433 8.73879 9.92091 8.74683C9.91749 8.75486 9.91248 8.76213 9.90617 8.76821C9.89987 8.77428 9.8924 8.77903 9.88421 8.78218C9.87602 8.78533 9.86728 8.78681 9.8585 8.78654H9.47751C9.44164 9.06309 9.37922 9.3356 9.29112 9.60034C9.19707 9.88134 9.0785 10.1536 8.93676 10.4141C8.8084 10.6443 8.66613 10.8664 8.51071 11.0794C8.36323 11.2829 8.20142 11.4863 8.02936 11.6898C8.31942 12.0274 8.63659 12.341 8.97773 12.6277C9.3556 12.9434 9.75382 13.2343 10.1698 13.4985C10.1774 13.503 10.1839 13.509 10.189 13.5162C10.1941 13.5233 10.1978 13.5314 10.1997 13.5399C10.2016 13.5485 10.2017 13.5573 10.2001 13.5659C10.1985 13.5745 10.1952 13.5827 10.1903 13.59L9.70897 14.3387C9.69862 14.3531 9.68324 14.3632 9.66582 14.367C9.6484 14.3707 9.63019 14.3679 9.61475 14.3591C9.16912 14.0759 8.7422 13.7646 8.33661 13.4272C7.96944 13.1221 7.627 12.7888 7.31245 12.4303C7.04822 12.6806 6.76965 12.9247 6.47879 13.1587C6.14901 13.4211 5.8049 13.6755 5.45464 13.9176C5.44738 13.9226 5.43918 13.9263 5.43051 13.9282C5.42185 13.9301 5.41288 13.9303 5.40413 13.9288C5.39538 13.9273 5.38702 13.9241 5.37952 13.9194C5.37201 13.9146 5.36552 13.9085 5.36042 13.9013L4.85449 13.1709C4.84914 13.164 4.8453 13.156 4.84322 13.1475C4.84114 13.139 4.84086 13.1302 4.8424 13.1215C4.84394 13.1129 4.84727 13.1047 4.85217 13.0975C4.85707 13.0902 4.86344 13.084 4.87087 13.0793C5.21704 12.8413 5.55501 12.5911 5.87659 12.3306C6.1613 12.1007 6.43373 11.8627 6.68567 11.6165C6.43987 11.254 6.22409 10.8723 6.04045 10.4752C5.83901 10.0393 5.67257 9.58826 5.54272 9.1263C5.53883 9.10934 5.54151 9.09154 5.55025 9.07646C5.55898 9.06138 5.57311 9.05012 5.58983 9.04492L6.45216 8.80485C6.46064 8.8024 6.46952 8.80167 6.47829 8.80272C6.48705 8.80376 6.49551 8.80655 6.50316 8.81092C6.51081 8.81529 6.5175 8.82115 6.52281 8.82815C6.52813 8.83514 6.53197 8.84314 6.5341 8.85164C6.63821 9.22551 6.76965 9.59134 6.92737 9.94621C7.06564 10.2541 7.22439 10.5524 7.40258 10.8394C7.51523 10.699 7.62175 10.5606 7.72006 10.4202C7.81838 10.2799 7.93719 10.0866 8.02936 9.91569C8.13339 9.72575 8.22175 9.52776 8.29359 9.32365C8.35417 9.14492 8.40141 8.962 8.43492 8.77637H4.7111C4.70232 8.77664 4.69358 8.77516 4.68539 8.77201C4.6772 8.76886 4.66973 8.76411 4.66343 8.75803C4.65712 8.75196 4.65211 8.74469 4.64869 8.73666C4.64527 8.72862 4.64351 8.71999 4.64351 8.71126V7.75505C4.64351 7.73724 4.65063 7.72016 4.66331 7.70757C4.67598 7.69498 4.69318 7.68791 4.7111 7.68791ZM14.8502 8.55461H21.4826C22.152 8.55729 22.7931 8.82272 23.2662 9.29302C23.7393 9.76333 24.006 10.4004 24.0082 11.0652V16.3691C24.006 17.034 23.7393 17.671 23.2662 18.1413C22.7931 18.6116 22.152 18.877 21.4826 18.8797H21.2778L21.1426 20.8918C21.139 20.9891 21.1087 21.0835 21.0549 21.1649C21.0011 21.2462 20.9259 21.3114 20.8375 21.3533C20.7491 21.3953 20.6508 21.4123 20.5533 21.4027C20.4558 21.3931 20.3628 21.3571 20.2844 21.2987L17.0521 18.8818H12.9412C12.2902 18.8793 11.6651 18.6282 11.1953 18.1806C10.7256 17.7329 10.4471 17.1229 10.4177 16.477H7.9208L4.1683 19.4209C4.02455 19.5314 3.85153 19.5979 3.67036 19.6123C3.4892 19.6267 3.30772 19.5885 3.14808 19.5022C2.98844 19.4159 2.85755 19.2853 2.77137 19.1263C2.6852 18.9674 2.64747 18.787 2.6628 18.6071L2.82666 16.4607C2.1005 16.4026 1.41911 16.0887 0.905351 15.5757L0.847999 15.5146C0.307777 14.9533 0.00435429 14.2079 0 13.4313L0 7.76522C0 6.95584 0.323705 6.17962 0.899902 5.6073C1.4761 5.03498 2.25759 4.71346 3.07246 4.71346H11.7757C12.178 4.71335 12.5764 4.7922 12.948 4.94547C13.3195 5.09875 13.6569 5.32343 13.9408 5.60661L13.9981 5.66561C14.5377 6.23032 14.8396 6.97852 14.842 7.75708V8.54647L14.8502 8.55461ZM21.3413 5.55981L16.2451 6.24341L17.3532 4.81925C15.8334 3.06348 14.076 2.37785 11.9396 2.91699C14.3074 0.243652 17.2938 0.363688 19.5654 1.95874L20.6879 0.5L21.3249 5.55981H21.3413ZM18.7584 14.7598H17.1197L16.8166 15.7771H15.3398C15.8314 14.4811 16.4008 12.9288 16.8944 11.6267C17.0726 11.1588 17.2754 10.3816 17.9186 10.3816C18.5617 10.3816 18.8116 11.0937 18.998 11.586L20.5773 15.7995H19.0697L18.7584 14.7537V14.7598ZM18.5105 13.7629L17.9391 11.9766L17.3655 13.7629H18.5105ZM3.07246 5.65137H11.7757C12.3395 5.65351 12.8795 5.87691 13.2782 6.27287C13.6768 6.66883 13.9017 7.20525 13.9039 7.76522V13.4313C13.905 13.9932 13.6814 14.5326 13.2824 14.9308C12.8833 15.3291 12.3414 15.5537 11.7757 15.5553H7.59717L3.59068 18.6824L3.82828 15.5553H3.07246C2.79175 15.5556 2.51376 15.5008 2.25442 15.3941C1.99508 15.2874 1.7595 15.1309 1.5612 14.9336C1.3629 14.7362 1.20579 14.5019 1.09886 14.2442C0.991939 13.9864 0.937315 13.7101 0.938124 13.4313V7.76522C0.939751 7.20403 1.16534 6.66638 1.56542 6.27013C1.96551 5.87388 2.50746 5.65137 3.07246 5.65137Z" fill="white"/>
</svg>
