<svg width="176" height="52" viewBox="0 0 176 52" fill="none" xmlns="http://www.w3.org/2000/svg">
<path d="M0 5C0 2.23858 2.23858 0 5 0H170.5C173.261 0 175.5 2.23858 175.5 5V47C175.5 49.7614 173.261 52 170.5 52H5C2.23857 52 0 49.7614 0 47V5Z" fill="white" fill-opacity="0.1"/>
<path d="M88.5768 28.2763C85.5192 28.2763 83.0271 30.602 83.0271 33.8052C83.0271 36.9889 85.5192 39.3341 88.5768 39.3341C91.6357 39.3341 94.1278 36.9889 94.1278 33.8052C94.1265 30.602 91.6344 28.2763 88.5768 28.2763ZM88.5768 37.1579C86.9011 37.1579 85.4568 35.776 85.4568 33.8065C85.4568 31.8162 86.9024 30.4551 88.5768 30.4551C90.2525 30.4551 91.6968 31.8162 91.6968 33.8065C91.6968 35.7747 90.2525 37.1579 88.5768 37.1579ZM76.4686 28.2763C73.411 28.2763 70.9189 30.602 70.9189 33.8052C70.9189 36.9889 73.411 39.3341 76.4686 39.3341C79.5275 39.3341 82.0196 36.9889 82.0196 33.8052C82.0196 30.602 79.5275 28.2763 76.4686 28.2763ZM76.4686 37.1579C74.7929 37.1579 73.3486 35.776 73.3486 33.8065C73.3486 31.8162 74.7942 30.4551 76.4686 30.4551C78.1443 30.4551 79.5886 31.8162 79.5886 33.8065C79.5899 35.7747 78.1443 37.1579 76.4686 37.1579ZM62.0672 29.9741V32.3193H67.6806C67.5129 33.6388 67.0735 34.6021 66.4027 35.2716C65.5863 36.088 64.3084 36.9889 62.0672 36.9889C58.6118 36.9889 55.9104 34.203 55.9104 30.7476C55.9104 27.2922 58.6118 24.5063 62.0672 24.5063C63.9314 24.5063 65.2925 25.2395 66.2974 26.182L67.9523 24.5271C66.5483 23.1868 64.6854 22.1611 62.0672 22.1611C57.3339 22.1611 53.3546 26.0143 53.3546 30.7476C53.3546 35.4809 57.3339 39.3341 62.0672 39.3341C64.6217 39.3341 66.5496 38.4956 68.0563 36.9252C69.6059 35.3756 70.0882 33.1968 70.0882 31.4379C70.0882 30.8945 70.0466 30.3914 69.9621 29.9728H62.0672V29.9741ZM120.968 31.7954C120.507 30.5604 119.103 28.2763 116.234 28.2763C113.386 28.2763 111.019 30.5175 111.019 33.8052C111.019 36.9044 113.365 39.3341 116.506 39.3341C119.04 39.3341 120.506 37.7845 121.114 36.8836L119.229 35.6265C118.602 36.5482 117.742 37.1553 116.506 37.1553C115.271 37.1553 114.391 36.5898 113.825 35.4796L121.218 32.422L120.968 31.7954ZM113.428 33.6388C113.365 31.5016 115.082 30.4135 116.319 30.4135C117.282 30.4135 118.098 30.8958 118.371 31.5861L113.428 33.6388ZM107.418 39H109.846V22.7487H107.418V39ZM103.437 29.5126H103.354C102.809 28.8626 101.761 28.2763 100.443 28.2763C97.6781 28.2763 95.1444 30.706 95.1444 33.8273C95.1444 36.9265 97.6781 39.3354 100.443 39.3354C101.763 39.3354 102.809 38.7491 103.354 38.0796H103.437V38.8752C103.437 40.9903 102.306 42.1213 100.485 42.1213C98.9976 42.1213 98.0759 41.054 97.6989 40.1531L95.5838 41.0332C96.1909 42.4983 97.8029 44.3001 100.485 44.3001C103.333 44.3001 105.742 42.6244 105.742 38.5398V28.613H103.438V29.5126H103.437ZM100.652 37.1579C98.9768 37.1579 97.5741 35.7539 97.5741 33.8273C97.5741 31.8786 98.9768 30.4551 100.652 30.4551C102.306 30.4551 103.605 31.8786 103.605 33.8273C103.605 35.7539 102.306 37.1579 100.652 37.1579ZM132.348 22.7487H126.535V39H128.96V32.8432H132.346C135.035 32.8432 137.679 30.8971 137.679 27.7966C137.679 24.6961 135.036 22.7487 132.348 22.7487ZM132.41 30.5812H128.96V25.0107H132.41C134.224 25.0107 135.253 26.5122 135.253 27.7966C135.253 29.055 134.224 30.5812 132.41 30.5812ZM147.402 28.2477C145.645 28.2477 143.827 29.0212 143.074 30.7359L145.227 31.6342C145.687 30.7359 146.545 30.4421 147.443 30.4421C148.698 30.4421 149.973 31.1948 149.994 32.5325V32.7002C149.555 32.4493 148.613 32.0736 147.464 32.0736C145.144 32.0736 142.78 33.3489 142.78 35.7318C142.78 37.9067 144.683 39.3068 146.815 39.3068C148.446 39.3068 149.345 38.5749 149.909 37.7169H149.993V38.9714H152.335V32.7405C152.337 29.8571 150.181 28.2477 147.402 28.2477ZM147.108 37.154C146.315 37.154 145.206 36.7562 145.206 35.7734C145.206 34.5189 146.587 34.0379 147.779 34.0379C148.843 34.0379 149.347 34.268 149.994 34.5813C149.805 36.088 148.509 37.154 147.108 37.154ZM160.866 28.6026L158.085 35.6486H158.002L155.116 28.6026H152.503L156.831 38.4501L154.363 43.9283H156.893L163.563 28.6026H160.866ZM139.018 39H141.443V22.7487H139.018V39Z" fill="white"/>
<path d="M61.6435 13.3157C61.6435 14.4051 61.3211 15.2722 60.675 15.9196C59.9418 16.6892 58.985 17.074 57.8098 17.074C56.684 17.074 55.7259 16.684 54.9394 15.904C54.1516 15.1227 53.7577 14.1555 53.7577 13.0011C53.7577 11.8454 54.1516 10.8782 54.9394 10.0982C55.7259 9.31686 56.684 8.92686 57.8098 8.92686C58.3688 8.92686 58.9031 9.03606 59.4101 9.25316C59.9184 9.47156 60.3253 9.76146 60.6295 10.1242L59.9444 10.8106C59.4283 10.1931 58.7172 9.88496 57.8085 9.88496C56.9869 9.88496 56.2771 10.1736 55.6778 10.7508C55.0785 11.328 54.7795 12.0781 54.7795 12.9998C54.7795 13.9215 55.0785 14.6716 55.6778 15.2488C56.2771 15.826 56.9869 16.1146 57.8085 16.1146C58.6795 16.1146 59.4062 15.8247 59.9873 15.2436C60.3643 14.8653 60.5827 14.3388 60.6412 13.6641H57.8085V12.7268H61.5876C61.6266 12.9309 61.6435 13.1272 61.6435 13.3157Z" fill="white"/>
<path d="M67.6366 10.0579H64.085V12.5305H67.2882V13.4678H64.085V15.9404H67.6366V16.8998H63.0827V9.09983H67.6366V10.0579Z" fill="white"/>
<path d="M71.8627 16.8998H70.8604V10.0579H68.6816V9.09983H74.0415V10.0579H71.8627V16.8998Z" fill="white"/>
<path d="M77.9194 16.8998V9.09983H78.9217V16.8998H77.9194Z" fill="white"/>
<path d="M83.3666 16.8998H82.3643V10.0579H80.1855V9.09983H85.5454V10.0579H83.3666V16.8998Z" fill="white"/>
<path d="M95.6916 15.8923C94.9246 16.6801 93.9717 17.074 92.8316 17.074C91.6915 17.074 90.7386 16.6801 89.9729 15.8923C89.2059 15.1045 88.8237 14.1399 88.8237 12.9998C88.8237 11.8597 89.2059 10.8951 89.9729 10.1073C90.7386 9.31952 91.6915 8.92432 92.8316 8.92432C93.9652 8.92432 94.9168 9.32082 95.6864 10.1125C96.456 10.9042 96.8408 11.8662 96.8408 12.9998C96.8408 14.1399 96.4573 15.1045 95.6916 15.8923ZM90.7126 15.2384C91.2898 15.8234 91.9957 16.1146 92.8316 16.1146C93.6675 16.1146 94.3747 15.8221 94.9506 15.2384C95.5278 14.6534 95.8177 13.9072 95.8177 12.9998C95.8177 12.0924 95.5278 11.3462 94.9506 10.7612C94.3747 10.1762 93.6675 9.88502 92.8316 9.88502C91.9957 9.88502 91.2898 10.1775 90.7126 10.7612C90.1367 11.3462 89.8468 12.0924 89.8468 12.9998C89.8468 13.9072 90.1367 14.6534 90.7126 15.2384Z" fill="white"/>
<path d="M98.2474 16.8998V9.09983H99.4668L103.258 15.1669H103.301L103.258 13.6641V9.09983H104.26V16.8998H103.213L99.2471 10.5376H99.2042L99.2471 12.0404V16.8998H98.2474Z" fill="white"/>
<path d="M61.6435 13.3157C61.6435 14.4051 61.3211 15.2722 60.675 15.9196C59.9418 16.6892 58.985 17.074 57.8098 17.074C56.684 17.074 55.7259 16.684 54.9394 15.904C54.1516 15.1227 53.7577 14.1555 53.7577 13.0011C53.7577 11.8454 54.1516 10.8782 54.9394 10.0982C55.7259 9.31686 56.684 8.92686 57.8098 8.92686C58.3688 8.92686 58.9031 9.03606 59.4101 9.25316C59.9184 9.47156 60.3253 9.76146 60.6295 10.1242L59.9444 10.8106C59.4283 10.1931 58.7172 9.88496 57.8085 9.88496C56.9869 9.88496 56.2771 10.1736 55.6778 10.7508C55.0785 11.328 54.7795 12.0781 54.7795 12.9998C54.7795 13.9215 55.0785 14.6716 55.6778 15.2488C56.2771 15.826 56.9869 16.1146 57.8085 16.1146C58.6795 16.1146 59.4062 15.8247 59.9873 15.2436C60.3643 14.8653 60.5827 14.3388 60.6412 13.6641H57.8085V12.7268H61.5876C61.6266 12.9309 61.6435 13.1272 61.6435 13.3157Z" stroke="white" stroke-width="0.2" stroke-miterlimit="10"/>
<path d="M67.6366 10.0579H64.085V12.5305H67.2882V13.4678H64.085V15.9404H67.6366V16.8998H63.0827V9.09983H67.6366V10.0579Z" stroke="white" stroke-width="0.2" stroke-miterlimit="10"/>
<path d="M71.8627 16.8998H70.8604V10.0579H68.6816V9.09983H74.0415V10.0579H71.8627V16.8998Z" stroke="white" stroke-width="0.2" stroke-miterlimit="10"/>
<path d="M77.9194 16.8998V9.09983H78.9217V16.8998H77.9194Z" stroke="white" stroke-width="0.2" stroke-miterlimit="10"/>
<path d="M83.3666 16.8998H82.3643V10.0579H80.1855V9.09983H85.5454V10.0579H83.3666V16.8998Z" stroke="white" stroke-width="0.2" stroke-miterlimit="10"/>
<path d="M95.6916 15.8923C94.9246 16.6801 93.9717 17.074 92.8316 17.074C91.6915 17.074 90.7386 16.6801 89.9729 15.8923C89.2059 15.1045 88.8237 14.1399 88.8237 12.9998C88.8237 11.8597 89.2059 10.8951 89.9729 10.1073C90.7386 9.31952 91.6915 8.92432 92.8316 8.92432C93.9652 8.92432 94.9168 9.32082 95.6864 10.1125C96.456 10.9042 96.8408 11.8662 96.8408 12.9998C96.8408 14.1399 96.4573 15.1045 95.6916 15.8923ZM90.7126 15.2384C91.2898 15.8234 91.9957 16.1146 92.8316 16.1146C93.6675 16.1146 94.3747 15.8221 94.9506 15.2384C95.5278 14.6534 95.8177 13.9072 95.8177 12.9998C95.8177 12.0924 95.5278 11.3462 94.9506 10.7612C94.3747 10.1762 93.6675 9.88502 92.8316 9.88502C91.9957 9.88502 91.2898 10.1775 90.7126 10.7612C90.1367 11.3462 89.8468 12.0924 89.8468 12.9998C89.8468 13.9072 90.1367 14.6534 90.7126 15.2384Z" stroke="white" stroke-width="0.2" stroke-miterlimit="10"/>
<path d="M98.2474 16.8998V9.09983H99.4668L103.258 15.1669H103.301L103.258 13.6641V9.09983H104.26V16.8998H103.213L99.2471 10.5376H99.2042L99.2471 12.0404V16.8998H98.2474Z" stroke="white" stroke-width="0.2" stroke-miterlimit="10"/>
<g filter="url(#filter0_ii_2852_11676)">
<path d="M13.5668 9.79949C13.1885 10.1999 12.9649 10.8213 12.9649 11.626V40.3768C12.9649 41.1828 13.1885 41.8029 13.5668 42.2033L13.663 42.2969L29.7687 26.1912V26.0014V25.8116L13.663 9.70459L13.5668 9.79949Z" fill="url(#paint0_linear_2852_11676)"/>
<path d="M35.1364 31.5613L29.7687 26.191V26.0012V25.8114L35.1377 20.4424L35.2586 20.5113L41.6195 24.1253C43.4356 25.1575 43.4356 26.8462 41.6195 27.8797L35.2586 31.4937L35.1364 31.5613Z" fill="url(#paint1_linear_2852_11676)"/>
<g filter="url(#filter1_i_2852_11676)">
<path d="M35.2586 31.4927L29.7674 26.0015L13.5668 42.2034C14.1648 42.8378 15.1541 42.9158 16.2682 42.284L35.2586 31.4927Z" fill="url(#paint2_linear_2852_11676)"/>
</g>
<path d="M35.2586 20.5101L16.2682 9.7201C15.1541 9.087 14.1648 9.1663 13.5668 9.8007L29.7687 26.0026L35.2586 20.5101Z" fill="url(#paint3_linear_2852_11676)"/>
</g>
<defs>
<filter id="filter0_ii_2852_11676" x="12.9649" y="9.2832" width="30.0167" height="33.437" filterUnits="userSpaceOnUse" color-interpolation-filters="sRGB">
<feFlood flood-opacity="0" result="BackgroundImageFix"/>
<feBlend mode="normal" in="SourceGraphic" in2="BackgroundImageFix" result="shape"/>
<feColorMatrix in="SourceAlpha" type="matrix" values="0 0 0 0 0 0 0 0 0 0 0 0 0 0 0 0 0 0 127 0" result="hardAlpha"/>
<feOffset dy="-0.15"/>
<feComposite in2="hardAlpha" operator="arithmetic" k2="-1" k3="1"/>
<feColorMatrix type="matrix" values="0 0 0 0 0 0 0 0 0 0 0 0 0 0 0 0 0 0 0.12 0"/>
<feBlend mode="normal" in2="shape" result="effect1_innerShadow_2852_11676"/>
<feColorMatrix in="SourceAlpha" type="matrix" values="0 0 0 0 0 0 0 0 0 0 0 0 0 0 0 0 0 0 127 0" result="hardAlpha"/>
<feOffset dy="0.15"/>
<feComposite in2="hardAlpha" operator="arithmetic" k2="-1" k3="1"/>
<feColorMatrix type="matrix" values="0 0 0 0 1 0 0 0 0 1 0 0 0 0 1 0 0 0 0.25 0"/>
<feBlend mode="normal" in2="effect1_innerShadow_2852_11676" result="effect2_innerShadow_2852_11676"/>
</filter>
<filter id="filter1_i_2852_11676" x="13.5668" y="26.0015" width="21.6918" height="16.7188" filterUnits="userSpaceOnUse" color-interpolation-filters="sRGB">
<feFlood flood-opacity="0" result="BackgroundImageFix"/>
<feBlend mode="normal" in="SourceGraphic" in2="BackgroundImageFix" result="shape"/>
<feColorMatrix in="SourceAlpha" type="matrix" values="0 0 0 0 0 0 0 0 0 0 0 0 0 0 0 0 0 0 127 0" result="hardAlpha"/>
<feOffset dy="-0.15"/>
<feComposite in2="hardAlpha" operator="arithmetic" k2="-1" k3="1"/>
<feColorMatrix type="matrix" values="0 0 0 0 0 0 0 0 0 0 0 0 0 0 0 0 0 0 0.08 0"/>
<feBlend mode="normal" in2="shape" result="effect1_innerShadow_2852_11676"/>
</filter>
<linearGradient id="paint0_linear_2852_11676" x1="28.341" y1="11.3218" x2="6.52444" y2="33.1384" gradientUnits="userSpaceOnUse">
<stop stop-color="#00A0FF"/>
<stop offset="0.0066" stop-color="#00A1FF"/>
<stop offset="0.2601" stop-color="#00BEFF"/>
<stop offset="0.5122" stop-color="#00D2FF"/>
<stop offset="0.7604" stop-color="#00DFFF"/>
<stop offset="1" stop-color="#00E3FF"/>
</linearGradient>
<linearGradient id="paint1_linear_2852_11676" x1="43.9835" y1="26.0012" x2="12.5289" y2="26.0012" gradientUnits="userSpaceOnUse">
<stop stop-color="#FFE000"/>
<stop offset="0.4087" stop-color="#FFBD00"/>
<stop offset="0.7754" stop-color="#FFA500"/>
<stop offset="1" stop-color="#FF9C00"/>
</linearGradient>
<linearGradient id="paint2_linear_2852_11676" x1="32.2765" y1="28.9835" x2="2.69049" y2="58.5696" gradientUnits="userSpaceOnUse">
<stop stop-color="#FF3A44"/>
<stop offset="1" stop-color="#C31162"/>
</linearGradient>
<linearGradient id="paint3_linear_2852_11676" x1="9.48662" y1="0.229842" x2="22.6976" y2="13.4408" gradientUnits="userSpaceOnUse">
<stop stop-color="#32A071"/>
<stop offset="0.0685" stop-color="#2DA771"/>
<stop offset="0.4762" stop-color="#15CF74"/>
<stop offset="0.8009" stop-color="#06E775"/>
<stop offset="1" stop-color="#00F076"/>
</linearGradient>
</defs>
</svg>
