<svg width="156" height="52" viewBox="0 0 156 52" fill="none" xmlns="http://www.w3.org/2000/svg">
<path d="M0 10.5C0 7.23841 0 5.60761 0.532843 4.32122C1.2433 2.60602 2.60602 1.2433 4.32122 0.532843C5.60761 0 7.23841 0 10.5 0H145.5C148.762 0 150.392 0 151.679 0.532843C153.394 1.2433 154.757 2.60602 155.467 4.32122C156 5.60761 156 7.23841 156 10.5V41.5C156 44.7616 156 46.3924 155.467 47.6788C154.757 49.394 153.394 50.7567 151.679 51.4672C150.392 52 148.762 52 145.5 52H10.5C7.23841 52 5.60761 52 4.32122 51.4672C2.60602 50.7567 1.2433 49.394 0.532843 47.6788C0 46.3924 0 44.7616 0 41.5V10.5Z" fill="white" fill-opacity="0.1"/>
<path d="M105.984 24.961V27.9393H104.117V29.8925H105.984V36.5289C105.984 38.7951 107.009 39.7015 109.588 39.7015C110.041 39.7015 110.473 39.6475 110.85 39.5828V37.6512C110.527 37.6836 110.322 37.7052 109.966 37.7052C108.811 37.7052 108.304 37.1656 108.304 35.9354V29.8925H110.85V27.9393H108.304V24.961H105.984Z" fill="white"/>
<path d="M117.42 39.8634C120.852 39.8634 122.956 37.5649 122.956 33.7556C122.956 29.968 120.841 27.6587 117.42 27.6587C113.989 27.6587 111.874 29.968 111.874 33.7556C111.874 37.5649 113.978 39.8634 117.42 39.8634ZM117.42 37.8023C115.402 37.8023 114.269 36.3239 114.269 33.7556C114.269 31.209 115.402 29.7198 117.42 29.7198C119.428 29.7198 120.571 31.209 120.571 33.7556C120.571 36.3131 119.428 37.8023 117.42 37.8023Z" fill="white"/>
<path d="M124.757 39.6368H127.077V32.6981C127.077 31.0471 128.318 29.9356 130.077 29.9356C130.487 29.9356 131.177 30.0112 131.371 30.0759V27.7882C131.123 27.7235 130.681 27.6911 130.336 27.6911C128.803 27.6911 127.497 28.5328 127.163 29.6874H126.99V27.8853H124.757V39.6368Z" fill="white"/>
<path d="M137.132 29.6335C138.848 29.6335 139.97 30.8313 140.024 32.6765H134.089C134.219 30.8421 135.416 29.6335 137.132 29.6335ZM140.013 36.4642C139.582 37.3814 138.621 37.8886 137.218 37.8886C135.362 37.8886 134.165 36.5829 134.089 34.5218V34.3923H142.387V33.583C142.387 29.8925 140.413 27.6587 137.143 27.6587C133.83 27.6587 131.726 30.0435 131.726 33.7988C131.726 37.5541 133.787 39.8634 137.154 39.8634C139.841 39.8634 141.718 38.5684 142.247 36.4642H140.013Z" fill="white"/>
<path d="M90.769 35.2971C90.9479 38.1828 93.3526 40.0282 96.9317 40.0282C100.757 40.0282 103.15 38.0933 103.15 35.0063C103.15 32.5793 101.786 31.2371 98.4752 30.4654L96.6968 30.0292C94.5941 29.5371 93.7441 28.8772 93.7441 27.7252C93.7441 26.2712 95.0639 25.3205 97.0435 25.3205C98.9225 25.3205 100.22 26.2488 100.455 27.7364H102.893C102.748 25.0185 100.354 23.106 97.0771 23.106C93.554 23.106 91.2052 25.0185 91.2052 27.893C91.2052 30.2641 92.5362 31.6733 95.4553 32.3556L97.5357 32.8589C99.6719 33.3622 100.611 34.1004 100.611 35.3307C100.611 36.7623 99.1351 37.8025 97.1218 37.8025C94.9632 37.8025 93.4645 36.8294 93.252 35.2971H90.769Z" fill="white"/>
<path d="M66.7355 27.6911C65.1384 27.6911 63.7571 28.4896 63.0449 29.8277H62.8723V27.8853H60.6385V43.5431H62.9586V37.8562H63.142C63.7571 39.0972 65.0844 39.831 66.757 39.831C69.7246 39.831 71.613 37.4893 71.613 33.7556C71.613 30.022 69.7246 27.6911 66.7355 27.6911ZM66.0772 37.7483C64.1348 37.7483 62.9154 36.216 62.9154 33.7664C62.9154 31.3061 64.1348 29.7738 66.088 29.7738C68.052 29.7738 69.2282 31.2737 69.2282 33.7556C69.2282 36.2484 68.052 37.7483 66.0772 37.7483Z" fill="white"/>
<path d="M79.7313 27.6911C78.1342 27.6911 76.753 28.4896 76.0408 29.8277H75.8681V27.8853H73.6344V43.5431H75.9544V37.8562H76.1379C76.753 39.0972 78.0803 39.831 79.7529 39.831C82.7204 39.831 84.6088 37.4893 84.6088 33.7556C84.6088 30.022 82.7204 27.6911 79.7313 27.6911ZM79.073 37.7483C77.1307 37.7483 75.9113 36.216 75.9113 33.7664C75.9113 31.3061 77.1307 29.7738 79.0838 29.7738C81.0478 29.7738 82.224 31.2737 82.224 33.7556C82.224 36.2484 81.0478 37.7483 79.073 37.7483Z" fill="white"/>
<path d="M56.4759 39.6368H59.1379L53.3107 23.4974H50.6152L44.7881 39.6368H47.3605L48.8481 35.3531H54.9996L56.4759 39.6368ZM51.8343 26.4278H52.0245L54.362 33.2504H49.4856L51.8343 26.4278Z" fill="white"/>
<path d="M46.3465 11.324V19.1097H49.1575C51.4776 19.1097 52.8211 17.6799 52.8211 15.1926C52.8211 12.743 51.4668 11.324 49.1575 11.324H46.3465ZM47.5551 12.4247H49.0226C50.6359 12.4247 51.5909 13.4498 51.5909 15.2088C51.5909 16.9947 50.6521 18.009 49.0226 18.009H47.5551V12.4247Z" fill="white"/>
<path d="M56.9357 19.223C58.6515 19.223 59.7036 18.0738 59.7036 16.1692C59.7036 14.2753 58.6461 13.1207 56.9357 13.1207C55.2199 13.1207 54.1624 14.2753 54.1624 16.1692C54.1624 18.0738 55.2145 19.223 56.9357 19.223ZM56.9357 18.1925C55.9267 18.1925 55.3602 17.4533 55.3602 16.1692C55.3602 14.8958 55.9267 14.1512 56.9357 14.1512C57.9392 14.1512 58.5112 14.8958 58.5112 16.1692C58.5112 17.4479 57.9392 18.1925 56.9357 18.1925Z" fill="white"/>
<path d="M68.6634 13.234H67.5033L66.4566 17.7177H66.3649L65.1563 13.234H64.0448L62.8362 17.7177H62.7499L61.6978 13.234H60.5215L62.1402 19.1097H63.3326L64.5412 14.7825H64.6329L65.8469 19.1097H67.0501L68.6634 13.234Z" fill="white"/>
<path d="M69.9993 19.1097H71.1593V15.6728C71.1593 14.7555 71.7043 14.1836 72.5621 14.1836C73.42 14.1836 73.8301 14.653 73.8301 15.5972V19.1097H74.9901V15.3059C74.9901 13.9084 74.2671 13.1207 72.956 13.1207C72.0712 13.1207 71.4884 13.5146 71.2025 14.1674H71.1162V13.234H69.9993V19.1097Z" fill="white"/>
<path d="M76.817 19.1097H77.9771V10.9409H76.817V19.1097Z" fill="white"/>
<path d="M82.3399 19.223C84.0557 19.223 85.1078 18.0738 85.1078 16.1692C85.1078 14.2753 84.0503 13.1207 82.3399 13.1207C80.6241 13.1207 79.5666 14.2753 79.5666 16.1692C79.5666 18.0738 80.6187 19.223 82.3399 19.223ZM82.3399 18.1925C81.3309 18.1925 80.7644 17.4533 80.7644 16.1692C80.7644 14.8958 81.3309 14.1512 82.3399 14.1512C83.3435 14.1512 83.9154 14.8958 83.9154 16.1692C83.9154 17.4479 83.3435 18.1925 82.3399 18.1925Z" fill="white"/>
<path d="M88.5641 18.2302C87.9329 18.2302 87.4743 17.9227 87.4743 17.3939C87.4743 16.876 87.8411 16.6008 88.6505 16.5469L90.0857 16.4551V16.9461C90.0857 17.6745 89.4382 18.2302 88.5641 18.2302ZM88.2674 19.2068C89.0389 19.2068 89.681 18.8723 90.0317 18.2842H90.1234V19.1097H91.2403V15.0955C91.2403 13.8545 90.4094 13.1207 88.9364 13.1207C87.6037 13.1207 86.6541 13.7682 86.5354 14.7771H87.6577C87.7872 14.3617 88.235 14.1243 88.8825 14.1243C89.6756 14.1243 90.0857 14.475 90.0857 15.0955V15.6026L88.494 15.6944C87.0966 15.7807 86.3088 16.3904 86.3088 17.4479C86.3088 18.5216 87.1343 19.2068 88.2674 19.2068Z" fill="white"/>
<path d="M95.1769 19.2068C95.9862 19.2068 96.6714 18.8238 97.0221 18.1817H97.1139V19.1097H98.2253V10.9409H97.0653V14.1674H96.979C96.6606 13.52 95.9808 13.1369 95.1769 13.1369C93.6931 13.1369 92.7381 14.3131 92.7381 16.1692C92.7381 18.0306 93.6823 19.2068 95.1769 19.2068ZM95.506 14.1782C96.4772 14.1782 97.0869 14.9498 97.0869 16.1746C97.0869 17.4047 96.4826 18.1655 95.506 18.1655C94.524 18.1655 93.9359 17.4155 93.9359 16.1692C93.9359 14.9336 94.5294 14.1782 95.506 14.1782Z" fill="white"/>
<path d="M105.748 19.223C107.464 19.223 108.516 18.0738 108.516 16.1692C108.516 14.2753 107.458 13.1207 105.748 13.1207C104.032 13.1207 102.974 14.2753 102.974 16.1692C102.974 18.0738 104.027 19.223 105.748 19.223ZM105.748 18.1925C104.739 18.1925 104.172 17.4533 104.172 16.1692C104.172 14.8958 104.739 14.1512 105.748 14.1512C106.751 14.1512 107.323 14.8958 107.323 16.1692C107.323 17.4479 106.751 18.1925 105.748 18.1925Z" fill="white"/>
<path d="M110.051 19.1097H111.211V15.6728C111.211 14.7555 111.756 14.1836 112.614 14.1836C113.472 14.1836 113.882 14.653 113.882 15.5972V19.1097H115.042V15.3059C115.042 13.9084 114.319 13.1207 113.008 13.1207C112.123 13.1207 111.54 13.5146 111.254 14.1674H111.168V13.234H110.051V19.1097Z" fill="white"/>
<path d="M120.385 11.7718V13.261H119.451V14.2376H120.385V17.5558C120.385 18.6889 120.897 19.1421 122.187 19.1421C122.413 19.1421 122.629 19.1151 122.818 19.0827V18.1169C122.656 18.1331 122.554 18.1439 122.376 18.1439C121.798 18.1439 121.545 17.8741 121.545 17.2591V14.2376H122.818V13.261H121.545V11.7718H120.385Z" fill="white"/>
<path d="M124.375 19.1097H125.535V15.6782C125.535 14.7879 126.064 14.189 127.014 14.189C127.834 14.189 128.271 14.6638 128.271 15.6026V19.1097H129.431V15.3167C129.431 13.9192 128.659 13.1261 127.407 13.1261C126.523 13.1261 125.902 13.52 125.616 14.1782H125.524V10.9409H124.375V19.1097Z" fill="white"/>
<path d="M133.616 14.1081C134.473 14.1081 135.035 14.707 135.062 15.6296H132.094C132.159 14.7124 132.758 14.1081 133.616 14.1081ZM135.056 17.5234C134.84 17.9821 134.36 18.2356 133.659 18.2356C132.731 18.2356 132.132 17.5828 132.094 16.5522V16.4875H136.243V16.0828C136.243 14.2376 135.256 13.1207 133.621 13.1207C131.965 13.1207 130.912 14.3131 130.912 16.1907C130.912 18.0684 131.943 19.223 133.626 19.223C134.97 19.223 135.909 18.5756 136.173 17.5234H135.056Z" fill="white"/>
<path d="M32.1997 26.3909C32.2278 24.2056 33.4014 22.1378 35.2632 20.9932C34.0887 19.3158 32.1214 18.2523 30.0747 18.1882C27.8917 17.9591 25.7754 19.4945 24.6629 19.4945C23.529 19.4945 21.8162 18.211 19.9719 18.2489C17.5679 18.3266 15.3267 19.6934 14.1571 21.7952C11.6429 26.1481 13.5183 32.5455 15.9267 36.0641C17.1316 37.787 18.5399 39.7116 20.3826 39.6434C22.1857 39.5686 22.8592 38.4935 25.0358 38.4935C27.1922 38.4935 27.824 39.6434 29.7041 39.6C31.639 39.5685 32.8581 37.8693 34.0208 36.1301C34.8865 34.9024 35.5527 33.5456 35.9947 32.1098C33.7208 31.1481 32.2023 28.8598 32.1997 26.3909Z" fill="white"/>
<path d="M28.6485 15.8742C29.7035 14.6078 30.2233 12.9799 30.0974 11.3364C28.4856 11.5057 26.9968 12.276 25.9275 13.4939C24.882 14.6838 24.3379 16.283 24.4407 17.8637C26.0531 17.8803 27.6382 17.1309 28.6485 15.8742Z" fill="white"/>
</svg>
