<svg width="16" height="17" viewBox="0 0 16 17" fill="white" xmlns="http://www.w3.org/2000/svg">
<path d="M0.121701 3.39268C0.458123 2.25554 1.51035 1.42285 2.75513 1.42285H13.2449C14.4899 1.42285 15.5426 2.25604 15.8786 3.39368L8.34917 8.06686C8.13388 8.20048 7.86614 8.20048 7.6511 8.06686L0.121701 3.39268ZM9.13939 9.33987C8.78799 9.55815 8.39412 9.66705 8.00001 9.66705C7.60589 9.66705 7.21203 9.5579 6.86062 9.33987L0.0078125 5.08577V12.1624C0.0078125 13.6771 1.24036 14.9097 2.75513 14.9097H13.2449C14.7597 14.9097 15.9922 13.6771 15.9922 12.1624V5.08677L9.13939 9.33987Z" fill="white"/>
</svg>
