<svg width="16" height="17" viewBox="0 0 16 17" fill="white" xmlns="http://www.w3.org/2000/svg">
<g clip-path="url(#clip0_508_4824)">
<path d="M13.4562 10.1752C12.878 9.60429 12.1561 9.60429 11.5815 10.1752C11.1432 10.6098 10.705 11.0444 10.274 11.4863C10.1562 11.6079 10.0567 11.6336 9.91311 11.5526C9.62951 11.3979 9.32751 11.2727 9.05496 11.1033C7.78431 10.3041 6.71991 9.2765 5.77704 8.12002C5.3093 7.54546 4.89311 6.9304 4.60215 6.23798C4.54322 6.09803 4.55427 6.00595 4.66845 5.89178C5.10673 5.46823 5.53396 5.03363 5.96488 4.59903C6.56522 3.99501 6.56522 3.28786 5.9612 2.68016C5.61867 2.33395 5.27615 1.99511 4.93363 1.6489C4.58005 1.29533 4.23016 0.938076 3.87291 0.588186C3.29467 0.0246797 2.57279 0.0246798 1.99823 0.591869C1.55627 1.02647 1.13272 1.47212 0.683386 1.89935C0.267201 2.29344 0.0572674 2.77592 0.0130708 3.33942C-0.0569071 4.2565 0.167759 5.12202 0.484501 5.96544C1.13272 7.7112 2.11978 9.26176 3.31677 10.6834C4.93363 12.606 6.86354 14.1271 9.12125 15.2246C10.1378 15.7181 11.1911 16.0975 12.3366 16.1601C13.1247 16.2043 13.8098 16.0054 14.3586 15.3904C14.7342 14.9705 15.1578 14.5875 15.5555 14.186C16.1448 13.5893 16.1485 12.8675 15.5629 12.2782C14.8631 11.5747 14.1597 10.8749 13.4562 10.1752Z" fill="white"/>
</g>
<defs>
<clipPath id="clip0_508_4824">
<rect width="16" height="16" fill="white" transform="translate(0 0.166016)"/>
</clipPath>
</defs>
</svg>
