<svg width="15" height="15" viewBox="0 0 15 15" fill="none" xmlns="http://www.w3.org/2000/svg">
<path d="M7.30469 4.08398C5.30469 4.08398 3.71094 5.70898 3.71094 7.67773C3.71094 9.67773 5.30469 11.2715 7.30469 11.2715C9.27344 11.2715 10.8984 9.67773 10.8984 7.67773C10.8984 5.70898 9.27344 4.08398 7.30469 4.08398ZM7.30469 10.0215C6.02344 10.0215 4.96094 8.99023 4.96094 7.67773C4.96094 6.39648 5.99219 5.36523 7.30469 5.36523C8.58594 5.36523 9.61719 6.39648 9.61719 7.67773C9.61719 8.99023 8.58594 10.0215 7.30469 10.0215ZM11.8672 3.95898C11.8672 3.49023 11.4922 3.11523 11.0234 3.11523C10.5547 3.11523 10.1797 3.49023 10.1797 3.95898C10.1797 4.42773 10.5547 4.80273 11.0234 4.80273C11.4922 4.80273 11.8672 4.42773 11.8672 3.95898ZM14.2422 4.80273C14.1797 3.67773 13.9297 2.67773 13.1172 1.86523C12.3047 1.05273 11.3047 0.802734 10.1797 0.740234C9.02344 0.677734 5.55469 0.677734 4.39844 0.740234C3.27344 0.802734 2.30469 1.05273 1.46094 1.86523C0.648438 2.67773 0.398438 3.67773 0.335938 4.80273C0.273438 5.95898 0.273438 9.42773 0.335938 10.584C0.398438 11.709 0.648438 12.6777 1.46094 13.5215C2.30469 14.334 3.27344 14.584 4.39844 14.6465C5.55469 14.709 9.02344 14.709 10.1797 14.6465C11.3047 14.584 12.3047 14.334 13.1172 13.5215C13.9297 12.6777 14.1797 11.709 14.2422 10.584C14.3047 9.42773 14.3047 5.95898 14.2422 4.80273ZM12.7422 11.8027C12.5234 12.4277 12.0234 12.8965 11.4297 13.1465C10.4922 13.5215 8.30469 13.4277 7.30469 13.4277C6.27344 13.4277 4.08594 13.5215 3.17969 13.1465C2.55469 12.8965 2.08594 12.4277 1.83594 11.8027C1.46094 10.8965 1.55469 8.70898 1.55469 7.67773C1.55469 6.67773 1.46094 4.49023 1.83594 3.55273C2.08594 2.95898 2.55469 2.49023 3.17969 2.24023C4.08594 1.86523 6.27344 1.95898 7.30469 1.95898C8.30469 1.95898 10.4922 1.86523 11.4297 2.24023C12.0234 2.45898 12.4922 2.95898 12.7422 3.55273C13.1172 4.49023 13.0234 6.67773 13.0234 7.67773C13.0234 8.70898 13.1172 10.8965 12.7422 11.8027Z" fill="white"/>
</svg>
