<svg width="15" height="15" viewBox="0 0 15 15" fill="none" xmlns="http://www.w3.org/2000/svg">
<path d="M3.94058 14.6934V5.32871H1.02783V14.6934H3.94058ZM2.46855 4.07591C3.40815 4.07591 4.15982 3.29291 4.15982 2.35331C4.15982 1.44504 3.40815 0.693359 2.46855 0.693359C1.56027 0.693359 0.808594 1.44504 0.808594 2.35331C0.808594 3.29291 1.56027 4.07591 2.46855 4.07591ZM14.8086 14.6934H14.8399V9.55689C14.8399 7.0513 14.2762 5.10947 11.3321 5.10947C9.92269 5.10947 8.98309 5.89246 8.57593 6.61282H8.54461V5.32871H5.75714V14.6934H8.66989V10.058C8.66989 8.83654 8.88913 7.6777 10.3925 7.6777C11.8958 7.6777 11.9272 9.05578 11.9272 10.152V14.6934H14.8086Z" fill="white"/>
</svg>
