<svg width="16" height="16" viewBox="0 0 16 16" fill="none" xmlns="http://www.w3.org/2000/svg">
<path d="M8 0C3.6 0 0 3.6 0 8C0 12.4 3.6 16 8 16C12.4 16 16 12.4 16 8C16 3.6 12.4 0 8 0ZM8 14.4C7.36 14.4 6.48 13.2 5.92 11.2H10C9.52 13.2 8.64 14.4 8 14.4ZM5.68 9.6C5.6 9.12 5.6 8.56 5.6 8C5.6 7.44 5.6 6.88 5.68 6.4H10.32C10.4 6.88 10.4 7.44 10.4 8C10.4 8.56 10.4 9.12 10.32 9.6H5.68ZM1.6 8C1.6 7.44 1.68 6.88 1.84 6.4H4.08C4 6.88 4 7.44 4 8C4 8.56 4 9.12 4.08 9.6H1.84C1.68 9.12 1.6 8.56 1.6 8ZM8 1.6C8.64 1.6 9.52 2.8 10.08 4.8H5.92C6.48 2.8 7.36 1.6 8 1.6ZM11.92 6.4H14.16C14.32 6.88 14.4 7.44 14.4 8C14.4 8.56 14.32 9.12 14.16 9.6H11.92C12 9.12 12 8.56 12 8C12 7.44 12 6.88 11.92 6.4ZM13.52 4.8H11.68C11.52 3.84 11.2 2.96 10.8 2.24C12 2.8 12.88 3.68 13.52 4.8ZM5.12 2.24C4.8 2.96 4.48 3.84 4.32 4.8H2.48C3.12 3.68 4 2.8 5.12 2.24ZM2.48 11.2H4.32C4.48 12.16 4.8 13.04 5.2 13.76C4 13.2 3.12 12.32 2.48 11.2ZM10.88 13.76C11.2 13.04 11.52 12.16 11.76 11.2H13.6C12.88 12.32 12 13.2 10.88 13.76Z" fill="#001921"/>
</svg>
