<svg width="40" height="40" viewBox="0 0 40 40" fill="none" xmlns="http://www.w3.org/2000/svg">
<circle cx="20" cy="20" r="20" fill="#FCCE00"/>
<rect width="40" height="40" rx="20" fill="#8AFF6F"/>
<path d="M10 20.0934C10.0049 15.0625 13.4158 10 20.1307 10C26.6703 10 30.0753 15.119 29.9987 19.9668C29.9094 25.5866 26.4531 28.4936 23.3567 29.5388L23.0039 27.8632C22.8191 26.9847 23.0387 26.201 23.612 25.6472C24.3533 24.9309 24.7942 24.0454 25.0238 22.8207C25.2665 21.526 25.1525 20.1052 24.6138 18.6859L22.7823 13.1043H20.9456L22.4134 19.4803C22.5478 20.1154 22.1026 20.7211 21.5014 20.7211L19.7178 12.2434H18.0482L19.6547 22.7057C18.6485 22.8036 18.2762 22.0965 18.1925 21.5849L17.1681 13.6832H15.4722C15.4722 13.6832 15.4826 17.9401 15.4826 20.8473C15.4826 25.1202 17.59 26.3922 19.0455 26.7716C19.8686 26.9862 20.4184 27.68 20.568 28.6541L20.7745 30C17.6575 30.0086 9.99137 28.7512 10 20.0934Z" fill="#00645A"/>
</svg>
