<svg width="40" height="40" viewBox="0 0 40 40" fill="none" xmlns="http://www.w3.org/2000/svg">
<circle cx="20" cy="20" r="20" fill="#FCCE00"/>
<rect width="40" height="40" rx="20" fill="#33E0A0"/>
<path d="M29.2018 17.0776L31 15.1387H27.0125C25.0163 13.7871 22.6054 13 19.9983 13C17.3944 13 14.9902 13.7889 12.9974 15.1387H9L10.798 17.0776C9.6958 18.0743 9.00492 19.5101 9.00492 21.104C9.00492 24.1123 11.4656 26.5512 14.5007 26.5512C15.9426 26.5512 17.256 26 18.2366 25.099L19.9981 27L21.7596 25.1008C22.7402 26.0018 24.0522 26.5512 25.4939 26.5512C28.529 26.5512 30.9931 24.1123 30.9931 21.104C30.9946 19.5083 30.3037 18.0727 29.2016 17.0776H29.2018ZM14.5023 24.7904C12.4477 24.7904 10.783 23.1404 10.783 21.104C10.783 19.0677 12.448 17.4177 14.5023 17.4177C16.5568 17.4177 18.2216 19.0679 18.2216 21.104C18.2216 23.1402 16.5566 24.7904 14.5023 24.7904ZM19.9999 20.9968C19.9999 18.571 18.22 16.4885 15.8709 15.5991C17.1413 15.0727 18.5347 14.7807 19.9983 14.7807C21.4617 14.7807 22.8569 15.0727 24.1273 15.5991C21.78 16.4903 20.0001 18.571 20.0001 20.9968H19.9999ZM25.4957 24.7904C23.4411 24.7904 21.7764 23.1404 21.7764 21.104C21.7764 19.0677 23.4414 17.4177 25.4957 17.4177C27.5503 17.4177 29.215 19.0679 29.215 21.104C29.215 23.1402 27.55 24.7904 25.4957 24.7904ZM25.4957 19.17C24.4184 19.17 23.546 20.0347 23.546 21.1025C23.546 22.1701 24.4184 23.0347 25.4957 23.0347C26.5728 23.0347 27.4452 22.1701 27.4452 21.1025C27.4452 20.0364 26.5728 19.17 25.4957 19.17ZM16.452 21.104C16.452 22.1716 15.5796 23.0363 14.5023 23.0363C13.4252 23.0363 12.5528 22.1716 12.5528 21.104C12.5528 20.0362 13.4252 19.1716 14.5023 19.1716C15.5794 19.17 16.452 20.0362 16.452 21.104Z" fill="black"/>
</svg>
