<svg width="16" height="13" viewBox="0 0 16 13" fill="none" xmlns="http://www.w3.org/2000/svg">
<path d="M14.1122 3.67167C14.6905 3.23794 15.211 2.71746 15.6158 2.11023C15.0953 2.34155 14.4881 2.51505 13.8809 2.57288C14.517 2.19697 14.9797 1.61866 15.211 0.895769C14.6327 1.24276 13.9676 1.503 13.3026 1.64758C12.7242 1.04035 11.9435 0.693359 11.076 0.693359C9.39894 0.693359 8.03991 2.0524 8.03991 3.7295C8.03991 3.96083 8.06882 4.19215 8.12665 4.42348C5.61099 4.2789 3.35557 3.06444 1.85195 1.24276C1.59171 1.67649 1.44713 2.19697 1.44713 2.77529C1.44713 3.81625 1.96762 4.74155 2.80617 5.29095C2.3146 5.26203 1.82304 5.14637 1.41822 4.91505V4.94396C1.41822 6.41866 2.45918 7.63312 3.84713 7.92228C3.61581 7.98011 3.32665 8.03794 3.06641 8.03794C2.864 8.03794 2.69051 8.00902 2.4881 7.98011C2.864 9.19456 3.99171 10.062 5.32183 10.091C4.28087 10.9006 2.97966 11.3922 1.5628 11.3922C1.30256 11.3922 1.07123 11.3632 0.839905 11.3343C2.17003 12.2018 3.76039 12.6934 5.49533 12.6934C11.076 12.6934 14.1122 8.09577 14.1122 4.07649C14.1122 3.93191 14.1122 3.81625 14.1122 3.67167Z" fill="white"/>
</svg>
