<svg width="18" height="13" viewBox="0 0 18 13" fill="none" xmlns="http://www.w3.org/2000/svg">
<path d="M17.3346 2.59961C17.1471 1.84961 16.5533 1.25586 15.8346 1.06836C14.4908 0.693359 9.17834 0.693359 9.17834 0.693359C9.17834 0.693359 3.83459 0.693359 2.49084 1.06836C1.77209 1.25586 1.17834 1.84961 0.990845 2.59961C0.615845 3.91211 0.615845 6.72461 0.615845 6.72461C0.615845 6.72461 0.615845 9.50586 0.990845 10.8496C1.17834 11.5996 1.77209 12.1621 2.49084 12.3496C3.83459 12.6934 9.17834 12.6934 9.17834 12.6934C9.17834 12.6934 14.4908 12.6934 15.8346 12.3496C16.5533 12.1621 17.1471 11.5996 17.3346 10.8496C17.7096 9.50586 17.7096 6.72461 17.7096 6.72461C17.7096 6.72461 17.7096 3.91211 17.3346 2.59961ZM7.42834 9.25586V4.19336L11.8658 6.72461L7.42834 9.25586Z" fill="white"/>
</svg>
