<svg width="18" height="18" viewBox="0 0 18 18" fill="none" xmlns="http://www.w3.org/2000/svg">
<path d="M14.057 12.375C11.5909 12.3871 9.57461 14.4033 9.56251 16.8695C9.56114 17.1697 9.67979 17.4581 9.8921 17.6704C10.103 17.8816 10.3892 18 10.6875 18C10.6894 18 10.6911 18 10.693 18C13.1591 17.9879 15.1754 15.9717 15.1875 13.5055C15.1889 13.2053 15.0702 12.9169 14.8579 12.7046C14.6456 12.492 14.355 12.3912 14.057 12.375Z" fill="#2CBD53"/>
<path d="M14.057 6.1875C11.5909 6.19959 9.57461 8.21584 9.56251 10.682C9.56114 10.9822 9.67979 11.2706 9.8921 11.4829C10.103 11.6941 10.3892 11.8125 10.6875 11.8125C10.6894 11.8125 10.6911 11.8125 10.693 11.8125C13.1591 11.8004 15.1754 9.78416 15.1875 7.31798C15.1889 7.01779 15.0702 6.7294 14.8579 6.51709C14.6456 6.3045 14.355 6.20371 14.057 6.1875Z" fill="#2CBD53"/>
<path d="M3.943 12.375C3.62578 12.3849 3.35441 12.492 3.1421 12.7046C2.92979 12.9169 2.81114 13.2053 2.81251 13.5055C2.82461 15.9716 4.84085 17.9879 7.30703 18C7.30896 18 7.31061 18 7.31251 18C7.61078 18 7.89698 17.8816 8.10792 17.6704C8.32023 17.4581 8.43888 17.1697 8.43751 16.8695C8.42542 14.4033 6.40917 12.3871 3.943 12.375Z" fill="#2CBD53"/>
<path d="M3.943 6.1875C3.62578 6.19738 3.35441 6.3045 3.1421 6.51709C2.92979 6.7294 2.81114 7.01779 2.81251 7.31798C2.82461 9.78413 4.84085 11.8004 7.30703 11.8125C7.30896 11.8125 7.31061 11.8125 7.31251 11.8125C7.61078 11.8125 7.89698 11.6941 8.10792 11.4829C8.32023 11.2706 8.43888 10.9822 8.43751 10.682C8.42542 8.21584 6.40917 6.19959 3.943 6.1875Z" fill="#2CBD53"/>
<path d="M11.25 3.65625C11.25 2.38704 10.7237 1.19612 9.76823 0.303223C9.33592 -0.101074 8.66412 -0.101074 8.2318 0.303223C7.27625 1.19612 6.75 2.38704 6.75 3.65625C6.75 4.92546 7.27625 6.11638 8.23177 7.00928C8.44791 7.21143 8.72395 7.3125 9 7.3125C9.27605 7.3125 9.55206 7.21143 9.76823 7.00928C10.7237 6.11638 11.25 4.92546 11.25 3.65625Z" fill="#2CBD53"/>
</svg>
