<svg width="18" height="21" viewBox="0 0 18 21" fill="none" xmlns="http://www.w3.org/2000/svg">
<g clip-path="url(#clip0_4495_32395)">
<path d="M14.2367 6.51247L16.7788 3.12306C16.8896 2.97488 16.957 2.79881 16.9735 2.61452C16.99 2.43023 16.9549 2.24499 16.8722 2.07949C16.7894 1.914 16.6623 1.77478 16.505 1.6774C16.3476 1.58001 16.1663 1.5283 15.9813 1.52804H4.01867C4.01867 1.26365 3.91364 1.01009 3.72669 0.823139C3.53974 0.636187 3.28617 0.531158 3.02178 0.531158C2.75739 0.531158 2.50383 0.636187 2.31688 0.823139C2.12993 1.01009 2.0249 1.26365 2.0249 1.52804V18.4751H1.02801C0.763623 18.4751 0.510061 18.5801 0.323109 18.7671C0.136157 18.954 0.0311279 19.2076 0.0311279 19.472C0.0311279 19.7364 0.136157 19.9899 0.323109 20.1769C0.510061 20.3638 0.763623 20.4689 1.02801 20.4689H5.01555C5.27994 20.4689 5.53351 20.3638 5.72046 20.1769C5.90741 19.9899 6.01244 19.7364 6.01244 19.472C6.01244 19.2076 5.90741 18.954 5.72046 18.7671C5.53351 18.5801 5.27994 18.4751 5.01555 18.4751H4.01867V11.4969H15.9813C16.1663 11.4966 16.3476 11.4449 16.505 11.3475C16.6623 11.2502 16.7894 11.1109 16.8722 10.9454C16.9549 10.78 16.99 10.5947 16.9735 10.4104C16.957 10.2261 16.8896 10.0501 16.7788 9.90188L14.2367 6.51247Z" fill="#4285F4"/>
</g>
<defs>
<clipPath id="clip0_4495_32395">
<rect width="17.0093" height="20" fill="white" transform="translate(0 0.5)"/>
</clipPath>
</defs>
</svg>
