<svg width="20" height="21" viewBox="0 0 20 21" fill="none" xmlns="http://www.w3.org/2000/svg">
<g clip-path="url(#clip0_4266_44398)">
<path d="M11.875 0.5C7.61278 2.9558 8.12499 9.875 8.12499 9.875C8.12499 9.875 6.25 9.24999 6.25 6.43751C4.01301 7.73465 2.5 10.2279 2.5 13C2.5 17.1421 5.85786 20.5 10 20.5C14.1422 20.5 17.5 17.1421 17.5 13C17.5 6.90626 11.875 5.65624 11.875 0.5V0.5ZM10.6588 17.9157C9.15169 18.2915 7.62527 17.3744 7.24944 15.8672C6.87369 14.3601 7.79081 12.8336 9.29799 12.4578C12.9366 11.5506 13.3926 9.50447 13.3926 9.50447C13.3926 9.50447 15.2071 16.7817 10.6588 17.9157V17.9157Z" fill="#FFA216"/>
</g>
<defs>
<clipPath id="clip0_4266_44398">
<rect width="20" height="20" fill="white" transform="translate(0 0.5)"/>
</clipPath>
</defs>
</svg>
