<svg width="22" height="22" viewBox="0 0 22 22" fill="none" xmlns="http://www.w3.org/2000/svg">
<path d="M11.3506 17.2565L1.20435 7.1102L0.440453 7.86555C-0.145855 8.45194 -0.145855 9.40602 0.440539 9.99237L9.02428 18.5762C9.0785 18.6304 9.13385 18.683 9.19009 18.7344H5.80081C5.44485 18.7344 5.15627 19.023 5.15627 19.3789C5.15627 19.7349 5.44485 20.0235 5.80081 20.0235H20.0664C21.1326 20.0235 22 19.1561 22 18.0899V17.4453H11.8064C11.6354 17.4453 11.4715 17.3774 11.3506 17.2565Z" fill="#07A279"/>
<path d="M3.22266 18.7344H0.644531C0.288578 18.7344 0 19.023 0 19.3789C0 19.7349 0.288578 20.0234 0.644531 20.0234H3.22266C3.57861 20.0234 3.86719 19.7349 3.86719 19.3789C3.86719 19.023 3.57861 18.7344 3.22266 18.7344Z" fill="#07A279"/>
<path d="M3.22266 16.1562H0.644531C0.288578 16.1562 0 16.4448 0 16.8008C0 17.1567 0.288578 17.4453 0.644531 17.4453H3.22266C3.57861 17.4453 3.86719 17.1567 3.86719 16.8008C3.86719 16.4448 3.57861 16.1562 3.22266 16.1562Z" fill="#07A279"/>
<path d="M17.918 11.8594H15.5735L13.4021 12.5832C13.3345 12.6057 13.2657 12.6164 13.1982 12.6164C12.9283 12.6164 12.6768 12.4456 12.5868 12.1755C12.4743 11.8378 12.6567 11.4728 12.9944 11.3602L14.4521 10.8743L13.8059 9.97L11.9183 10.5992C11.8507 10.6217 11.7819 10.6324 11.7144 10.6324C11.4445 10.6324 11.1931 10.4616 11.103 10.1915C10.9905 9.85389 11.1729 9.48883 11.5106 9.37625L13.8777 8.58722C13.8211 7.53165 13.0726 6.62187 12.0068 6.38593C10.8001 6.11888 9.88813 5.15874 9.68356 3.93993C9.49261 2.80234 8.5167 1.97656 7.36307 1.97656C6.7411 1.97656 6.15458 2.21702 5.7108 2.65431L2.12097 6.20387L12.0734 16.1562H22V15.9414C22 13.6906 20.1688 11.8594 17.918 11.8594Z" fill="#07A279"/>
</svg>
