<svg width="14" height="14" viewBox="0 0 14 14" fill="none" xmlns="http://www.w3.org/2000/svg">
<path fill-rule="evenodd" clip-rule="evenodd" d="M12.5471 2.41597C12.9511 2.01198 12.9511 1.35698 12.5471 0.952987C12.1431 0.548996 11.4881 0.548996 11.0841 0.952987L6.8501 5.18701L2.61607 0.952987C2.21208 0.548996 1.55708 0.548996 1.15309 0.952987C0.7491 1.35698 0.7491 2.01198 1.15309 2.41597L5.38712 6.64999L1.15309 10.884C0.7491 11.288 0.7491 11.943 1.15309 12.347C1.55708 12.751 2.21208 12.751 2.61607 12.347L6.8501 8.11297L11.0841 12.347C11.4881 12.751 12.1431 12.751 12.5471 12.347C12.9511 11.943 12.9511 11.288 12.5471 10.884L8.31308 6.64999L12.5471 2.41597Z" fill="white"/>
<path d="M12.5471 0.952987L12.1936 1.30654L12.5471 0.952987ZM12.5471 2.41597L12.1936 2.06241L12.5471 2.41597ZM11.0841 0.952987L10.7306 0.599433V0.599433L11.0841 0.952987ZM6.8501 5.18701L6.49654 5.54057C6.59031 5.63434 6.71749 5.68701 6.8501 5.68701C6.98271 5.68701 7.10988 5.63434 7.20365 5.54057L6.8501 5.18701ZM2.61607 0.952987L2.26252 1.30654L2.61607 0.952987ZM1.15309 0.952987L1.50664 1.30654L1.50664 1.30654L1.15309 0.952987ZM1.15309 2.41597L1.50664 2.06241L1.15309 2.41597ZM5.38712 6.64999L5.74067 7.00355C5.83444 6.90978 5.88712 6.7826 5.88712 6.64999C5.88712 6.51739 5.83444 6.39021 5.74067 6.29644L5.38712 6.64999ZM1.15309 10.884L0.799537 10.5305H0.799537L1.15309 10.884ZM1.15309 12.347L1.50664 11.9934L1.15309 12.347ZM2.61607 12.347L2.26252 11.9934L2.61607 12.347ZM6.8501 8.11297L7.20365 7.75942C7.00839 7.56416 6.69181 7.56416 6.49654 7.75942L6.8501 8.11297ZM11.0841 12.347L11.4377 11.9934L11.0841 12.347ZM12.5471 10.884L12.1936 11.2376L12.5471 10.884ZM8.31308 6.64999L7.95952 6.29644C7.76426 6.4917 7.76426 6.80829 7.95952 7.00355L8.31308 6.64999ZM12.1936 1.30654C12.4023 1.51527 12.4023 1.85368 12.1936 2.06241L12.9007 2.76952C13.4999 2.17027 13.4999 1.19869 12.9007 0.599433L12.1936 1.30654ZM11.4377 1.30654C11.6464 1.09781 11.9848 1.09781 12.1936 1.30654L12.9007 0.599433C12.3014 0.000180721 11.3298 0.000180721 10.7306 0.599433L11.4377 1.30654ZM7.20365 5.54057L11.4377 1.30654L10.7306 0.599433L6.49654 4.83346L7.20365 5.54057ZM2.26252 1.30654L6.49654 5.54057L7.20365 4.83346L2.96962 0.599434L2.26252 1.30654ZM1.50664 1.30654C1.71537 1.09781 2.05379 1.09781 2.26252 1.30654L2.96962 0.599434C2.37037 0.000180662 1.39879 0.000180662 0.799537 0.599434L1.50664 1.30654ZM1.50664 2.06241C1.29792 1.85368 1.29792 1.51527 1.50664 1.30654L0.799537 0.599433C0.200284 1.19869 0.200284 2.17027 0.799537 2.76952L1.50664 2.06241ZM5.74067 6.29644L1.50664 2.06241L0.799537 2.76952L5.03357 7.00355L5.74067 6.29644ZM1.50664 11.2376L5.74067 7.00355L5.03357 6.29644L0.799537 10.5305L1.50664 11.2376ZM1.50664 11.9934C1.29792 11.7847 1.29792 11.4463 1.50664 11.2376L0.799537 10.5305C0.200284 11.1297 0.200284 12.1013 0.799537 12.7006L1.50664 11.9934ZM2.26252 11.9934C2.05379 12.2022 1.71537 12.2022 1.50664 11.9934L0.799537 12.7006C1.39879 13.2998 2.37037 13.2998 2.96962 12.7006L2.26252 11.9934ZM6.49654 7.75942L2.26252 11.9934L2.96962 12.7006L7.20365 8.46653L6.49654 7.75942ZM11.4377 11.9934L7.20365 7.75942L6.49654 8.46653L10.7306 12.7006L11.4377 11.9934ZM12.1936 11.9934C11.9848 12.2022 11.6464 12.2022 11.4377 11.9934L10.7306 12.7006C11.3298 13.2998 12.3014 13.2998 12.9007 12.7006L12.1936 11.9934ZM12.1936 11.2376C12.4023 11.4463 12.4023 11.7847 12.1936 11.9934L12.9007 12.7006C13.4999 12.1013 13.4999 11.1297 12.9007 10.5305L12.1936 11.2376ZM7.95952 7.00355L12.1936 11.2376L12.9007 10.5305L8.66663 6.29644L7.95952 7.00355ZM12.1936 2.06241L7.95952 6.29644L8.66663 7.00355L12.9007 2.76952L12.1936 2.06241Z" fill="white"/>
</svg>
