<svg width="18" height="18" viewBox="0 0 18 18" fill="none" xmlns="http://www.w3.org/2000/svg">
<path d="M0 7.4588V13.0172C0 14.3587 1.08746 15.4461 2.42894 15.4461H15.5711C16.9125 15.4461 18 14.3587 18 13.0172V7.4588C18 7.22552 17.8109 7.03638 17.5776 7.03638H0.422424C0.189141 7.03638 0 7.22552 0 7.4588ZM4.49414 10.4158H3.36767C2.9594 10.4158 2.62843 10.0848 2.62843 9.67653C2.62843 9.26825 2.9594 8.93728 3.36767 8.93728H4.49414C4.90241 8.93728 5.23338 9.26825 5.23338 9.67653C5.23338 10.0848 4.90241 10.4158 4.49414 10.4158Z" fill="#07A279"/>
<path d="M18 5.13543V4.9829C18 3.64142 16.9125 2.55396 15.5711 2.55396H2.42894C1.08746 2.55396 0 3.64142 0 4.9829V5.13543C0 5.36871 0.189141 5.55785 0.422424 5.55785H17.5776C17.8109 5.55785 18 5.36871 18 5.13543Z" fill="#07A279"/>
</svg>
