<svg width="19" height="18" viewBox="0 0 19 18" fill="none" xmlns="http://www.w3.org/2000/svg">
<g clip-path="url(#clip0_4499_3049)">
<g clip-path="url(#clip1_4499_3049)">
<path d="M10.2598 0H2.31494C1.78817 0 1.28297 0.203188 0.910482 0.564866C0.537996 0.926543 0.328735 1.41708 0.328735 1.92857V17.3571C0.328735 17.5276 0.398489 17.6912 0.522651 17.8117C0.646813 17.9323 0.815212 18 0.990804 18H4.30115V13.5C4.30115 13.3295 4.3709 13.166 4.49506 13.0454C4.61922 12.9249 4.78762 12.8571 4.96322 12.8571H7.61149C7.78708 12.8571 7.95548 12.9249 8.07964 13.0454C8.2038 13.166 8.27356 13.3295 8.27356 13.5V18H12.246V1.92857C12.246 1.41708 12.0367 0.926543 11.6642 0.564866C11.2917 0.203188 10.7865 0 10.2598 0ZM4.96322 10.9286H3.63908C3.46349 10.9286 3.29509 10.8608 3.17093 10.7403C3.04676 10.6197 2.97701 10.4562 2.97701 10.2857C2.97701 10.1152 3.04676 9.9517 3.17093 9.83115C3.29509 9.71059 3.46349 9.64286 3.63908 9.64286H4.96322C5.13881 9.64286 5.30721 9.71059 5.43137 9.83115C5.55553 9.9517 5.62528 10.1152 5.62528 10.2857C5.62528 10.4562 5.55553 10.6197 5.43137 10.7403C5.30721 10.8608 5.13881 10.9286 4.96322 10.9286ZM4.96322 7.71429H3.63908C3.46349 7.71429 3.29509 7.64656 3.17093 7.526C3.04676 7.40544 2.97701 7.24192 2.97701 7.07143C2.97701 6.90093 3.04676 6.73742 3.17093 6.61686C3.29509 6.4963 3.46349 6.42857 3.63908 6.42857H4.96322C5.13881 6.42857 5.30721 6.4963 5.43137 6.61686C5.55553 6.73742 5.62528 6.90093 5.62528 7.07143C5.62528 7.24192 5.55553 7.40544 5.43137 7.526C5.30721 7.64656 5.13881 7.71429 4.96322 7.71429ZM4.96322 4.5H3.63908C3.46349 4.5 3.29509 4.43227 3.17093 4.31171C3.04676 4.19115 2.97701 4.02764 2.97701 3.85714C2.97701 3.68665 3.04676 3.52313 3.17093 3.40257C3.29509 3.28202 3.46349 3.21429 3.63908 3.21429H4.96322C5.13881 3.21429 5.30721 3.28202 5.43137 3.40257C5.55553 3.52313 5.62528 3.68665 5.62528 3.85714C5.62528 4.02764 5.55553 4.19115 5.43137 4.31171C5.30721 4.43227 5.13881 4.5 4.96322 4.5ZM8.93563 10.9286H7.61149C7.4359 10.9286 7.2675 10.8608 7.14334 10.7403C7.01918 10.6197 6.94942 10.4562 6.94942 10.2857C6.94942 10.1152 7.01918 9.9517 7.14334 9.83115C7.2675 9.71059 7.4359 9.64286 7.61149 9.64286H8.93563C9.11122 9.64286 9.27962 9.71059 9.40378 9.83115C9.52794 9.9517 9.5977 10.1152 9.5977 10.2857C9.5977 10.4562 9.52794 10.6197 9.40378 10.7403C9.27962 10.8608 9.11122 10.9286 8.93563 10.9286ZM8.93563 7.71429H7.61149C7.4359 7.71429 7.2675 7.64656 7.14334 7.526C7.01918 7.40544 6.94942 7.24192 6.94942 7.07143C6.94942 6.90093 7.01918 6.73742 7.14334 6.61686C7.2675 6.4963 7.4359 6.42857 7.61149 6.42857H8.93563C9.11122 6.42857 9.27962 6.4963 9.40378 6.61686C9.52794 6.73742 9.5977 6.90093 9.5977 7.07143C9.5977 7.24192 9.52794 7.40544 9.40378 7.526C9.27962 7.64656 9.11122 7.71429 8.93563 7.71429ZM8.93563 4.5H7.61149C7.4359 4.5 7.2675 4.43227 7.14334 4.31171C7.01918 4.19115 6.94942 4.02764 6.94942 3.85714C6.94942 3.68665 7.01918 3.52313 7.14334 3.40257C7.2675 3.28202 7.4359 3.21429 7.61149 3.21429H8.93563C9.11122 3.21429 9.27962 3.28202 9.40378 3.40257C9.52794 3.52313 9.5977 3.68665 9.5977 3.85714C9.5977 4.02764 9.52794 4.19115 9.40378 4.31171C9.27962 4.43227 9.11122 4.5 8.93563 4.5Z" fill="#07A279"/>
<path d="M16.8805 3.21423H13.5701V6.42852H15.5563C15.7319 6.42852 15.9003 6.49625 16.0245 6.61681C16.1487 6.73737 16.2184 6.90088 16.2184 7.07138C16.2184 7.24187 16.1487 7.40539 16.0245 7.52594C15.9003 7.6465 15.7319 7.71423 15.5563 7.71423H13.5701V9.6428H15.5563C15.7319 9.6428 15.9003 9.71053 16.0245 9.83109C16.1487 9.95165 16.2184 10.1152 16.2184 10.2857C16.2184 10.4562 16.1487 10.6197 16.0245 10.7402C15.9003 10.8608 15.7319 10.9285 15.5563 10.9285H13.5701V12.8571H15.5563C15.7319 12.8571 15.9003 12.9248 16.0245 13.0454C16.1487 13.1659 16.2184 13.3295 16.2184 13.4999C16.2184 13.6704 16.1487 13.834 16.0245 13.9545C15.9003 14.0751 15.7319 14.1428 15.5563 14.1428H13.5701V17.9999H18.2046C18.3802 17.9999 18.5486 17.9322 18.6728 17.8117C18.7969 17.6911 18.8667 17.5276 18.8667 17.3571V5.1428C18.8667 4.63132 18.6574 4.14078 18.2849 3.7791C17.9124 3.41742 17.4072 3.21423 16.8805 3.21423Z" fill="#07A279"/>
</g>
</g>
<defs>
<clipPath id="clip0_4499_3049">
<rect width="18.5379" height="18" fill="white" transform="translate(0.328735)"/>
</clipPath>
<clipPath id="clip1_4499_3049">
<rect width="18.5379" height="18" fill="white" transform="translate(0.328735)"/>
</clipPath>
</defs>
</svg>
