<svg width="18" height="18" viewBox="0 0 18 18" fill="none" xmlns="http://www.w3.org/2000/svg">
<g clip-path="url(#clip0_4499_41096)">
<path d="M9.97974 0H7.40224C7.06141 0 6.78448 0.27693 6.78448 0.61775C6.78448 0.958571 7.06141 1.2355 7.40224 1.2355H9.97974C10.3206 1.2355 10.5975 0.958571 10.5975 0.61775C10.5975 0.27693 10.3206 0 9.97974 0Z" fill="#07A279"/>
<path d="M16.8602 4.06865L15.1774 2.38582C14.9431 2.1515 14.5596 2.1515 14.304 2.38582C14.0697 2.62015 14.0697 3.00358 14.304 3.25918L15.9656 4.92072C16.0934 5.04855 16.2425 5.09115 16.3916 5.09115C16.5407 5.09115 16.7112 5.02726 16.8177 4.92072C17.0946 4.6864 17.0946 4.30297 16.8602 4.06865Z" fill="#07A279"/>
<path d="M8.68026 2.57751C4.4199 2.57751 0.968994 6.02842 0.968994 10.2888C0.968994 14.5491 4.4199 18.0001 8.68026 18.0001C12.9406 18.0001 16.3915 14.5491 16.3915 10.2888C16.3915 6.02842 12.9406 2.57751 8.68026 2.57751ZM11.8755 11.1195H8.68026C8.33944 11.1195 8.06251 10.8426 8.06251 10.5018V6.49706C8.06251 6.15624 8.33944 5.87931 8.68026 5.87931C9.02108 5.87931 9.29801 6.15624 9.29801 6.49706V9.90535H11.8755C12.2163 9.90535 12.4933 10.1823 12.4933 10.5231C12.4933 10.8426 12.2163 11.1195 11.8755 11.1195Z" fill="#07A279"/>
</g>
<defs>
<clipPath id="clip0_4499_41096">
<rect width="18" height="18" fill="white"/>
</clipPath>
</defs>
</svg>
