<svg width="18" height="18" viewBox="0 0 18 18" fill="none" xmlns="http://www.w3.org/2000/svg">
<path d="M16.6875 6.9C16.3875 6.6375 16.05 6.3375 15.9375 6.1125C15.825 5.8875 15.8625 5.4 15.9 4.9875C15.9375 4.1625 16.0125 3.2625 15.375 2.625C14.7375 1.9875 13.8375 2.0625 13.0125 2.1C12.6 2.1375 12.1125 2.1375 11.8875 2.0625C11.6625 1.9875 11.3625 1.6125 11.1 1.3125C10.575 0.75 9.9375 0 9 0C8.0625 0 7.425 0.75 6.9 1.3125C6.6375 1.6125 6.3375 1.95 6.1125 2.0625C5.8875 2.175 5.4 2.1375 4.9875 2.1C4.2 2.0625 3.2625 2.025 2.625 2.625C1.9875 3.2625 2.0625 4.1625 2.1 4.9875C2.1375 5.4 2.1375 5.8875 2.0625 6.1125C1.9875 6.3375 1.6125 6.6375 1.3125 6.9C0.75 7.425 0 8.0625 0 9C0 9.9375 0.75 10.575 1.3125 11.1C1.6125 11.3625 1.95 11.6625 2.0625 11.8875C2.175 12.1125 2.1375 12.6 2.1 13.0125C2.0625 13.8 2.025 14.7375 2.625 15.375C3.2625 16.0125 4.1625 15.9375 4.9875 15.9C5.4 15.8625 5.8875 15.8625 6.1125 15.9375C6.3375 16.0125 6.6375 16.3875 6.9 16.6875C7.425 17.25 8.0625 18 9 18C9.9375 18 10.575 17.25 11.1 16.6875C11.3625 16.3875 11.6625 16.05 11.8875 15.9375C12.1125 15.825 12.6 15.8625 13.0125 15.9C13.8375 15.9375 14.7375 16.0125 15.375 15.375C16.0125 14.7375 15.9375 13.8375 15.9 13.0125C15.8625 12.6 15.8625 12.1125 15.9375 11.8875C16.0125 11.6625 16.3875 11.3625 16.6875 11.1C17.25 10.575 18 9.9375 18 9C18 8.0625 17.25 7.425 16.6875 6.9ZM6 7.125C6 6.4875 6.4875 6 7.125 6C7.7625 6 8.25 6.4875 8.25 7.125C8.25 7.7625 7.7625 8.25 7.125 8.25C6.4875 8.25 6 7.7625 6 7.125ZM7.5 11.55L6.45 10.5L10.5 6.45L11.55 7.5L7.5 11.55ZM10.875 12C10.2375 12 9.75 11.5125 9.75 10.875C9.75 10.2375 10.2375 9.75 10.875 9.75C11.5125 9.75 12 10.2375 12 10.875C12 11.5125 11.5125 12 10.875 12Z" fill="#07A279"/>
</svg>
