<svg width="18" height="18" viewBox="0 0 18 18" fill="none" xmlns="http://www.w3.org/2000/svg">
<path d="M4.74609 0C4.45461 0 4.21875 0.235863 4.21875 0.527344V4.21875H3.16406V0.527344C3.16406 0.235863 2.9282 0 2.63672 0C2.34524 0 2.10938 0.235863 2.10938 0.527344V4.21875H1.05469V0.527344C1.05469 0.235863 0.818824 0 0.527344 0C0.235863 0 0 0.235863 0 0.527344C0 2.87167 0 3.45502 0 5.80078C0 6.67315 0.709664 7.41797 1.58203 7.41797H3.69141C4.56377 7.41797 5.27344 6.67315 5.27344 5.80078C5.27344 3.45421 5.27344 2.87297 5.27344 0.527344C5.27344 0.235863 5.03757 0 4.74609 0Z" fill="#07A279"/>
<path d="M12.7266 11.1094V6.02325C12.7266 6.02177 12.7268 6.02037 12.7268 6.01889C11.8564 4.93066 10.4987 4.21875 9 4.21875C8.04066 4.21875 7.09706 4.50271 6.32812 5.01986V5.80078C6.32812 6.87923 5.67563 7.84111 4.74609 8.24917V11.1287C5.52959 12.674 7.15198 13.7461 9 13.7461C10.582 13.7461 12.0114 12.9607 12.8743 11.7673C12.7817 11.5664 12.7266 11.3448 12.7266 11.1094Z" fill="#07A279"/>
<path d="M14.3086 12.6914C14.0636 12.6914 13.8343 12.6307 13.6271 12.5309C12.5655 13.9082 10.8694 14.8008 9 14.8008C7.33725 14.8008 5.80472 14.0937 4.74609 12.9691V15.7183C5.96802 16.4913 7.44711 16.9453 9 16.9453C11.2953 16.9453 13.3909 15.9266 14.8359 14.3651V12.6914H14.3086Z" fill="#07A279"/>
<path d="M9 1.05469C8.07398 1.05469 7.15398 1.222 6.32812 1.51439V3.79659C7.13074 3.386 8.06305 3.16406 9 3.16406C10.4696 3.16406 11.8445 3.71788 12.8677 4.62199C13.0045 3.87731 13.2347 3.15809 13.5692 2.48892C12.2846 1.5879 10.6882 1.05469 9 1.05469Z" fill="#07A279"/>
<path d="M17.7214 0.0623443C17.5509 -0.029308 17.3424 -0.0190072 17.1801 0.088606C14.775 1.69201 13.7812 3.7644 13.7812 6.02329V11.1094C13.7812 11.4009 14.0171 11.6368 14.3086 11.6368H15.8906V16.9453C15.8906 17.5278 16.3628 18 16.9453 18C17.5278 18 18 17.5278 18 16.9453C18 8.51242 18 8.80183 18 0.527391C18 0.332731 17.8929 0.154032 17.7214 0.0623443Z" fill="#07A279"/>
<path d="M1.58203 8.47266V16.9453C1.58203 17.5277 2.05421 18 2.63672 18C3.21922 18 3.69141 17.5277 3.69141 16.9453V8.47266H1.58203Z" fill="#07A279"/>
</svg>
