<svg width="14" height="14" viewBox="0 0 14 14" fill="none" xmlns="http://www.w3.org/2000/svg">
<g clip-path="url(#clip0_3968_39760)">
<path d="M3.63192 2.73191C3.51317 2.61347 3.34938 2.54556 3.18184 2.54556C3.01428 2.54556 2.85046 2.61347 2.73171 2.73191C2.61334 2.85076 2.54547 3.01462 2.54547 3.1823C2.54547 3.34999 2.61334 3.51382 2.73171 3.6327C2.85008 3.75114 3.01425 3.81905 3.18184 3.81905C3.34938 3.81905 3.51317 3.75114 3.63192 3.6327C3.75029 3.51385 3.81821 3.34999 3.81821 3.1823C3.81821 3.01462 3.75029 2.85076 3.63192 2.73191Z" fill="white"/>
<path d="M5.72728 0H0.636371C0.284922 0 0 0.284922 0 0.636371V5.72728C0 6.07873 0.284922 6.36366 0.636371 6.36366H5.72728C6.07873 6.36366 6.36366 6.07873 6.36366 5.72728V0.636371C6.36363 0.284922 6.07871 0 5.72728 0ZM5.09091 5.09091H1.27271V1.27271H5.09089V5.09091H5.09091Z" fill="white"/>
<path d="M11.2679 2.73191C11.1495 2.61347 10.9858 2.54556 10.8182 2.54556C10.6506 2.54556 10.4864 2.61347 10.3681 2.73191C10.2497 2.85076 10.1818 3.01462 10.1818 3.1823C10.1818 3.34999 10.2497 3.51382 10.3681 3.6327C10.4864 3.75114 10.6506 3.81905 10.8182 3.81905C10.9857 3.81905 11.1495 3.75114 11.2679 3.6327C11.3867 3.51385 11.4546 3.34999 11.4546 3.1823C11.4546 3.01462 11.3866 2.85076 11.2679 2.73191Z" fill="white"/>
<path d="M13.3636 0H8.27272C7.92127 0 7.63635 0.284922 7.63635 0.636371V5.72728C7.63635 6.07873 7.92127 6.36366 8.27272 6.36366H13.3636C13.7151 6.36366 14 6.07873 14 5.72728V0.636371C14 0.284922 13.7151 0 13.3636 0ZM12.7273 5.09091H8.90909V1.27271H12.7273V5.09091H12.7273Z" fill="white"/>
<path d="M3.63192 10.368C3.51314 10.2496 3.34938 10.1817 3.18184 10.1817C3.01428 10.1817 2.85046 10.2496 2.73171 10.368C2.61334 10.4869 2.54547 10.6507 2.54547 10.8184C2.54547 10.9861 2.61334 11.1499 2.73171 11.2688C2.85008 11.3873 3.01425 11.4552 3.18184 11.4552C3.34938 11.4552 3.51317 11.3873 3.63192 11.2688C3.75029 11.15 3.81821 10.9861 3.81821 10.8184C3.81821 10.6507 3.75029 10.4869 3.63192 10.368Z" fill="white"/>
<path d="M5.72728 7.63612H0.636371C0.284922 7.63612 0 7.92105 0 8.27247V13.3634C0 13.7148 0.284922 13.9998 0.636371 13.9998H5.72728C6.07873 13.9998 6.36366 13.7148 6.36366 13.3634V8.27247C6.36363 7.92105 6.07871 7.63612 5.72728 7.63612ZM5.09091 12.727H1.27271V8.90884H5.09089V12.727H5.09091Z" fill="white"/>
<path d="M11.2424 10.1817H10.8181C10.4667 10.1817 10.1818 10.4668 10.1818 10.8184C10.1818 11.1701 10.4667 11.4552 10.8181 11.4552H11.2424C11.5938 11.4552 11.8787 11.1701 11.8787 10.8184C11.8787 10.4668 11.5938 10.1817 11.2424 10.1817Z" fill="white"/>
<path d="M13.3637 11.4544C13.0122 11.4544 12.7273 11.7394 12.7273 12.0908V12.7272H11.2425C10.891 12.7272 10.6061 13.0121 10.6061 13.3635C10.6061 13.715 10.891 13.9999 11.2425 13.9999H13.3637C13.7151 13.9999 14 13.715 14 13.3635V12.0908C14 11.7394 13.7151 11.4544 13.3637 11.4544Z" fill="white"/>
<path d="M8.27272 10.1817C7.92127 10.1817 7.63635 10.4666 7.63635 10.8181V11.6665C7.63635 12.018 7.92127 12.3029 8.27272 12.3029C8.62417 12.3029 8.90909 12.018 8.90909 11.6665V10.8181C8.90909 10.4666 8.62417 10.1817 8.27272 10.1817Z" fill="white"/>
<path d="M11.2424 7.63612H9.96968C9.61823 7.63612 9.33331 7.92121 9.33331 8.27286C9.33331 8.62452 9.61823 8.90961 9.96968 8.90961H11.2424C11.5938 8.90961 11.8788 8.62452 11.8788 8.27286C11.8788 7.92121 11.5938 7.63612 11.2424 7.63612Z" fill="white"/>
</g>
<defs>
<clipPath id="clip0_3968_39760">
<rect width="14" height="14" fill="white"/>
</clipPath>
</defs>
</svg>
