<svg width="18" height="18" viewBox="0 0 18 18" fill="none" xmlns="http://www.w3.org/2000/svg">
<g clip-path="url(#clip0_954_16083)">
<path fill-rule="evenodd" clip-rule="evenodd" d="M9.00015 18C12.6119 18.0034 15.5426 15.0782 15.546 11.4664C15.5478 9.47736 14.6444 7.5956 13.0911 6.35322V4.09095C13.0911 1.83155 11.2595 0 9.00015 0C6.74078 0 4.90927 1.83155 4.90927 4.09091V6.35318C2.0887 8.60915 1.631 12.7245 3.88697 15.5451C5.12934 17.0984 7.01111 18.0018 9.00015 18ZM6.54562 4.09091C6.54562 2.73531 7.64454 1.63635 9.00018 1.63635C10.3558 1.63635 11.4547 2.73527 11.4547 4.09091V5.39102C9.88144 4.74851 8.11896 4.74851 6.54566 5.39102L6.54562 4.09091ZM8.18181 13.909V12.046C7.93306 11.9024 7.72649 11.6958 7.58285 11.4471C7.13097 10.6644 7.39914 9.66363 8.18181 9.21175C8.96447 8.75987 9.96523 9.02804 10.4171 9.8107C10.869 10.5934 10.6008 11.5941 9.81816 12.046V13.909C9.81816 14.3609 9.45187 14.7272 8.99998 14.7272C8.5481 14.7272 8.18181 14.3609 8.18181 13.909Z" fill="#EA4335"/>
</g>
<defs>
<clipPath id="clip0_954_16083">
<rect width="18" height="18" fill="white"/>
</clipPath>
</defs>
</svg>
