<svg width="18" height="18" viewBox="0 0 18 18" fill="none" xmlns="http://www.w3.org/2000/svg">
<path d="M9.04413 8.1C9.84518 8.1 10.6282 7.86245 11.2943 7.4174C11.9603 6.97235 12.4794 6.33979 12.7859 5.5997C13.0924 4.85962 13.1726 4.04527 13.0163 3.25962C12.8599 2.47398 12.4741 1.75234 11.9077 1.18597C11.3412 0.619594 10.6195 0.233925 9.83381 0.0777351C9.04814 -0.078455 8.2338 0.00184937 7.49378 0.308493C6.75375 0.615136 6.12128 1.13435 5.67634 1.80046C5.23141 2.46657 4.994 3.24967 4.99414 4.05071C4.99527 5.12443 5.42234 6.15383 6.18164 6.913C6.94094 7.67216 7.97042 8.09906 9.04413 8.1V8.1Z" fill="#FFA216"/>
<path d="M1.75293 16.1537C1.75293 12.6998 4.55287 9.8999 8.00678 9.8999H9.99382C13.4477 9.8999 16.2477 12.6998 16.2477 16.1537V16.1537C16.2477 17.1734 15.4211 17.9999 14.4015 17.9999H3.59908C2.57948 17.9999 1.75293 17.1734 1.75293 16.1537V16.1537Z" fill="#FFA216"/>
</svg>
