<svg width="36" height="36" viewBox="0 0 36 36" fill="none" xmlns="http://www.w3.org/2000/svg">
<path d="M18 36C27.9411 36 36 27.9411 36 18C36 8.05888 27.9411 0 18 0C8.05888 0 0 8.05888 0 18C0 27.9411 8.05888 36 18 36Z" fill="#E4E6E8"/>
<path d="M18.0001 22.8C15.3697 22.7989 12.8295 23.7591 10.8577 25.5C10.7351 25.6029 10.6344 25.7293 10.5614 25.8717C10.4884 26.014 10.4446 26.1696 10.4326 26.3292C10.4206 26.4887 10.4406 26.6491 10.4915 26.8008C10.5424 26.9525 10.6231 27.0925 10.7289 27.2125C10.8347 27.3326 10.9635 27.4303 11.1076 27.4998C11.2517 27.5694 11.4083 27.6094 11.5681 27.6176C11.7279 27.6257 11.8877 27.6018 12.0381 27.5473C12.1886 27.4927 12.3266 27.4087 12.4441 27.3C13.9785 25.9468 15.9541 25.2001 18.0001 25.2001C20.046 25.2001 22.0216 25.9468 23.5561 27.3C23.6735 27.4087 23.8115 27.4927 23.962 27.5473C24.1124 27.6018 24.2722 27.6257 24.432 27.6176C24.5919 27.6094 24.7484 27.5694 24.8925 27.4998C25.0366 27.4303 25.1654 27.3326 25.2712 27.2125C25.377 27.0925 25.4577 26.9525 25.5086 26.8008C25.5595 26.6491 25.5795 26.4887 25.5675 26.3292C25.5556 26.1696 25.5118 26.014 25.4388 25.8717C25.3658 25.7293 25.265 25.6029 25.1425 25.5C23.1706 23.7591 20.6305 22.7989 18.0001 22.8Z" fill="white"/>
<path d="M11.6484 15.2484L13.2 13.6968L14.7516 15.2484C14.9779 15.467 15.2811 15.5879 15.5957 15.5852C15.9103 15.5825 16.2113 15.4563 16.4338 15.2338C16.6563 15.0113 16.7825 14.7103 16.7852 14.3957C16.788 14.081 16.667 13.7779 16.4484 13.5516L14.0484 11.1516C13.8234 10.9266 13.5182 10.8003 13.2 10.8003C12.8818 10.8003 12.5766 10.9266 12.3516 11.1516L9.9516 13.5516C9.73301 13.7779 9.61206 14.081 9.61479 14.3957C9.61753 14.7103 9.74373 15.0113 9.96622 15.2338C10.1887 15.4563 10.4897 15.5825 10.8043 15.5852C11.119 15.5879 11.4221 15.467 11.6484 15.2484Z" fill="white"/>
<path d="M26.0485 13.5516L23.6485 11.1516C23.4235 10.9266 23.1183 10.8003 22.8001 10.8003C22.4819 10.8003 22.1767 10.9266 21.9517 11.1516L19.5517 13.5516C19.3331 13.7779 19.2122 14.081 19.2149 14.3957C19.2176 14.7103 19.3438 15.0113 19.5663 15.2338C19.7888 15.4563 20.0898 15.5825 20.4044 15.5852C20.7191 15.5879 21.0222 15.467 21.2485 15.2484L22.8001 13.6968L24.3517 15.2484C24.578 15.467 24.8811 15.5879 25.1958 15.5852C25.5104 15.5825 25.8114 15.4563 26.0339 15.2338C26.2564 15.0113 26.3826 14.7103 26.3853 14.3957C26.388 14.081 26.2671 13.7779 26.0485 13.5516Z" fill="white"/>
</svg>
