<svg width="37" height="36" viewBox="0 0 37 36" fill="none" xmlns="http://www.w3.org/2000/svg">
<g clip-path="url(#clip0_3733_107291)">
<path d="M18.75 36C28.6911 36 36.75 27.9411 36.75 18C36.75 8.05888 28.6911 0 18.75 0C8.80888 0 0.75 8.05888 0.75 18C0.75 27.9411 8.80888 36 18.75 36Z" fill="#E4E6E8"/>
<path d="M23.5501 15.6C24.8756 15.6 25.9501 14.5255 25.9501 13.2C25.9501 11.8745 24.8756 10.8 23.5501 10.8C22.2247 10.8 21.1501 11.8745 21.1501 13.2C21.1501 14.5255 22.2247 15.6 23.5501 15.6Z" fill="white"/>
<path d="M13.95 15.6C15.2755 15.6 16.35 14.5255 16.35 13.2C16.35 11.8745 15.2755 10.8 13.95 10.8C12.6246 10.8 11.55 11.8745 11.55 13.2C11.55 14.5255 12.6246 15.6 13.95 15.6Z" fill="white"/>
<path d="M25.8937 25.5C23.9208 23.76 21.3806 22.7999 18.7501 22.7999C16.1195 22.7999 13.5794 23.76 11.6065 25.5C11.3678 25.7107 11.2226 26.0076 11.2028 26.3253C11.183 26.6431 11.2902 26.9557 11.5009 27.1944C11.7116 27.4331 12.0085 27.5783 12.3262 27.5981C12.644 27.6179 12.9566 27.5107 13.1953 27.3C14.7296 25.9474 16.7047 25.2011 18.7501 25.2011C20.7955 25.2011 22.7706 25.9474 24.3049 27.3C24.5436 27.5107 24.8562 27.6179 25.1739 27.5981C25.4917 27.5783 25.7886 27.4331 25.9993 27.1944C26.21 26.9557 26.3172 26.6431 26.2974 26.3253C26.2776 26.0076 26.1324 25.7107 25.8937 25.5Z" fill="white"/>
</g>
<defs>
<clipPath id="clip0_3733_107291">
<rect width="36" height="36" fill="white" transform="translate(0.75)"/>
</clipPath>
</defs>
</svg>
