<svg width="37" height="36" viewBox="0 0 37 36" fill="none" xmlns="http://www.w3.org/2000/svg">
<g clip-path="url(#clip0_3733_107298)">
<path d="M18.5 36C28.4411 36 36.5 27.9411 36.5 18C36.5 8.05888 28.4411 0 18.5 0C8.55888 0 0.5 8.05888 0.5 18C0.5 27.9411 8.55888 36 18.5 36Z" fill="#E4E6E8"/>
<path d="M23.3001 15.6C24.6256 15.6 25.7001 14.5255 25.7001 13.2C25.7001 11.8745 24.6256 10.8 23.3001 10.8C21.9747 10.8 20.9001 11.8745 20.9001 13.2C20.9001 14.5255 21.9747 15.6 23.3001 15.6Z" fill="white"/>
<path d="M13.7 15.6C15.0255 15.6 16.1 14.5255 16.1 13.2C16.1 11.8745 15.0255 10.8 13.7 10.8C12.3746 10.8 11.3 11.8745 11.3 13.2C11.3 14.5255 12.3746 15.6 13.7 15.6Z" fill="white"/>
<path d="M24.5 24H12.5C12.1818 24 11.8766 24.1264 11.6515 24.3515C11.4265 24.5765 11.3 24.8817 11.3 25.2C11.3 25.5183 11.4265 25.8235 11.6515 26.0485C11.8766 26.2736 12.1818 26.4 12.5 26.4H24.5C24.8183 26.4 25.1235 26.2736 25.3486 26.0485C25.5736 25.8235 25.7 25.5183 25.7 25.2C25.7 24.8817 25.5736 24.5765 25.3486 24.3515C25.1235 24.1264 24.8183 24 24.5 24Z" fill="white"/>
</g>
<defs>
<clipPath id="clip0_3733_107298">
<rect width="36" height="36" fill="white" transform="translate(0.5)"/>
</clipPath>
</defs>
</svg>
