<svg width="37" height="36" viewBox="0 0 37 36" fill="none" xmlns="http://www.w3.org/2000/svg">
<g clip-path="url(#clip0_3733_107341)">
<path d="M18.25 36C28.1911 36 36.25 27.9411 36.25 18C36.25 8.05888 28.1911 0 18.25 0C8.30888 0 0.25 8.05888 0.25 18C0.25 27.9411 8.30888 36 18.25 36Z" fill="#E4E6E8"/>
<path d="M23.0501 15.6C24.3756 15.6 25.4501 14.5255 25.4501 13.2C25.4501 11.8745 24.3756 10.8 23.0501 10.8C21.7247 10.8 20.6501 11.8745 20.6501 13.2C20.6501 14.5255 21.7247 15.6 23.0501 15.6Z" fill="white"/>
<path d="M13.45 15.6C14.7755 15.6 15.85 14.5255 15.85 13.2C15.85 11.8745 14.7755 10.8 13.45 10.8C12.1246 10.8 11.05 11.8745 11.05 13.2C11.05 14.5255 12.1246 15.6 13.45 15.6Z" fill="white"/>
<path d="M27.1673 21.7608C27.0308 21.6818 26.8801 21.6304 26.7238 21.6097C26.5675 21.5889 26.4086 21.5992 26.2563 21.6398C26.1039 21.6805 25.9611 21.7508 25.8359 21.8467C25.7108 21.9426 25.6058 22.0623 25.5269 22.1988C24.7899 23.4768 23.7294 24.5382 22.452 25.2761C21.1745 26.0141 19.7253 26.4026 18.2501 26.4026C16.7748 26.4026 15.3256 26.0141 14.0482 25.2761C12.7708 24.5382 11.7102 23.4768 10.9733 22.1988C10.8971 22.0574 10.7934 21.9326 10.6682 21.832C10.543 21.7314 10.3988 21.657 10.2443 21.6131C10.0898 21.5692 9.92799 21.5568 9.76859 21.5766C9.60918 21.5964 9.45537 21.648 9.31628 21.7284C9.17719 21.8087 9.05565 21.9162 8.95886 22.0444C8.86207 22.1726 8.792 22.3189 8.75281 22.4747C8.71362 22.6305 8.70611 22.7925 8.73072 22.9513C8.75532 23.11 8.81155 23.2622 8.89606 23.3988C9.84383 25.041 11.2073 26.4048 12.8493 27.353C14.4913 28.3012 16.3539 28.8004 18.2501 28.8004C20.1462 28.8004 22.0089 28.3012 23.6509 27.353C25.2929 26.4048 26.6563 25.041 27.6041 23.3988C27.763 23.1236 27.8063 22.7966 27.7244 22.4895C27.6425 22.1824 27.4421 21.9203 27.1673 21.7608Z" fill="white"/>
</g>
<defs>
<clipPath id="clip0_3733_107341">
<rect width="36" height="36" fill="white" transform="translate(0.25)"/>
</clipPath>
</defs>
</svg>
