<svg width="37" height="36" viewBox="0 0 37 36" fill="none" xmlns="http://www.w3.org/2000/svg">
<g clip-path="url(#clip0_3758_120744)">
<path d="M18.5 36C28.4411 36 36.5 27.9411 36.5 18C36.5 8.05888 28.4411 0 18.5 0C8.55888 0 0.5 8.05888 0.5 18C0.5 27.9411 8.55888 36 18.5 36Z" fill="#E4E6E8"/>
<path d="M27.4172 21.7608C27.2807 21.6818 27.13 21.6305 26.9736 21.6099C26.8173 21.5892 26.6584 21.5996 26.506 21.6403C26.3536 21.6811 26.2108 21.7516 26.0857 21.8476C25.9606 21.9436 25.8556 22.0634 25.7768 22.2C25.0399 23.478 23.9794 24.5393 22.7019 25.2773C21.4245 26.0153 19.9753 26.4038 18.5 26.4038C17.0248 26.4038 15.5756 26.0153 14.2982 25.2773C13.0207 24.5393 11.9602 23.478 11.2233 22.2C11.1471 22.0585 11.0434 21.9338 10.9182 21.8332C10.7929 21.7326 10.6488 21.6581 10.4943 21.6143C10.3398 21.5704 10.178 21.558 10.0186 21.5778C9.85918 21.5976 9.70537 21.6492 9.56628 21.7296C9.42719 21.8099 9.30565 21.9174 9.20886 22.0456C9.11207 22.1738 9.042 22.3201 9.00281 22.4759C8.96362 22.6317 8.95611 22.7937 8.98072 22.9525C9.00532 23.1112 9.06155 23.2634 9.14606 23.4C10.0938 25.0422 11.4573 26.406 13.0993 27.3542C14.7412 28.3024 16.6039 28.8016 18.5 28.8016C20.3962 28.8016 22.2589 28.3024 23.9008 27.3542C25.5428 26.406 26.9063 25.0422 27.854 23.4C28.0134 23.1247 28.0569 22.7974 27.9749 22.49C27.893 22.1826 27.6924 21.9203 27.4172 21.7608Z" fill="white"/>
<path d="M12.1484 15.2484L13.7 13.6968L15.2516 15.2484C15.4779 15.467 15.7811 15.5879 16.0957 15.5852C16.4103 15.5825 16.7113 15.4563 16.9338 15.2338C17.1563 15.0113 17.2825 14.7103 17.2852 14.3957C17.288 14.081 17.167 13.7779 16.9484 13.5516L14.5484 11.1516C14.3234 10.9266 14.0182 10.8003 13.7 10.8003C13.3818 10.8003 13.0766 10.9266 12.8516 11.1516L10.4516 13.5516C10.233 13.7779 10.1121 14.081 10.1148 14.3957C10.1175 14.7103 10.2437 15.0113 10.4662 15.2338C10.6887 15.4563 10.9897 15.5825 11.3043 15.5852C11.619 15.5879 11.9221 15.467 12.1484 15.2484Z" fill="white"/>
<path d="M21.7485 15.2484L23.3001 13.6968L24.8517 15.2484C25.078 15.467 25.3811 15.5879 25.6958 15.5852C26.0104 15.5825 26.3114 15.4563 26.5339 15.2338C26.7564 15.0113 26.8826 14.7103 26.8853 14.3957C26.888 14.081 26.7671 13.7779 26.5485 13.5516L24.1485 11.1516C23.9235 10.9266 23.6183 10.8003 23.3001 10.8003C22.9819 10.8003 22.6767 10.9266 22.4517 11.1516L20.0517 13.5516C19.8331 13.7779 19.7122 14.081 19.7149 14.3957C19.7176 14.7103 19.8438 15.0113 20.0663 15.2338C20.2888 15.4563 20.5898 15.5825 20.9044 15.5852C21.2191 15.5879 21.5222 15.467 21.7485 15.2484Z" fill="white"/>
</g>
<defs>
<clipPath id="clip0_3758_120744">
<rect width="36" height="36" fill="white" transform="translate(0.5)"/>
</clipPath>
</defs>
</svg>
