<svg width="26" height="24" viewBox="0 0 26 24" fill="none" xmlns="http://www.w3.org/2000/svg">
<path d="M11.9838 0.831145C12.5018 -0.21821 13.9982 -0.218211 14.5162 0.831145L17.2849 6.44027C17.4904 6.85659 17.8874 7.14529 18.3468 7.21244L24.5407 8.11776C25.6984 8.28698 26.1598 9.71006 25.3217 10.5264L20.842 14.8896C20.509 15.214 20.357 15.6815 20.4356 16.1398L21.4925 22.302C21.6903 23.4556 20.4794 24.3352 19.4436 23.7905L13.9072 20.879C13.4958 20.6626 13.0042 20.6626 12.5928 20.879L7.05644 23.7905C6.02055 24.3352 4.80969 23.4556 5.00754 22.302L6.06444 16.1398C6.14304 15.6815 5.99102 15.214 5.65796 14.8896L1.17834 10.5264C0.340183 9.71006 0.801603 8.28698 1.95932 8.11776L8.15319 7.21244C8.61259 7.14529 9.00962 6.85659 9.21513 6.44027L11.9838 0.831145Z" fill="#07A279"/>
</svg>
