<svg width="26" height="24" viewBox="0 0 26 24" fill="none" xmlns="http://www.w3.org/2000/svg">
<path d="M11.7338 0.831145C12.2518 -0.21821 13.7482 -0.218211 14.2662 0.831145L17.0349 6.44027C17.2404 6.85659 17.6374 7.14529 18.0968 7.21244L24.2907 8.11776C25.4484 8.28698 25.9098 9.71006 25.0717 10.5264L20.592 14.8896C20.259 15.214 20.107 15.6815 20.1856 16.1398L21.2425 22.302C21.4403 23.4556 20.2294 24.3352 19.1936 23.7905L13.6572 20.879C13.2458 20.6626 12.7542 20.6626 12.3428 20.879L6.80644 23.7905C5.77055 24.3352 4.55969 23.4556 4.75754 22.302L5.81444 16.1398C5.89304 15.6815 5.74102 15.214 5.40796 14.8896L0.928338 10.5264C0.090183 9.71006 0.551603 8.28698 1.70932 8.11776L7.90319 7.21244C8.36259 7.14529 8.75962 6.85659 8.96513 6.44027L11.7338 0.831145Z" fill="#E4E6E8"/>
</svg>
