<svg width="19" height="20" viewBox="0 0 19 20" fill="none" xmlns="http://www.w3.org/2000/svg">
<g clip-path="url(#clip0_4482_48188)">
<path d="M9.49899 19.5C5.38801 19.5 2.04346 16.1473 2.04346 12.0263C2.04346 8.82133 3.5 5.96354 5.63854 3.61652C7.39741 1.68616 9.13818 0.623203 9.21139 0.578932C9.59726 0.345514 10.1151 0.663541 10.1151 1.09364V6.21343L12.7345 3.7687C12.9619 3.55648 13.3218 3.57117 13.5303 3.80685C14.5258 4.9322 15.3183 6.12055 15.8856 7.33896C19.0501 14.1346 14.6878 19.5 9.49899 19.5Z" fill="#FE4E33"/>
<path d="M15.8857 7.33896C15.3183 6.12055 14.5258 4.93219 13.5303 3.80685C13.3219 3.57113 12.9619 3.55648 12.7345 3.7687L10.1152 6.21343V1.09364C10.1152 0.769821 9.82168 0.509647 9.51196 0.50037V19.4999C14.6951 19.491 19.0475 14.1289 15.8857 7.33896Z" fill="#FE1600"/>
<path d="M9.49907 19.5C7.93677 19.5 6.66577 18.2259 6.66577 16.6598C6.66577 14.1292 9.12271 12.6308 9.22728 12.5683C9.4106 12.4587 9.64013 12.4638 9.8184 12.5813C9.92104 12.6489 12.3323 14.2663 12.3323 16.6598C12.3324 18.2259 11.0614 19.5 9.49907 19.5Z" fill="#FEC356"/>
<path d="M12.3323 16.6598C12.3323 14.2663 9.92102 12.6489 9.81841 12.5813C9.72556 12.5201 9.61884 12.4897 9.51196 12.4897V19.4997C11.0683 19.4927 12.3323 18.2215 12.3323 16.6598Z" fill="#FEB020"/>
</g>
<defs>
<clipPath id="clip0_4482_48188">
<rect width="19" height="19" fill="white" transform="translate(0 0.5)"/>
</clipPath>
</defs>
</svg>
