<svg width="15" height="16" viewBox="0 0 15 16" fill="none" xmlns="http://www.w3.org/2000/svg">
<g clip-path="url(#clip0_4767_3599)">
<path fill-rule="evenodd" clip-rule="evenodd" d="M9.875 1.54102V0.791016C9.875 0.377016 10.211 0.0410156 10.625 0.0410156C11.039 0.0410156 11.375 0.377016 11.375 0.791016V1.54102C13.0317 1.54102 14.375 2.88427 14.375 4.54102V12.041C14.375 13.6978 13.0317 15.041 11.375 15.041C9.23 15.041 6.01925 15.041 3.875 15.041C2.21825 15.041 0.875 13.6978 0.875 12.041V4.54102C0.875 2.88427 2.21825 1.54102 3.875 1.54102V0.791016C3.875 0.377016 4.211 0.0410156 4.625 0.0410156C5.039 0.0410156 5.375 0.377016 5.375 0.791016V1.54102H9.875ZM12.875 7.54102H2.375V12.041C2.375 12.869 3.04625 13.541 3.875 13.541H11.375C12.203 13.541 12.875 12.869 12.875 12.041V7.54102ZM11.375 3.04102V3.79102C11.375 4.20502 11.039 4.54102 10.625 4.54102C10.211 4.54102 9.875 4.20502 9.875 3.79102V3.04102H5.375V3.79102C5.375 4.20502 5.039 4.54102 4.625 4.54102C4.211 4.54102 3.875 4.20502 3.875 3.79102V3.04102C3.04625 3.04102 2.375 3.71227 2.375 4.54102V6.04102H12.875V4.54102C12.875 3.71227 12.203 3.04102 11.375 3.04102Z" fill="black"/>
</g>
<defs>
<clipPath id="clip0_4767_3599">
<rect width="14" height="16" fill="white" transform="translate(0.625)"/>
</clipPath>
</defs>
</svg>
