<svg width="20" height="20" viewBox="0 0 20 20" fill="none" xmlns="http://www.w3.org/2000/svg">
<g clip-path="url(#clip0_4767_3868)">
<path d="M17.2414 6.89655C14.4828 5.86207 14.1379 3.44828 11.3793 3.44828C10.0945 3.43094 8.8111 3.54183 7.54828 3.77931C5.65095 4.11625 3.87823 4.95439 2.41379 6.2069C0.182759 8.15862 0 10.6897 0 12.7586C0 14.8276 1.03448 16.5517 4.13793 16.5517H14.8276C18.6207 16.5517 20 14.4828 20 12.069C20 9.65517 19.9724 7.92069 17.2414 6.89655Z" fill="#DF4D60"/>
<path d="M19.9999 12.069C19.9999 14.4828 18.6206 16.5517 14.8275 16.5517C11.0344 16.5517 6.20679 16.2069 6.20679 11.0345C6.20679 5.86207 8.62058 3.44828 11.3792 3.44828C14.1378 3.44828 14.4826 5.86207 17.2413 6.89656C19.9723 7.92069 19.9999 9.65518 19.9999 12.069Z" fill="#FB7B76"/>
<path d="M18.6207 12.069C18.6218 12.3326 18.5987 12.5958 18.5517 12.8552C18.4915 13.203 18.3663 13.5364 18.1827 13.8379C17.6172 14.7345 16.5069 15.1724 14.8276 15.1724C11.1827 15.1724 9.14136 14.669 8.21378 13.3793C8.07025 13.1816 7.95317 12.966 7.8655 12.7379C7.66506 12.193 7.57027 11.6149 7.58619 11.0345C7.58619 7.2069 9.03792 4.82759 11.3793 4.82759C11.7336 4.8165 12.0852 4.89227 12.4034 5.04828C12.6091 5.15617 12.8013 5.28813 12.9758 5.44138C13.1758 5.6069 13.3896 5.81034 13.6379 6.05172C14.5099 6.98327 15.575 7.71294 16.7586 8.18965C18.5414 8.85862 18.6207 9.6 18.6207 12.069Z" fill="#FF5364"/>
<path d="M14.8277 16.5517H6.89667C3.44839 16.5517 2.06908 13.1034 3.10356 9.31035C3.81391 6.70345 6.15529 4.74828 7.54839 3.77931C8.81122 3.54183 10.0946 3.43094 11.3794 3.44828C8.6208 3.44828 6.20701 5.86207 6.20701 11.0345C6.20701 16.2069 11.0346 16.5517 14.8277 16.5517Z" fill="#FF5364"/>
<path d="M18.5517 12.8552C18.4914 13.203 18.3663 13.5364 18.1827 13.8379C18.1007 13.3971 17.8824 12.993 17.5586 12.6828C17.1926 12.3975 16.7155 12.297 16.2655 12.4103C14.9586 12.6276 13.9448 12.469 13.3344 11.9483C13.027 11.6909 12.8296 11.3258 12.7827 10.9276C12.3207 10.7448 11.0069 10.369 10.2965 11.5552C9.53789 12.8207 8.9241 13.2414 8.21375 13.3793C8.07023 13.1816 7.95315 12.966 7.86548 12.7379C8.50341 12.6724 8.98962 12.3931 9.70341 11.2035C10.4793 9.9138 11.8103 9.91035 12.7207 10.1724C12.6476 9.80329 12.501 9.45264 12.2896 9.14138C11.9082 8.58225 11.7105 7.91811 11.7241 7.24138C11.7003 6.45513 11.9393 5.68339 12.4034 5.04828C12.6091 5.15617 12.8013 5.28813 12.9758 5.44138C12.59 5.96042 12.3919 6.59505 12.4138 7.24138C12.4007 7.79432 12.565 8.33692 12.8827 8.78966C13.2642 9.34879 13.4619 10.0129 13.4482 10.6897C13.4397 10.9724 13.5618 11.2433 13.7793 11.4241C14.2241 11.8 15.0689 11.9103 16.1517 11.7276C17.0935 11.4938 18.0728 11.9357 18.5207 12.7966C18.531 12.8172 18.5413 12.8345 18.5517 12.8552Z" fill="white"/>
</g>
<defs>
<clipPath id="clip0_4767_3868">
<rect width="20" height="20" fill="white"/>
</clipPath>
</defs>
</svg>
