<svg width="13" height="12" viewBox="0 0 13 12" fill="none" xmlns="http://www.w3.org/2000/svg">
<path d="M6.50001 0.224976C5.95811 0.224976 5.51881 0.664271 5.51881 1.20617L5.51881 5.01878H1.7062C1.1643 5.01878 0.725006 5.45808 0.725006 5.99998C0.725006 6.54187 1.1643 6.98117 1.7062 6.98117H5.51881V10.7938C5.51881 11.3357 5.95811 11.775 6.50001 11.775C7.0419 11.775 7.4812 11.3357 7.4812 10.7938V6.98117H11.2938C11.8357 6.98117 12.275 6.54187 12.275 5.99998C12.275 5.45808 11.8357 5.01878 11.2938 5.01878H7.4812V1.20617C7.4812 0.664271 7.0419 0.224976 6.50001 0.224976Z" fill="white"/>
</svg>
