<svg width="16" height="17" viewBox="0 0 16 17" fill="none" xmlns="http://www.w3.org/2000/svg">
<path d="M15.5312 7.09375H14.125V6.15625H1.875V7.09375H0.46875C0.209839 7.09375 0 7.30359 0 7.5625V8.5C0 9.63171 0.806519 10.5785 1.875 10.7963V14.125C1.875 14.9016 2.50464 15.5312 3.28125 15.5312H12.7188C13.4954 15.5312 14.125 14.9016 14.125 14.125V10.7963C15.1935 10.5785 16 9.63171 16 8.5V7.5625C16 7.30359 15.7902 7.09375 15.5312 7.09375ZM1.875 9.81995C1.33057 9.62573 0.9375 9.11035 0.9375 8.5V8.03125H1.875V9.81995ZM11.2197 11.0179C10.9747 12.3004 9.92542 13.3496 8.64307 13.5947C6.33557 14.0356 4.33936 12.0396 4.78027 9.73193C5.02539 8.44946 6.07458 7.40039 7.35693 7.15527C9.66455 6.71436 11.6606 8.71045 11.2197 11.0179ZM15.0625 8.5C15.0625 9.11035 14.6694 9.62573 14.125 9.81995V8.03125H15.0625V8.5Z" fill="#07A279"/>
<path d="M1.40625 5.21875H14.5938C14.8527 5.21875 15.0625 5.00891 15.0625 4.75C15.0625 3.97339 14.4329 3.34375 13.6563 3.34375H11.2813V2.875C11.2813 2.09839 10.6516 1.46875 9.875 1.46875H6.125C5.34839 1.46875 4.71875 2.09839 4.71875 2.875V3.34375H2.34375C1.56714 3.34375 0.9375 3.97339 0.9375 4.75C0.9375 5.00891 1.14734 5.21875 1.40625 5.21875ZM5.65625 2.875C5.65625 2.61633 5.86633 2.40625 6.125 2.40625H9.875C10.1337 2.40625 10.3438 2.61633 10.3438 2.875V3.34375H5.65625V2.875Z" fill="#07A279"/>
<path d="M8.00012 8.03125C8.25916 8.03125 8.46887 8.24097 8.46887 8.5V9.90625H9.87512C10.1342 9.90625 10.3439 10.116 10.3439 10.375C10.3439 9.08276 9.29236 8.03125 8.00012 8.03125Z" fill="#07A279"/>
<path d="M9.8751 10.8438H8.0001C7.74119 10.8438 7.53135 10.6339 7.53135 10.375V8.5C7.53135 8.24097 7.74107 8.03125 8.0001 8.03125C6.50449 8.03125 5.3314 9.43958 5.73765 10.9996C5.94273 11.7877 6.58738 12.4324 7.37547 12.6375C8.93552 13.0437 10.3438 11.8706 10.3438 10.375C10.3438 10.634 10.1341 10.8438 9.8751 10.8438Z" fill="#07A279"/>
</svg>
