<svg width="17" height="16" viewBox="0 0 17 16" fill="none" xmlns="http://www.w3.org/2000/svg">
<g clip-path="url(#clip0_1827_620)">
<path d="M5.82803 3H11.172L12.3254 2.07733C12.7181 1.764 12.8647 1.25533 12.6987 0.780667C12.5327 0.306 12.1014 0 11.6001 0H5.40003C4.8987 0 4.46736 0.306667 4.30136 0.780667C4.13536 1.25467 4.28203 1.764 4.67403 2.07667L5.82803 3Z" fill="#07A279"/>
<path d="M11.2633 4H5.73667C3.916 5.78733 2.5 8.92333 2.5 11.5C2.5 13.7393 3.68533 16 6.33333 16H10.8333C13.0953 16 14.5 14.2753 14.5 11.5C14.5 8.92333 13.084 5.78733 11.2633 4ZM8.24667 9.5H8.75333C9.53267 9.5 10.1667 10.134 10.1667 10.9133C10.1667 11.614 9.66133 12.1907 9 12.308V12.8327C9 13.1087 8.776 13.3327 8.5 13.3327C8.224 13.3327 8 13.1087 8 12.8327V12.3333H7.33333C7.05733 12.3333 6.83333 12.1093 6.83333 11.8333C6.83333 11.5573 7.05733 11.3333 7.33333 11.3333H8.75333C8.98133 11.3333 9.16667 11.148 9.16667 10.92C9.16667 10.6853 8.98133 10.5 8.75333 10.5H8.24667C7.46733 10.5 6.83333 9.866 6.83333 9.08667C6.83333 8.386 7.33867 7.80933 8 7.692V7.16667C8 6.89067 8.224 6.66667 8.5 6.66667C8.776 6.66667 9 6.89067 9 7.16667V7.66667H9.66667C9.94267 7.66667 10.1667 7.89067 10.1667 8.16667C10.1667 8.44267 9.94267 8.66667 9.66667 8.66667H8.24667C8.01867 8.66667 7.83333 8.852 7.83333 9.08C7.83333 9.31467 8.01867 9.5 8.24667 9.5Z" fill="#07A279"/>
</g>
<defs>
<clipPath id="clip0_1827_620">
<rect width="12" height="16" fill="white" transform="translate(2.5)"/>
</clipPath>
</defs>
</svg>
