<svg width="16" height="16" viewBox="0 0 16 16" fill="none" xmlns="http://www.w3.org/2000/svg">
<g clip-path="url(#clip0_814_11768)">
<path d="M0 1.42223C0 0.636751 0.636751 0 1.42223 0H4.97777C5.76325 0 6.4 0.636751 6.4 1.42223V4.97777C6.4 5.76325 5.76325 6.4 4.97777 6.4H1.42223C0.636751 6.4 0 5.76325 0 4.97777V1.42223Z" fill="#57616A"/>
<path d="M0 11.0221C0 10.2366 0.636751 9.59985 1.42223 9.59985H4.97777C5.76325 9.59985 6.4 10.2366 6.4 11.0221V14.5776C6.4 15.3631 5.76325 15.9999 4.97777 15.9999H1.42223C0.636751 15.9999 0 15.3631 0 14.5776V11.0221Z" fill="#57616A"/>
<path d="M9.6001 1.42223C9.6001 0.636751 10.2369 0 11.0223 0H14.5779C15.3633 0 16.0001 0.636751 16.0001 1.42223V4.97777C16.0001 5.76325 15.3633 6.4 14.5779 6.4H11.0223C10.2369 6.4 9.6001 5.76325 9.6001 4.97777V1.42223Z" fill="#99A2AB"/>
<path d="M9.6001 11.0221C9.6001 10.2366 10.2369 9.59985 11.0223 9.59985H14.5779C15.3633 9.59985 16.0001 10.2366 16.0001 11.0221V14.5776C16.0001 15.3631 15.3633 15.9999 14.5779 15.9999H11.0223C10.2369 15.9999 9.6001 15.3631 9.6001 14.5776V11.0221Z" fill="#57616A"/>
</g>
<defs>
<clipPath id="clip0_814_11768">
<rect width="16" height="16" fill="white"/>
</clipPath>
</defs>
</svg>
