<svg width="17" height="16" viewBox="0 0 17 16" fill="none" xmlns="http://www.w3.org/2000/svg">
<g clip-path="url(#clip0_1827_1110)">
<path d="M16.5 7.99992C16.5 7.59827 16.1744 7.27264 15.7727 7.27264H1.22727C0.825624 7.27264 0.5 7.59827 0.5 7.99992C0.5 10.8734 2.02305 13.3974 4.30398 14.8083C4.19935 14.9343 4.13636 15.0961 4.13636 15.2726C4.13636 15.6743 4.46199 15.9999 4.86364 15.9999H12.1364C12.538 15.9999 12.8636 15.6743 12.8636 15.2726C12.8636 15.0961 12.8007 14.9343 12.696 14.8083C14.9769 13.3974 16.5 10.8734 16.5 7.99992Z" fill="#1BB1C6"/>
<path d="M5.10604 5.09083C5.10604 5.49248 5.43166 5.8181 5.83331 5.8181C6.23496 5.8181 6.56058 5.49248 6.56058 5.09083C6.56058 4.06222 6.01707 3.51876 5.62017 3.12196C5.26361 2.7654 5.10599 2.59056 5.10604 2.18169C5.10599 1.77296 5.26366 1.59808 5.62031 1.24142C5.90434 0.957448 5.90434 0.496939 5.62036 0.212963C5.33639 -0.0711095 4.87583 -0.0710125 4.5918 0.212915C4.19496 0.609812 3.65134 1.15333 3.65149 2.18169C3.65134 3.2102 4.19486 3.75367 4.59176 4.15047C4.94836 4.50712 5.10604 4.682 5.10604 5.09083Z" fill="#1BB1C6"/>
<path d="M8.50004 5.09083C8.50004 5.49248 8.82566 5.8181 9.22731 5.8181C9.62896 5.8181 9.95458 5.49248 9.95458 5.09083C9.95458 4.06222 9.41107 3.51876 9.01422 3.12196C8.65761 2.7654 8.49999 2.59056 8.50004 2.18169C8.49999 1.77296 8.65766 1.59808 9.01431 1.24142C9.29834 0.957448 9.29834 0.496939 9.01436 0.212963C8.73039 -0.0711095 8.26983 -0.0710125 7.98581 0.212915C7.58891 0.609763 7.04534 1.15328 7.04544 2.18169C7.0453 3.2102 7.58881 3.75367 7.98571 4.15047C8.34236 4.50712 8.50004 4.682 8.50004 5.09083Z" fill="#1BB1C6"/>
<path d="M11.894 5.09083C11.894 5.49248 12.2196 5.8181 12.6212 5.8181C13.0229 5.8181 13.3485 5.49248 13.3485 5.09083C13.3485 4.06222 12.805 3.51876 12.4081 3.12196C12.0515 2.7654 11.8939 2.59056 11.894 2.18169C11.8939 1.77296 12.0516 1.59808 12.4082 1.24142C12.6923 0.957448 12.6923 0.496939 12.4083 0.212963C12.1243 -0.0711095 11.6638 -0.0710125 11.3797 0.212915C10.9828 0.609763 10.4393 1.15328 10.4394 2.18169C10.4392 3.2102 10.9827 3.75367 11.3796 4.15047C11.7363 4.50712 11.894 4.682 11.894 5.09083Z" fill="#1BB1C6"/>
</g>
<defs>
<clipPath id="clip0_1827_1110">
<rect width="16" height="16" fill="white" transform="translate(0.5)"/>
</clipPath>
</defs>
</svg>
