<svg width="16" height="16" viewBox="0 0 16 16" fill="none" xmlns="http://www.w3.org/2000/svg">
<path d="M6.99526 9.50987C6.99526 9.24987 6.78245 9.03769 6.52304 9.03769H4.16193V10.9266C4.16193 11.2741 3.87986 11.5562 3.5323 11.5562C3.18475 11.5562 2.90267 11.2741 2.90267 10.9266V9.03769H0.541558C0.281521 9.03769 0.0693359 9.24987 0.0693359 9.50987V15.4914C0.0693359 15.7515 0.281521 15.9636 0.541558 15.9636H6.52304C6.78245 15.9636 6.99526 15.7515 6.99526 15.4914V9.50987Z" fill="#FFA216"/>
<path d="M15.1805 9.50987C15.1805 9.24987 14.9677 9.03769 14.7082 9.03769H12.3471V10.9266C12.3471 11.2741 12.0651 11.5562 11.7175 11.5562C11.37 11.5562 11.0878 11.2741 11.0878 10.9266V9.03769H8.72674C8.46669 9.03769 8.25452 9.24987 8.25452 9.50987V15.4914C8.25452 15.7515 8.46669 15.9636 8.72674 15.9636H14.7082C14.9677 15.9636 15.1805 15.7515 15.1805 15.4914V9.50987Z" fill="#FFA216"/>
<path d="M11.0879 1.3247C11.0879 1.06529 10.875 0.852478 10.6156 0.852478H8.25452V2.74137C8.25452 3.08893 7.97245 3.371 7.62489 3.371C7.27734 3.371 6.99526 3.08893 6.99526 2.74137V0.852478H4.63415C4.37411 0.852478 4.16193 1.06529 4.16193 1.3247V7.30618C4.16193 7.56623 4.37411 7.7784 4.63415 7.7784H10.6156C10.875 7.7784 11.0879 7.56623 11.0879 7.30618V1.3247Z" fill="#FFA216"/>
</svg>
