<svg width="18" height="18" viewBox="0 0 18 18" fill="none" xmlns="http://www.w3.org/2000/svg">
<path d="M16.5272 6.1903C16.1938 6.14187 15.8756 6.01884 15.5963 5.83037C15.317 5.64191 15.0838 5.39286 14.9141 5.10178C14.7444 4.8107 14.6425 4.48509 14.6161 4.14919C14.5897 3.81329 14.6394 3.47576 14.7615 3.16173C14.8391 2.95643 14.8506 2.73199 14.7942 2.51986C14.7379 2.30774 14.6165 2.11857 14.4472 1.97887C13.6998 1.35125 12.8491 0.858213 11.9329 0.521732C11.7243 0.444236 11.4966 0.434554 11.2821 0.494064C11.0677 0.553573 10.8775 0.67924 10.7387 0.85316C10.5297 1.12039 10.2626 1.33652 9.95764 1.48517C9.65269 1.63381 9.3179 1.71106 8.97866 1.71106C8.63942 1.71106 8.30463 1.63381 7.99968 1.48517C7.69474 1.33652 7.42765 1.12039 7.21866 0.85316C7.07982 0.67924 6.88963 0.553573 6.67519 0.494064C6.46075 0.434554 6.23299 0.444236 6.02438 0.521732C5.17847 0.832384 4.38757 1.27606 3.68152 1.83602C3.50355 1.97691 3.37535 2.17108 3.31572 2.3901C3.25608 2.60912 3.26812 2.84148 3.35009 3.05316C3.48195 3.3755 3.53643 3.72425 3.50916 4.07144C3.48189 4.41864 3.37363 4.75461 3.19307 5.05241C3.0125 5.3502 2.76465 5.60154 2.4694 5.78625C2.17416 5.97096 1.83973 6.0839 1.49295 6.11602C1.26781 6.14009 1.05635 6.23581 0.889702 6.38909C0.723051 6.54236 0.610016 6.7451 0.567239 6.96744C0.460838 7.49413 0.407239 8.03012 0.407239 8.56744C0.406457 9.01729 0.44277 9.46643 0.51581 9.9103C0.552162 10.1398 0.663094 10.3509 0.831456 10.511C0.999818 10.6711 1.21623 10.7712 1.44724 10.796C1.80163 10.8293 2.14291 10.9469 2.4425 11.1392C2.74209 11.3314 2.99127 11.5926 3.1692 11.9009C3.34712 12.2092 3.44861 12.5556 3.46517 12.9112C3.48173 13.2667 3.41288 13.6211 3.26438 13.9446C3.1672 14.155 3.14309 14.3919 3.19589 14.6176C3.24869 14.8432 3.37536 15.0448 3.55581 15.1903C4.29873 15.8065 5.14128 16.2916 6.04723 16.6246C6.16309 16.6647 6.28464 16.6859 6.40723 16.6874C6.57533 16.6871 6.74089 16.6464 6.89003 16.5689C7.03917 16.4913 7.16754 16.3791 7.26438 16.2417C7.46804 15.945 7.74105 15.7024 8.05971 15.5352C8.37837 15.3679 8.73304 15.2809 9.09295 15.2817C9.44166 15.2822 9.78546 15.364 10.097 15.5208C10.4085 15.6775 10.6791 15.9048 10.8872 16.1846C11.0257 16.3707 11.2218 16.5058 11.4451 16.5689C11.6683 16.6319 11.9061 16.6194 12.1215 16.5332C12.9499 16.1998 13.7211 15.739 14.4072 15.1674C14.5796 15.0249 14.7023 14.8315 14.7577 14.6148C14.8132 14.3982 14.7985 14.1695 14.7158 13.9617C14.5814 13.6435 14.5228 13.2985 14.5446 12.9538C14.5664 12.609 14.6681 12.2741 14.8415 11.9754C15.015 11.6767 15.2555 11.4225 15.5441 11.2326C15.8327 11.0428 16.1614 10.9227 16.5044 10.8817C16.7268 10.851 16.9336 10.7502 17.0949 10.5941C17.2562 10.4379 17.3636 10.2344 17.4015 10.0132C17.4933 9.53653 17.543 9.05277 17.5501 8.56744C17.5502 8.05553 17.5024 7.54473 17.4072 7.04173C17.3686 6.82533 17.2628 6.62659 17.1049 6.47375C16.9469 6.3209 16.7448 6.22172 16.5272 6.1903V6.1903ZM11.8358 8.56744C11.8358 9.13253 11.6682 9.68493 11.3543 10.1548C11.0403 10.6246 10.5941 10.9908 10.072 11.2071C9.54997 11.4233 8.97549 11.4799 8.42126 11.3697C7.86703 11.2594 7.35794 10.9873 6.95836 10.5877C6.55878 10.1882 6.28666 9.67908 6.17642 9.12484C6.06618 8.57061 6.12276 7.99614 6.33901 7.47406C6.55526 6.95199 6.92146 6.50576 7.39132 6.19182C7.86117 5.87787 8.41357 5.7103 8.97866 5.7103C9.73642 5.7103 10.4631 6.01132 10.999 6.54714C11.5348 7.08296 11.8358 7.80968 11.8358 8.56744Z" fill="#57616A"/>
</svg>
