<svg width="16" height="16" viewBox="0 0 16 16" fill="none" xmlns="http://www.w3.org/2000/svg">
<path d="M2.64321 13.8648C2.77535 13.925 2.91902 13.9563 3.06461 13.9567C3.10972 13.9567 3.15484 13.9537 3.19963 13.9478L5.99361 13.5822C6.14048 13.5629 6.28158 13.5157 6.40925 13.4442C6.50108 13.3926 6.5862 13.3285 6.66203 13.2531L12.2481 7.66709L8.33291 3.75206L2.74688 9.33818C2.56705 9.51876 2.45122 9.75362 2.41795 10.0064L2.05222 12.8003C2.03334 12.9445 2.0455 13.0911 2.08774 13.2302C2.12965 13.3694 2.20101 13.4979 2.297 13.6074C2.35043 13.6685 2.41091 13.7228 2.47682 13.7694C2.52898 13.8062 2.58465 13.8382 2.64321 13.8648Z" fill="#57616A"/>
<path d="M9.35234 2.73264L13.2675 6.64767L14.8219 5.09326C15.0315 4.88284 15.1496 4.59782 15.1496 4.30065C15.1496 4.00352 15.0315 3.71851 14.8219 3.50808L12.4919 1.17834C12.386 1.07263 12.2612 0.990281 12.1252 0.934606C11.9914 0.879731 11.8468 0.850695 11.6993 0.850695C11.4024 0.850695 11.1173 0.968523 10.9068 1.17834L9.35234 2.73264Z" fill="#57616A"/>
</svg>
