<svg width="16" height="16" viewBox="0 0 16 16" fill="none" xmlns="http://www.w3.org/2000/svg">
<path fill-rule="evenodd" clip-rule="evenodd" d="M8.00331 0C8.61265 0 9.10662 0.493969 9.10662 1.10331V7.999C9.10662 8.60834 8.61265 9.10231 8.00331 9.10231C7.39397 9.10231 6.9 8.60834 6.9 7.999V1.10331C6.9 0.493969 7.39397 0 8.00331 0ZM4.39079 3.52262C4.82173 3.95341 4.82184 4.65199 4.39104 5.08293C3.67757 5.79664 3.19174 6.70587 2.99498 7.69568C2.79822 8.68548 2.89937 9.7114 3.28564 10.6437C3.67191 11.576 4.32595 12.3729 5.16507 12.9335C6.00418 13.4941 6.99069 13.7934 7.99986 13.7934C9.00903 13.7934 9.99554 13.4941 10.8347 12.9335C11.6738 12.3729 12.3278 11.576 12.7141 10.6437C13.1004 9.7114 13.2015 8.68548 13.0047 7.69568C12.808 6.70587 12.3222 5.79664 11.6087 5.08293C11.1779 4.65199 11.178 3.95341 11.6089 3.52262C12.0399 3.09182 12.7385 3.09193 13.1693 3.52287C14.1913 4.54521 14.8872 5.84763 15.169 7.26545C15.4509 8.68328 15.306 10.1528 14.7527 11.4883C14.1994 12.8238 13.2625 13.9652 12.0605 14.7683C10.8585 15.5714 9.44543 16 7.99986 16C6.55429 16 5.14119 15.5714 3.93921 14.7683C2.73723 13.9652 1.80036 12.8238 1.24706 11.4883C0.693755 10.1528 0.548865 8.68328 0.830707 7.26545C1.11255 5.84763 1.80847 4.54521 2.83047 3.52287C3.26127 3.09193 3.95985 3.09182 4.39079 3.52262Z" fill="#57616A"/>
</svg>
