<svg width="16" height="16" viewBox="0 0 16 16" fill="none" xmlns="http://www.w3.org/2000/svg">
<g clip-path="url(#clip0_1827_792)">
<path d="M1.99997 10.3029C3.10452 10.3029 3.99997 9.40741 3.99997 8.30292C3.99997 7.19843 3.10452 6.30292 1.99997 6.30292C0.895416 6.30292 -3.05176e-05 7.19843 -3.05176e-05 8.30292C-3.05176e-05 9.40741 0.895416 10.3029 1.99997 10.3029Z" fill="white"/>
<path d="M7.99997 10.3029C9.10452 10.3029 9.99997 9.40741 9.99997 8.30292C9.99997 7.19843 9.10452 6.30292 7.99997 6.30292C6.89542 6.30292 5.99997 7.19843 5.99997 8.30292C5.99997 9.40741 6.89542 10.3029 7.99997 10.3029Z" fill="white"/>
<path d="M16 8.30292C16 9.40741 15.1045 10.3029 14 10.3029C12.8954 10.3029 12 9.40741 12 8.30292C12 7.19843 12.8954 6.30292 14 6.30292C15.1045 6.30292 16 7.19843 16 8.30292Z" fill="white"/>
</g>
<defs>
<clipPath id="clip0_1827_792">
<rect width="16" height="16" fill="white"/>
</clipPath>
</defs>
</svg>
