<svg width="16" height="16" viewBox="0 0 16 16" fill="none" xmlns="http://www.w3.org/2000/svg">
<path d="M8.03847 7.2C8.75051 7.2 9.44655 6.98885 10.0386 6.59325C10.6306 6.19765 11.092 5.63537 11.3645 4.97752C11.6369 4.31966 11.7082 3.59579 11.5692 2.89744C11.4303 2.1991 11.0874 1.55764 10.5838 1.05419C10.0803 0.55075 9.43878 0.207933 8.74041 0.0690979C8.04203 -0.0697378 7.31818 0.00164389 6.66037 0.274216C6.00257 0.546788 5.44037 1.00831 5.04488 1.60041C4.64938 2.19251 4.43835 2.88859 4.43848 3.60063C4.43948 4.55505 4.8191 5.47007 5.49403 6.14489C6.16896 6.8197 7.08406 7.19917 8.03847 7.2V7.2Z" fill="#57616A"/>
<path d="M1.55762 14.359C1.55762 11.2889 4.04646 8.80005 7.11659 8.80005H8.88285C11.953 8.80005 14.4418 11.2889 14.4418 14.359V14.359C14.4418 15.2653 13.7071 16 12.8008 16H3.19864C2.29233 16 1.55762 15.2653 1.55762 14.359V14.359Z" fill="#57616A"/>
</svg>
