<svg width="12" height="12" viewBox="0 0 12 12" fill="none" xmlns="http://www.w3.org/2000/svg">
<path d="M11.125 4.6C10.925 4.425 10.7 4.225 10.625 4.075C10.55 3.925 10.575 3.6 10.6 3.325C10.625 2.775 10.675 2.175 10.25 1.75C9.825 1.325 9.225 1.375 8.675 1.4C8.4 1.425 8.075 1.425 7.925 1.375C7.775 1.325 7.575 1.075 7.4 0.875C7.05 0.5 6.625 0 6 0C5.375 0 4.95 0.5 4.6 0.875C4.425 1.075 4.225 1.3 4.075 1.375C3.925 1.45 3.6 1.425 3.325 1.4C2.8 1.375 2.175 1.35 1.75 1.75C1.325 2.175 1.375 2.775 1.4 3.325C1.425 3.6 1.425 3.925 1.375 4.075C1.325 4.225 1.075 4.425 0.875 4.6C0.5 4.95 0 5.375 0 6C0 6.625 0.5 7.05 0.875 7.4C1.075 7.575 1.3 7.775 1.375 7.925C1.45 8.075 1.425 8.4 1.4 8.675C1.375 9.2 1.35 9.825 1.75 10.25C2.175 10.675 2.775 10.625 3.325 10.6C3.6 10.575 3.925 10.575 4.075 10.625C4.225 10.675 4.425 10.925 4.6 11.125C4.95 11.5 5.375 12 6 12C6.625 12 7.05 11.5 7.4 11.125C7.575 10.925 7.775 10.7 7.925 10.625C8.075 10.55 8.4 10.575 8.675 10.6C9.225 10.625 9.825 10.675 10.25 10.25C10.675 9.825 10.625 9.225 10.6 8.675C10.575 8.4 10.575 8.075 10.625 7.925C10.675 7.775 10.925 7.575 11.125 7.4C11.5 7.05 12 6.625 12 6C12 5.375 11.5 4.95 11.125 4.6ZM4 4.75C4 4.325 4.325 4 4.75 4C5.175 4 5.5 4.325 5.5 4.75C5.5 5.175 5.175 5.5 4.75 5.5C4.325 5.5 4 5.175 4 4.75ZM5 7.7L4.3 7L7 4.3L7.7 5L5 7.7ZM7.25 8C6.825 8 6.5 7.675 6.5 7.25C6.5 6.825 6.825 6.5 7.25 6.5C7.675 6.5 8 6.825 8 7.25C8 7.675 7.675 8 7.25 8Z" fill="#57616A"/>
</svg>
