<svg width="14" height="14" viewBox="0 0 14 14" fill="none" xmlns="http://www.w3.org/2000/svg">
<path fill-rule="evenodd" clip-rule="evenodd" d="M7 14C3.13401 14 4.76837e-07 10.866 4.76837e-07 7C4.76837e-07 3.13401 3.13401 0 7 0C10.866 0 14 3.13401 14 7C14 10.866 10.866 14 7 14ZM9.59497 6.80762C9.86834 6.53425 9.86834 6.09104 9.59497 5.81767C9.32161 5.5443 8.87839 5.5443 8.60503 5.81767L7 7.4227L5.39497 5.81767C5.12161 5.5443 4.67839 5.5443 4.40503 5.81767C4.13166 6.09104 4.13166 6.53425 4.40503 6.80762L6.50503 8.90762C6.77839 9.18099 7.22161 9.18099 7.49497 8.90762L9.59497 6.80762Z" fill="#99A2AB"/>
</svg>
