<svg width="16" height="17" viewBox="0 0 16 17" fill="none" xmlns="http://www.w3.org/2000/svg">
<path fill-rule="evenodd" clip-rule="evenodd" d="M16 8.5C16 12.9183 12.4183 16.5 8 16.5C3.58172 16.5 0 12.9183 0 8.5C0 4.08172 3.58172 0.5 8 0.5C12.4183 0.5 16 4.08172 16 8.5ZM10.5657 5.93431C10.8781 6.24673 10.8781 6.75327 10.5657 7.06569L9.13137 8.5L10.5657 9.93431C10.8781 10.2467 10.8781 10.7533 10.5657 11.0657C10.2533 11.3781 9.74673 11.3781 9.43431 11.0657L8 9.63137L6.56569 11.0657C6.25327 11.3781 5.74673 11.3781 5.43431 11.0657C5.12189 10.7533 5.12189 10.2467 5.43431 9.93431L6.86863 8.5L5.43431 7.06569C5.12189 6.75327 5.12189 6.24673 5.43431 5.93431C5.74673 5.62189 6.25327 5.62189 6.56569 5.93431L8 7.36863L9.43431 5.93431C9.74673 5.62189 10.2533 5.62189 10.5657 5.93431Z" fill="white"/>
</svg>
