<svg width="15" height="15" viewBox="0 0 15 15" fill="none" xmlns="http://www.w3.org/2000/svg">
<path fill-rule="evenodd" clip-rule="evenodd" d="M7.5 15C3.36483 15 0 11.6358 0 7.5C0 3.36483 3.36483 0 7.5 0C11.6358 0 15 3.36483 15 7.5C15 11.6358 11.6358 15 7.5 15Z" fill="#2CBD53"/>
<path fill-rule="evenodd" clip-rule="evenodd" d="M10.7271 5.10658C11.0359 5.41535 11.0359 5.91597 10.7271 6.22475L7.05846 9.89342C6.91018 10.0417 6.70908 10.125 6.49938 10.125C6.28968 10.125 6.08857 10.0417 5.9403 9.89342L4.27272 8.22584C3.96394 7.91707 3.96394 7.41645 4.27272 7.10768C4.58149 6.7989 5.08211 6.7989 5.39088 7.10768L6.49938 8.21617L9.60897 5.10658C9.91774 4.79781 10.4184 4.79781 10.7271 5.10658Z" fill="white"/>
</svg>
