<svg width="14" height="15" viewBox="0 0 14 15" fill="none" xmlns="http://www.w3.org/2000/svg">
<g clip-path="url(#clip0_1827_2249)">
<path d="M8.52973 6.40732C8.52973 7.25087 7.84352 7.93708 6.99997 7.93708C6.15642 7.93708 5.47022 7.25087 5.47022 6.40732C5.47022 5.56377 6.15642 4.87757 6.99997 4.87757C7.84352 4.87757 8.52973 5.56377 8.52973 6.40732ZM12.9005 6.40732C12.9005 11.5611 7.52206 14.3096 7.29325 14.4239C7.20081 14.4702 7.10028 14.4932 6.99997 14.4932C6.89966 14.4932 6.79914 14.4702 6.7067 14.4239C6.47789 14.3096 1.09949 11.5611 1.09949 6.40732C1.09949 3.15375 3.7464 0.506836 6.99997 0.506836C10.2535 0.506836 12.9005 3.15375 12.9005 6.40732ZM9.84095 6.40732C9.84095 4.84085 8.56644 3.56635 6.99997 3.56635C5.4335 3.56635 4.159 4.84085 4.159 6.40732C4.159 7.97379 5.4335 9.2483 6.99997 9.2483C8.56644 9.2483 9.84095 7.97379 9.84095 6.40732Z" fill="white"/>
</g>
<defs>
<clipPath id="clip0_1827_2249">
<rect width="14" height="14" fill="white" transform="translate(0 0.5)"/>
</clipPath>
</defs>
</svg>
