<svg width="12" height="12" viewBox="0 0 12 12" fill="none" xmlns="http://www.w3.org/2000/svg">
<g clip-path="url(#clip0_1827_2300)">
<path d="M8.23429 0.352134C8.23862 0.0958103 7.95289 -0.0809234 7.72553 0.0377115L3.93433 1.93332H8.23429V0.352134Z" fill="#57616A"/>
<path d="M6 5.59875C5.48585 5.59875 5.04914 5.93654 4.90009 6.40185H7.09992C6.95086 5.93652 6.51415 5.59875 6 5.59875Z" fill="#57616A"/>
<path d="M9.38892 2.63635H2.61113C2.41698 2.63635 2.25958 2.79375 2.25958 2.9879V11.6484C2.25958 11.8426 2.41698 12 2.61113 12H9.38892C9.58307 12 9.74047 11.8426 9.74047 11.6484V2.9879C9.74047 2.79375 9.58307 2.63635 9.38892 2.63635ZM6.75311 10.4938H5.24692C4.78152 10.4767 4.78087 9.80798 5.24692 9.79068H6.75308C6.94723 9.79068 7.10463 9.94808 7.10463 10.1422C7.10463 10.3364 6.94725 10.4938 6.75311 10.4938ZM7.88274 8.98761H4.11729C3.65252 8.97088 3.65062 8.30205 4.11729 8.28452H7.88274C8.3475 8.30126 8.3494 8.97008 7.88274 8.98761ZM7.88274 7.10487H4.11729C3.92314 7.10487 3.76574 6.94748 3.76574 6.75333C3.7668 6.52991 3.95956 6.38015 4.17609 6.40178C4.31901 5.65892 4.90559 5.07233 5.64846 4.92942C5.61351 4.38471 6.38663 4.38504 6.35155 4.92942C7.09441 5.07233 7.681 5.65892 7.82391 6.40178C8.331 6.36194 8.38479 7.07476 7.88274 7.10487Z" fill="#57616A"/>
</g>
<defs>
<clipPath id="clip0_1827_2300">
<rect width="12" height="12" fill="white"/>
</clipPath>
</defs>
</svg>
