<svg width="16" height="16" viewBox="0 0 16 16" fill="none" xmlns="http://www.w3.org/2000/svg">
<path d="M8.57143 0H1.71429C1.25963 0 0.823594 0.180612 0.502103 0.502103C0.180612 0.823594 0 1.25963 0 1.71429V15.4286C0 15.5801 0.0602039 15.7255 0.167368 15.8326C0.274531 15.9398 0.419876 16 0.571429 16H3.42857V12C3.42857 11.8484 3.48878 11.7031 3.59594 11.5959C3.7031 11.4888 3.84845 11.4286 4 11.4286H6.28571C6.43727 11.4286 6.58261 11.4888 6.68977 11.5959C6.79694 11.7031 6.85714 11.8484 6.85714 12V16H10.2857V1.71429C10.2857 1.25963 10.1051 0.823594 9.78361 0.502103C9.46212 0.180612 9.02608 0 8.57143 0ZM4 9.71429H2.85714C2.70559 9.71429 2.56025 9.65408 2.45308 9.54692C2.34592 9.43976 2.28571 9.29441 2.28571 9.14286C2.28571 8.99131 2.34592 8.84596 2.45308 8.7388C2.56025 8.63163 2.70559 8.57143 2.85714 8.57143H4C4.15155 8.57143 4.2969 8.63163 4.40406 8.7388C4.51122 8.84596 4.57143 8.99131 4.57143 9.14286C4.57143 9.29441 4.51122 9.43976 4.40406 9.54692C4.2969 9.65408 4.15155 9.71429 4 9.71429ZM4 6.85714H2.85714C2.70559 6.85714 2.56025 6.79694 2.45308 6.68978C2.34592 6.58261 2.28571 6.43727 2.28571 6.28571C2.28571 6.13416 2.34592 5.98882 2.45308 5.88165C2.56025 5.77449 2.70559 5.71429 2.85714 5.71429H4C4.15155 5.71429 4.2969 5.77449 4.40406 5.88165C4.51122 5.98882 4.57143 6.13416 4.57143 6.28571C4.57143 6.43727 4.51122 6.58261 4.40406 6.68978C4.2969 6.79694 4.15155 6.85714 4 6.85714ZM4 4H2.85714C2.70559 4 2.56025 3.9398 2.45308 3.83263C2.34592 3.72547 2.28571 3.58012 2.28571 3.42857C2.28571 3.27702 2.34592 3.13167 2.45308 3.02451C2.56025 2.91735 2.70559 2.85714 2.85714 2.85714H4C4.15155 2.85714 4.2969 2.91735 4.40406 3.02451C4.51122 3.13167 4.57143 3.27702 4.57143 3.42857C4.57143 3.58012 4.51122 3.72547 4.40406 3.83263C4.2969 3.9398 4.15155 4 4 4ZM7.42857 9.71429H6.28571C6.13416 9.71429 5.98882 9.65408 5.88165 9.54692C5.77449 9.43976 5.71429 9.29441 5.71429 9.14286C5.71429 8.99131 5.77449 8.84596 5.88165 8.7388C5.98882 8.63163 6.13416 8.57143 6.28571 8.57143H7.42857C7.58012 8.57143 7.72547 8.63163 7.83263 8.7388C7.9398 8.84596 8 8.99131 8 9.14286C8 9.29441 7.9398 9.43976 7.83263 9.54692C7.72547 9.65408 7.58012 9.71429 7.42857 9.71429ZM7.42857 6.85714H6.28571C6.13416 6.85714 5.98882 6.79694 5.88165 6.68978C5.77449 6.58261 5.71429 6.43727 5.71429 6.28571C5.71429 6.13416 5.77449 5.98882 5.88165 5.88165C5.98882 5.77449 6.13416 5.71429 6.28571 5.71429H7.42857C7.58012 5.71429 7.72547 5.77449 7.83263 5.88165C7.9398 5.98882 8 6.13416 8 6.28571C8 6.43727 7.9398 6.58261 7.83263 6.68978C7.72547 6.79694 7.58012 6.85714 7.42857 6.85714ZM7.42857 4H6.28571C6.13416 4 5.98882 3.9398 5.88165 3.83263C5.77449 3.72547 5.71429 3.58012 5.71429 3.42857C5.71429 3.27702 5.77449 3.13167 5.88165 3.02451C5.98882 2.91735 6.13416 2.85714 6.28571 2.85714H7.42857C7.58012 2.85714 7.72547 2.91735 7.83263 3.02451C7.9398 3.13167 8 3.27702 8 3.42857C8 3.58012 7.9398 3.72547 7.83263 3.83263C7.72547 3.9398 7.58012 4 7.42857 4Z" fill="#07A279"/>
<path d="M14.2857 2.85718H11.4286V5.71432H13.1429C13.2944 5.71432 13.4398 5.77452 13.5469 5.88169C13.6541 5.98885 13.7143 6.1342 13.7143 6.28575C13.7143 6.4373 13.6541 6.58265 13.5469 6.68981C13.4398 6.79697 13.2944 6.85718 13.1429 6.85718H11.4286V8.57146H13.1429C13.2944 8.57146 13.4398 8.63167 13.5469 8.73883C13.6541 8.84599 13.7143 8.99134 13.7143 9.14289C13.7143 9.29444 13.6541 9.43979 13.5469 9.54695C13.4398 9.65412 13.2944 9.71432 13.1429 9.71432H11.4286V11.4286H13.1429C13.2944 11.4286 13.4398 11.4888 13.5469 11.596C13.6541 11.7031 13.7143 11.8485 13.7143 12C13.7143 12.1516 13.6541 12.2969 13.5469 12.4041C13.4398 12.5113 13.2944 12.5715 13.1429 12.5715H11.4286V16H15.4286C15.5801 16 15.7255 15.9398 15.8327 15.8327C15.9398 15.7255 16 15.5802 16 15.4286V4.57146C16 4.11681 15.8194 3.68077 15.4979 3.35928C15.1764 3.03779 14.7404 2.85718 14.2857 2.85718Z" fill="#07A279"/>
</svg>
