<svg width="16" height="17" viewBox="0 0 16 17" fill="none" xmlns="http://www.w3.org/2000/svg">
<g clip-path="url(#clip0_1827_2278)">
<path d="M8 0.5C3.58189 0.5 0 4.08189 0 8.5C0 12.9181 3.58189 16.5 8 16.5C12.4181 16.5 16 12.9181 16 8.5C16 4.08189 12.4181 0.5 8 0.5ZM10.7918 12.5527C10.5514 12.6613 10.3012 12.7535 10.0444 12.8226C9.06996 13.0926 8.09547 13.1025 7.12428 12.7864C5.95226 12.4078 5.17531 11.6078 4.71111 10.4885C4.62222 10.2712 4.56296 10.044 4.49383 9.81687H3.57531C3.42058 9.81687 3.29877 9.69177 3.29877 9.54033V8.9214C3.29877 8.76667 3.42387 8.64486 3.57531 8.64486H4.3358C4.3358 8.47366 4.3358 8.31235 4.3358 8.14115H3.57531C3.42058 8.14115 3.29877 8.01605 3.29877 7.86461V7.24568C3.29877 7.09095 3.42387 6.96914 3.57531 6.96914H4.54321L4.57613 6.87366C4.83621 6.04733 5.28395 5.33951 5.97202 4.80617C6.51852 4.38148 7.15062 4.14774 7.82881 4.03909C8.79342 3.88436 9.72839 4.01605 10.6337 4.3716C10.693 4.39465 10.749 4.42099 10.8049 4.45391C11.0222 4.5823 11.0782 4.74362 10.9827 4.97737C10.8807 5.22099 10.7786 5.4679 10.6667 5.70823C10.5712 5.91564 10.4395 5.98148 10.2156 5.9321C9.90946 5.86296 9.60988 5.76749 9.3037 5.70494C8.65844 5.57325 8.01646 5.56667 7.38765 5.81358C6.84774 6.02757 6.51852 6.43909 6.29465 6.95267C6.29136 6.95926 6.29136 6.96584 6.29136 6.97243H8.17119C8.32593 6.97243 8.44774 7.09753 8.44774 7.24897V7.8679C8.44774 8.02263 8.32263 8.14444 8.17119 8.14444H6.02469C6.0214 8.30905 6.02469 8.47366 6.02469 8.64815H8.17449C8.32922 8.64815 8.45103 8.77325 8.45103 8.92469V9.54362C8.45103 9.69835 8.32593 9.82016 8.17449 9.82016H6.21235C6.44938 10.4984 6.83457 11.0218 7.55885 11.249C8.13827 11.43 8.72099 11.4202 9.307 11.2984C9.60988 11.2358 9.90617 11.1436 10.2091 11.0745C10.4461 11.0218 10.5745 11.0844 10.6733 11.3016C10.7852 11.5453 10.8905 11.7922 10.9893 12.0424C11.0815 12.2663 11.0222 12.4473 10.7918 12.5527Z" fill="#07A279"/>
</g>
<defs>
<clipPath id="clip0_1827_2278">
<rect width="16" height="16" fill="white" transform="translate(0 0.5)"/>
</clipPath>
</defs>
</svg>
