<svg width="17" height="17" viewBox="0 0 17 17" fill="none" xmlns="http://www.w3.org/2000/svg">
<path d="M8.12985 1.21109C8.46135 0.539501 9.41902 0.539501 9.75052 1.21109L11.5225 4.80093C11.654 5.06737 11.9081 5.25214 12.2021 5.29511L16.1662 5.87452C16.9072 5.98282 17.2025 6.89359 16.666 7.41606L13.7991 10.2085C13.5859 10.4161 13.4886 10.7153 13.5389 11.0086L14.2154 14.9525C14.342 15.6907 13.567 16.2537 12.9041 15.9051L9.3608 14.0417C9.09749 13.9032 8.78288 13.9032 8.51957 14.0417L4.97631 15.9051C4.31334 16.2537 3.53839 15.6907 3.66501 14.9525L4.34143 11.0086C4.39173 10.7153 4.29444 10.4161 4.08128 10.2085L1.21432 7.41606C0.677903 6.89359 0.973211 5.98282 1.71415 5.87452L5.67823 5.29511C5.97224 5.25214 6.22635 5.06737 6.35787 4.80093L8.12985 1.21109Z" fill="#07A279"/>
</svg>
