<svg width="11" height="10" viewBox="0 0 11 10" fill="none" xmlns="http://www.w3.org/2000/svg">
<g clip-path="url(#clip0_831_13481)">
<path d="M9.31274 6.607C9.56307 6.35667 9.56307 5.95079 9.31274 5.70045C9.0624 5.45012 8.65653 5.45012 8.40619 5.70045L6.2953 7.81135L6.2953 0.682158C6.2953 0.328138 6.0083 0.0411377 5.65428 0.0411377C5.30025 0.0411377 5.01325 0.328128 5.01325 0.682158L5.01325 7.81122L2.90249 5.70045C2.65215 5.45012 2.24627 5.45012 1.99594 5.70045C1.7456 5.95079 1.7456 6.35667 1.99594 6.607L5.20106 9.81213C5.4514 10.0625 5.85728 10.0625 6.10761 9.81213L9.31274 6.607Z" fill="#EA4335"/>
</g>
<defs>
<clipPath id="clip0_831_13481">
<rect x="11.0005" y="9.99988" width="11" height="10" rx="5" transform="rotate(180 11.0005 9.99988)" fill="white"/>
</clipPath>
</defs>
</svg>
