<svg width="12" height="12" viewBox="0 0 12 12" fill="none" xmlns="http://www.w3.org/2000/svg">
<g clip-path="url(#clip0_1827_2286)">
<path d="M1.30588 2.47058H0V7.05882V8.47058V10.9412H1.30588V8.47058H2.92941V10.9412H4.23529V8.47058V7.05882H1.30588V2.47058Z" fill="#57616A"/>
<path d="M10.6941 2.47058V7.05882H7.76465V8.47058V10.9412H9.07053V8.47058H10.6941V10.9412H12V8.47058V7.05882V2.47058H10.6941Z" fill="#57616A"/>
<path d="M9.52941 4.58821C9.52941 4.19837 9.21336 3.88232 8.82352 3.88232H3.17646C2.78663 3.88232 2.47058 4.19837 2.47058 4.58821V5.29409H9.52941V4.58821Z" fill="#57616A"/>
<path d="M6.65499 6H5.3491V9.85807L4.94116 9.85807V10.9412H7.05881V9.85807L6.65499 9.85807V6Z" fill="#57616A"/>
<path d="M6.35299 1.79439V1.05884H5.64711V1.79439C4.88319 1.92315 4.25683 2.46223 4.00354 3.17649H7.99659C7.74327 2.46223 7.11692 1.92312 6.35299 1.79439Z" fill="#57616A"/>
</g>
<defs>
<clipPath id="clip0_1827_2286">
<rect width="12" height="12" fill="white"/>
</clipPath>
</defs>
</svg>
