<svg width="25" height="24" viewBox="0 0 25 24" fill="none" xmlns="http://www.w3.org/2000/svg">
<g clip-path="url(#clip0_3332_9554)">
<path d="M24.625 12C24.625 17.9897 20.2366 22.9542 14.5 23.8542V15.4688H17.2961L17.8281 12H14.5V9.74906C14.5 8.79984 14.965 7.875 16.4556 7.875H17.9688V4.92188C17.9688 4.92188 16.5953 4.6875 15.2823 4.6875C12.5416 4.6875 10.75 6.34875 10.75 9.35625V12H7.70312V15.4688H10.75V23.8542C5.01344 22.9542 0.625 17.9897 0.625 12C0.625 5.37281 5.99781 0 12.625 0C19.2522 0 24.625 5.37281 24.625 12Z" fill="#1877F2"/>
<path d="M17.2961 15.4688L17.8281 12H14.5V9.74902C14.5 8.80003 14.9649 7.875 16.4556 7.875H17.9688V4.92188C17.9688 4.92188 16.5955 4.6875 15.2826 4.6875C12.5415 4.6875 10.75 6.34875 10.75 9.35625V12H7.70312V15.4688H10.75V23.8542C11.361 23.95 11.9871 24 12.625 24C13.2629 24 13.889 23.95 14.5 23.8542V15.4688H17.2961Z" fill="white"/>
</g>
<defs>
<clipPath id="clip0_3332_9554">
<rect width="24" height="24" fill="white" transform="translate(0.625)"/>
</clipPath>
</defs>
</svg>
