<svg width="18" height="18" viewBox="0 0 18 18" fill="none" xmlns="http://www.w3.org/2000/svg">
<path d="M9.04399 8.1C9.84504 8.1 10.6281 7.86245 11.2941 7.4174C11.9602 6.97235 12.4793 6.33979 12.7858 5.5997C13.0923 4.85962 13.1724 4.04527 13.0161 3.25962C12.8598 2.47398 12.474 1.75234 11.9075 1.18597C11.341 0.619594 10.6193 0.233925 9.83367 0.0777351C9.04801 -0.078455 8.23367 0.00184937 7.49364 0.308493C6.75361 0.615136 6.12114 1.13435 5.67621 1.80046C5.23127 2.46657 4.99386 3.24967 4.994 4.05071C4.99513 5.12443 5.42221 6.15383 6.1815 6.913C6.9408 7.67216 7.97028 8.09906 9.04399 8.1Z" fill="white" fill-opacity="0.5"/>
<path d="M1.75259 16.1539C1.75259 12.7 4.55254 9.90002 8.00644 9.90002H9.99348C13.4474 9.90002 16.2473 12.7 16.2473 16.1539C16.2473 17.1735 15.4208 18 14.4012 18H3.59875C2.57915 18 1.75259 17.1735 1.75259 16.1539Z" fill="white" fill-opacity="0.5"/>
</svg>
