<svg width="12" height="13" viewBox="0 0 12 13" fill="none" xmlns="http://www.w3.org/2000/svg">
<path fill-rule="evenodd" clip-rule="evenodd" d="M11.4545 2.6411C11.9817 2.1139 11.9817 1.25912 11.4545 0.731916C10.9273 0.204708 10.0725 0.204708 9.54531 0.731916L5.9999 4.27732L2.4545 0.731916C1.92729 0.204708 1.07252 0.204708 0.545308 0.731916C0.0181004 1.25912 0.0181004 2.1139 0.545308 2.6411L4.09071 6.18651L0.545308 9.73192C0.0181004 10.2591 0.0181004 11.1139 0.545308 11.6411C1.07252 12.1683 1.92729 12.1683 2.4545 11.6411L5.9999 8.0957L9.54531 11.6411C10.0725 12.1683 10.9273 12.1683 11.4545 11.6411C11.9817 11.1139 11.9817 10.2591 11.4545 9.73192L7.90909 6.18651L11.4545 2.6411Z" fill="white"/>
</svg>
