<svg width="18" height="18" viewBox="0 0 18 18" fill="none" xmlns="http://www.w3.org/2000/svg">
<path d="M0.136906 3.62975C0.51538 2.35047 1.69913 1.4137 3.09951 1.4137H14.9005C16.3012 1.4137 17.4855 2.35103 17.8634 3.63087L9.3928 8.88821C9.1506 9.03853 8.8494 9.03853 8.60748 8.88821L0.136906 3.62975ZM10.2818 10.3203C9.88648 10.5659 9.44338 10.6884 9 10.6884C8.55662 10.6884 8.11352 10.5656 7.71819 10.3203L0.00878143 5.53448V13.4956C0.00878143 15.1998 1.3954 16.5864 3.09951 16.5864H14.9005C16.6046 16.5864 17.9912 15.1998 17.9912 13.4956V5.53561L10.2818 10.3203Z" fill="white" fill-opacity="0.5"/>
</svg>
