<svg width="19" height="14" viewBox="0 0 19 14" fill="none" xmlns="http://www.w3.org/2000/svg">
<path fill-rule="evenodd" clip-rule="evenodd" d="M9.85938 0.75C11.9167 0.75 13.7721 1.32942 15.4258 2.48828C17.0794 3.64714 18.2708 5.15103 19 7C18.2708 8.84897 17.0794 10.3529 15.4258 11.5117C13.7721 12.6706 11.9167 13.25 9.85938 13.25C7.80207 13.25 5.94011 12.6706 4.27344 11.5117C2.60676 10.3529 1.40886 8.84897 0.679688 7C1.40886 5.15103 2.60676 3.64714 4.27344 2.48828C5.94011 1.32942 7.80207 0.75 9.85938 0.75ZM9.85938 11.1797C11.0052 11.1797 11.9818 10.7695 12.7891 9.94922C13.5964 9.1289 14 8.14584 14 7C14 5.85416 13.5964 4.8711 12.7891 4.05078C11.9818 3.23046 11.0052 2.82031 9.85938 2.82031C8.71354 2.82031 7.73047 3.23046 6.91016 4.05078C6.08984 4.8711 5.67969 5.85416 5.67969 7C5.67969 8.14584 6.08984 9.1289 6.91016 9.94922C7.73047 10.7695 8.71354 11.1797 9.85938 11.1797ZM9.83984 4.5C10.53 4.5 11.1224 4.74088 11.6172 5.22266C12.112 5.70443 12.3594 6.29687 12.3594 7C12.3594 7.70313 12.112 8.29557 11.6172 8.77734C11.1224 9.25912 10.53 9.5 9.83984 9.5C9.14974 9.5 8.5638 9.25912 8.08203 8.77734C7.60026 8.29557 7.35938 7.70313 7.35938 7C7.35938 6.29687 7.60026 5.70443 8.08203 5.22266C8.5638 4.74088 9.14974 4.5 9.83984 4.5Z" fill="white"/>
</svg>
