<svg width="18" height="18" viewBox="0 0 18 18" fill="none" xmlns="http://www.w3.org/2000/svg">
<path d="M17.9242 9.34901C17.8002 9.62183 14.8198 16.0312 8.99988 16.0312C7.94237 16.0312 6.97965 15.8178 6.10975 15.4699L8.92703 12.6526C8.9515 12.6531 8.97541 12.6562 8.99988 12.6562C11.0159 12.6562 12.6561 11.016 12.6561 8.99998C12.6561 8.97551 12.653 8.95161 12.6525 8.92714L15.958 5.6216C17.2104 7.11476 17.8674 8.52607 17.9245 8.65095C18.0252 8.87258 18.0252 9.12739 17.9242 9.34901ZM16.9089 2.28401L2.2839 16.909L1.09083 15.716L3.20977 13.597C1.19714 11.7523 0.147797 9.5082 0.0755158 9.34901C-0.0251719 9.12711 -0.0251719 8.87258 0.0755158 8.65095C0.199547 8.37814 3.17996 1.96872 8.99988 1.96872C10.7391 1.96872 12.2224 2.54304 13.4535 3.35332L15.7159 1.09094L16.9089 2.28401ZM5.8915 10.9153L7.14728 9.65951C7.07331 9.45308 7.03112 9.23145 7.03112 8.99998C7.03112 7.91436 7.91453 7.03123 8.99988 7.03123C9.23135 7.03123 9.45297 7.07342 9.65941 7.14739L10.9152 5.8916C10.3575 5.54651 9.70272 5.34373 8.99988 5.34373C6.98387 5.34373 5.34362 6.98398 5.34362 8.99998C5.34362 9.70283 5.5464 10.3576 5.8915 10.9153Z" fill="white"/>
</svg>
