<svg width="18" height="18" viewBox="0 0 18 18" fill="none" xmlns="http://www.w3.org/2000/svg">
<path d="M13.9194 11.4547C13.4047 11.4559 12.8975 11.5788 12.4394 11.8134C11.9813 12.0481 11.5851 12.3877 11.2833 12.8047L7.18019 10.0695C7.43876 9.3801 7.43876 8.62031 7.18019 7.93087L11.2833 5.19575C11.7438 5.82011 12.4119 6.25979 13.1675 6.43578C13.9232 6.61177 14.7168 6.51253 15.4058 6.15591C16.0948 5.79928 16.6341 5.20864 16.9267 4.4901C17.2193 3.77156 17.2461 2.97222 17.0023 2.23569C16.7585 1.49916 16.26 0.873725 15.5964 0.471749C14.9328 0.0697738 14.1476 -0.0823922 13.3819 0.0425901C12.6162 0.167572 11.9201 0.56151 11.4188 1.15363C10.9175 1.74574 10.6437 2.49723 10.6468 3.27306C10.6521 3.39228 10.6641 3.5111 10.6828 3.62897L6.27203 6.56944C5.80198 6.14571 5.21916 5.86735 4.59415 5.76807C3.96914 5.6688 3.32875 5.75287 2.75054 6.0101C2.17232 6.26733 1.6811 6.68669 1.33634 7.21739C0.991592 7.74809 0.808105 8.36736 0.808105 9.00021C0.808105 9.63305 0.991592 10.2523 1.33634 10.783C1.6811 11.3137 2.17232 11.7331 2.75054 11.9903C3.32875 12.2475 3.96914 12.3316 4.59415 12.2323C5.21916 12.1331 5.80198 11.8547 6.27203 11.431L10.6828 14.3714C10.6641 14.4893 10.6521 14.6081 10.6468 14.7273C10.6468 15.3746 10.8387 16.0073 11.1983 16.5455C11.5579 17.0837 12.069 17.5032 12.667 17.7509C13.265 17.9986 13.923 18.0634 14.5579 17.9371C15.1927 17.8108 15.7758 17.4991 16.2335 17.0415C16.6912 16.5838 17.0029 16.0006 17.1292 15.3658C17.2555 14.731 17.1907 14.073 16.943 13.475C16.6953 12.877 16.2758 12.3658 15.7376 12.0062C15.1994 11.6466 14.5667 11.4547 13.9194 11.4547Z" fill="white"/>
</svg>
