<svg width="24" height="24" viewBox="0 0 24 24" fill="none" xmlns="http://www.w3.org/2000/svg">
<path d="M16.875 14.25C16.0591 14.25 15.2616 14.4919 14.5833 14.9452C13.9049 15.3984 13.3762 16.0427 13.064 16.7964C12.7518 17.5502 12.6701 18.3796 12.8293 19.1797C12.9884 19.9799 13.3813 20.7149 13.9582 21.2918C14.5351 21.8687 15.2701 22.2616 16.0702 22.4207C16.8704 22.5799 17.6998 22.4982 18.4536 22.186C19.2073 21.8738 19.8515 21.3451 20.3048 20.6667C20.7581 19.9884 21 19.1908 21 18.375C20.9987 17.2814 20.5637 16.2329 19.7904 15.4596C19.0171 14.6862 17.9686 14.2512 16.875 14.25ZM18.7309 19.7007C18.7668 19.7353 18.7953 19.7767 18.815 19.8224C18.8346 19.8682 18.845 19.9174 18.8454 19.9672C18.8458 20.017 18.8364 20.0663 18.8175 20.1124C18.7986 20.1585 18.7708 20.2004 18.7356 20.2356C18.7004 20.2708 18.6585 20.2986 18.6124 20.3175C18.5663 20.3363 18.517 20.3458 18.4672 20.3454C18.4174 20.345 18.3682 20.3346 18.3224 20.315C18.2767 20.2953 18.2353 20.2668 18.2007 20.2309L16.875 18.9053L15.5493 20.2309C15.4786 20.2992 15.3838 20.337 15.2855 20.3362C15.1872 20.3353 15.0931 20.2959 15.0236 20.2264C14.9541 20.1568 14.9146 20.0628 14.9138 19.9645C14.9129 19.8661 14.9507 19.7714 15.019 19.7007L16.3447 18.375L15.019 17.0493C14.9507 16.9786 14.9129 16.8838 14.9138 16.7855C14.9146 16.6872 14.9541 16.5931 15.0236 16.5236C15.0931 16.4541 15.1872 16.4146 15.2855 16.4138C15.3838 16.4129 15.4786 16.4507 15.5493 16.519L16.875 17.8447L18.2007 16.519C18.2714 16.4507 18.3661 16.4129 18.4645 16.4138C18.5628 16.4146 18.6568 16.4541 18.7264 16.5236C18.7959 16.5931 18.8353 16.6872 18.8362 16.7855C18.837 16.8838 18.7992 16.9786 18.7309 17.0493L17.4053 18.375L18.7309 19.7007Z" fill="white"/>
<path d="M12.375 7.91248C12.3757 7.73162 12.3324 7.55332 12.2489 7.39289C12.1654 7.23246 12.0442 7.09471 11.8957 6.99148L11.3357 6.64307C11.0086 6.95261 10.5754 7.12511 10.1251 7.12511C9.67473 7.12511 9.2415 6.95261 8.91442 6.64307L8.33939 7.00093C8.19468 7.10462 8.07698 7.24152 7.99618 7.40014C7.91537 7.55877 7.87382 7.73447 7.87503 7.91248V8.24998H12.375V7.91248Z" fill="white"/>
<path d="M10.1251 6.375C10.3839 6.37485 10.6328 6.2757 10.8208 6.0979C11.0088 5.9201 11.1216 5.6771 11.1362 5.41875L11.1696 4.81852C11.1772 4.68104 11.1567 4.54345 11.1093 4.41416C11.0619 4.28487 10.9887 4.1666 10.894 4.06658C10.7994 3.96657 10.6854 3.88691 10.5589 3.83248C10.4324 3.77804 10.2961 3.74998 10.1585 3.75H10.0918C9.95405 3.75001 9.81777 3.77811 9.69128 3.83258C9.56478 3.88705 9.45073 3.96675 9.35609 4.06681C9.26144 4.16687 9.18821 4.28518 9.14085 4.41451C9.09349 4.54383 9.07302 4.68146 9.08066 4.81898L9.114 5.41897C9.12863 5.67729 9.24152 5.92022 9.42952 6.09798C9.61751 6.27574 9.86638 6.37485 10.1251 6.375Z" fill="white"/>
<path d="M12 18.375C12.0015 17.0825 12.5156 15.8434 13.4295 14.9295C14.3434 14.0156 15.5825 13.5015 16.875 13.5C17.0016 13.5 17.1258 13.5095 17.25 13.519V1.875C17.25 1.77554 17.2105 1.68016 17.1402 1.60984C17.0698 1.53951 16.9745 1.5 16.875 1.5H3.375C3.27554 1.5 3.18016 1.53951 3.10984 1.60984C3.03951 1.68016 3 1.77554 3 1.875V19.875C3 19.9745 3.03951 20.0698 3.10984 20.1402C3.18016 20.2105 3.27554 20.25 3.375 20.25H12.3761C12.1275 19.6562 11.9996 19.0188 12 18.375ZM7.125 7.9125C7.12442 7.61023 7.1972 7.31233 7.33708 7.04437C7.47696 6.77641 7.67977 6.5464 7.9281 6.37406L8.49675 6.02003C8.42241 5.84212 8.37806 5.65312 8.3655 5.46071L8.3322 4.86049C8.31891 4.62119 8.35456 4.38169 8.43698 4.15663C8.51939 3.93158 8.64682 3.72569 8.8115 3.55156C8.97618 3.37743 9.17464 3.2387 9.39475 3.14387C9.61486 3.04903 9.85199 3.00008 10.0917 3H10.1583C10.398 3.00006 10.6351 3.04898 10.8552 3.14377C11.0753 3.23856 11.2737 3.37724 11.4384 3.55132C11.6031 3.72541 11.7306 3.93124 11.813 4.15625C11.8955 4.38126 11.9312 4.62072 11.918 4.86L11.8846 5.46056C11.8721 5.65295 11.8277 5.84193 11.7534 6.01984L12.3071 6.36439C12.5591 6.53634 12.7654 6.76724 12.908 7.03704C13.0505 7.30683 13.125 7.60736 13.125 7.9125V8.625C13.125 8.72446 13.0855 8.81984 13.0152 8.89017C12.9448 8.96049 12.8495 9 12.75 9H7.5C7.40054 9 7.30516 8.96049 7.23483 8.89017C7.16451 8.81984 7.125 8.72446 7.125 8.625V7.9125ZM5.625 10.5H14.625C14.7245 10.5 14.8198 10.5395 14.8902 10.6098C14.9605 10.6802 15 10.7755 15 10.875C15 10.9745 14.9605 11.0698 14.8902 11.1402C14.8198 11.2105 14.7245 11.25 14.625 11.25H5.625C5.52554 11.25 5.43016 11.2105 5.35984 11.1402C5.28951 11.0698 5.25 10.9745 5.25 10.875C5.25 10.7755 5.28951 10.6802 5.35984 10.6098C5.43016 10.5395 5.52554 10.5 5.625 10.5ZM5.25 12.375C5.25 12.2755 5.28951 12.1802 5.35984 12.1098C5.43016 12.0395 5.52554 12 5.625 12H14.625C14.7245 12 14.8198 12.0395 14.8902 12.1098C14.9605 12.1802 15 12.2755 15 12.375C15 12.4745 14.9605 12.5698 14.8902 12.6402C14.8198 12.7105 14.7245 12.75 14.625 12.75H5.625C5.52554 12.75 5.43016 12.7105 5.35984 12.6402C5.28951 12.5698 5.25 12.4745 5.25 12.375Z" fill="white"/>
</svg>
