<svg width="21" height="20" viewBox="0 0 21 20" fill="none" xmlns="http://www.w3.org/2000/svg">
<path d="M14.8535 11.875C14.1736 11.875 13.509 12.0766 12.9438 12.4543C12.3784 12.832 11.9378 13.3689 11.6777 13.997C11.4175 14.6252 11.3494 15.3163 11.4821 15.9831C11.6147 16.6499 11.9421 17.2624 12.4228 17.7432C12.9036 18.2239 13.5161 18.5513 14.1828 18.6839C14.8497 18.8166 15.5408 18.7485 16.169 18.4883C16.7971 18.2282 17.3339 17.7876 17.7117 17.2223C18.0894 16.657 18.291 15.9923 18.291 15.3125C18.2899 14.4012 17.9274 13.5274 17.283 12.883C16.6386 12.2385 15.7648 11.876 14.8535 11.875ZM16.6513 14.2682L14.4638 16.7682C14.4344 16.8018 14.3983 16.8286 14.3577 16.847C14.3171 16.8655 14.2731 16.875 14.2285 16.875H14.227C14.1822 16.8748 14.1379 16.8648 14.0973 16.8459C14.0566 16.8271 14.0205 16.7997 13.9913 16.7656L13.0538 15.6718C13.0261 15.6409 13.0048 15.6047 12.9912 15.5653C12.9776 15.526 12.972 15.4843 12.9748 15.4428C12.9774 15.4013 12.9884 15.3608 13.0071 15.3235C13.0257 15.2863 13.0516 15.2532 13.0832 15.2262C13.1148 15.1991 13.1515 15.1786 13.1911 15.1659C13.2308 15.1532 13.2725 15.1486 13.3139 15.1523C13.3554 15.1559 13.3957 15.1678 13.4325 15.1873C13.4693 15.2068 13.5018 15.2334 13.5281 15.2656L14.2309 16.0853L16.1808 13.8569C16.2353 13.7945 16.3123 13.7563 16.3951 13.7508C16.4778 13.7453 16.5593 13.7728 16.6217 13.8273C16.6841 13.8819 16.7223 13.959 16.7278 14.0417C16.7333 14.1244 16.7058 14.2059 16.6513 14.2683V14.2682Z" fill="white"/>
<path d="M11.1035 6.59373C11.1041 6.44301 11.068 6.29443 10.9984 6.16074C10.9288 6.02705 10.8278 5.91225 10.7041 5.82623L10.2374 5.53589C9.96484 5.79384 9.60384 5.93759 9.22859 5.93759C8.85329 5.93759 8.49226 5.79384 8.2197 5.53589L7.7405 5.8341C7.61991 5.92051 7.52183 6.0346 7.4545 6.16678C7.38715 6.29897 7.35253 6.44539 7.35354 6.59373V6.87498H11.1035V6.59373Z" fill="white"/>
<path d="M9.22811 5.3125C9.44378 5.31237 9.65119 5.22975 9.80786 5.08158C9.96453 4.93342 10.0585 4.73092 10.0707 4.51562L10.0985 4.01543C10.1049 3.90087 10.0878 3.78621 10.0483 3.67847C10.0088 3.57072 9.94778 3.47217 9.86886 3.38882C9.79003 3.30547 9.69503 3.23909 9.58961 3.19373C9.48419 3.14837 9.37061 3.12498 9.25594 3.125H9.20036C9.08557 3.12501 8.972 3.14843 8.8666 3.19382C8.76118 3.23921 8.66614 3.30563 8.58727 3.38901C8.5084 3.47239 8.44737 3.57098 8.4079 3.67876C8.36844 3.78652 8.35138 3.90122 8.35775 4.01582L8.38553 4.51581C8.39772 4.73108 8.4918 4.93352 8.64846 5.08165C8.80512 5.22978 9.01251 5.31237 9.22811 5.3125Z" fill="white"/>
<path d="M10.791 15.3125C10.7923 14.2354 11.2207 13.2028 11.9823 12.4412C12.7438 11.6797 13.7764 11.2512 14.8535 11.25C14.959 11.25 15.0625 11.2579 15.166 11.2658V1.5625C15.166 1.47962 15.1331 1.40013 15.0745 1.34153C15.0158 1.28293 14.9364 1.25 14.8535 1.25H3.60352C3.52063 1.25 3.44115 1.28293 3.38255 1.34153C3.32394 1.40013 3.29102 1.47962 3.29102 1.5625V16.5625C3.29102 16.6454 3.32394 16.7248 3.38255 16.7835C3.44115 16.8421 3.52063 16.875 3.60352 16.875H11.1044C10.8973 16.3802 10.7907 15.849 10.791 15.3125ZM6.72852 6.59375C6.72803 6.34186 6.78868 6.09361 6.90525 5.87031C7.02182 5.64701 7.19082 5.45533 7.39777 5.31172L7.87164 5.01669C7.80969 4.86842 7.77273 4.71093 7.76227 4.55059L7.73452 4.05041C7.72344 3.85099 7.75315 3.65141 7.82183 3.46386C7.89051 3.27632 7.9967 3.10474 8.13393 2.95963C8.27117 2.81452 8.43655 2.69892 8.61997 2.61989C8.8034 2.54086 9.00101 2.50007 9.20077 2.5H9.25627C9.45602 2.50005 9.6536 2.54082 9.83702 2.61981C10.0204 2.6988 10.1858 2.81437 10.323 2.95943C10.4603 3.10451 10.5665 3.27603 10.6352 3.46354C10.7039 3.65105 10.7337 3.8506 10.7227 4.05L10.6949 4.55047C10.6844 4.71079 10.6474 4.86827 10.5855 5.01653L11.0469 5.30366C11.2569 5.44695 11.4288 5.63937 11.5477 5.8642C11.6664 6.08903 11.7285 6.33947 11.7285 6.59375V7.1875C11.7285 7.27038 11.6956 7.34987 11.637 7.40847C11.5783 7.46707 11.4989 7.5 11.416 7.5H7.04102C6.95813 7.5 6.87865 7.46707 6.82004 7.40847C6.76144 7.34987 6.72852 7.27038 6.72852 7.1875V6.59375ZM5.47852 8.75H12.9785C13.0614 8.75 13.1408 8.78292 13.1995 8.8415C13.2581 8.90017 13.291 8.97958 13.291 9.0625C13.291 9.14542 13.2581 9.22483 13.1995 9.2835C13.1408 9.34208 13.0614 9.375 12.9785 9.375H5.47852C5.39563 9.375 5.31615 9.34208 5.25755 9.2835C5.19894 9.22483 5.16602 9.14542 5.16602 9.0625C5.16602 8.97958 5.19894 8.90017 5.25755 8.8415C5.31615 8.78292 5.39563 8.75 5.47852 8.75ZM5.16602 10.3125C5.16602 10.2296 5.19894 10.1502 5.25755 10.0915C5.31615 10.0329 5.39563 10 5.47852 10H12.9785C13.0614 10 13.1408 10.0329 13.1995 10.0915C13.2581 10.1502 13.291 10.2296 13.291 10.3125C13.291 10.3954 13.2581 10.4748 13.1995 10.5335C13.1408 10.5921 13.0614 10.625 12.9785 10.625H5.47852C5.39563 10.625 5.31615 10.5921 5.25755 10.5335C5.19894 10.4748 5.16602 10.3954 5.16602 10.3125Z" fill="white"/>
</svg>
