<svg width="18" height="18" viewBox="0 0 18 18" fill="none" xmlns="http://www.w3.org/2000/svg">
<g clip-path="url(#clip0_3728_27413)">
<path d="M1.95882 3.70581H0V10.5882V12.7058V16.4117H1.95882V12.7058H4.39412V16.4117H6.35294V12.7058V10.5882H1.95882V3.70581Z" fill="white"/>
<path d="M16.0416 3.70581V10.5882H11.6475V12.7058V16.4117H13.6063V12.7058H16.0416V16.4117H18.0004V12.7058V10.5882V3.70581H16.0416Z" fill="white"/>
<path d="M14.2943 6.88231C14.2943 6.29756 13.8202 5.82349 13.2355 5.82349H4.76488C4.18013 5.82349 3.70605 6.29756 3.70605 6.88231V7.94114H14.2943V6.88231Z" fill="white"/>
<path d="M9.98285 9H8.02402V14.7871L7.41211 14.7871V16.4118H10.5886V14.7871L9.98285 14.7871V9Z" fill="white"/>
<path d="M9.52906 2.69147V1.58813H8.47024V2.69147C7.32435 2.8846 6.38482 3.69322 6.00488 4.76461H11.9945C11.6145 3.69322 10.675 2.88456 9.52906 2.69147Z" fill="white"/>
</g>
<defs>
<clipPath id="clip0_3728_27413">
<rect width="18" height="18" fill="white"/>
</clipPath>
</defs>
</svg>
