<svg width="18" height="18" viewBox="0 0 18 18" fill="none" xmlns="http://www.w3.org/2000/svg">
<path d="M8.97113 5.60742C7.68125 5.60742 6.63184 6.65683 6.63184 7.94707C6.63184 9.23697 7.68125 10.2864 8.97113 10.2864C10.261 10.2864 11.3104 9.23697 11.3104 7.94707C11.3104 6.65683 10.261 5.60742 8.97113 5.60742ZM10.0863 8.47265H8.97113C8.68109 8.47265 8.44554 8.2371 8.44554 7.94707V6.83297C8.44554 6.54293 8.68109 6.30738 8.97113 6.30738C9.26114 6.30738 9.49667 6.54293 9.49667 6.83297V7.42113H10.0863C10.3763 7.42113 10.6119 7.65668 10.6119 7.94707C10.6119 8.2371 10.3763 8.47265 10.0863 8.47265Z" fill="white"/>
<path d="M16.6657 11.0271C16.6657 7.64575 14.494 4.81139 11.535 3.76858V3.24946C11.535 2.1361 10.629 1.23022 9.51572 1.23022C9.12134 1.23022 8.82062 1.23022 8.42652 1.23022C7.31315 1.23022 6.40728 2.1361 6.40728 3.24946V3.76854C3.48443 4.79866 1.27637 7.60764 1.27637 11.0271V12.5609H16.6657V11.0271ZM7.45859 3.24946C7.45859 2.71576 7.89277 2.28154 8.42652 2.28154H9.51572C10.0494 2.28154 10.4836 2.71572 10.4836 3.24946V3.48044C9.49097 3.28364 8.45274 3.28329 7.45863 3.4804V3.24946H7.45859ZM8.97102 11.341C7.09965 11.341 5.57703 9.81799 5.57703 7.94697C5.57703 6.0756 7.09965 4.55264 8.97102 4.55264C10.8424 4.55264 12.365 6.0756 12.365 7.94697C12.365 9.81799 10.8424 11.341 8.97102 11.341Z" fill="white"/>
<path d="M17.4743 13.6157C17.1051 13.6157 0.870363 13.6157 0.525656 13.6157C0.235512 13.6157 0 13.8513 0 14.1414C0 14.4317 0.235512 14.6671 0.525656 14.6671H0.846808L1.46447 15.7881C1.7981 16.3938 2.4345 16.7698 3.12592 16.7698H14.8166C15.508 16.7698 16.1444 16.3938 16.478 15.7881L17.0957 14.6671H17.4743C17.7646 14.6671 18 14.4316 18 14.1414C18 13.8513 17.7645 13.6157 17.4743 13.6157Z" fill="white"/>
</svg>
