<svg width="10" height="10" viewBox="0 0 10 10" fill="none" xmlns="http://www.w3.org/2000/svg">
<path fill-rule="evenodd" clip-rule="evenodd" d="M9.38995 2.38995C9.93669 1.84322 9.93669 0.956785 9.38995 0.410051C8.84322 -0.136684 7.95679 -0.136684 7.41005 0.410051L4.9 2.9201L2.38995 0.410051C1.84322 -0.136684 0.956785 -0.136684 0.410051 0.410051C-0.136684 0.956785 -0.136684 1.84322 0.410051 2.38995L2.9201 4.9L0.410051 7.41005C-0.136684 7.95679 -0.136684 8.84322 0.410051 9.38995C0.956785 9.93669 1.84322 9.93669 2.38995 9.38995L4.9 6.8799L7.41005 9.38995C7.95679 9.93669 8.84322 9.93669 9.38995 9.38995C9.93669 8.84322 9.93669 7.95679 9.38995 7.41005L6.8799 4.9L9.38995 2.38995Z" fill="#57616A"/>
</svg>
