<svg width="59" height="61" viewBox="0 0 59 61" fill="none" xmlns="http://www.w3.org/2000/svg">
<ellipse cx="29.5649" cy="28.75" rx="29.0195" ry="28.75" fill="#D1FFFA"/>
<g clip-path="url(#clip0_863_14219)" filter="url(#filter0_d_863_14219)">
<path d="M28.0882 34.2687L26.9746 38.4171C25.9344 38.5803 24.956 38.6054 24.0423 38.5296C19.8788 38.1861 17.0534 35.7471 15.8518 34.6596C15.5572 34.3929 15.707 33.904 16.1001 33.8444C20.3171 33.2041 21.6819 33.7348 21.6819 33.7348L17.4811 29.8842C17.1448 29.5757 17.3959 29.0634 17.852 29.0679C22.4715 29.1108 25.171 30.8425 26.6266 32.2964C27.6884 33.3566 28.0882 34.2687 28.0882 34.2687Z" fill="#FF3501"/>
<path d="M28.0883 34.2687L26.9746 38.4171C25.9344 38.5803 24.9561 38.6053 24.0423 38.5296C23.8513 37.9995 23.7472 37.4282 23.7472 36.8323C23.7472 34.8272 24.9249 33.0971 26.6266 32.2964C27.6885 33.3566 28.0883 34.2687 28.0883 34.2687Z" fill="#CD2A00"/>
<path d="M28.752 40.8847C26.8476 40.5934 25.7857 38.5192 26.6282 36.7864C26.7201 36.5975 26.2618 37.5396 27.7124 34.558C28.2595 33.433 29.3862 32.628 30.8407 32.5778C32.5721 32.5035 34.0732 31.3259 34.5793 29.6823C35.5469 26.5756 32.5804 23.5692 29.4146 24.5867C28.0049 25.0401 26.4427 24.7056 25.3252 23.7041C22.8938 21.5268 23.7427 17.5261 26.8465 16.5354C34.6292 14.0525 42.7589 19.5978 43.1885 27.8192C43.6375 35.7966 36.6116 42.0852 28.752 40.8847Z" fill="#FF7956"/>
<path d="M38.1965 28.8954C38.1965 33.4158 34.532 37.0803 30.0116 37.0803C28.8728 37.0803 27.7882 36.8476 26.8031 36.4277C26.9523 36.1204 27.2241 35.5618 27.7124 34.5584C28.2598 33.433 29.3862 32.6284 30.8407 32.5783C32.5719 32.5036 34.0731 31.3259 34.5793 29.6827C35.5471 26.5756 32.5803 23.5692 29.4147 24.5871C28.0048 25.0404 26.4428 24.7057 25.3252 23.7045C25.0156 23.4272 24.7595 23.1204 24.5546 22.7941C26.0029 21.4984 27.9145 20.7104 30.0115 20.7104C34.532 20.7105 38.1965 24.375 38.1965 28.8954Z" fill="#FF6243"/>
<path d="M38.1965 28.8954C38.1965 33.4158 34.532 37.0803 30.0116 37.0803C28.8728 37.0803 27.7882 36.8476 26.8031 36.4277C26.9523 36.1204 27.2241 35.5618 27.7124 34.5584C28.2598 33.433 29.3862 32.6284 30.8407 32.5783C32.5719 32.5036 34.0731 31.3259 34.5793 29.6827C35.5471 26.5756 32.5803 23.5692 29.4147 24.5871C28.0048 25.0404 26.4428 24.7057 25.3252 23.7045C25.0156 23.4272 24.7595 23.1204 24.5546 22.7941C26.0029 21.4984 27.9145 20.7104 30.0115 20.7104C34.532 20.7105 38.1965 24.375 38.1965 28.8954Z" fill="#FF6243"/>
<path d="M37.4788 39.0244L37.378 38.9615C32.4172 36.115 32.1048 32.7305 32.0847 32.3251C33.2608 31.8852 34.1996 30.9146 34.5793 29.6824C34.6239 29.5393 34.6601 29.3967 34.6879 29.2547C34.7603 29.2953 38.7913 31.5344 43.2053 28.2251C43.3183 32.7889 40.9851 36.7592 37.4788 39.0244Z" fill="#FF5023"/>
<path d="M38.9917 19.1137L38.9744 19.1198C34.3895 18.6615 32.3364 23.7499 32.0207 24.6185C31.2289 24.3346 30.3301 24.2922 29.4147 24.5868C29.2811 24.6297 29.1458 24.6658 29.0099 24.6948C28.6212 24.0394 26.3505 19.7679 30.6581 15.938H30.6587C33.7752 15.938 36.732 17.1163 38.9917 19.1137Z" fill="#FF5023"/>
<path d="M37.4788 39.0244L37.378 38.9615C32.4172 36.115 32.1048 32.7305 32.0847 32.3251C33.2608 31.8852 34.1996 30.9146 34.5793 29.6824C34.6239 29.5393 34.6601 29.3967 34.6879 29.2547C34.7603 29.2953 38.7913 31.5344 43.2053 28.2251C43.3183 32.7889 40.9851 36.7592 37.4788 39.0244Z" fill="#FF5023"/>
<path d="M33.7145 21.5942C32.7061 22.8577 32.1699 24.2086 32.0207 24.6189C31.2288 24.335 30.3301 24.2926 29.4147 24.5872C29.2811 24.6301 29.1458 24.6662 29.0099 24.6952C28.7938 24.3304 27.9948 22.8465 28.0705 20.9416C28.6924 20.7907 29.3429 20.7104 30.0116 20.7104C31.3441 20.7106 32.6025 21.029 33.7145 21.5942Z" fill="#FF3501"/>
<path d="M33.7145 21.5942C32.7061 22.8577 32.1699 24.2086 32.0207 24.6189C31.2288 24.335 30.3301 24.2926 29.4147 24.5872C29.2811 24.6301 29.1458 24.6662 29.0099 24.6952C28.7938 24.3304 27.9948 22.8465 28.0705 20.9416C28.6924 20.7907 29.3429 20.7104 30.0116 20.7104C31.3441 20.7106 32.6025 21.029 33.7145 21.5942Z" fill="#FF3501"/>
<path d="M43.1902 29.1455C43.1841 29.2725 43.1757 29.3983 43.1652 29.5236C43.1752 29.3983 43.1835 29.2725 43.1902 29.1455Z" fill="#FF5023"/>
<path d="M38.118 30.0322C37.7505 32.6772 36.119 34.9173 33.8538 36.124C32.2445 34.223 32.098 32.5981 32.0847 32.3253C33.2608 31.8854 34.1996 30.9148 34.5793 29.6826C34.6239 29.5395 34.6601 29.3969 34.6879 29.2549C34.7297 29.2782 36.1068 30.0433 38.118 30.0322Z" fill="#FF3501"/>
<path d="M38.118 30.0322C37.7505 32.6772 36.119 34.9173 33.8538 36.124C32.2445 34.223 32.098 32.5981 32.0847 32.3253C33.2608 31.8854 34.1996 30.9148 34.5793 29.6826C34.6239 29.5395 34.6601 29.3969 34.6879 29.2549C34.7297 29.2782 36.1068 30.0433 38.118 30.0322Z" fill="#FF3501"/>
</g>
<defs>
<filter id="filter0_d_863_14219" x="0.697021" y="3.729" width="57.5122" height="57.5122" filterUnits="userSpaceOnUse" color-interpolation-filters="sRGB">
<feFlood flood-opacity="0" result="BackgroundImageFix"/>
<feColorMatrix in="SourceAlpha" type="matrix" values="0 0 0 0 0 0 0 0 0 0 0 0 0 0 0 0 0 0 127 0" result="hardAlpha"/>
<feOffset dy="4"/>
<feGaussianBlur stdDeviation="7.5"/>
<feColorMatrix type="matrix" values="0 0 0 0 0.00868052 0 0 0 0 0.520833 0 0 0 0 0.454031 0 0 0 0.6 0"/>
<feBlend mode="normal" in2="BackgroundImageFix" result="effect1_dropShadow_863_14219"/>
<feBlend mode="normal" in="SourceGraphic" in2="effect1_dropShadow_863_14219" result="shape"/>
</filter>
<clipPath id="clip0_863_14219">
<rect width="27.5122" height="27.5122" fill="white" transform="translate(15.697 14.729)"/>
</clipPath>
</defs>
</svg>
