<svg width="64" height="52" viewBox="0 0 64 52" fill="none" xmlns="http://www.w3.org/2000/svg">
<path d="M20.75 29H7.25C7.25 23.375 6.8 16.85 5 10.325C4.55 9.20002 3.425 8.52502 2.3 8.75002C1.175 8.97502 0.499995 10.325 0.724995 11.45C2.74999 18.425 2.975 24.95 2.975 31.025V49.025C2.975 50.375 3.875 51.275 5.225 51.275C6.575 51.275 7.475 50.375 7.475 49.025V40.025H20.975V49.025C20.975 50.375 21.875 51.275 23.225 51.275C24.575 51.275 25.475 50.375 25.475 49.025V33.275C25.25 31.025 23.225 29 20.75 29ZM20.75 35.75H7.25V33.5H20.75V35.75Z" fill="#FCCE00"/>
<path d="M50 24.5H34.25V49.25C34.25 50.6 33.35 51.5 32 51.5C30.65 51.5 29.75 50.6 29.75 49.25V24.5H14C12.65 24.5 11.75 23.6 11.75 22.25C11.75 20.9 12.65 20 14 20H50C51.35 20 52.25 20.9 52.25 22.25C52.25 23.6 51.35 24.5 50 24.5Z" fill="#FCCE00"/>
<path d="M61.9251 8.75018C60.8001 8.30018 59.4501 9.20018 59.2251 10.3252C57.4251 16.8502 56.9751 23.3752 56.9751 29.0002H43.4751C41.0001 29.0002 38.9751 31.0252 38.9751 33.5002V49.2502C38.9751 50.6002 39.8751 51.5002 41.2251 51.5002C42.5751 51.5002 43.4751 50.6002 43.4751 49.2502V40.2502H56.9751V49.2502C56.9751 50.6002 57.8751 51.5002 59.2251 51.5002C60.5751 51.5002 61.4751 50.6002 61.4751 49.2502V31.2502C61.4751 25.1752 61.7001 18.4252 63.7251 11.6752C63.7251 10.3252 63.0501 9.20018 61.9251 8.75018ZM56.7501 35.7502H43.2501V33.5002H56.7501V35.7502Z" fill="#FCCE00"/>
<g clip-path="url(#clip0)">
<path d="M28.1508 3.12202C28.0151 2.98674 27.8279 2.90918 27.6365 2.90918C27.445 2.90918 27.2577 2.98674 27.122 3.12202C26.9867 3.25777 26.9092 3.44493 26.9092 3.63646C26.9092 3.82799 26.9867 4.01512 27.122 4.1509C27.2573 4.28618 27.4449 4.36374 27.6365 4.36374C27.8279 4.36374 28.0151 4.28618 28.1508 4.1509C28.2861 4.01515 28.3637 3.82799 28.3637 3.63646C28.3637 3.44493 28.2861 3.25777 28.1508 3.12202Z" fill="#FCCE00"/>
<path d="M30.5455 0H24.7273C24.3256 0 24 0.325625 24 0.727281V6.54547C24 6.94712 24.3256 7.27275 24.7273 7.27275H30.5455C30.9471 7.27275 31.2727 6.94712 31.2727 6.54547V0.727281C31.2727 0.325625 30.9471 0 30.5455 0ZM29.8182 5.81819H25.4545V1.45453H29.8182V5.81819H29.8182Z" fill="#FCCE00"/>
<path d="M36.8777 3.12202C36.7424 2.98674 36.5553 2.90918 36.3638 2.90918C36.1723 2.90918 35.9846 2.98674 35.8493 3.12202C35.714 3.25777 35.6365 3.44493 35.6365 3.63646C35.6365 3.82799 35.714 4.01512 35.8493 4.1509C35.9846 4.28618 36.1722 4.36374 36.3638 4.36374C36.5552 4.36374 36.7424 4.28618 36.8777 4.1509C37.0134 4.01515 37.091 3.82799 37.091 3.63646C37.091 3.44493 37.0134 3.25777 36.8777 3.12202Z" fill="#FCCE00"/>
<path d="M39.2728 0H33.4546C33.0529 0 32.7273 0.325625 32.7273 0.727281V6.54547C32.7273 6.94712 33.0529 7.27275 33.4546 7.27275H39.2728C39.6744 7.27275 40 6.94712 40 6.54547V0.727281C40 0.325625 39.6744 0 39.2728 0ZM38.5455 5.81819H34.1819V1.45453H38.5455V5.81819H38.5455Z" fill="#FCCE00"/>
<path d="M28.1508 11.8491C28.0151 11.7138 27.8279 11.6362 27.6365 11.6362C27.445 11.6362 27.2577 11.7138 27.122 11.8491C26.9867 11.9848 26.9092 12.172 26.9092 12.3635C26.9092 12.555 26.9867 12.7422 27.122 12.8779C27.2573 13.0132 27.4449 13.0908 27.6365 13.0908C27.8279 13.0908 28.0151 13.0132 28.1508 12.8779C28.2861 12.7422 28.3637 12.555 28.3637 12.3635C28.3637 12.172 28.2861 11.9848 28.1508 11.8491Z" fill="#FCCE00"/>
<path d="M30.5455 8.72705H24.7273C24.3256 8.72705 24 9.05268 24 9.4543V15.2725C24 15.6741 24.3256 15.9998 24.7273 15.9998H30.5455C30.9471 15.9998 31.2727 15.6741 31.2727 15.2725V9.4543C31.2727 9.05268 30.9471 8.72705 30.5455 8.72705ZM29.8182 14.5452H25.4545V10.1816H29.8182V14.5452H29.8182Z" fill="#FCCE00"/>
<path d="M36.8484 11.6362H36.3635C35.9619 11.6362 35.6362 11.9619 35.6362 12.3635C35.6362 12.7652 35.9619 13.0908 36.3635 13.0908H36.8484C37.25 13.0908 37.5756 12.7652 37.5756 12.3635C37.5756 11.9619 37.25 11.6362 36.8484 11.6362Z" fill="#FCCE00"/>
<path d="M39.2726 13.0908C38.871 13.0908 38.5453 13.4164 38.5453 13.8181V14.5454H36.8484C36.4467 14.5454 36.1211 14.871 36.1211 15.2727C36.1211 15.6743 36.4467 15.9999 36.8484 15.9999H39.2726C39.6743 15.9999 39.9999 15.6743 39.9999 15.2726V13.8181C39.9999 13.4164 39.6743 13.0908 39.2726 13.0908Z" fill="#FCCE00"/>
<path d="M33.4546 11.6362C33.0529 11.6362 32.7273 11.9619 32.7273 12.3635V13.3332C32.7273 13.7349 33.0529 14.0605 33.4546 14.0605C33.8562 14.0605 34.1819 13.7349 34.1819 13.3332V12.3635C34.1819 11.9619 33.8562 11.6362 33.4546 11.6362Z" fill="#FCCE00"/>
<path d="M36.8486 8.72705H35.394C34.9924 8.72705 34.6667 9.05267 34.6667 9.45433C34.6667 9.85599 34.9924 10.1816 35.394 10.1816H36.8486C37.2502 10.1816 37.5758 9.85599 37.5758 9.45433C37.5758 9.05267 37.2502 8.72705 36.8486 8.72705Z" fill="#FCCE00"/>
</g>
<defs>
<clipPath id="clip0">
<rect width="16" height="16" fill="white" transform="translate(24)"/>
</clipPath>
</defs>
</svg>
