<svg width="29" height="28" viewBox="0 0 29 28" fill="none" xmlns="http://www.w3.org/2000/svg">
<path d="M2.83335 6.99972C2.52393 6.99972 2.22719 6.8768 2.0084 6.65801C1.7896 6.43921 1.66669 6.14247 1.66669 5.83305V4.66638C1.66669 3.73812 2.03544 2.84789 2.69181 2.19151C3.34819 1.53513 4.23843 1.16638 5.16669 1.16638H6.33335C6.64277 1.16638 6.93952 1.2893 7.15831 1.50809C7.3771 1.72688 7.50002 2.02363 7.50002 2.33305C7.50002 2.64247 7.3771 2.93921 7.15831 3.15801C6.93952 3.3768 6.64277 3.49972 6.33335 3.49972H5.16669C4.85727 3.49972 4.56052 3.62263 4.34173 3.84142C4.12294 4.06022 4.00002 4.35696 4.00002 4.66638V5.83305C4.00002 6.14247 3.8771 6.43921 3.65831 6.65801C3.43952 6.8768 3.14277 6.99972 2.83335 6.99972Z" fill="white"/>
<path d="M26.1667 6.99972C25.8572 6.99972 25.5605 6.8768 25.3417 6.65801C25.1229 6.43921 25 6.14247 25 5.83305V4.66638C25 4.35696 24.8771 4.06022 24.6583 3.84142C24.4395 3.62263 24.1427 3.49972 23.8333 3.49972H22.6667C22.3572 3.49972 22.0605 3.3768 21.8417 3.15801C21.6229 2.93921 21.5 2.64247 21.5 2.33305C21.5 2.02363 21.6229 1.72688 21.8417 1.50809C22.0605 1.2893 22.3572 1.16638 22.6667 1.16638H23.8333C24.7616 1.16638 25.6518 1.53513 26.3082 2.19151C26.9646 2.84789 27.3333 3.73812 27.3333 4.66638V5.83305C27.3333 6.14247 27.2104 6.43921 26.9916 6.65801C26.7728 6.8768 26.4761 6.99972 26.1667 6.99972Z" fill="white"/>
<path d="M6.33335 26.8333H5.16669C4.23843 26.8333 3.34819 26.4646 2.69181 25.8082C2.03544 25.1518 1.66669 24.2616 1.66669 23.3333V22.1667C1.66669 21.8572 1.7896 21.5605 2.0084 21.3417C2.22719 21.1229 2.52393 21 2.83335 21C3.14277 21 3.43952 21.1229 3.65831 21.3417C3.8771 21.5605 4.00002 21.8572 4.00002 22.1667V23.3333C4.00002 23.6427 4.12294 23.9395 4.34173 24.1583C4.56052 24.3771 4.85727 24.5 5.16669 24.5H6.33335C6.64277 24.5 6.93952 24.6229 7.15831 24.8417C7.3771 25.0605 7.50002 25.3572 7.50002 25.6667C7.50002 25.9761 7.3771 26.2728 7.15831 26.4916C6.93952 26.7104 6.64277 26.8333 6.33335 26.8333Z" fill="white"/>
<path d="M23.8333 26.8333H22.6667C22.3572 26.8333 22.0605 26.7104 21.8417 26.4916C21.6229 26.2728 21.5 25.9761 21.5 25.6667C21.5 25.3572 21.6229 25.0605 21.8417 24.8417C22.0605 24.6229 22.3572 24.5 22.6667 24.5H23.8333C24.1427 24.5 24.4395 24.3771 24.6583 24.1583C24.8771 23.9395 25 23.6427 25 23.3333V22.1667C25 21.8572 25.1229 21.5605 25.3417 21.3417C25.5605 21.1229 25.8572 21 26.1667 21C26.4761 21 26.7728 21.1229 26.9916 21.3417C27.2104 21.5605 27.3333 21.8572 27.3333 22.1667V23.3333C27.3333 24.2616 26.9646 25.1518 26.3082 25.8082C25.6518 26.4646 24.7616 26.8333 23.8333 26.8333Z" fill="white"/>
<path d="M5.16666 12.8336H6.33333V15.167H5.16666C4.85725 15.167 4.5605 15.044 4.34171 14.8253C4.12292 14.6065 4 14.3097 4 14.0003C4 13.6909 4.12292 13.3941 4.34171 13.1753C4.5605 12.9565 4.85725 12.8336 5.16666 12.8336Z" fill="white"/>
<path d="M25.0001 14.0003C25.0001 14.3097 24.8771 14.6065 24.6583 14.8253C24.4395 15.044 24.1428 15.167 23.8334 15.167H22.6667V12.8336H23.8334C24.1428 12.8336 24.4395 12.9565 24.6583 13.1753C24.8771 13.3941 25.0001 13.6909 25.0001 14.0003Z" fill="white"/>
<path d="M22.6666 9.33362V12.8336H6.3333V9.33362C6.33607 8.40621 6.70571 7.51758 7.36148 6.8618C8.01726 6.20603 8.90589 5.83639 9.8333 5.83362H19.1666C20.094 5.83639 20.9827 6.20603 21.6384 6.8618C22.2942 7.51758 22.6639 8.40621 22.6666 9.33362Z" fill="white"/>
<path d="M6.3333 15.1664H22.6666V18.6664C22.6639 19.5938 22.2942 20.4824 21.6384 21.1382C20.9827 21.794 20.094 22.1636 19.1666 22.1664H9.8333C8.90589 22.1636 8.01726 21.794 7.36148 21.1382C6.70571 20.4824 6.33607 19.5938 6.3333 18.6664V15.1664Z" fill="white"/>
</svg>
