<svg width="21" height="21" viewBox="0 0 21 21" fill="none" xmlns="http://www.w3.org/2000/svg">
<g clip-path="url(#clip0_3818_7745)">
<path d="M12.2853 8.8144C12.2853 10.0195 11.305 10.9998 10.0999 10.9998C8.89485 10.9998 7.91455 10.0195 7.91455 8.8144C7.91455 7.60933 8.89485 6.62903 10.0999 6.62903C11.305 6.62903 12.2853 7.60933 12.2853 8.8144ZM18.5292 8.8144C18.5292 16.1769 10.8458 20.1034 10.5189 20.2667C10.3868 20.3328 10.2432 20.3656 10.0999 20.3656C9.95662 20.3656 9.81301 20.3328 9.68095 20.2667C9.35408 20.1034 1.67065 16.1769 1.67065 8.8144C1.67065 4.16644 5.45196 0.385132 10.0999 0.385132C14.7479 0.385132 18.5292 4.16644 18.5292 8.8144ZM14.1585 8.8144C14.1585 6.57659 12.3377 4.75586 10.0999 4.75586C7.8621 4.75586 6.04138 6.57659 6.04138 8.8144C6.04138 11.0522 7.8621 12.8729 10.0999 12.8729C12.3377 12.8729 14.1585 11.0522 14.1585 8.8144Z" fill="#57616A"/>
</g>
<defs>
<clipPath id="clip0_3818_7745">
<rect width="20" height="20" fill="white" transform="translate(0.099884 0.375366)"/>
</clipPath>
</defs>
</svg>
