<svg width="21" height="21" viewBox="0 0 21 21" fill="none" xmlns="http://www.w3.org/2000/svg">
<g clip-path="url(#clip0_3954_9518)">
<path d="M11.1885 0.100006H8.32457C7.94588 0.100006 7.63818 0.407706 7.63818 0.786395C7.63818 1.16509 7.94588 1.47278 8.32457 1.47278H11.1885C11.5672 1.47278 11.8749 1.16509 11.8749 0.786395C11.8749 0.407706 11.5672 0.100006 11.1885 0.100006Z" fill="#07A279"/>
<path d="M18.8335 4.62071L16.9636 2.7509C16.7033 2.49054 16.2773 2.49054 15.9932 2.7509C15.7329 3.01126 15.7329 3.43729 15.9932 3.7213L17.8394 5.56745C17.9814 5.70948 18.1471 5.75682 18.3128 5.75682C18.4785 5.75682 18.6678 5.68583 18.7862 5.56745C19.0938 5.3071 19.0938 4.88106 18.8335 4.62071Z" fill="#07A279"/>
<path d="M9.74459 2.9639C5.01085 2.9639 1.17651 6.79823 1.17651 11.532C1.17651 16.2657 5.01085 20.1 9.74459 20.1C14.4783 20.1 18.3126 16.2657 18.3126 11.532C18.3126 6.79823 14.4783 2.9639 9.74459 2.9639ZM13.2949 12.455H9.74459C9.3659 12.455 9.0582 12.1473 9.0582 11.7686V7.31895C9.0582 6.94026 9.3659 6.63256 9.74459 6.63256C10.1233 6.63256 10.431 6.94026 10.431 7.31895V11.1059H13.2949C13.6736 11.1059 13.9813 11.4136 13.9813 11.7923C13.9813 12.1474 13.6736 12.455 13.2949 12.455Z" fill="#07A279"/>
</g>
<defs>
<clipPath id="clip0_3954_9518">
<rect width="20" height="20" fill="white" transform="translate(0.0998535 0.100006)"/>
</clipPath>
</defs>
</svg>
