<svg width="8" height="11" viewBox="0 0 8 11" fill="none" xmlns="http://www.w3.org/2000/svg">
<path d="M3.86551 0.524414C1.73407 0.524414 0 2.25848 0 4.38993C0 5.4675 0.589198 6.769 1.75123 8.25829C2.58118 9.32198 3.40147 10.0912 3.43596 10.1234L3.86547 10.5244L4.29494 10.1234C4.32947 10.0912 5.14976 9.32198 5.97971 8.25829C7.14178 6.769 7.73098 5.4675 7.73098 4.38993C7.73107 2.25853 5.997 0.524414 3.86551 0.524414ZM3.86551 5.64053C3.17595 5.64053 2.61495 5.07953 2.61495 4.38997C2.61495 3.70041 3.17595 3.13941 3.86551 3.13941C4.55511 3.13941 5.11612 3.70041 5.11612 4.38997C5.11612 5.07953 4.55511 5.64053 3.86551 5.64053Z" fill="white"/>
</svg>
