<svg width="10" height="11" viewBox="0 0 10 11" fill="none" xmlns="http://www.w3.org/2000/svg">
<path d="M9.33501 5.65401C9.29478 5.57169 9.29478 5.47727 9.33501 5.39497L9.70798 4.63198C9.91563 4.20715 9.7511 3.7008 9.33341 3.47918L8.58322 3.08113C8.50228 3.03821 8.44679 2.9618 8.43095 2.87158L8.28423 2.03508C8.20254 1.56934 7.77172 1.25637 7.30362 1.3226L6.46274 1.44154C6.37198 1.45435 6.28223 1.42518 6.21639 1.36148L5.60603 0.771014C5.26617 0.442224 4.73375 0.442204 4.39391 0.771014L3.78352 1.36154C3.71766 1.42525 3.62791 1.45437 3.53717 1.4416L2.6963 1.32266C2.22804 1.25639 1.79738 1.56939 1.71568 2.03514L1.56896 2.8716C1.55312 2.96184 1.49763 3.03822 1.41672 3.08117L0.666526 3.47922C0.248833 3.70082 0.0843026 4.20721 0.291958 4.63204L0.664905 5.39501C0.705139 5.47733 0.705139 5.57174 0.664905 5.65405L0.291938 6.41702C0.084283 6.84184 0.248813 7.34819 0.666506 7.56981L1.4167 7.96786C1.49763 8.01079 1.55312 8.0872 1.56896 8.17741L1.71568 9.01392C1.79005 9.4379 2.15361 9.73525 2.57144 9.73521C2.61259 9.73521 2.65435 9.73232 2.69632 9.72638L3.53719 9.60744C3.62788 9.59456 3.71768 9.6238 3.78354 9.68749L4.39391 10.278C4.56387 10.4424 4.78187 10.5246 4.99996 10.5245C5.21798 10.5245 5.43613 10.4423 5.60601 10.278L6.21639 9.68749C6.28225 9.6238 6.37202 9.5947 6.46274 9.60744L7.30362 9.72638C7.77193 9.79263 8.20254 9.47964 8.28423 9.0139L8.43097 8.17743C8.44681 8.0872 8.5023 8.01081 8.58322 7.96786L9.33341 7.56981C9.7511 7.34821 9.91563 6.84183 9.70798 6.417L9.33501 5.65401ZM3.84643 2.92906C4.42947 2.92906 4.90382 3.40342 4.90382 3.98647C4.90382 4.56952 4.42947 5.04387 3.84643 5.04387C3.26339 5.04387 2.78903 4.56952 2.78903 3.98647C2.78903 3.40342 3.26339 2.92906 3.84643 2.92906ZM3.30065 7.63161C3.24434 7.68792 3.17053 7.71608 3.09675 7.71608C3.02296 7.71608 2.94913 7.68794 2.89284 7.63161C2.78022 7.51899 2.78022 7.3364 2.89284 7.22378L6.69924 3.41735C6.81184 3.30473 6.99446 3.30473 7.10707 3.41735C7.21969 3.52996 7.21969 3.71256 7.10707 3.82518L3.30065 7.63161ZM6.15345 8.11993C5.5704 8.11993 5.09605 7.64558 5.09605 7.06253C5.09605 6.47948 5.5704 6.00512 6.15345 6.00512C6.73649 6.00512 7.21084 6.47948 7.21084 7.06253C7.21084 7.64558 6.73649 8.11993 6.15345 8.11993Z" fill="white"/>
</svg>
