<svg width="14" height="15" viewBox="0 0 14 15" fill="none" xmlns="http://www.w3.org/2000/svg">
<path fill-rule="evenodd" clip-rule="evenodd" d="M14 7.02783C14 10.8938 10.866 14.0278 7 14.0278C3.13401 14.0278 0 10.8938 0 7.02783C0 3.16184 3.13401 0.027832 7 0.027832C10.866 0.027832 14 3.16184 14 7.02783ZM6.80762 4.43286C6.53425 4.15949 6.09104 4.15949 5.81767 4.43286C5.5443 4.70622 5.5443 5.14944 5.81767 5.42281L7.4227 7.02783L5.81767 8.63286C5.5443 8.90622 5.5443 9.34944 5.81767 9.62281C6.09104 9.89617 6.53425 9.89617 6.80762 9.62281L8.90762 7.52281C9.18099 7.24944 9.18099 6.80622 8.90762 6.53286L6.80762 4.43286Z" fill="#303C54"/>
</svg>
