<svg width="16" height="16" viewBox="0 0 16 16" fill="none" xmlns="http://www.w3.org/2000/svg">
<path d="M8 0C3.58189 0 0 3.58189 0 8C0 12.4181 3.58189 16 8 16C12.4181 16 16 12.4181 16 8C16 3.58189 12.4181 0 8 0ZM10.7918 12.0527C10.5514 12.1613 10.3012 12.2535 10.0444 12.3226C9.06996 12.5926 8.09547 12.6025 7.12428 12.2864C5.95226 11.9078 5.17531 11.1078 4.71111 9.98848C4.62222 9.77119 4.56296 9.54403 4.49383 9.31687H3.57531C3.42058 9.31687 3.29877 9.19177 3.29877 9.04033V8.4214C3.29877 8.26667 3.42387 8.14486 3.57531 8.14486H4.3358C4.3358 7.97366 4.3358 7.81235 4.3358 7.64115H3.57531C3.42058 7.64115 3.29877 7.51605 3.29877 7.36461V6.74568C3.29877 6.59095 3.42387 6.46914 3.57531 6.46914H4.54321L4.57613 6.37366C4.83621 5.54733 5.28395 4.83951 5.97202 4.30617C6.51852 3.88148 7.15062 3.64774 7.82881 3.53909C8.79342 3.38436 9.72839 3.51605 10.6337 3.8716C10.693 3.89465 10.749 3.92099 10.8049 3.95391C11.0222 4.0823 11.0782 4.24362 10.9827 4.47737C10.8807 4.72099 10.7786 4.9679 10.6667 5.20823C10.5712 5.41564 10.4395 5.48148 10.2156 5.4321C9.90946 5.36296 9.60988 5.26749 9.3037 5.20494C8.65844 5.07325 8.01646 5.06667 7.38765 5.31358C6.84774 5.52757 6.51852 5.93909 6.29465 6.45267C6.29136 6.45926 6.29136 6.46584 6.29136 6.47243H8.17119C8.32593 6.47243 8.44774 6.59753 8.44774 6.74897V7.3679C8.44774 7.52263 8.32263 7.64444 8.17119 7.64444H6.02469C6.0214 7.80905 6.02469 7.97366 6.02469 8.14815H8.17449C8.32922 8.14815 8.45103 8.27325 8.45103 8.42469V9.04362C8.45103 9.19835 8.32593 9.32016 8.17449 9.32016H6.21235C6.44938 9.99835 6.83457 10.5218 7.55885 10.749C8.13827 10.93 8.72099 10.9202 9.307 10.7984C9.60988 10.7358 9.90617 10.6436 10.2091 10.5745C10.4461 10.5218 10.5745 10.5844 10.6733 10.8016C10.7852 11.0453 10.8905 11.2922 10.9893 11.5424C11.0815 11.7663 11.0222 11.9473 10.7918 12.0527Z" fill="#FFC107"/>
</svg>
