<svg id="Layer_1" data-name="Layer 1" xmlns="http://www.w3.org/2000/svg" xmlns:xlink="http://www.w3.org/1999/xlink" viewBox="0 0 275.1 272.36"><defs><style>.cls-1{fill:url(#linear-gradient);}.cls-2{fill:url(#linear-gradient-2);}.cls-3{fill:url(#linear-gradient-3);}.cls-4{fill:url(#linear-gradient-4);}</style><linearGradient id="linear-gradient" x1="31.4" y1="40.4" x2="31.4" y2="1.49" gradientTransform="matrix(1, 0, 0, -1, 0, 274)" gradientUnits="userSpaceOnUse"><stop offset="0" stop-color="#ff9f55"/><stop offset="1" stop-color="#ffd255"/></linearGradient><linearGradient id="linear-gradient-2" x1="248.42" y1="20.98" x2="287.2" y2="20.98" xlink:href="#linear-gradient"/><linearGradient id="linear-gradient-3" x1="267.78" y1="234.96" x2="267.78" y2="273.87" xlink:href="#linear-gradient"/><linearGradient id="linear-gradient-4" x1="50.67" y1="254.53" x2="11.89" y2="254.53" xlink:href="#linear-gradient"/></defs><title>qr-code-scan</title><path class="cls-1" d="M13.9,233.6a1.76,1.76,0,0,1,1.76,1.77v31.68a1.77,1.77,0,0,0,1.76,1.77H49a1.77,1.77,0,0,1,0,3.54H13.8A1.76,1.76,0,0,1,12,270.59V235.37A1.9,1.9,0,0,1,13.9,233.6Z" transform="translate(-12.04 -0.09)"/><path class="cls-2" d="M248.42,270.59a1.76,1.76,0,0,1,1.76-1.77h31.57a1.77,1.77,0,0,0,1.77-1.77V235.37a1.77,1.77,0,1,1,3.53,0v35.31a1.77,1.77,0,0,1-1.77,1.77H250.09A1.84,1.84,0,0,1,248.42,270.59Z" transform="translate(-12.04 -0.09)"/><path class="cls-3" d="M285.28,39a1.76,1.76,0,0,1-1.76-1.77V5.59a1.77,1.77,0,0,0-1.77-1.77H250.18a1.77,1.77,0,0,1,0-3.54h35.2a1.76,1.76,0,0,1,1.76,1.77V37.37A1.84,1.84,0,0,1,285.28,39Z" transform="translate(-12.04 -0.09)"/><path class="cls-4" d="M50.67,1.86A1.77,1.77,0,0,1,48.9,3.63H17.33A1.76,1.76,0,0,0,15.57,5.4V37.09a1.77,1.77,0,1,1-3.53,0V1.86A1.76,1.76,0,0,1,13.8.09H49A1.82,1.82,0,0,1,50.67,1.86Z" transform="translate(-12.04 -0.09)"/></svg>