<svg width="33" height="16" viewBox="0 0 33 16" fill="none" xmlns="http://www.w3.org/2000/svg">
<rect y="0.359619" width="32.8643" height="15.3975" rx="3" fill="white"/>
<path d="M5.83594 11.5813H7.0957V4.5354H5.84082L4 5.82935V7.01587L5.75293 5.77563H5.83594V11.5813Z" fill="black"/>
<path d="M9.5293 6.62036H10.7109C10.7109 5.87817 11.1992 5.37036 11.9658 5.37036C12.7031 5.37036 13.1426 5.86353 13.1426 6.50317C13.1426 7.04028 12.9277 7.3772 12.0391 8.27563L9.59766 10.7317V11.5813H14.4902V10.5364H11.3066V10.4534L12.8203 8.96411C14.0312 7.77759 14.3877 7.2063 14.3877 6.38599C14.3877 5.21411 13.4355 4.35962 12.0342 4.35962C10.5645 4.35962 9.5293 5.28735 9.5293 6.62036Z" fill="black"/>
<path d="M18.0176 8.43677H18.9014C19.7705 8.43677 20.2979 8.87134 20.2979 9.57935C20.2979 10.2629 19.7266 10.7219 18.916 10.7219C18.1006 10.7219 17.5488 10.302 17.4951 9.64771H16.2891C16.3477 10.9221 17.3975 11.7571 18.9307 11.7571C20.4541 11.7571 21.5869 10.8782 21.5869 9.66724C21.5869 8.70532 20.9863 8.08521 20.0293 7.93872V7.85571C20.7764 7.65552 21.3086 7.09399 21.3135 6.24438C21.3184 5.23364 20.4736 4.35962 18.9746 4.35962C17.4463 4.35962 16.4893 5.22388 16.4258 6.45923H17.6074C17.6611 5.7561 18.1396 5.36548 18.9062 5.36548C19.6533 5.36548 20.0977 5.82446 20.0977 6.40552C20.0977 7.04517 19.5996 7.49438 18.877 7.49438H18.0176V8.43677Z" fill="black"/>
<path d="M26.7061 11.5813H27.9121V10.2288H28.8643V9.18872H27.9121V4.5354H26.1348C25.1777 5.99048 24.1768 7.61157 23.2637 9.19849V10.2288H26.7061V11.5813ZM24.4307 9.14478C25.1191 7.94849 25.9346 6.64478 26.6572 5.54126H26.7256V9.21802H24.4307V9.14478Z" fill="black"/>
</svg>
