<svg width="16" height="16" viewBox="0 0 16 16" fill="none" xmlns="http://www.w3.org/2000/svg">
<path d="M15.9583 6.13742C15.8536 5.81343 15.5662 5.58333 15.2262 5.55269L10.6082 5.13336L8.78208 0.859205C8.64744 0.545965 8.34079 0.343201 8.00008 0.343201C7.65938 0.343201 7.35273 0.545965 7.21808 0.859938L5.39198 5.13336L0.773211 5.55269C0.433847 5.58406 0.147219 5.81343 0.0418692 6.13742C-0.0634802 6.4614 0.0338123 6.81676 0.290533 7.04076L3.78122 10.1021L2.7519 14.6363C2.67658 14.9697 2.80598 15.3143 3.0826 15.5142C3.23128 15.6217 3.40524 15.6764 3.58066 15.6764C3.73191 15.6764 3.88193 15.6356 4.01658 15.555L8.00008 13.1742L11.9821 15.555C12.2735 15.7303 12.6408 15.7143 12.9168 15.5142C13.1936 15.3137 13.3229 14.9689 13.2475 14.6363L12.2182 10.1021L15.7089 7.04137C15.9656 6.81676 16.0636 6.46201 15.9583 6.13742Z" fill="#FFC107"/>
</svg>
