<svg width="18" height="16" viewBox="0 0 18 16" fill="none" xmlns="http://www.w3.org/2000/svg">
<path d="M16.6316 6.10808H15.1258V5.10416H2.00784V6.10808H0.501961C0.224706 6.10808 0 6.33278 0 6.61004V7.61396C0 8.82586 0.86366 9.83971 2.00784 10.0729V13.6375C2.00784 14.4691 2.68209 15.1434 3.51373 15.1434H13.6199C14.4515 15.1434 15.1258 14.4691 15.1258 13.6375V10.0729C16.2699 9.83971 17.1336 8.82586 17.1336 7.61396V6.61004C17.1336 6.33278 16.9089 6.10808 16.6316 6.10808ZM2.00784 9.02742C1.42484 8.81945 1.00392 8.26756 1.00392 7.61396V7.112H2.00784V9.02742ZM12.0146 10.3103C11.7523 11.6836 10.6286 12.8072 9.25542 13.0696C6.78444 13.5418 4.6468 11.4043 5.11895 8.93318C5.38144 7.55984 6.50497 6.43644 7.87817 6.17396C10.3493 5.7018 12.4868 7.83932 12.0146 10.3103ZM16.1297 7.61396C16.1297 8.26756 15.7088 8.81945 15.1258 9.02742V7.112H16.1297V7.61396Z" fill="#FFC107"/>
<path d="M1.50587 4.10025H15.6277C15.905 4.10025 16.1297 3.87555 16.1297 3.59829C16.1297 2.76666 15.4554 2.09241 14.6238 2.09241H12.0805V1.59045C12.0805 0.758813 11.4063 0.0845642 10.5746 0.0845642H6.55894C5.72731 0.0845642 5.05306 0.758813 5.05306 1.59045V2.09241H2.50979C1.67815 2.09241 1.00391 2.76666 1.00391 3.59829C1.00391 3.87555 1.22861 4.10025 1.50587 4.10025ZM6.05698 1.59045C6.05698 1.31345 6.28195 1.08849 6.55894 1.08849H10.5746C10.8516 1.08849 11.0766 1.31345 11.0766 1.59045V2.09241H6.05698V1.59045Z" fill="#FFC107"/>
<path d="M8.56677 7.112C8.84416 7.112 9.06873 7.33657 9.06873 7.61396V9.11984H10.5746C10.852 9.11984 11.0766 9.34442 11.0766 9.6218C11.0766 8.23801 9.95056 7.112 8.56677 7.112Z" fill="#FFC107"/>
<path d="M10.5746 10.1238H8.56679C8.28953 10.1238 8.06483 9.89906 8.06483 9.6218V7.61396C8.06483 7.33657 8.2894 7.112 8.56679 7.112C6.96522 7.112 5.70901 8.6201 6.14404 10.2907C6.36365 11.1346 7.05398 11.8249 7.8979 12.0445C9.56849 12.4796 11.0766 11.2234 11.0766 9.6218C11.0766 9.89919 10.852 10.1238 10.5746 10.1238Z" fill="#FFC107"/>
</svg>
