<svg width="65" height="53" viewBox="0 0 65 53" fill="none" xmlns="http://www.w3.org/2000/svg">
<g clip-path="url(#clip0_3181_4869)">
<path d="M21.1741 29.3419H7.67407C7.67407 23.7169 7.22407 17.1919 5.42407 10.6669C4.97407 9.54194 3.84907 8.86694 2.72407 9.09194C1.59907 9.31694 0.924067 10.6669 1.14907 11.7919C3.17407 18.7669 3.39907 25.2919 3.39907 31.3669V49.3669C3.39907 50.7169 4.29907 51.6169 5.64907 51.6169C6.99907 51.6169 7.89907 50.7169 7.89907 49.3669V40.3669H21.3991V49.3669C21.3991 50.7169 22.2991 51.6169 23.6491 51.6169C24.9991 51.6169 25.8991 50.7169 25.8991 49.3669V33.6169C25.6741 31.3669 23.6491 29.3419 21.1741 29.3419ZM21.1741 36.0919H7.67407V33.8419H21.1741V36.0919Z" fill="#FCCE00"/>
<path d="M50.4241 24.8418H34.6741V49.5918C34.6741 50.9418 33.7741 51.8418 32.4241 51.8418C31.0741 51.8418 30.1741 50.9418 30.1741 49.5918V24.8418H14.4241C13.0741 24.8418 12.1741 23.9418 12.1741 22.5918C12.1741 21.2418 13.0741 20.3418 14.4241 20.3418H50.4241C51.7741 20.3418 52.6741 21.2418 52.6741 22.5918C52.6741 23.9418 51.7741 24.8418 50.4241 24.8418Z" fill="#FCCE00"/>
<path d="M62.3492 9.09197C61.2242 8.64197 59.8742 9.54197 59.6492 10.667C57.8492 17.192 57.3992 23.717 57.3992 29.342H43.8992C41.4242 29.342 39.3992 31.367 39.3992 33.842V49.592C39.3992 50.942 40.2992 51.842 41.6492 51.842C42.9992 51.842 43.8992 50.942 43.8992 49.592V40.592H57.3992V49.592C57.3992 50.942 58.2992 51.842 59.6492 51.842C60.9992 51.842 61.8992 50.942 61.8992 49.592V31.592C61.8992 25.517 62.1242 18.767 64.1492 12.017C64.1492 10.667 63.4742 9.54197 62.3492 9.09197ZM57.1742 36.092H43.6742V33.842H57.1742V36.092Z" fill="#FCCE00"/>
<g clip-path="url(#clip1_3181_4869)">
<path d="M28.5749 3.46382C28.4392 3.32854 28.252 3.25098 28.0605 3.25098C27.869 3.25098 27.6818 3.32854 27.5461 3.46382C27.4108 3.59957 27.3333 3.78673 27.3333 3.97826C27.3333 4.16979 27.4108 4.35691 27.5461 4.49269C27.6814 4.62798 27.869 4.70554 28.0605 4.70554C28.252 4.70554 28.4392 4.62798 28.5749 4.49269C28.7102 4.35695 28.7878 4.16979 28.7878 3.97826C28.7878 3.78673 28.7102 3.59957 28.5749 3.46382Z" fill="#FCCE00"/>
<path d="M30.9695 0.341797H25.1514C24.7497 0.341797 24.4241 0.667422 24.4241 1.06908V6.88726C24.4241 7.28892 24.7497 7.61455 25.1514 7.61455H30.9695C31.3712 7.61455 31.6968 7.28892 31.6968 6.88726V1.06908C31.6968 0.667422 31.3712 0.341797 30.9695 0.341797ZM30.2423 6.15998H25.8786V1.79633H30.2422V6.15998H30.2423Z" fill="#FCCE00"/>
<path d="M37.3018 3.46382C37.1665 3.32854 36.9793 3.25098 36.7878 3.25098C36.5963 3.25098 36.4087 3.32854 36.2734 3.46382C36.1381 3.59957 36.0605 3.78673 36.0605 3.97826C36.0605 4.16979 36.1381 4.35691 36.2734 4.49269C36.4087 4.62798 36.5963 4.70554 36.7878 4.70554C36.9793 4.70554 37.1665 4.62798 37.3018 4.49269C37.4375 4.35695 37.5151 4.16979 37.5151 3.97826C37.5151 3.78673 37.4375 3.59957 37.3018 3.46382Z" fill="#FCCE00"/>
<path d="M39.6968 0.341797H33.8786C33.477 0.341797 33.1514 0.667422 33.1514 1.06908V6.88726C33.1514 7.28892 33.477 7.61455 33.8786 7.61455H39.6968C40.0985 7.61455 40.4241 7.28892 40.4241 6.88726V1.06908C40.4241 0.667422 40.0985 0.341797 39.6968 0.341797ZM38.9696 6.15998H34.6059V1.79633H38.9696V6.15998H38.9696Z" fill="#FCCE00"/>
<path d="M28.5749 12.1909C28.4392 12.0556 28.252 11.978 28.0605 11.978C27.869 11.978 27.6818 12.0556 27.5461 12.1909C27.4108 12.3266 27.3333 12.5138 27.3333 12.7053C27.3333 12.8968 27.4108 13.084 27.5461 13.2197C27.6814 13.355 27.869 13.4326 28.0605 13.4326C28.252 13.4326 28.4392 13.355 28.5749 13.2197C28.7102 13.084 28.7878 12.8968 28.7878 12.7053C28.7878 12.5138 28.7102 12.3266 28.5749 12.1909Z" fill="#FCCE00"/>
<path d="M30.9695 9.06885H25.1514C24.7497 9.06885 24.4241 9.39447 24.4241 9.7961V15.6143C24.4241 16.0159 24.7497 16.3416 25.1514 16.3416H30.9695C31.3712 16.3416 31.6968 16.0159 31.6968 15.6143V9.7961C31.6968 9.39447 31.3712 9.06885 30.9695 9.06885ZM30.2423 14.887H25.8786V10.5234H30.2422V14.887H30.2423Z" fill="#FCCE00"/>
<path d="M37.2724 11.978H36.7876C36.3859 11.978 36.0603 12.3037 36.0603 12.7053C36.0603 13.107 36.3859 13.4326 36.7876 13.4326H37.2724C37.6741 13.4326 37.9997 13.107 37.9997 12.7053C37.9997 12.3037 37.6741 11.978 37.2724 11.978Z" fill="#FCCE00"/>
<path d="M39.6967 13.4326C39.295 13.4326 38.9694 13.7582 38.9694 14.1599V14.8872H37.2724C36.8708 14.8872 36.5452 15.2128 36.5452 15.6145C36.5452 16.0161 36.8708 16.3417 37.2724 16.3417H39.6967C40.0984 16.3417 40.424 16.0161 40.424 15.6144V14.1599C40.424 13.7582 40.0984 13.4326 39.6967 13.4326Z" fill="#FCCE00"/>
<path d="M33.8786 11.978C33.477 11.978 33.1514 12.3037 33.1514 12.7053V13.675C33.1514 14.0767 33.477 14.4023 33.8786 14.4023C34.2803 14.4023 34.6059 14.0767 34.6059 13.675V12.7053C34.6059 12.3037 34.2803 11.978 33.8786 11.978Z" fill="#FCCE00"/>
<path d="M37.2726 9.06885H35.8181C35.4164 9.06885 35.0908 9.39447 35.0908 9.79613C35.0908 10.1978 35.4164 10.5234 35.8181 10.5234H37.2726C37.6743 10.5234 37.9999 10.1978 37.9999 9.79613C37.9999 9.39447 37.6743 9.06885 37.2726 9.06885Z" fill="#FCCE00"/>
</g>
</g>
<defs>
<clipPath id="clip0_3181_4869">
<rect width="64" height="52" fill="white" transform="translate(0.424072 0.341797)"/>
</clipPath>
<clipPath id="clip1_3181_4869">
<rect width="16" height="16" fill="white" transform="translate(24.4241 0.341797)"/>
</clipPath>
</defs>
</svg>
