<svg width="576" height="560" viewBox="0 0 576 560" fill="none" xmlns="http://www.w3.org/2000/svg">
<path fill-rule="evenodd" clip-rule="evenodd" d="M28.9111 552.393C22.6445 552.393 17.5645 547.285 17.5645 540.983V480.13C17.5645 478.03 15.8711 476.327 13.7822 476.327C11.6934 476.327 10 478.03 10 480.13V540.983C10 551.486 18.4668 560 28.9111 560H89.4268C91.5157 560 93.209 558.297 93.209 556.197C93.209 554.096 91.5157 552.393 89.4268 552.393H28.9111Z" fill="#FCCE00"/>
<path fill-rule="evenodd" clip-rule="evenodd" d="M547.086 552.393C553.353 552.393 558.433 547.285 558.433 540.983V480.13C558.433 478.03 560.126 476.327 562.215 476.327C564.304 476.327 565.997 478.03 565.997 480.13V540.983C565.997 551.486 557.53 560 547.086 560H486.57C484.481 560 482.788 558.297 482.788 556.197C482.788 554.096 484.481 552.393 486.57 552.393H547.086Z" fill="#FCCE00"/>
<path fill-rule="evenodd" clip-rule="evenodd" d="M547.089 7.60663C553.355 7.60663 558.436 12.715 558.436 19.0166V79.8696C558.436 81.9702 560.129 83.673 562.218 83.673C564.307 83.673 566 81.9702 566 79.8696V19.0166C566 8.51401 557.533 0 547.089 0H486.573C484.484 0 482.791 1.7028 482.791 3.80332C482.791 5.90383 484.484 7.60663 486.573 7.60663H547.089Z" fill="#FCCE00"/>
<path fill-rule="evenodd" clip-rule="evenodd" d="M28.9111 7.60663C22.6445 7.60663 17.5645 12.715 17.5645 19.0166V79.8696C17.5645 81.9702 15.8711 83.6729 13.7822 83.6729C11.6934 83.6729 10 81.9702 10 79.8696V19.0166C10 8.51401 18.4668 0 28.9111 0H89.4268C91.5157 0 93.209 1.7028 93.209 3.80332C93.209 5.90383 91.5157 7.60663 89.4268 7.60663H28.9111Z" fill="#FCCE00"/>

<defs>
<filter id="filter0_d_5664_16902" x="0.883301" y="286.99" width="574.204" height="28.4307" filterUnits="userSpaceOnUse" color-interpolation-filters="sRGB">
<feFlood flood-opacity="0" result="BackgroundImageFix"/>
<feColorMatrix in="SourceAlpha" type="matrix" values="0 0 0 0 0 0 0 0 0 0 0 0 0 0 0 0 0 0 127 0" result="hardAlpha"/>
<feOffset dy="4"/>
<feGaussianBlur stdDeviation="5.5"/>
<feColorMatrix type="matrix" values="0 0 0 0 1 0 0 0 0 0.756863 0 0 0 0 0.027451 0 0 0 1 0"/>
<feBlend mode="normal" in2="BackgroundImageFix" result="effect1_dropShadow_5664_16902"/>
<feBlend mode="normal" in="SourceGraphic" in2="effect1_dropShadow_5664_16902" result="shape"/>
</filter>
</defs>
</svg>