<svg width="167" height="167" viewBox="0 0 167 167" fill="none" xmlns="http://www.w3.org/2000/svg">
<path fill-rule="evenodd" clip-rule="evenodd" d="M54.3994 0.781738H59.7541V6.12818H54.3994V0.781738ZM32.9807 96.7691H38.3354V102.116H32.9807V96.7691ZM27.6261 102.116H22.3959V112.808H32.9807V118.155H17.0413V112.808H11.6866V118.155H0.977295V112.808H6.33198V102.116H17.0413V96.7691H11.6866V91.4227H17.0413V75.5077H22.3959V80.8541H27.6261V75.5077H32.9807V86.0762H22.3959V91.4227H32.9807V96.7691L27.6261 96.7691V102.116ZM27.6261 102.116L27.6261 107.462H32.9807V102.116L27.6261 102.116ZM43.6901 112.808V118.155H54.3994V112.808H59.7541V107.462H54.3994V102.116H49.0448V96.7691H43.6901V102.116L38.3354 102.116V112.808H43.6901ZM43.6901 112.808H49.0448V107.462H43.6901V112.808ZM134.595 91.4226H129.24V96.7692H134.595V91.4226ZM123.886 102.116H134.595V107.462H123.886V102.116ZM134.595 64.8148H129.24V70.1612H134.595V64.8148ZM86.4029 128.848H91.7576V134.194H86.4029V128.848ZM54.3994 123.501H49.0448V128.848H54.2749V134.07H49.0448V139.416H54.3994V144.763H59.7541V150.109H49.0448V160.802H54.3994V166.149H65.1088V160.802H70.4635V166.149H81.1728V160.802H86.5275V155.456H70.4635V150.109H86.5275V144.763H91.8821V150.109H97.2368V139.416H81.0483V144.763H75.6936V134.07H81.0483V128.723H64.9842V118.031H59.6296V128.723H54.3994V123.501ZM65.1088 160.802H59.7541V155.456H65.1088V160.802ZM38.3354 70.1612H43.6901V75.5077H38.3354V70.1612ZM129.24 54.1218H123.886V48.7754H118.531V54.1219H113.176V48.7754H107.822L107.822 43.429H118.531V38.0825H102.467V48.7754H86.4029V54.1219H91.7576V59.4683H86.4029L86.4029 64.8148H81.1727V59.4683H70.4635L70.4635 64.8148H59.7541V59.4683H54.3994L54.3994 54.1219H59.7541V48.7754H65.1088V54.1219H81.1728V48.7754H75.8181V43.429H86.4029V38.0825H81.1728V32.7361H70.4635V27.514H75.8181V22.1675L81.1728 22.1675V27.514H86.403V22.1675L91.7576 22.1675V27.514H102.467V32.7361H107.822V27.514L113.176 27.514V32.8604H118.531V27.514H113.176L113.176 22.1675H118.531V6.12819H113.176V0.781738H97.1123V6.12819L81.1728 6.12818L81.1727 0.781738H70.4634V6.12819H65.1087V11.4746H59.7541V16.8211H54.3994V11.4746H49.0448V22.1675H65.1088V27.514H54.3994V32.7361H49.0448V38.0825H59.7541V43.429H49.0448V48.7754L32.9808 48.7754V54.1219H27.6261V48.7754H17.0413V54.1219H11.6866V48.7754H6.33199V54.1219H0.977295V64.8148H11.6866V70.1612H22.396V64.8148H43.6901V59.4683H49.0448V70.1612H54.3994V75.5077L49.0448 75.5077L49.0448 80.8541H38.3354V86.0762H43.6901V91.4227H59.7541V86.0762H65.1088V91.4227H75.8182L75.8181 96.7691H70.4635V102.116H86.4029V91.4226L75.8182 91.4227V86.0763H86.4029V80.8541L91.7576 80.8541V91.4227H97.1123V96.7691H91.7576V102.116H102.467V96.7691H113.176V91.4227H118.531L118.531 96.7692H123.886V91.4226L118.531 91.4227V86.0762H123.886V80.8541H129.24V75.5077H118.531V80.8541H113.176V75.5077H107.822V91.4227H102.467V86.0762H97.1123V80.8541L102.467 80.8541V75.5077H97.1123L97.1123 80.8541H91.7576V70.1612H86.4029V64.8148L97.1123 64.8148V70.1612H123.886V64.8148H113.176V59.4683L118.531 59.4683V54.1219L123.886 54.1218V59.4683H129.24V54.1218ZM81.1728 75.5077L81.1727 64.8148H70.4635V70.1612H75.8182V75.5077L65.1088 75.5077V70.1612L59.7541 70.1612V64.8148L54.3994 64.8148V70.1612H59.7541V75.5077H54.3994L54.3994 80.8541H49.0448V86.0762H54.3994V80.8541H59.7541L59.7541 75.5077H65.1088L65.1088 80.8541H70.4635V86.0762L75.8182 86.0763V75.5077H81.1728ZM81.1728 75.5077L86.4029 75.5077L86.4029 80.8541H81.1728V75.5077ZM17.0413 54.1219V59.4683H22.396V54.1219H17.0413ZM75.8182 11.4746L75.8181 22.1675H65.1088L65.1087 16.8211H70.4634V11.4746L75.8182 11.4746ZM75.8182 11.4746L75.8181 6.12819L81.1728 6.12818V11.4746H75.8182ZM102.467 16.8211H97.1123V22.1675H91.7576V16.8211H86.403V11.4746H97.1123V6.12819H102.467V16.8211ZM102.467 16.8211H107.822V22.1675H102.467V16.8211ZM113.176 6.12819V11.4746H107.822V6.12819H113.176ZM70.4635 32.7361H65.1088V38.0825H70.4635V32.7361ZM65.1088 48.7754H70.4635V43.429H65.1088V48.7754ZM113.176 59.4683L113.176 54.1219H107.822V48.7754H102.467V54.1219H97.1123V59.4683H102.467V64.8148H107.822V59.4683H113.176ZM54.3994 54.1219L49.0448 54.1219L49.0448 48.7754H54.3994V54.1219ZM91.7576 32.736H97.1123V38.0825H91.7576V32.736ZM123.886 128.848H129.24V139.416H123.886V128.848ZM145.18 150.109H150.534V139.416H134.595V155.456H129.24V150.109H123.886L123.886 139.416L118.531 139.416V128.848H107.822V118.155H118.531V123.501H129.24V112.808H118.531V102.116H107.822V107.462H97.1123V112.808H102.467V118.155H97.1123V123.501H102.467V128.848H97.1123V134.194H113.176V139.416H102.467V144.763H113.176L113.176 150.109H102.467V160.802H107.822V155.456H113.176L113.176 166.149H129.24V160.802H139.825V155.456H145.18V150.109ZM145.18 150.109H139.825V144.763H145.18V150.109ZM118.531 155.456L113.176 155.456V150.109L118.531 150.109V155.456ZM118.531 155.456H123.886V160.802H118.531V155.456ZM107.822 107.462H113.176V112.808H107.822V107.462ZM65.1088 96.7691H59.7541V102.116H65.1088V96.7691ZM91.7576 112.808H86.4029V107.462H81.1727V118.155H75.8181V107.462H65.1088V112.808H70.4635V123.501H81.1727V118.155H86.4029V123.501H91.7576V112.808ZM91.7576 155.456H97.1123V160.802H91.7576V155.456ZM38.3354 59.4683H43.6901V54.1219H38.3354V59.4683ZM65.1088 144.763V139.416H70.4635V144.763H65.1088ZM65.1088 139.416H59.7541V134.07H65.1088V139.416ZM123.886 43.429V0.781738H166.598V43.429H123.886ZM128.742 38.5799H161.742V5.63083H128.742V38.5799ZM43.6901 0.781738H0.977295V43.429H43.6901V0.781738ZM38.8335 38.5799H5.70935V5.50651H38.8335V38.5799ZM10.5659 10.3556H34.226V33.9794H10.5659V10.3556ZM0.977295 166.149H43.6901V123.501H0.977295V166.149ZM5.83384 128.35H38.8335V161.299H5.83384V128.35ZM10.5659 133.075H34.1015V156.575H10.5659V133.075ZM157.01 10.3556H133.474V33.8551H157.01V10.3556ZM161.244 48.7755H155.889V54.122H150.534H145.18V48.7755H139.825H134.595V54.122H139.825V59.4684H145.18H150.534H155.889V64.8149H150.534V70.1613H145.18V64.8149H139.825V70.1613V75.5078H134.595V80.8542V86.0763H139.825V91.4228H145.18L145.18 96.7692H139.825V102.116V107.462H145.18H150.534V112.809H145.18V118.155V123.501H150.534L150.534 128.848H145.18V134.194H150.534H155.889H161.244V139.416H166.598V134.194V128.848H161.244H155.889V123.501L150.534 123.501V118.155H155.889V123.501H161.244H166.598V118.155H161.244V112.809H155.889V107.462H161.244V102.116H155.889H150.534H145.18V96.7692L150.534 96.7692L150.534 91.4228H155.889V96.7692H161.244H166.598V91.4228H161.244V86.0763H166.598V80.8542H161.244V75.5078V70.1613H166.598V64.8149H161.244V59.4684H166.598V54.122H161.244V48.7755ZM150.534 86.0763V91.4228H145.18V86.0763H150.534ZM150.534 86.0763V80.8542V75.5078H155.889V80.8542V86.0763H150.534ZM139.825 75.5078H145.18V80.8542H139.825V75.5078ZM134.595 112.809H139.95V118.155H134.595V112.809ZM139.825 123.501V128.848V134.194H134.595V128.848V123.501H139.825ZM155.889 150.109V155.456H161.244V150.109H166.598V155.456V160.802V166.149H161.244V160.802H155.889H150.534V155.456V150.109H155.889ZM150.534 160.802V166.149H145.18H139.825V160.802H145.18L150.534 160.802ZM155.889 144.763V150.109H161.244V144.763V139.416H155.889V144.763ZM11.6866 75.5077V80.8541V86.0763V91.4227H6.33196V96.7692H0.977289V91.4227V86.0763H6.33196V80.8541H0.977289V75.5077H6.33196H11.6866Z" fill="white"/>
</svg>
