<svg width="34" height="17" viewBox="0 0 34 17" fill="none" xmlns="http://www.w3.org/2000/svg">
<rect x="0.424072" y="0.701172" width="32.8643" height="15.3975" rx="3" fill="white"/>
<path d="M6.26001 11.9229H7.51978V4.87695H6.26489L4.42407 6.1709V7.35742L6.177 6.11719H6.26001V11.9229Z" fill="black"/>
<path d="M9.95337 6.96191H11.135C11.135 6.21973 11.6233 5.71191 12.3899 5.71191C13.1272 5.71191 13.5667 6.20508 13.5667 6.84473C13.5667 7.38184 13.3518 7.71875 12.4631 8.61719L10.0217 11.0732V11.9229H14.9143V10.8779H11.7307V10.7949L13.2444 9.30566C14.4553 8.11914 14.8118 7.54785 14.8118 6.72754C14.8118 5.55566 13.8596 4.70117 12.4583 4.70117C10.9885 4.70117 9.95337 5.62891 9.95337 6.96191Z" fill="black"/>
<path d="M18.4417 8.77832H19.3254C20.1946 8.77832 20.7219 9.21289 20.7219 9.9209C20.7219 10.6045 20.1506 11.0635 19.3401 11.0635C18.5247 11.0635 17.9729 10.6436 17.9192 9.98926H16.7131C16.7717 11.2637 17.8215 12.0986 19.3547 12.0986C20.8782 12.0986 22.011 11.2197 22.011 10.0088C22.011 9.04688 21.4104 8.42676 20.4534 8.28027V8.19727C21.2004 7.99707 21.7327 7.43555 21.7375 6.58594C21.7424 5.5752 20.8977 4.70117 19.3987 4.70117C17.8704 4.70117 16.9133 5.56543 16.8499 6.80078H18.0315C18.0852 6.09766 18.5637 5.70703 19.3303 5.70703C20.0774 5.70703 20.5217 6.16602 20.5217 6.74707C20.5217 7.38672 20.0237 7.83594 19.301 7.83594H18.4417V8.77832Z" fill="black"/>
<path d="M27.1301 11.9229H28.3362V10.5703H29.2883V9.53027H28.3362V4.87695H26.5588C25.6018 6.33203 24.6008 7.95312 23.6877 9.54004V10.5703H27.1301V11.9229ZM24.8547 9.48633C25.5432 8.29004 26.3586 6.98633 27.0813 5.88281H27.1497V9.55957H24.8547V9.48633Z" fill="black"/>
</svg>
