<svg width="26" height="26" viewBox="0 0 26 26" fill="none" xmlns="http://www.w3.org/2000/svg">
<g clip-path="url(#clip0_3241_4600)">
<path d="M19.4001 3.554V1.954C19.4001 1.0703 18.6838 0.354004 17.8001 0.354004H8.2001C7.31645 0.354004 6.6001 1.0703 6.6001 1.954V3.554H19.4001Z" fill="white"/>
<path d="M6.6272 5.15381C6.75265 6.97206 7.3286 8.55196 8.57305 9.56531C9.32535 10.1779 9.8002 11.0657 9.8002 12.0359V24.3538C9.8002 25.2375 10.5166 25.9538 11.4002 25.9538H14.6002C15.4839 25.9538 16.2002 25.2375 16.2002 24.3538V11.7411C16.2002 10.7342 16.7185 9.83056 17.5085 9.20626C18.6946 8.26901 19.2475 6.88621 19.3717 5.15381H6.6272V5.15381ZM13.0002 14.7538C12.1166 14.7538 11.4002 14.0375 11.4002 13.1538C11.4002 12.2701 12.1166 11.5538 13.0002 11.5538C13.8839 11.5538 14.6002 12.2701 14.6002 13.1538C14.6002 14.0375 13.8839 14.7538 13.0002 14.7538Z" fill="white"/>
</g>
<defs>
<clipPath id="clip0_3241_4600">
<rect width="25.6" height="25.6" fill="white" transform="translate(0.200195 0.354004)"/>
</clipPath>
</defs>
</svg>
